<svg width="20" height="21" viewBox="0 0 20 21" fill="none" xmlns="http://www.w3.org/2000/svg">
<path d="M18.0469 3.56738H11.7578C11.5421 3.56738 11.3672 3.74227 11.3672 3.95801C11.3672 4.17375 11.5421 4.34863 11.7578 4.34863H18.0469C18.693 4.34863 19.2188 4.87434 19.2188 5.52051V16.458C19.2188 17.1042 18.693 17.6299 18.0469 17.6299H1.95312C1.30695 17.6299 0.78125 17.1042 0.78125 16.458V5.52051C0.78125 4.87434 1.30695 4.34863 1.95312 4.34863H8.24219C8.45793 4.34863 8.63281 4.17375 8.63281 3.95801C8.63281 3.74227 8.45793 3.56738 8.24219 3.56738H1.95312C0.876172 3.56738 0 4.44355 0 5.52051V16.458C0 17.535 0.876172 18.4111 1.95312 18.4111H18.0469C19.1238 18.4111 20 17.535 20 16.458V5.52051C20 4.44355 19.1238 3.56738 18.0469 3.56738Z" fill="#04A5FF"/>
<path d="M1.71875 5.67676V16.3018C1.71875 16.5175 1.89363 16.6924 2.10938 16.6924H17.8906C18.1064 16.6924 18.2812 16.5175 18.2812 16.3018V5.67676C18.2812 5.46102 18.1064 5.28613 17.8906 5.28613H2.10938C1.89363 5.28613 1.71875 5.46102 1.71875 5.67676ZM7.77344 15.9111V6.06738H12.2266V15.9111H7.77344ZM17.5 15.9111H13.0078V6.06738H17.5V15.9111ZM2.5 6.06738H6.99219V15.9111H2.5V6.06738Z" fill="#04A5FF"/>
<path d="M6.12789 8.85875C6.05574 8.74824 5.93273 8.68164 5.80078 8.68164H3.69141C3.47566 8.68164 3.30078 8.85652 3.30078 9.07227C3.30078 9.28801 3.47566 9.46289 3.69141 9.46289H5.20238L3.75766 12.7494C3.67086 12.9469 3.76059 13.1774 3.95805 13.2642C4.00922 13.2867 4.06254 13.2974 4.11504 13.2974C4.26527 13.2974 4.40852 13.2102 4.47285 13.0638L6.15836 9.22949C6.21148 9.10867 6.2 8.96926 6.12789 8.85875Z" fill="#04A5FF"/>
<path d="M14.1992 9.46289H15.7102L14.2655 12.7494C14.1787 12.9469 14.2684 13.1774 14.4659 13.2642C14.517 13.2867 14.5704 13.2974 14.6229 13.2974C14.7731 13.2974 14.9163 13.2102 14.9807 13.0638L16.6662 9.22949C16.7193 9.10871 16.7078 8.96926 16.6357 8.85875C16.5636 8.74824 16.4406 8.68164 16.3086 8.68164H14.1992C13.9835 8.68164 13.8086 8.85652 13.8086 9.07227C13.8086 9.28801 13.9835 9.46289 14.1992 9.46289Z" fill="#04A5FF"/>
<path d="M11.3818 8.85875C11.3097 8.74824 11.1866 8.68164 11.0547 8.68164H8.94531C8.72957 8.68164 8.55469 8.85652 8.55469 9.07227C8.55469 9.28801 8.72957 9.46289 8.94531 9.46289H10.4563L9.01156 12.7494C8.92477 12.9469 9.01449 13.1774 9.21195 13.2642C9.26313 13.2867 9.31645 13.2974 9.36895 13.2974C9.51918 13.2974 9.66242 13.2102 9.72676 13.0638L11.4123 9.22949C11.4654 9.10867 11.4539 8.96926 11.3818 8.85875Z" fill="#04A5FF"/>
<path d="M10 4.34863C10.1027 4.34863 10.2035 4.30684 10.2762 4.23418C10.3488 4.16152 10.3906 4.06074 10.3906 3.95801C10.3906 3.85527 10.3488 3.75449 10.2762 3.68184C10.2035 3.60918 10.1027 3.56738 10 3.56738C9.89727 3.56738 9.79648 3.60918 9.72383 3.68184C9.65117 3.75449 9.60938 3.85527 9.60938 3.95801C9.60938 4.06074 9.65117 4.16152 9.72383 4.23418C9.79648 4.30684 9.89727 4.34863 10 4.34863Z" fill="#04A5FF"/>
</svg>
