<svg width="30" height="30" viewBox="0 0 30 30" fill="none" xmlns="http://www.w3.org/2000/svg">
<g clip-path="url(#clip0)">
<path d="M14.8653 28.7921C14.5417 28.7969 14.2831 29.0631 14.2877 29.3867C14.2922 29.7102 14.5582 29.9686 14.8818 29.9638C15.2053 29.9589 15.464 29.6928 15.4594 29.3692C15.4548 29.0457 15.1888 28.7873 14.8653 28.7921Z" fill="#00C437"/>
<path d="M26.4641 5.35592C23.8808 2.29562 20.2595 0.425487 16.2674 0.0899796C12.2757 -0.245352 8.39061 0.993671 5.32851 3.57924C2.2664 6.16486 0.393505 9.78742 0.0548918 13.7795C-0.283721 17.7719 0.952489 21.6559 3.53589 24.7162C5.74042 27.3277 8.79966 29.1204 12.1501 29.7643C12.4689 29.8253 12.7769 29.6168 12.8382 29.298C12.8994 28.9792 12.6907 28.6711 12.3719 28.6099C9.28475 28.0167 6.46575 26.3646 4.43407 23.958C2.05335 21.1377 0.914052 17.5582 1.22618 13.8789C1.53825 10.1995 3.26448 6.8606 6.08688 4.47742C8.90923 2.0943 12.4894 0.951952 16.1689 1.26139C19.848 1.57058 23.1852 3.294 25.5659 6.11424C27.9467 8.93447 29.0859 12.514 28.7739 16.1933C28.4617 19.8728 26.7355 23.2116 23.9131 25.5947C22.0532 27.1653 19.8112 28.22 17.4296 28.6446C17.1184 28.7002 16.9033 29.003 16.9524 29.3151C17.0028 29.636 17.3164 29.8587 17.636 29.8019C20.2209 29.3409 22.6537 28.1967 24.6714 26.4929C27.7335 23.9073 29.6064 20.2848 29.945 16.2927C30.2837 12.3002 29.0475 8.41615 26.4641 5.35592Z" fill="#00C437"/>
<path d="M24.4024 12.8949C25.6805 11.6169 25.6805 9.53732 24.4024 8.25927C23.1244 6.98134 21.0449 6.98123 19.7667 8.25927L13.0021 15.0239L10.2339 12.2558C8.95596 10.9777 6.87635 10.9777 5.5983 12.2558C4.9792 12.8749 4.63818 13.6981 4.63818 14.5736C4.63818 15.4491 4.9792 16.2723 5.5983 16.8914L10.6017 21.8949C11.248 22.5411 12.1229 22.9118 13.0021 22.9118C13.8942 22.9118 14.7467 22.5506 15.4024 21.8949L24.4024 12.8949ZM13.0022 21.7363C12.4323 21.7363 11.8604 21.4911 11.4329 21.0637L6.42951 16.0603C6.03242 15.6632 5.81369 15.1352 5.81369 14.5736C5.81369 14.0121 6.03242 13.4841 6.42951 13.087C6.83943 12.6772 7.37779 12.4722 7.91615 12.4722C8.45457 12.4722 8.99293 12.6772 9.40279 13.087L12.5865 16.2708C12.816 16.5002 13.1882 16.5002 13.4177 16.2708L20.5979 9.09054C21.4177 8.27076 22.7516 8.27087 23.5712 9.09054C24.391 9.91027 24.391 11.244 23.5712 12.0638L14.5713 21.0636C14.1376 21.4974 13.5804 21.7363 13.0022 21.7363Z" fill="#00C437"/>
</g>
<defs>
<clipPath id="clip0">
<rect width="30" height="30" fill="white"/>
</clipPath>
</defs>
</svg>
