<svg width="20" height="21" viewBox="0 0 20 21" fill="none" xmlns="http://www.w3.org/2000/svg">
<g clip-path="url(#clip0)">
<path d="M8.43543 2.55176C8.21988 2.55176 8.04492 2.72672 8.04492 2.94227C8.04492 3.15781 8.21988 3.33277 8.43543 3.33277C8.65098 3.33277 8.82594 3.15781 8.82594 2.94227C8.82594 2.72668 8.65102 2.55176 8.43543 2.55176Z" fill="#04A5FF"/>
<path d="M5.31092 16.2188C5.09537 16.2188 4.92041 16.3937 4.92041 16.6093C4.92041 16.8248 5.09537 16.9998 5.31092 16.9998C5.52646 16.9998 5.70143 16.8248 5.70143 16.6093C5.70143 16.3937 5.52646 16.2188 5.31092 16.2188Z" fill="#04A5FF"/>
<path d="M8.18675 5.40405L8.03155 5.27303C7.74257 5.02909 7.44378 4.77686 7.12577 4.50155C6.97901 4.37444 6.76112 4.37448 6.6144 4.5017C6.29733 4.77651 5.99901 5.02834 5.71049 5.27186C5.18752 5.71327 4.73592 6.09444 4.34881 6.46409C3.43299 7.33862 2.98779 8.19155 2.98779 9.07155C2.98779 9.67522 3.19522 10.2408 3.5719 10.6641C3.96959 11.111 4.52088 11.3572 5.1242 11.3572C5.32424 11.3572 5.51643 11.3292 5.69948 11.2738C5.701 11.3082 5.70174 11.3426 5.70174 11.3771C5.70174 12.0127 5.45163 12.6068 4.99748 13.0502C4.88385 13.1611 4.8487 13.3298 4.90862 13.4769C4.96854 13.624 5.11147 13.7201 5.2703 13.7201H8.04483C8.04507 13.7201 8.24272 13.7201 8.47464 13.7209C8.47511 13.7209 8.4755 13.7209 8.47597 13.7209C8.63441 13.7209 8.77722 13.6252 8.8373 13.4785C8.89761 13.3314 8.86269 13.1625 8.74909 13.0513C8.29495 12.6069 8.04487 12.0123 8.04487 11.3771C8.04487 11.3431 8.04562 11.3093 8.04702 11.2755C8.22792 11.3298 8.41815 11.3571 8.61659 11.3571C9.21976 11.3571 9.77101 11.111 10.1688 10.6641C10.5455 10.2407 10.753 9.67514 10.753 9.07151C10.753 7.68514 9.59081 6.5903 8.18675 5.40405ZM8.61655 10.5762C8.37034 10.5762 8.15538 10.5111 7.9594 10.3772C7.85425 10.3053 7.72061 10.2892 7.60136 10.3342C7.48214 10.3791 7.39233 10.4794 7.36077 10.6028C7.29647 10.8542 7.26386 11.1147 7.26386 11.3771C7.26386 11.9353 7.40862 12.4699 7.68065 12.9392H6.06588C6.33803 12.4703 6.48288 11.9356 6.48288 11.3771C6.48288 11.1148 6.45014 10.8537 6.38561 10.601C6.35409 10.4777 6.26452 10.3775 6.14553 10.3324C6.02659 10.2873 5.89307 10.3031 5.7878 10.3747C5.58819 10.5103 5.37112 10.5762 5.12432 10.5762C4.35158 10.5762 3.76889 9.9294 3.76889 9.07163C3.76889 8.41643 4.13502 7.74831 4.8883 7.02897C5.25807 6.67588 5.70124 6.30182 6.21436 5.8687C6.42635 5.68971 6.6437 5.50631 6.87038 5.31209C7.09768 5.5067 7.31538 5.69049 7.52788 5.86983L7.68276 6.00061C9.16749 7.25506 9.97206 8.116 9.97206 9.07159C9.97199 9.92936 9.38929 10.5762 8.61655 10.5762Z" fill="#04A5FF"/>
<path d="M11.559 2.55176H9.99696C9.78129 2.55176 9.60645 2.7266 9.60645 2.94227C9.60645 3.15793 9.78129 3.33277 9.99696 3.33277H11.559C11.7747 3.33277 11.9495 3.15793 11.9495 2.94227C11.9495 2.72656 11.7747 2.55176 11.559 2.55176Z" fill="#04A5FF"/>
<path d="M3.74836 16.2188H1.95203C1.73637 16.2188 1.56152 16.3936 1.56152 16.6093C1.56152 16.8249 1.73637 16.9998 1.95203 16.9998H3.74836C3.96402 16.9998 4.13887 16.8249 4.13887 16.6093C4.13887 16.3936 3.96402 16.2188 3.74836 16.2188Z" fill="#04A5FF"/>
<path d="M19.2371 4.5127L13.5114 2.16855V2.16078C13.5114 1.5148 12.9859 0.989258 12.3399 0.989258H1.17152C0.525547 0.989258 0 1.5148 0 2.16078V17.3904C0 18.0364 0.525547 18.562 1.17152 18.562H7.26945L13.3602 20.9158C13.3625 20.9167 13.3649 20.9176 13.3673 20.9185C13.4991 20.9665 13.634 20.9893 13.7668 20.9893C14.2455 20.9892 14.6963 20.6931 14.87 20.2159L19.9293 6.01121C20.1493 5.40699 19.8389 4.73664 19.2371 4.5127ZM1.17152 17.7809C0.956211 17.7809 0.781016 17.6057 0.781016 17.3904V2.16078C0.781016 1.94547 0.956211 1.77027 1.17152 1.77027H12.3399C12.5552 1.77027 12.7304 1.94547 12.7304 2.16078V2.43289C12.7304 2.43402 12.7304 2.43516 12.7304 2.43629V17.3904C12.7304 17.6057 12.5552 17.7809 12.3399 17.7809H1.17152ZM19.1945 5.74656L14.1352 19.9513C14.062 20.1526 13.8391 20.2573 13.6375 20.1857L9.43598 18.5619H12.3399C12.9859 18.5619 13.5114 18.0364 13.5114 17.3904V3.01246L18.9477 5.23809C18.9525 5.24004 18.9572 5.24188 18.962 5.24363C19.1643 5.31734 19.269 5.5418 19.1945 5.74656Z" fill="#04A5FF"/>
</g>
<defs>
<clipPath id="clip0">
<rect width="20" height="20" fill="white" transform="translate(0 0.989258)"/>
</clipPath>
</defs>
</svg>
