<svg width="30" height="30" viewBox="0 0 30 30" fill="none" xmlns="http://www.w3.org/2000/svg">
<g clip-path="url(#clip0)">
<path d="M6.5368 6.52344H3.75316C2.87154 6.52344 2.1543 7.24068 2.1543 8.1223V9.99231C2.1543 10.8739 2.87154 11.5912 3.75316 11.5912H6.5368C7.41842 11.5912 8.13566 10.8739 8.13566 9.99231V8.1223C8.13566 7.24068 7.41842 6.52344 6.5368 6.52344ZM6.9636 9.99231C6.9636 10.2277 6.77209 10.4191 6.5368 10.4191H3.75316C3.51781 10.4191 3.32635 10.2276 3.32635 9.99231V8.1223C3.32635 7.88695 3.51787 7.69549 3.75316 7.69549H6.5368C6.77214 7.69549 6.9636 7.88701 6.9636 8.1223V9.99231Z" fill="#04A5FF"/>
<path d="M13.8432 8.18066H10.7315C9.87148 8.18066 9.17188 8.88026 9.17188 9.74026V11.6888C9.17188 12.5488 9.87148 13.2484 10.7315 13.2484H13.8432C14.7032 13.2484 15.4028 12.5488 15.4028 11.6888V9.74026C15.4028 8.88026 14.7031 8.18066 13.8432 8.18066ZM14.2307 11.6888C14.2307 11.9025 14.0568 12.0763 13.8432 12.0763H10.7315C10.5178 12.0763 10.3439 11.9025 10.3439 11.6888V9.74026C10.3439 9.52659 10.5178 9.35272 10.7315 9.35272H13.8432C14.0568 9.35272 14.2307 9.52659 14.2307 9.74026V11.6888Z" fill="#04A5FF"/>
<path d="M29.9942 18.4102C29.9942 17.6051 29.3392 16.9501 28.5341 16.9501H26.4363C26.4363 15.5513 26.4363 13.7164 26.4363 12.3221C26.4363 11.2853 25.5927 10.4417 24.5558 10.4417H22.3506C22.3506 9.94348 22.3506 5.6779 22.3506 4.85237C22.3506 3.30701 21.0934 2.0498 19.548 2.0498H2.80256C1.25721 2.0498 0 3.30701 0 4.85237V15.3195C0 16.8649 1.25721 18.1221 2.80256 18.1221H9.02536L8.55361 20.6703H7.00614C6.68254 20.6703 6.42011 20.9327 6.42011 21.2563C6.42011 21.5799 6.68254 21.8424 7.00614 21.8424H15.3445C15.6681 21.8424 15.9305 21.5799 15.9305 21.2563C15.9305 20.9327 15.6681 20.6703 15.3445 20.6703H13.797L13.3253 18.1221H16.2993V22.7501C16.2993 23.7869 17.1428 24.6305 18.1796 24.6305H23.2668V26.4903C23.2668 27.2954 23.9218 27.9505 24.7269 27.9505H28.5342C29.3393 27.9505 29.9943 27.2954 29.9943 26.4903C29.9942 23.3454 30.0072 25.3906 29.9942 18.4102ZM24.4388 19.9503H28.8221V20.5283H27.022C26.2108 20.5283 25.5508 21.1884 25.5508 21.9995V22.9248C25.5508 23.7361 26.2109 24.396 27.022 24.396H28.8221V24.9501H24.4388C24.4388 23.8449 24.4388 21.118 24.4388 19.9503ZM28.8221 23.2241H27.022C26.8571 23.2241 26.7229 23.0898 26.7229 22.9249V21.9996C26.7229 21.8346 26.8571 21.7004 27.022 21.7004H28.8221V23.2241ZM28.8221 18.4102V18.7783H24.4388C24.4505 18.4664 24.4083 18.3672 24.4881 18.2493C24.5399 18.1726 24.6276 18.1222 24.7269 18.1222H28.5341C28.6929 18.1222 28.8221 18.2514 28.8221 18.4102ZM24.7268 16.9501C23.9251 16.9501 23.2667 17.6018 23.2667 18.4102V20.9854H17.4713C17.4713 20.2748 17.4713 14.8443 17.4713 14.0868H25.2642V16.95C25.256 16.9501 24.7185 16.9501 24.7268 16.9501ZM25.2642 12.3221V12.9147H17.4713V12.3221C17.4713 11.9315 17.7891 11.6137 18.1796 11.6137H24.5559C24.9464 11.6137 25.2642 11.9315 25.2642 12.3221ZM2.80256 3.22186H19.548C20.3655 3.22186 21.0442 3.82664 21.1607 4.61227H19.6506C19.327 4.61227 19.0645 4.87469 19.0645 5.1983C19.0645 5.5219 19.327 5.78433 19.6506 5.78433H21.1785V10.4417H18.1796C17.1428 10.4417 16.2992 11.2853 16.2992 12.3221V14.3877H1.17206V5.78433H14.9623C15.286 5.78433 15.5484 5.5219 15.5484 5.1983C15.5484 4.87469 15.286 4.61227 14.9623 4.61227H1.18987C1.30637 3.82664 1.98511 3.22186 2.80256 3.22186ZM12.6051 20.6704H9.74559L10.2173 18.1222H12.1333L12.6051 20.6704ZM2.80256 16.9501C1.98511 16.9501 1.30637 16.3453 1.18987 15.5597H16.2993V16.9501C14.7249 16.9501 4.43207 16.9501 2.80256 16.9501ZM18.1796 23.4585C17.7891 23.4585 17.4713 23.1407 17.4713 22.7501V22.1575H23.2668V23.4585H18.1796ZM28.5341 26.7785H24.7269C24.568 26.7785 24.4388 26.6493 24.4388 26.4904V26.1223H28.8221V26.4904C28.8221 26.6493 28.6929 26.7785 28.5341 26.7785Z" fill="#04A5FF"/>
<path d="M17.3074 5.78436C17.631 5.78436 17.8935 5.52194 17.8935 5.19833C17.8935 4.87473 17.631 4.6123 17.3074 4.6123H17.306C16.9824 4.6123 16.7207 4.87473 16.7207 5.19833C16.7207 5.52194 16.9838 5.78436 17.3074 5.78436Z" fill="#04A5FF"/>
<path d="M21.3638 14.7266H19.3858C18.6174 14.7266 17.9922 15.3517 17.9922 16.1201V17.5142C17.9922 18.2826 18.6174 18.9078 19.3858 18.9078H21.3638C22.1322 18.9078 22.7574 18.2826 22.7574 17.5142V16.1201C22.7574 15.3517 22.1322 14.7266 21.3638 14.7266ZM21.5853 17.5142C21.5853 17.6364 21.4859 17.7358 21.3638 17.7358H19.3858C19.2636 17.7358 19.1642 17.6364 19.1642 17.5142V16.1202C19.1642 15.9981 19.2636 15.8987 19.3858 15.8987H21.3638C21.4859 15.8987 21.5853 15.9981 21.5853 16.1202V17.5142Z" fill="#04A5FF"/>
</g>
<defs>
<clipPath id="clip0">
<rect width="30" height="30" fill="white"/>
</clipPath>
</defs>
</svg>
