<svg width="20" height="20" viewBox="0 0 20 20" fill="none" xmlns="http://www.w3.org/2000/svg">
<g clip-path="url(#clip0)">
<path d="M2.18594 18.7891C1.8793 18.7891 1.58359 18.7281 1.30703 18.6074C1.04453 18.4926 0.811329 18.3301 0.613673 18.1242C0.419923 17.9227 0.26797 17.6891 0.16211 17.4309C0.0546885 17.1684 0.000391622 16.893 9.96552e-07 16.6117C-0.000389628 16.2121 0.114063 15.8176 0.331251 15.4699L8.13906 2.24336L8.14453 2.23438C8.34727 1.91094 8.63047 1.64609 8.96367 1.46836C9.27969 1.3 9.63594 1.21094 9.99414 1.21094H10H10.0059C10.3641 1.21094 10.7203 1.3 11.0363 1.46836C11.3695 1.64609 11.6527 1.91094 11.8555 2.23438L11.8609 2.24336L16.8398 10.6777V10.6781C16.893 10.768 16.9078 10.873 16.8816 10.9738C16.8555 11.075 16.7918 11.1598 16.702 11.2129C16.6418 11.2484 16.5734 11.2672 16.5039 11.2672C16.366 11.2672 16.2371 11.1934 16.1672 11.075L11.1922 2.64727C10.9305 2.23281 10.4957 1.99414 10 1.99219C9.50547 1.99414 9.07149 2.23203 8.80938 2.64453L1.00117 15.8719L0.995704 15.8809C0.853907 16.1078 0.781642 16.3535 0.781251 16.6117C0.78086 16.9676 0.925001 17.3215 1.17656 17.5824C1.44531 17.8598 1.7957 18.007 2.18945 18.0078H17.8105C18.2043 18.007 18.5543 17.8598 18.823 17.5824C19.075 17.3215 19.2191 16.9676 19.2188 16.6117C19.2184 16.3539 19.1461 16.1078 19.0039 15.8809L18.9988 15.8719L17.9543 14.1023C17.9012 14.0125 17.8863 13.9074 17.9125 13.8062C17.9383 13.7055 18.0023 13.6203 18.0922 13.5676C18.1523 13.532 18.2207 13.5133 18.2902 13.5133C18.4281 13.5133 18.557 13.5867 18.627 13.7051L19.6695 15.4715C19.8863 15.8184 20.0004 16.2125 20 16.6117C19.9996 16.893 19.9453 17.1684 19.8379 17.4309C19.732 17.6891 19.5801 17.9227 19.3859 18.1242C19.1887 18.3301 18.9555 18.4926 18.693 18.6074C18.4164 18.7277 18.1207 18.7891 17.8141 18.7891H2.18594Z" fill="white"/>
<path d="M17.6172 16.8359H2.38282C2.24255 16.8359 2.11305 16.7607 2.04352 16.6389C1.97403 16.5171 1.97516 16.3673 2.04649 16.2466L9.66368 3.35598C9.73399 3.23703 9.86184 3.16406 10 3.16406C10.1382 3.16406 10.266 3.23703 10.3363 3.35598L17.9535 16.2466C18.0249 16.3673 18.0259 16.5171 17.9565 16.6389C17.887 16.7607 17.7575 16.8359 17.6172 16.8359ZM3.06735 16.0547H16.9326L10 4.32254L3.06735 16.0547Z" fill="white"/>
<path d="M10 15.2344C9.35383 15.2344 8.82812 14.7087 8.82812 14.0625C8.82812 13.4163 9.35383 12.8906 10 12.8906C10.6462 12.8906 11.1719 13.4163 11.1719 14.0625C11.1719 14.7087 10.6462 15.2344 10 15.2344ZM10 13.6719C9.78461 13.6719 9.60938 13.8471 9.60938 14.0625C9.60938 14.2779 9.78461 14.4531 10 14.4531C10.2154 14.4531 10.3906 14.2779 10.3906 14.0625C10.3906 13.8471 10.2154 13.6719 10 13.6719Z" fill="white"/>
<path d="M10 12.1094C9.57191 12.1094 9.40012 11.6126 9.32672 11.4005C9.23531 11.1362 9.1468 10.7764 9.06359 10.3312C8.9177 9.55047 8.82812 8.7248 8.82812 8.47656C8.82812 7.83039 9.35383 7.30469 10 7.30469C10.6462 7.30469 11.1719 7.83039 11.1719 8.47656C11.1719 8.7248 11.0823 9.55047 10.9364 10.3312C10.8532 10.7764 10.7647 11.1362 10.6733 11.4005C10.5999 11.6126 10.4281 12.1094 10 12.1094ZM10 8.08594C9.78461 8.08594 9.60938 8.26117 9.60938 8.47656C9.60938 8.62566 9.67266 9.27199 9.79355 9.97566C9.86922 10.416 9.94016 10.7232 10 10.936C10.0598 10.7231 10.1308 10.416 10.2064 9.97566C10.3273 9.27199 10.3906 8.62566 10.3906 8.47656C10.3906 8.26117 10.2154 8.08594 10 8.08594Z" fill="white"/>
<path d="M17.3965 12.7803C17.6122 12.7803 17.7871 12.6054 17.7871 12.3896C17.7871 12.1739 17.6122 11.999 17.3965 11.999C17.1807 11.999 17.0059 12.1739 17.0059 12.3896C17.0059 12.6054 17.1807 12.7803 17.3965 12.7803Z" fill="white"/>
</g>
<defs>
<clipPath id="clip0">
<rect width="20" height="20" fill="white"/>
</clipPath>
</defs>
</svg>
