<svg width="20" height="20" viewBox="0 0 20 20" fill="none" xmlns="http://www.w3.org/2000/svg">
<path d="M7.28516 11.5923V3.71094C7.28516 3.49523 7.11027 3.32031 6.89453 3.32031H4.26953C2.98582 3.32031 1.94141 4.36469 1.94141 5.64844V6.21094C1.94141 6.42668 2.11629 6.60156 2.33203 6.60156H4.95703C5.55039 6.60156 6.0923 6.37813 6.50391 6.01137V7.39902C5.41684 7.48785 4.40063 7.94582 3.60887 8.71164C2.80988 9.48441 2.31594 10.4954 2.19641 11.5886C0.956563 11.7652 0 12.8332 0 14.1211C0 15.5319 1.14777 16.6797 2.55859 16.6797C3.47141 16.6797 4.27363 16.1988 4.72656 15.4775C5.17953 16.1988 5.98172 16.6797 6.89453 16.6797C8.30535 16.6797 9.45312 15.5319 9.45312 14.1211C9.45312 12.843 8.51121 11.7809 7.28516 11.5923ZM4.95703 5.82031H2.72266V5.64844C2.72266 4.79551 3.41656 4.10156 4.26953 4.10156H6.50391V4.27344C6.50391 5.12637 5.80996 5.82031 4.95703 5.82031ZM6.50391 8.18293V11.5923C5.75559 11.7074 5.11363 12.1483 4.72656 12.7647C4.3452 12.1573 3.71613 11.721 2.98191 11.5982C3.21492 9.77309 4.6732 8.36035 6.50391 8.18293ZM2.55859 15.8984C1.57855 15.8984 0.78125 15.1011 0.78125 14.1211C0.78125 13.1411 1.57855 12.3438 2.55859 12.3438C3.53863 12.3438 4.33594 13.1411 4.33594 14.1211C4.33594 15.1011 3.53863 15.8984 2.55859 15.8984ZM6.89453 15.8984C5.91449 15.8984 5.11719 15.1011 5.11719 14.1211C5.11719 13.1411 5.91449 12.3438 6.89453 12.3438C7.87457 12.3438 8.67188 13.1411 8.67188 14.1211C8.67188 15.1011 7.87457 15.8984 6.89453 15.8984Z" fill="#04A5FF"/>
<path d="M17.832 11.5923V3.71094C17.832 3.49523 17.6571 3.32031 17.4414 3.32031H14.8164C13.5327 3.32031 12.4883 4.36469 12.4883 5.64844V6.21094C12.4883 6.42668 12.6632 6.60156 12.8789 6.60156H15.5039C16.0973 6.60156 16.6392 6.37813 17.0508 6.01137V7.39902C15.9637 7.48785 14.9475 7.94582 14.1557 8.71164C13.3568 9.48441 12.8628 10.4954 12.7432 11.5886C11.5034 11.7652 10.5469 12.8332 10.5469 14.1211C10.5469 14.7575 10.7821 15.3674 11.2091 15.8387C11.3539 15.9986 11.601 16.0107 11.7608 15.8658C11.9207 15.7209 11.9329 15.4739 11.788 15.3141C11.4914 14.9868 11.3281 14.5631 11.3281 14.1211C11.3281 13.1411 12.1254 12.3438 13.1055 12.3438C14.0855 12.3438 14.8828 13.1411 14.8828 14.1211C14.8828 14.5632 14.7195 14.9869 14.4229 15.3141C14.278 15.474 14.2902 15.7211 14.45 15.8659C14.5248 15.9337 14.6186 15.9671 14.7122 15.9671C14.8187 15.9671 14.9246 15.9239 15.0018 15.8388C15.1038 15.7262 15.1946 15.6055 15.2741 15.4786C15.7272 16.1993 16.529 16.6797 17.4414 16.6797C18.8522 16.6797 20 15.5319 20 14.1211C20 12.843 19.0581 11.7809 17.832 11.5923ZM15.5039 5.82031H13.2695V5.64844C13.2695 4.79551 13.9635 4.10156 14.8164 4.10156H17.0508V4.27344C17.0508 5.12637 16.3568 5.82031 15.5039 5.82031ZM13.5288 11.5982C13.7618 9.77312 15.2201 8.36039 17.0508 8.18293V11.5923C16.3025 11.7074 15.6605 12.1482 15.2734 12.7646C14.8921 12.1573 14.263 11.721 13.5288 11.5982ZM17.4414 15.8984C16.4614 15.8984 15.6641 15.1011 15.6641 14.1211C15.6641 13.1411 16.4614 12.3438 17.4414 12.3438C18.4214 12.3438 19.2188 13.1411 19.2188 14.1211C19.2188 15.1011 18.4214 15.8984 17.4414 15.8984Z" fill="#04A5FF"/>
<path d="M13.1055 15.8984C13.0027 15.8984 12.902 15.9402 12.8293 16.0129C12.7566 16.0855 12.7148 16.1863 12.7148 16.2891C12.7148 16.3918 12.7566 16.4926 12.8293 16.5652C12.902 16.6379 13.0027 16.6797 13.1055 16.6797C13.2082 16.6797 13.309 16.6379 13.3816 16.5652C13.4543 16.4926 13.4961 16.3918 13.4961 16.2891C13.4961 16.1863 13.4543 16.0855 13.3816 16.0129C13.309 15.9402 13.2082 15.8984 13.1055 15.8984Z" fill="#04A5FF"/>
</svg>
