<svg width="20" height="20" viewBox="0 0 20 20" fill="none" xmlns="http://www.w3.org/2000/svg">
<path d="M17.071 2.92896C15.1823 1.04016 12.6711 0 10 0C7.32888 0 4.81769 1.04016 2.92896 2.92896C1.04016 4.81769 0 7.32888 0 10C0 12.6711 1.04016 15.1823 2.92896 17.071C4.81769 18.9598 7.32888 20 10 20C12.6711 20 15.1823 18.9598 17.071 17.071C18.9598 15.1823 20 12.6711 20 10C20 7.32888 18.9598 4.81769 17.071 2.92896ZM10 19.2032C4.92534 19.2032 0.796813 15.0747 0.796813 10C0.796813 4.92534 4.92534 0.796813 10 0.796813C15.0747 0.796813 19.2032 4.92534 19.2032 10C19.2032 15.0747 15.0747 19.2032 10 19.2032Z" fill="#FF0000"/>
<path d="M11.7697 9.92016L14.545 7.14498C15.044 6.6459 15.044 5.83391 14.545 5.33486C14.3032 5.09311 13.9817 4.95996 13.6399 4.95996C13.298 4.95996 12.9765 5.09315 12.7348 5.33486L9.95962 8.11004L7.18444 5.3349C6.94269 5.09315 6.62125 4.95996 6.27938 4.95996C5.93751 4.95996 5.61603 5.09311 5.37428 5.33486C4.87527 5.83394 4.87527 6.64594 5.37428 7.14498L8.1495 9.92016L5.37428 12.6953C4.87523 13.1944 4.87523 14.0065 5.37432 14.5055C5.61611 14.7472 5.93751 14.8803 6.27938 14.8803C6.62129 14.8803 6.94273 14.7472 7.18444 14.5055L9.95962 11.7303L12.7348 14.5055C12.9766 14.7472 13.298 14.8803 13.6399 14.8803C13.9817 14.8803 14.3031 14.7472 14.545 14.5055C15.044 14.0064 15.044 13.1944 14.545 12.6953L11.7697 9.92016ZM13.9815 13.942C13.8903 14.0332 13.769 14.0835 13.6399 14.0835C13.5108 14.0835 13.3895 14.0333 13.2983 13.942L10.2413 10.8851C10.1666 10.8104 10.0653 10.7684 9.95962 10.7684C9.85397 10.7684 9.75265 10.8104 9.67791 10.8851L6.62097 13.942C6.52978 14.0333 6.40842 14.0835 6.27938 14.0835C6.1503 14.0835 6.02898 14.0332 5.93775 13.942C5.74934 13.7537 5.74934 13.4472 5.93775 13.2588L8.99468 10.2019C9.06938 10.1271 9.11138 10.0258 9.11138 9.92016C9.11138 9.8145 9.06938 9.71319 8.99468 9.63845L5.93775 6.58151C5.74934 6.39319 5.74934 6.08669 5.93775 5.89833C6.02898 5.80705 6.15034 5.75677 6.27938 5.75677C6.40842 5.75677 6.52974 5.80705 6.62097 5.89833L9.67787 8.95522C9.83353 9.11076 10.0857 9.11076 10.2413 8.95522L13.2983 5.89829C13.3895 5.80705 13.5108 5.75677 13.6399 5.75677C13.7689 5.75677 13.8903 5.80705 13.9815 5.89833C14.1699 6.08665 14.1699 6.39315 13.9815 6.58151L10.9246 9.63845C10.8499 9.71319 10.8079 9.8145 10.8079 9.92016C10.8079 10.0258 10.8499 10.1271 10.9246 10.2019L13.9815 13.2588C14.1699 13.4471 14.1699 13.7536 13.9815 13.942Z" fill="#FF0000"/>
<path d="M6.72973 2.67789C6.62997 2.48171 6.39004 2.40355 6.19403 2.50339C4.83192 3.19617 3.68267 4.24797 2.87044 5.54505C2.03522 6.87884 1.59375 8.41951 1.59375 10.0007C1.59375 10.2207 1.77216 10.3991 1.99216 10.3991C2.21216 10.3991 2.39056 10.2207 2.39056 10.0007C2.39056 7.12087 3.98638 4.5202 6.55522 3.21358C6.75136 3.11382 6.82949 2.87398 6.72973 2.67789Z" fill="#FF0000"/>
<path d="M8.36681 2.55738C8.39362 2.55738 8.42083 2.55463 8.44808 2.54901C8.95533 2.44387 9.47769 2.39056 10.0007 2.39056C10.2207 2.39056 10.3991 2.21216 10.3991 1.99216C10.3991 1.77216 10.2207 1.59375 10.0007 1.59375C9.4235 1.59375 8.84673 1.65263 8.28641 1.76877C8.07091 1.81343 7.93246 2.02427 7.97712 2.23973C8.01613 2.42793 8.18191 2.55738 8.36681 2.55738Z" fill="#FF0000"/>
</svg>
