<svg width="20" height="20" viewBox="0 0 20 20" fill="none" xmlns="http://www.w3.org/2000/svg">
<path d="M10 6.09375C9.78437 6.09375 9.60938 6.26875 9.60938 6.48438C9.60938 6.7 9.78437 6.875 10 6.875C10.2156 6.875 10.3906 6.7 10.3906 6.48438C10.3906 6.26875 10.2156 6.09375 10 6.09375Z" fill="#04A5FF"/>
<path d="M19.9998 6.48114C19.9998 6.47086 19.9992 6.46059 19.9983 6.45036C19.9981 6.44817 19.9981 6.44594 19.9979 6.44376C19.9966 6.43188 19.9948 6.42004 19.9925 6.40833C19.9915 6.40321 19.9901 6.39829 19.9889 6.39325C19.9873 6.38653 19.9857 6.37981 19.9838 6.37317C19.9821 6.36766 19.9802 6.36227 19.9783 6.35684C19.9762 6.35083 19.9741 6.34481 19.9718 6.33887C19.9696 6.33352 19.9673 6.32825 19.9649 6.32301C19.9622 6.31719 19.9595 6.31145 19.9566 6.30571C19.9539 6.30063 19.9513 6.29567 19.9484 6.29075C19.9452 6.28512 19.9418 6.27958 19.9383 6.27411C19.9353 6.26934 19.9322 6.26465 19.9289 6.26004C19.9252 6.25473 19.9213 6.24954 19.9172 6.24438C19.9137 6.23989 19.9102 6.23544 19.9066 6.23114C19.9051 6.22938 19.9038 6.22751 19.9022 6.22579L15.7616 1.53829C15.7606 1.53719 15.7595 1.53625 15.7586 1.5352C15.7521 1.52805 15.7453 1.52129 15.7383 1.51461C15.7357 1.51211 15.7332 1.50946 15.7305 1.50704C15.7223 1.49958 15.7136 1.49258 15.7046 1.48583C15.7029 1.48454 15.7013 1.48305 15.6996 1.4818C15.6889 1.47403 15.6779 1.46668 15.6663 1.45993C15.6661 1.45985 15.666 1.45973 15.6659 1.45965C15.643 1.44633 15.6184 1.43508 15.5923 1.42637C15.5921 1.42629 15.5919 1.42626 15.5917 1.42622C15.5878 1.42493 15.5837 1.42407 15.5798 1.4229C15.5707 1.42016 15.5615 1.41743 15.5523 1.4154C15.5491 1.41469 15.5459 1.41434 15.5427 1.41376C15.5324 1.41176 15.5222 1.40997 15.512 1.40879C15.5088 1.40844 15.5056 1.4084 15.5025 1.40813C15.4921 1.40723 15.4817 1.40653 15.4714 1.40649C15.4705 1.40649 15.4697 1.40637 15.4688 1.40637H4.53125C4.53035 1.40637 4.52945 1.40649 4.52852 1.40653C4.51848 1.40661 4.50836 1.40731 4.49824 1.40817C4.4948 1.40848 4.49137 1.40852 4.48793 1.40887C4.47801 1.41 4.46812 1.41176 4.4582 1.41368C4.45469 1.41434 4.45113 1.41473 4.44766 1.41547C4.43867 1.41747 4.42969 1.42016 4.42074 1.42282C4.41664 1.42403 4.41238 1.42493 4.40832 1.42625C4.40812 1.42633 4.40789 1.42637 4.4077 1.42641C4.38156 1.43512 4.35703 1.44637 4.33418 1.45969C4.33402 1.45977 4.33391 1.45989 4.33375 1.45997C4.32219 1.46672 4.31113 1.47403 4.30047 1.48184C4.29871 1.48313 4.29711 1.48458 4.29539 1.4859C4.28648 1.49266 4.27781 1.49965 4.26957 1.50708C4.26688 1.50954 4.26434 1.51219 4.26172 1.51469C4.25477 1.52133 4.24793 1.52813 4.24152 1.53524C4.24055 1.53633 4.23945 1.53727 4.23848 1.53833L0.0978516 6.22583C0.0963281 6.22754 0.0950391 6.22942 0.0935156 6.23118C0.0898438 6.23547 0.0863281 6.23993 0.0828516 6.24442C0.0788281 6.24958 0.0748828 6.25477 0.0711328 6.26008C0.0678906 6.26469 0.0648047 6.26938 0.0617578 6.27415C0.0582422 6.27965 0.0548437 6.28516 0.0516406 6.29079C0.0488281 6.29571 0.0460937 6.30067 0.0435156 6.30575C0.0405859 6.31145 0.0378125 6.31723 0.0351953 6.32305C0.0328125 6.32829 0.0304688 6.33352 0.0283203 6.33891C0.0259375 6.34485 0.0238281 6.35086 0.0217578 6.35688C0.0198828 6.36231 0.0179687 6.3677 0.0163281 6.37321C0.014375 6.37985 0.0127734 6.38657 0.0111719 6.39329C0.00996094 6.39833 0.00859375 6.40329 0.00757813 6.40836C0.00523438 6.42012 0.00339844 6.43192 0.0021875 6.44379C0.00195312 6.44598 0.00195312 6.44821 0.00179688 6.4504C0.000898438 6.46063 0.0003125 6.4709 0.000234375 6.48118C0.00015625 6.48223 0 6.48325 0 6.48438C0 6.48758 0.000390625 6.49071 0.00046875 6.49387C0.000664063 6.502 0.000976563 6.51008 0.00167969 6.51817C0.00210938 6.52329 0.00273438 6.52833 0.00335938 6.53337C0.00425781 6.54036 0.00527344 6.54731 0.0065625 6.55422C0.00753906 6.55969 0.00859375 6.56512 0.00980469 6.57047C0.01125 6.57684 0.0129297 6.58317 0.0146875 6.5895C0.0162109 6.59501 0.0177344 6.60051 0.0194922 6.6059C0.0214844 6.612 0.0238281 6.61801 0.0261328 6.62407C0.0281641 6.62934 0.0300781 6.63469 0.0323047 6.63985C0.0349609 6.64598 0.0380469 6.65196 0.0410547 6.65797C0.0434375 6.66278 0.045625 6.6677 0.0482031 6.67239C0.0517969 6.67891 0.0558984 6.68524 0.0598828 6.69161C0.0623438 6.69551 0.0645703 6.69958 0.0671484 6.7034C0.0737891 6.71317 0.0808984 6.72274 0.0885156 6.73204L0.0889063 6.73251C0.0890625 6.7327 0.0892188 6.7329 0.089375 6.73309L9.69789 18.4508C9.69871 18.4518 9.69965 18.4526 9.70047 18.4536C9.70883 18.4636 9.7175 18.4732 9.72676 18.4822C9.72781 18.4833 9.72898 18.4842 9.73008 18.4852C9.73832 18.4931 9.74695 18.5006 9.75582 18.5077C9.75859 18.5099 9.76141 18.5121 9.76422 18.5143C9.77344 18.5213 9.78289 18.5279 9.7927 18.534C9.79375 18.5347 9.79477 18.5354 9.79582 18.5361C9.80664 18.5427 9.81785 18.5487 9.82926 18.5542C9.83223 18.5557 9.83523 18.557 9.83824 18.5584C9.84777 18.5627 9.8575 18.5667 9.86738 18.5702C9.86984 18.5711 9.87223 18.5721 9.87469 18.5729C9.8868 18.577 9.89914 18.5806 9.91168 18.5835C9.91414 18.5841 9.91664 18.5845 9.91914 18.585C9.92945 18.5872 9.93988 18.5889 9.95047 18.5902C9.95395 18.5907 9.95738 18.5911 9.96086 18.5915C9.97375 18.5928 9.98676 18.5937 9.99992 18.5937C10.0131 18.5937 10.0261 18.5928 10.039 18.5915C10.0425 18.5911 10.0459 18.5907 10.0494 18.5902C10.0599 18.5889 10.0704 18.5872 10.0807 18.585C10.0832 18.5845 10.0857 18.584 10.0881 18.5835C10.1007 18.5806 10.113 18.577 10.1251 18.5729C10.1276 18.5721 10.13 18.5711 10.1324 18.5702C10.1423 18.5666 10.152 18.5627 10.1616 18.5584C10.1646 18.557 10.1676 18.5557 10.1705 18.5542C10.182 18.5487 10.1932 18.5427 10.204 18.5361C10.205 18.5354 10.2061 18.5347 10.2071 18.534C10.2169 18.5279 10.2263 18.5213 10.2355 18.5143C10.2384 18.5122 10.2412 18.5099 10.244 18.5077C10.2529 18.5006 10.2615 18.4931 10.2697 18.4853C10.2708 18.4842 10.272 18.4833 10.273 18.4822C10.2823 18.4732 10.291 18.4636 10.2993 18.4536C10.3002 18.4526 10.3011 18.4518 10.3019 18.4508L19.9104 6.73309C19.9106 6.7329 19.9107 6.7327 19.9109 6.73251L19.9113 6.73204C19.9189 6.72274 19.9261 6.71317 19.9327 6.7034C19.9352 6.69958 19.9375 6.69551 19.9399 6.69161C19.9439 6.68524 19.948 6.67891 19.9516 6.67239C19.9542 6.6677 19.9564 6.66278 19.9587 6.65797C19.9618 6.65196 19.9648 6.64598 19.9675 6.63985C19.9698 6.63469 19.9716 6.62934 19.9737 6.62407C19.976 6.61805 19.9783 6.61204 19.9803 6.6059C19.9821 6.60051 19.9836 6.59501 19.9851 6.5895C19.9869 6.58317 19.9886 6.57688 19.99 6.57047C19.9912 6.56508 19.9923 6.55969 19.9932 6.55422C19.9945 6.54727 19.9955 6.54036 19.9964 6.53337C19.9971 6.52833 19.9977 6.52325 19.9981 6.51817C19.9988 6.51008 19.9991 6.50196 19.9993 6.49387C19.9996 6.49067 20 6.48755 20 6.48438C20 6.48325 19.9998 6.48223 19.9998 6.48114ZM15.6249 2.56368L18.7431 6.09376H14.4482L15.6249 2.56368ZM14.9268 2.18751L13.7574 5.69563L10.834 2.18751H14.9268ZM9.16602 2.18751L6.24258 5.69563L5.0732 2.18751H9.16602ZM4.37512 2.56368L5.5518 6.09376H1.25687L4.37512 2.56368ZM1.21609 6.87501H5.81219L8.9602 16.3191L1.21609 6.87501ZM10 16.9679L6.6357 6.87501H8.4375C8.65324 6.87501 8.82812 6.70012 8.82812 6.48438C8.82812 6.26864 8.65324 6.09376 8.4375 6.09376H6.92777L10 2.40704L13.0722 6.09376H11.5258C11.31 6.09376 11.1352 6.26864 11.1352 6.48438C11.1352 6.70012 11.31 6.87501 11.5258 6.87501H13.3643L10 16.9679ZM11.0398 16.3191L14.1878 6.87501H18.7839L11.0398 16.3191Z" fill="#04A5FF"/>
</svg>
