<svg width="20" height="20" viewBox="0 0 20 20" fill="none" xmlns="http://www.w3.org/2000/svg">
<g clip-path="url(#clip0)">
<path d="M7.42187 10.1563C7.20625 10.1563 7.03125 10.3313 7.03125 10.5469C7.03125 10.7626 7.20625 10.9376 7.42187 10.9376C7.6375 10.9376 7.8125 10.7626 7.8125 10.5469C7.8125 10.3313 7.6375 10.1563 7.42187 10.1563Z" fill="#04A5FF"/>
<path d="M19.6568 10.819L12.5001 3.66226V1.17288C12.5001 0.52671 11.9744 0.00100708 11.3282 0.00100708H1.17187C0.525702 0.00100708 0 0.52671 0 1.17288V11.3292C0 11.9754 0.525702 12.5011 1.17187 12.5011H3.66124L10.8179 19.6578C11.0393 19.8791 11.3335 20.001 11.6465 20.001C11.9595 20.001 12.2538 19.8791 12.4751 19.6578L16.8947 15.2386L19.6568 12.4761C19.8781 12.2548 20 11.9605 20 11.6476C20 11.3346 19.8781 11.0403 19.6568 10.819ZM3.82288 11.7198H1.17187C0.956483 11.7198 0.781249 11.5446 0.781249 11.3292V1.17288C0.781249 0.957491 0.956483 0.782257 1.17187 0.782257H11.3282C11.5436 0.782257 11.7188 0.957491 11.7188 1.17288V3.82386C11.7188 3.82397 11.7188 3.82413 11.7188 3.82425V11.3292C11.7188 11.5446 11.5436 11.7198 11.3282 11.7198H3.82327C3.82316 11.7198 3.823 11.7198 3.82288 11.7198ZM19.1042 11.9238L18.552 12.4764L11.9226 19.1053C11.8488 19.1791 11.7508 19.2197 11.6465 19.2197C11.5422 19.2197 11.4442 19.1791 11.3704 19.1053L4.76616 12.501H11.3282C11.9744 12.501 12.5001 11.9753 12.5001 11.3292V4.7671L19.1043 11.3714C19.1781 11.4452 19.2187 11.5432 19.2187 11.6475C19.2187 11.7518 19.1781 11.8499 19.1042 11.9238Z" fill="#04A5FF"/>
<path d="M6.25 4.68756C5.38844 4.68756 4.6875 5.3885 4.6875 6.25006C4.6875 7.11162 5.38844 7.81256 6.25 7.81256C7.11156 7.81256 7.8125 7.11162 7.8125 6.25006C7.8125 5.3885 7.11156 4.68756 6.25 4.68756ZM6.25 7.03135C5.81922 7.03135 5.46875 6.68088 5.46875 6.2501C5.46875 5.81932 5.81922 5.46885 6.25 5.46885C6.68078 5.46885 7.03125 5.81932 7.03125 6.2501C7.03125 6.68084 6.68078 7.03135 6.25 7.03135Z" fill="#04A5FF"/>
<path d="M9.375 1.56256C8.51344 1.56256 7.8125 2.2635 7.8125 3.12506C7.8125 3.98662 8.51344 4.68755 9.375 4.68755C10.2366 4.68755 10.9375 3.98662 10.9375 3.12506C10.9375 2.2635 10.2366 1.56256 9.375 1.56256ZM9.375 3.90631C8.94422 3.90631 8.59375 3.55584 8.59375 3.12506C8.59375 2.69428 8.94422 2.34381 9.375 2.34381C9.80578 2.34381 10.1562 2.69428 10.1562 3.12506C10.1563 3.55584 9.80578 3.90631 9.375 3.90631Z" fill="#04A5FF"/>
<path d="M3.125 7.81256C2.26344 7.81256 1.5625 8.51349 1.5625 9.37505C1.5625 10.2366 2.26344 10.9375 3.125 10.9375C3.98656 10.9375 4.68749 10.2366 4.68749 9.37505C4.68749 8.51349 3.9866 7.81256 3.125 7.81256ZM3.125 10.1563C2.69422 10.1563 2.34375 9.80583 2.34375 9.37505C2.34375 8.94427 2.69422 8.59381 3.125 8.59381C3.55578 8.59381 3.90625 8.94427 3.90625 9.37505C3.90625 9.80583 3.55582 10.1563 3.125 10.1563Z" fill="#04A5FF"/>
<path d="M17.1706 10.5418C16.8756 10.2466 16.4833 10.0841 16.0659 10.0841C15.6485 10.0841 15.2561 10.2467 14.9613 10.5417C14.666 10.8367 14.5034 11.2291 14.5034 11.6466C14.5034 12.064 14.666 12.4565 14.9612 12.7517C15.2658 13.0563 15.6658 13.2086 16.0659 13.2086C16.466 13.2086 16.8661 13.0563 17.1706 12.7517C17.4658 12.4565 17.6284 12.064 17.6284 11.6466C17.6284 11.2292 17.4658 10.8368 17.1706 10.5418ZM16.6182 12.1992C16.3136 12.5038 15.8181 12.5038 15.5136 12.1992C15.366 12.0516 15.2847 11.8553 15.2847 11.6466C15.2846 11.4379 15.3659 11.2418 15.5137 11.0942C15.6611 10.9466 15.8572 10.8653 16.0659 10.8653C16.2745 10.8653 16.4706 10.9466 16.6181 11.0942C16.6181 11.0942 16.6182 11.0943 16.6183 11.0944C16.7658 11.2418 16.8471 11.4379 16.8471 11.6466C16.8471 11.8554 16.7658 12.0516 16.6182 12.1992Z" fill="#04A5FF"/>
<path d="M12.7516 14.9613C12.4564 14.6661 12.064 14.5036 11.6466 14.5036C11.2291 14.5036 10.8367 14.6662 10.542 14.9613C10.2466 15.2563 10.084 15.6486 10.084 16.0661C10.084 16.4836 10.2466 16.8759 10.5417 17.1707C10.8367 17.466 11.2291 17.6286 11.6466 17.6286C12.064 17.6286 12.4564 17.466 12.7516 17.1708C13.3608 16.5617 13.3608 15.5705 12.7516 14.9613ZM12.1992 16.6184C12.0516 16.766 11.8553 16.8474 11.6466 16.8474C11.4379 16.8474 11.2418 16.7661 11.0941 16.6183C10.9466 16.4709 10.8653 16.2748 10.8653 16.0661C10.8653 15.8574 10.9466 15.6614 11.0944 15.5137C11.2418 15.3661 11.4379 15.2849 11.6466 15.2849C11.8554 15.2849 12.0516 15.3662 12.1992 15.5138C12.5038 15.8183 12.5038 16.3139 12.1992 16.6184Z" fill="#04A5FF"/>
<path d="M10.5469 10.1563H8.98437C8.76867 10.1563 8.59375 10.3312 8.59375 10.5469C8.59375 10.7627 8.76867 10.9376 8.98437 10.9376H10.5469C10.7626 10.9376 10.9375 10.7627 10.9375 10.5469C10.9375 10.3312 10.7626 10.1563 10.5469 10.1563Z" fill="#04A5FF"/>
</g>
<defs>
<clipPath id="clip0">
<rect width="20" height="20" fill="white"/>
</clipPath>
</defs>
</svg>
