<svg width="30" height="30" viewBox="0 0 30 30" fill="none" xmlns="http://www.w3.org/2000/svg">
<g clip-path="url(#clip0)">
<path d="M29.5862 14.1384L24.468 10.0089C24.1339 9.7166 23.6563 9.64505 23.2452 9.82722C22.8339 10.0096 22.5784 10.3989 22.5784 10.8431V12.6566H7.91058C7.10293 12.6566 6.4458 13.3137 6.4458 14.1214V15.8792C6.4458 16.6869 7.10293 17.3441 7.91058 17.3441H22.5784V19.1574C22.5782 19.5869 22.8236 19.9711 23.2189 20.1601C23.3792 20.2368 23.5495 20.2744 23.7182 20.2744C23.9736 20.2744 24.2253 20.188 24.4335 20.0198L29.5771 15.8699C29.8436 15.6591 29.9978 15.3452 30.0002 15.0079C30.0027 14.6699 29.8519 14.353 29.5862 14.1384ZM23.7503 19.0653V16.7582C23.7503 16.4346 23.4879 16.1723 23.1643 16.1723H7.91058C7.75179 16.1723 7.61767 16.0381 7.61767 15.8793V14.1215C7.61767 13.9627 7.75179 13.8285 7.91058 13.8285H23.1643C23.4879 13.8285 23.7503 13.5662 23.7503 13.2426V10.9355L28.7884 15.0004L23.7503 19.0653Z" fill="#FF0000"/>
<path d="M18.457 19.1017H16.6992C15.8914 19.1017 15.2343 19.7588 15.2343 20.5665V25.3126H4.68748V4.68748H7.32442C7.64798 4.68748 7.91036 4.42516 7.91036 4.10155C7.91036 3.77793 7.64798 3.51561 7.32442 3.51561H4.10155C3.77799 3.51561 3.51561 3.77793 3.51561 4.10155V25.8985C3.51561 26.2221 3.77799 26.4844 4.10155 26.4844H15.8203C16.1438 26.4844 16.4062 26.2221 16.4062 25.8985V20.5664C16.4062 20.4077 16.5404 20.2735 16.6992 20.2735H18.457C18.6158 20.2735 18.75 20.4077 18.75 20.5664V27.0703C18.75 28.0395 17.9614 28.8281 16.9922 28.8281H2.92968C1.96042 28.8281 1.17187 28.0395 1.17187 27.0703V2.92968C1.17187 1.96042 1.96042 1.17187 2.92968 1.17187H16.9922C17.9614 1.17187 18.75 1.96042 18.75 2.92968V9.43356C18.75 9.59235 18.6158 9.72652 18.457 9.72652H16.6992C16.5404 9.72652 16.4062 9.59235 16.4062 9.43356V4.10155C16.4062 3.77793 16.1438 3.51561 15.8203 3.51561H12.5978C12.2743 3.51561 12.0119 3.77793 12.0119 4.10155C12.0119 4.42516 12.2743 4.68748 12.5978 4.68748H15.2343V9.43356C15.2343 10.2413 15.8914 10.8984 16.6992 10.8984H18.457C19.2647 10.8984 19.9219 10.2413 19.9219 9.43356V2.92968C19.9219 1.31425 18.6076 0 16.9922 0H2.92968C1.31425 0 0 1.31425 0 2.92968V27.0703C0 28.6857 1.31425 30 2.92968 30H16.9922C18.6076 30 19.9219 28.6857 19.9219 27.0703V20.5665C19.9219 19.7588 19.2647 19.1017 18.457 19.1017Z" fill="#FF0000"/>
<path d="M9.375 4.10156C9.375 4.42518 9.63738 4.6875 9.96094 4.6875H9.96141C10.285 4.6875 10.5471 4.42518 10.5471 4.10156C10.5471 3.77795 10.2846 3.51562 9.96094 3.51562C9.63732 3.51562 9.375 3.77795 9.375 4.10156Z" fill="#FF0000"/>
</g>
<defs>
<clipPath id="clip0">
<rect width="30" height="30" fill="white"/>
</clipPath>
</defs>
</svg>
