<svg width="30" height="30" viewBox="0 0 30 30" fill="none" xmlns="http://www.w3.org/2000/svg">
<g clip-path="url(#clip0)">
<path d="M27.9363 17.1349C27.926 16.8733 27.7438 16.6503 27.4895 16.5881C27.2355 16.5263 26.9706 16.6403 26.8413 16.8678C26.5161 17.4395 25.1796 17.7561 23.9876 17.86C25.2565 14.5366 24.7594 12.0589 24.0771 10.5231C23.2652 8.69573 22.0311 7.77722 21.9789 7.73899C21.7912 7.60143 21.5399 7.58793 21.3385 7.70489C21.1371 7.82162 21.0242 8.04661 21.0503 8.27778C21.179 9.40938 20.3138 9.97221 19.9357 10.1615C19.0849 10.5879 17.7324 10.636 16.7739 9.73417C15.2154 8.26794 15.3507 5.01757 17.1449 0.81595C17.2298 0.61705 17.1982 0.387708 17.0629 0.219021C16.9277 0.0505628 16.7105 -0.0297753 16.4978 0.0100504C15.0929 0.273724 13.5892 0.811601 12.667 1.38083C12.3917 1.55089 12.3063 1.91184 12.4763 2.18719C12.6462 2.46254 13.0073 2.54814 13.2827 2.37808C13.8554 2.02468 14.7283 1.67289 15.64 1.4154C13.5006 7.07134 14.897 9.57738 15.9707 10.5877C17.3465 11.8818 19.217 11.8323 20.4607 11.2093C21.2561 10.8106 21.8109 10.1995 22.0698 9.47256C22.3751 9.84655 22.7198 10.3547 23.0061 10.999C23.9409 13.1029 23.7898 15.5396 22.5575 18.2413C22.4751 18.4221 22.4898 18.6322 22.5967 18.7998C22.7038 18.9671 22.888 19.0692 23.0869 19.0703C23.1243 19.0706 24.0226 19.0745 25.0299 18.9049C25.7203 18.7888 26.2964 18.6187 26.7557 18.3965C26.4751 23.4663 23.1746 26.0554 21.1309 27.1801C20.2783 27.6493 19.3726 28.0174 18.4399 28.2847C18.6498 28.1257 18.8498 27.9599 19.0396 27.7869C19.9769 26.9332 20.6718 25.9103 21.1046 24.7471C21.2174 24.4438 21.0632 24.1065 20.7599 23.9936C20.4566 23.8808 20.1192 24.035 20.0064 24.3383C19.9142 24.5862 19.808 24.8256 19.6892 25.0568C20.0121 23.5512 19.5997 22.1669 18.4948 21.0522C18.379 20.9355 18.2193 20.8721 18.0549 20.8794C17.8906 20.8861 17.7366 20.9614 17.6306 21.0873C16.8238 22.0447 15.7297 22.312 14.8432 21.7686C14.0215 21.2649 13.369 19.9497 14.2342 17.9007C14.3317 17.6698 14.2715 17.4025 14.0845 17.2356C13.8973 17.0687 13.6249 17.0394 13.4065 17.1624C11.6672 18.1436 10.459 19.3988 9.81465 20.8932C9.25228 22.1978 9.15272 23.6402 9.52648 25.0641C9.71943 25.7984 10.0337 26.5042 10.4457 27.1433C9.91787 26.6848 9.45828 26.1438 9.0916 25.5326C7.89752 23.5425 7.86364 21.18 8.99891 19.0511C9.25091 18.5787 9.56333 18.0513 9.8943 17.4931C11.0197 15.5938 12.2687 13.4856 12.3605 11.6453C12.8716 11.9292 13.534 12.3553 14.1547 12.9303C15.7597 14.4171 16.3527 16.1761 15.9169 18.1582C15.8721 18.3626 15.9396 18.5753 16.0939 18.7165C16.2481 18.8575 16.4658 18.9058 16.6654 18.8428C16.737 18.8204 18.1838 18.3519 19.2831 17.0731C19.8192 18.0928 20.1957 19.2509 20.3621 20.4121C20.4079 20.7325 20.7049 20.9547 21.0252 20.909C21.3454 20.8632 21.5678 20.5661 21.5221 20.2459C21.2893 18.6213 20.6853 16.9992 19.8215 15.6783C19.71 15.5078 19.5184 15.4073 19.3147 15.4132C19.1112 15.419 18.9254 15.5297 18.8235 15.706C18.3882 16.4599 17.7436 16.9701 17.2165 17.2892C17.3246 15.329 16.5441 13.5334 14.9227 12.0443C13.5088 10.7458 11.9591 10.1446 11.8938 10.1196C11.6883 10.0409 11.4557 10.0841 11.2921 10.2315C11.1287 10.3792 11.0616 10.6058 11.1186 10.8184C11.5448 12.4089 10.0705 14.8966 8.88607 16.8955C8.54823 17.4656 8.22917 18.004 7.96481 18.4995C6.6311 21.0005 6.67551 23.7837 8.0868 26.1355C8.43265 26.7121 8.84899 27.2351 9.32049 27.6976C8.78375 27.4488 8.27128 27.1595 7.79086 26.8286C4.56474 24.6073 3.02618 20.8048 3.39445 16.0395C4.31251 16.9133 5.70252 18.0905 6.6826 18.2596C6.86479 18.2908 7.0511 18.2345 7.18523 18.1072C7.31958 17.9799 7.38573 17.7968 7.36399 17.6133C7.35483 17.5364 6.49881 9.87173 10.2832 4.97728C10.4812 4.72116 10.4342 4.35335 10.1781 4.15536C9.92199 3.95738 9.55418 4.00453 9.35619 4.26042C7.21819 7.02579 6.47455 10.5501 6.22735 13.0198C6.07148 14.5783 6.08567 15.9081 6.12618 16.7577C5.24246 16.1974 4.06897 15.099 3.37202 14.3567C3.21753 14.1921 2.98223 14.1308 2.76731 14.1992C2.55216 14.2677 2.3956 14.4533 2.36448 14.6767C1.55835 20.4658 3.24934 25.1243 7.12618 27.7938C9.14264 29.1822 11.6253 29.9439 14.3063 29.997C14.4022 29.9988 14.4978 30 14.594 30C14.6997 30 14.8055 29.9984 14.9112 29.9961C14.9595 29.9977 15.0078 30 15.0559 30C15.0948 30 15.1335 29.9956 15.1714 29.9881C17.4626 29.8981 19.7505 29.2772 21.6958 28.2067C23.6312 27.1415 25.219 25.6418 26.2879 23.87C27.4779 21.8977 28.0324 19.6316 27.9363 17.1349ZM12.7043 19.0442C12.6265 19.6164 12.6464 20.1655 12.7661 20.6739C12.9787 21.5752 13.499 22.3189 14.2312 22.7679C14.8776 23.1641 15.6489 23.3019 16.4031 23.1557C16.9963 23.0408 17.556 22.7588 18.0485 22.3303C18.5782 23.0648 18.7434 23.9032 18.5397 24.83C18.2154 26.3067 16.9128 27.8499 15.3967 28.6239C15.2218 28.6915 15.0428 28.756 14.859 28.8173C14.8453 28.8176 14.8316 28.8178 14.8178 28.818C13.0277 28.675 11.233 26.9476 10.6604 24.7668C10.3763 23.6851 10.0921 21.1598 12.7043 19.0442Z" fill="#04A5FF"/>
<path d="M20.4537 22.0024L20.4535 22.0141C20.4423 22.3375 20.6952 22.6087 21.0186 22.6199C21.0255 22.6201 21.0323 22.6204 21.0394 22.6204C21.3535 22.6204 21.6135 22.3711 21.6245 22.0548L21.6251 22.0367C21.6345 21.7133 21.38 21.4432 21.0566 21.4339C20.732 21.4242 20.4633 21.679 20.4537 22.0024Z" fill="#04A5FF"/>
<path d="M11.5977 3.34082C11.5977 3.66446 11.3354 3.92676 11.0117 3.92676C10.6881 3.92676 10.4258 3.66446 10.4258 3.34082C10.4258 3.01718 10.6881 2.75488 11.0117 2.75488C11.3354 2.75488 11.5977 3.01718 11.5977 3.34082Z" fill="#04A5FF"/>
</g>
<defs>
<clipPath id="clip0">
<rect width="30" height="30" fill="white"/>
</clipPath>
</defs>
</svg>
