<svg width="20" height="20" viewBox="0 0 20 20" fill="none" xmlns="http://www.w3.org/2000/svg">
<g clip-path="url(#clip0)">
<path d="M18.3412 4.43404H15.986C16.4953 3.97124 16.8435 3.33541 16.9302 2.61245C16.9786 2.20993 16.9378 1.8338 16.8124 1.52481C16.3594 0.408478 14.8953 -0.227507 13.4793 0.0765998C13.4678 0.0790412 13.4565 0.0820929 13.4452 0.0854498C12.6083 0.345611 11.7091 1.20468 10.7725 2.6387C10.4536 3.12682 10.1866 3.59603 9.99158 3.95965C9.79658 3.59603 9.52955 3.12682 9.21079 2.6387C8.27421 1.20468 7.37486 0.345611 6.53807 0.0854498C6.52678 0.0820929 6.51549 0.0790412 6.50404 0.0765998C5.78612 -0.0776662 5.03783 0.00274741 4.39696 0.302734C4.20089 0.394592 4.11636 0.628051 4.20821 0.824126C4.30007 1.02035 4.53338 1.10489 4.7296 1.01303C5.20385 0.790862 5.78307 0.727996 6.32155 0.83969C7.45711 1.20819 8.71656 3.21822 9.35789 4.43404H6.03209C5.16326 4.43404 4.37026 3.93264 4.01199 3.15643C3.9212 2.95989 3.68835 2.87399 3.49166 2.96478C3.29498 3.05556 3.20922 3.28857 3.30001 3.48525C3.46862 3.8507 3.70818 4.17128 3.9981 4.43404H1.64215C1.42563 4.43404 1.25 4.60967 1.25 4.82619V8.86167C1.25 9.07834 1.42563 9.25382 1.64215 9.25382H2.07641V19.6078C2.07641 19.8245 2.25204 19.9999 2.46856 19.9999H17.5146C17.7313 19.9999 17.9068 19.8245 17.9068 19.6078V9.25382H18.3412C18.5577 9.25382 18.7333 9.07834 18.7333 8.86167V4.82619C18.7333 4.60967 18.5577 4.43404 18.3412 4.43404ZM13.6616 0.83969C14.6939 0.625457 15.7785 1.06277 16.0856 1.81961C16.1613 2.00607 16.184 2.24792 16.1515 2.51907C16.0205 3.61083 15.0746 4.43404 13.9512 4.43404H10.6253C11.2658 3.21822 12.5247 1.2088 13.6616 0.83969ZM2.0343 8.46952V5.21834H6.80983V8.46952H2.0343ZM11.6173 19.2156H2.86071V9.25382H7.58177V16.4706C7.58177 16.6873 7.75725 16.8627 7.97392 16.8627C8.19044 16.8627 8.36607 16.6873 8.36607 16.4706V9.25382H11.6173V19.2156ZM12.3892 8.46952H7.59413V5.21834H12.3892V8.46952ZM17.1226 19.2156H12.4016V9.25382H17.1225V19.2156H17.1226ZM17.949 8.46952H13.1735V5.21834H17.949V8.46952Z" fill="#04A5FF"/>
<path d="M8.36597 18.0387C8.36597 18.2561 8.18973 18.4323 7.97229 18.4323C7.75485 18.4323 7.57861 18.2561 7.57861 18.0387C7.57861 17.8212 7.75485 17.645 7.97229 17.645C8.18973 17.645 8.36597 17.8212 8.36597 18.0387Z" fill="#04A5FF"/>
<path d="M3.93042 1.78732C3.93042 2.00476 3.75418 2.181 3.53674 2.181C3.31931 2.181 3.14307 2.00476 3.14307 1.78732C3.14307 1.56989 3.31931 1.39365 3.53674 1.39365C3.75418 1.39365 3.93042 1.56989 3.93042 1.78732Z" fill="#04A5FF"/>
</g>
<defs>
<clipPath id="clip0">
<rect width="20" height="20" fill="white"/>
</clipPath>
</defs>
</svg>
