<svg width="20" height="20" viewBox="0 0 20 20" fill="none" xmlns="http://www.w3.org/2000/svg">
<path d="M19.8494 7.98946L10.2401 0.504316C10.0989 0.394395 9.90108 0.394395 9.75995 0.504316L0.150597 7.98946C0.0189955 8.09196 -0.0329575 8.26676 0.021183 8.42454C0.0754016 8.58231 0.223839 8.68825 0.390635 8.68825H2.42286V19.1874C2.42286 19.4031 2.59778 19.5781 2.81348 19.5781H8.31589C8.53159 19.5781 8.70652 19.4031 8.70652 19.1874C8.70652 18.9717 8.53159 18.7968 8.31589 18.7968H3.20414V8.29758C3.20414 8.08188 3.02922 7.90696 2.81352 7.90696H1.52782L10 1.3076L18.4722 7.90696H17.1865C16.9708 7.90696 16.7959 8.08188 16.7959 8.29758V18.7968H11.7529C11.5372 18.7968 11.3623 18.9717 11.3623 19.1874C11.3623 19.4031 11.5372 19.578 11.7529 19.578H17.1865C17.4022 19.578 17.5771 19.4031 17.5771 19.1874V8.68821H19.6093C19.7762 8.68821 19.9246 8.58227 19.9788 8.4245C20.033 8.26672 19.981 8.09196 19.8494 7.98946Z" fill="#04A5FF"/>
<path d="M13.1922 13.7957V8.19238C13.1922 7.97668 13.0173 7.80176 12.8015 7.80176H7.19824C6.98254 7.80176 6.80762 7.97668 6.80762 8.19238V13.7957C6.80762 14.0114 6.98254 14.1863 7.19824 14.1863H12.8015C13.0173 14.1863 13.1922 14.0114 13.1922 13.7957ZM12.4109 10.6229H10.371V8.58297H12.4109V10.6229ZM9.62882 8.58301V10.623H7.58887V8.58301H9.62882ZM7.58887 11.3651H9.62882V13.4051H7.58887V11.3651ZM10.371 13.4051V11.3651H12.411V13.4051H10.371Z" fill="#04A5FF"/>
<path d="M10.3995 19.0381C10.3188 18.841 10.086 18.7457 9.88972 18.8268C9.69284 18.9081 9.59714 19.1398 9.67839 19.3365C9.75964 19.5332 9.99163 19.6296 10.1882 19.5479C10.3844 19.4663 10.4815 19.2349 10.3995 19.0381Z" fill="#04A5FF"/>
</svg>
