<svg width="20" height="20" viewBox="0 0 20 20" fill="none" xmlns="http://www.w3.org/2000/svg">
<path d="M14.1406 0H5.85938C2.62852 0 0 2.62852 0 5.85938V14.1406C0 17.3715 2.62852 20 5.85938 20H14.1406C17.3715 20 20 17.3715 20 14.1406V5.85938C20 2.62852 17.3715 0 14.1406 0ZM19.2188 14.1406C19.2188 16.9407 16.9407 19.2188 14.1406 19.2188H5.85938C3.0593 19.2188 0.78125 16.9407 0.78125 14.1406V5.85938C0.78125 3.0593 3.0593 0.78125 5.85938 0.78125H14.1406C16.9407 0.78125 19.2188 3.0593 19.2188 5.85938V14.1406Z" fill="white"/>
<path d="M14.1406 1.71875H5.85938C3.57621 1.71875 1.71875 3.5762 1.71875 5.85936V14.1406C1.71875 16.4237 3.57621 18.2812 5.85938 18.2812H8.24219C8.45793 18.2812 8.63281 18.1063 8.63281 17.8906C8.63281 17.6748 8.45793 17.4999 8.24219 17.4999H5.85938C4.00703 17.4999 2.5 15.9929 2.5 14.1406V5.85936C2.5 4.00702 4.00703 2.5 5.85938 2.5H14.1406C15.993 2.5 17.5 4.00702 17.5 5.85936V14.1406C17.5 15.9929 15.993 17.4999 14.1406 17.4999H11.7839C11.5681 17.4999 11.3932 17.6748 11.3932 17.8906C11.3932 18.1063 11.5681 18.2812 11.7839 18.2812H14.1406C16.4238 18.2812 18.2812 16.4237 18.2812 14.1406V5.85936C18.2812 3.5762 16.4238 1.71875 14.1406 1.71875Z" fill="white"/>
<path d="M10.2762 17.6146C10.2035 17.5419 10.1027 17.5001 10 17.5001C9.89727 17.5001 9.79648 17.5419 9.72383 17.6146C9.65117 17.6872 9.60938 17.788 9.60938 17.8907C9.60938 17.9935 9.65117 18.0943 9.72383 18.1669C9.79648 18.2396 9.89727 18.2814 10 18.2814C10.1027 18.2814 10.2035 18.2396 10.2762 18.1669C10.3488 18.0943 10.3906 17.9935 10.3906 17.8907C10.3906 17.788 10.3488 17.6872 10.2762 17.6146Z" fill="white"/>
<path d="M6.86778 6.08266C6.72024 5.92523 6.47309 5.91718 6.31563 6.06465L6.29833 6.08094C6.14142 6.229 6.13423 6.47624 6.28231 6.63316C6.35915 6.71461 6.4627 6.75571 6.56649 6.75571C6.66266 6.75571 6.75903 6.7204 6.8345 6.64918L6.84977 6.63484C7.00719 6.48733 7.01528 6.24009 6.86778 6.08266Z" fill="white"/>
<path d="M10 4.6095C9.14203 4.6095 8.28813 4.81618 7.53059 5.20719C7.33891 5.30614 7.26371 5.54176 7.36266 5.73348C7.46164 5.92516 7.69727 6.00032 7.88895 5.90141C8.54539 5.56254 9.25566 5.39075 10 5.39075C12.5416 5.39075 14.6094 7.45852 14.6094 10.0001C14.6094 12.5417 12.5416 14.6095 10 14.6095C7.4584 14.6095 5.39062 12.5417 5.39062 10.0001C5.39062 9.2025 5.59746 8.41664 5.98879 7.72754C6.09531 7.53996 6.02961 7.30152 5.84199 7.19496C5.65437 7.08848 5.41598 7.15414 5.30941 7.34176C4.85145 8.14824 4.60938 9.0675 4.60938 10.0001C4.60938 12.9725 7.02762 15.3907 10 15.3907C12.9724 15.3907 15.3906 12.9725 15.3906 10.0001C15.3906 7.02774 12.9724 4.6095 10 4.6095Z" fill="white"/>
<path d="M10 6.4845C8.06148 6.4845 6.48438 8.06161 6.48438 10.0001C6.48438 11.9387 8.06148 13.5158 10 13.5158C11.9385 13.5158 13.5156 11.9387 13.5156 10.0001C13.5156 8.06161 11.9385 6.4845 10 6.4845ZM10 12.7345C8.49227 12.7345 7.26562 11.5079 7.26562 10.0001C7.26562 8.4924 8.49227 7.26575 10 7.26575C11.5077 7.26575 12.7344 8.4924 12.7344 10.0001C12.7344 11.5079 11.5077 12.7345 10 12.7345Z" fill="white"/>
<path d="M15.127 3.38879C14.3085 3.38879 13.6426 4.0547 13.6426 4.87318C13.6426 5.69166 14.3085 6.35757 15.127 6.35757C15.9454 6.35757 16.6113 5.69166 16.6113 4.87318C16.6113 4.0547 15.9454 3.38879 15.127 3.38879ZM15.127 5.57631C14.7393 5.57631 14.4238 5.26088 14.4238 4.87318C14.4238 4.48548 14.7393 4.17005 15.127 4.17005C15.5146 4.17005 15.8301 4.48548 15.8301 4.87318C15.8301 5.26088 15.5146 5.57631 15.127 5.57631Z" fill="white"/>
</svg>
