<svg width="20" height="20" viewBox="0 0 20 20" fill="none" xmlns="http://www.w3.org/2000/svg">
<path d="M13.5156 0C13.2999 0 13.125 0.174922 13.125 0.390625V2.1875C13.125 2.4032 13.2999 2.57812 13.5156 2.57812C13.7313 2.57812 13.9062 2.4032 13.9062 2.1875V0.390625C13.9062 0.174922 13.7313 0 13.5156 0Z" fill="white"/>
<path d="M4.53125 12.1875C4.31562 12.1875 4.14062 12.3625 4.14062 12.5781C4.14062 12.7937 4.31562 12.9688 4.53125 12.9688C4.74687 12.9688 4.92188 12.7937 4.92188 12.5781C4.92188 12.3625 4.74687 12.1875 4.53125 12.1875Z" fill="white"/>
<path d="M18.9844 11.4062C18.9844 10.5447 18.2834 9.84375 17.4219 9.84375H14.5058C14.9572 8.68738 15.14 7.32629 15.1047 6.11469C15.098 5.88348 15.0891 5.74977 15.0771 5.66559C15.057 4.82156 14.3639 4.14062 13.5156 4.14062C12.6541 4.14062 11.9531 4.84156 11.9531 5.70312V6.09375C11.9531 8.5643 8.7807 9.95238 6.38656 10.5476C6.20555 10.1338 5.79234 9.84375 5.3125 9.84375H1.40625C1.19055 9.84375 1.01562 10.0187 1.01562 10.2344V19.6094C1.01562 19.8251 1.19055 20 1.40625 20H5.3125C5.78914 20 6.19996 19.7138 6.38285 19.3043C6.58109 19.3552 6.76512 19.4032 6.935 19.4476C8.29887 19.8038 9.05016 20 10.8773 20H15.0781C15.9397 20 16.6406 19.2991 16.6406 18.4375C16.6406 18.1163 16.5431 17.8174 16.3762 17.5688C16.9796 17.3578 17.4219 16.7812 17.4219 16.0938C17.4219 15.7737 17.3267 15.4739 17.1603 15.2241C17.7611 15.0127 18.2031 14.4375 18.2031 13.75C18.2031 13.4288 18.1056 13.1299 17.9387 12.8813C18.5421 12.6703 18.9844 12.0937 18.9844 11.4062ZM5.70312 18.8281C5.70312 19.0435 5.52789 19.2188 5.3125 19.2188H1.79688V10.625H5.3125C5.52789 10.625 5.70312 10.8002 5.70312 11.0156V18.8281ZM17.4219 12.1875C16.584 12.1875 16.3843 12.1875 15.4688 12.1875C15.253 12.1875 15.0781 12.3624 15.0781 12.5781C15.0781 12.7938 15.253 12.9688 15.4688 12.9688H16.6406C17.0714 12.9688 17.4219 13.3192 17.4219 13.75C17.4219 14.1815 17.0721 14.5312 16.6406 14.5312H14.6875C14.4718 14.5312 14.2969 14.7062 14.2969 14.9219C14.2969 15.1376 14.4718 15.3125 14.6875 15.3125H15.8594C16.285 15.3125 16.6406 15.6525 16.6406 16.0938C16.6406 16.5252 16.2909 16.875 15.8594 16.875C15.0215 16.875 14.8218 16.875 13.9062 16.875C13.6905 16.875 13.5156 17.0499 13.5156 17.2656C13.5156 17.4813 13.6905 17.6562 13.9062 17.6562H15.0781C15.5089 17.6562 15.8594 18.0067 15.8594 18.4375C15.8594 18.8683 15.5089 19.2188 15.0781 19.2188H10.8773C9.15051 19.2188 8.47605 19.0426 7.13242 18.6917C6.93559 18.6403 6.71969 18.5839 6.48438 18.5239V11.3291C9.31125 10.6557 12.7344 9.01215 12.7344 6.09375V5.70312C12.7344 5.27234 13.0848 4.92188 13.5156 4.92188C13.9456 4.92188 14.2961 5.2718 14.2969 5.70191V5.70312C14.2969 5.87289 14.5088 7.95637 13.6591 9.84375H12.3438C12.128 9.84375 11.9531 10.0187 11.9531 10.2344C11.9531 10.4501 12.128 10.625 12.3438 10.625C12.6165 10.625 16.9766 10.625 17.4219 10.625C17.8527 10.625 18.2031 10.9755 18.2031 11.4062C18.2031 11.8377 17.8534 12.1875 17.4219 12.1875Z" fill="white"/>
<path d="M4.53125 13.75C4.31555 13.75 4.14062 13.9249 4.14062 14.1406V17.2656C4.14062 17.4813 4.31555 17.6562 4.53125 17.6562C4.74695 17.6562 4.92188 17.4813 4.92188 17.2656V14.1406C4.92188 13.9249 4.74695 13.75 4.53125 13.75Z" fill="white"/>
<path d="M10.3906 4.92188H8.82812C8.61242 4.92188 8.4375 5.0968 8.4375 5.3125C8.4375 5.5282 8.61242 5.70312 8.82812 5.70312H10.3906C10.6063 5.70312 10.7812 5.5282 10.7812 5.3125C10.7812 5.0968 10.6063 4.92188 10.3906 4.92188Z" fill="white"/>
<path d="M18.2031 4.92188H16.6406C16.4249 4.92188 16.25 5.0968 16.25 5.3125C16.25 5.5282 16.4249 5.70312 16.6406 5.70312H18.2031C18.4188 5.70312 18.5938 5.5282 18.5938 5.3125C18.5938 5.0968 18.4188 4.92188 18.2031 4.92188Z" fill="white"/>
<path d="M17.1055 1.7218C16.9529 1.5693 16.7057 1.5693 16.553 1.7218L15.4484 2.82644C15.2958 2.97898 15.2958 3.22633 15.4484 3.3789C15.601 3.53144 15.8482 3.5314 16.0009 3.3789L17.1055 2.27426C17.2581 2.12172 17.2581 1.87437 17.1055 1.7218Z" fill="white"/>
<path d="M11.5821 2.82644L10.4774 1.7218C10.3248 1.5693 10.0776 1.5693 9.92495 1.7218C9.77241 1.87434 9.77241 2.12168 9.92495 2.27426L11.0296 3.3789C11.1823 3.53144 11.4295 3.5314 11.5821 3.3789C11.7346 3.22636 11.7346 2.97902 11.5821 2.82644Z" fill="white"/>
</svg>
