<svg width="20" height="20" viewBox="0 0 20 20" fill="none" xmlns="http://www.w3.org/2000/svg">
<g clip-path="url(#clip0)">
<path d="M15.7812 11.9531H4.21875C4.00299 11.9531 3.82812 11.7783 3.82812 11.5625V8.4375C3.82812 8.22189 4.00299 8.04688 4.21875 8.04688H15.7812C15.997 8.04688 16.1719 8.22189 16.1719 8.4375V11.5625C16.1719 11.7783 15.997 11.9531 15.7812 11.9531ZM4.60938 11.1719H15.3906V8.82812H4.60938V11.1719Z" fill="#FF0000"/>
<path d="M9.99756 20C9.74258 20 9.487 19.9902 9.23111 19.9707C6.85471 19.7885 4.61655 18.7587 2.92892 17.0711C1.04019 15.1823 0 12.6712 0 10C0 7.32895 1.04019 4.81766 2.92892 2.92892C4.81766 1.04019 7.32895 0 10 0C12.6712 0 15.1823 1.04019 17.0712 2.92892C18.7587 4.61655 19.7885 6.85471 19.9707 9.23111C20.1509 11.5817 19.4963 13.9249 18.1276 15.8287C18.0017 16.0039 17.7576 16.0439 17.5824 15.9178C17.4072 15.7919 17.3672 15.5478 17.4933 15.3726C20.1389 11.6927 19.729 6.69159 16.5187 3.48129C14.7775 1.74011 12.4625 0.78125 10 0.78125C7.53754 0.78125 5.22263 1.74011 3.48145 3.48145C-0.113068 7.07581 -0.113068 12.9243 3.48145 16.5187C6.69159 19.729 11.6927 20.1389 15.3726 17.4933C15.5478 17.3672 15.7919 17.4072 15.9178 17.5824C16.0439 17.7576 16.0039 18.0016 15.8287 18.1276C14.1319 19.3474 12.0863 20 9.99756 20Z" fill="#FF0000"/>
<path d="M16.7949 17.1855C16.6918 17.1855 16.5914 17.1437 16.5187 17.0711C16.4461 16.9985 16.4043 16.8976 16.4043 16.7949C16.4043 16.6921 16.446 16.5914 16.5187 16.5187C16.5914 16.4461 16.6921 16.4043 16.7949 16.4043C16.8976 16.4043 16.9983 16.4461 17.071 16.5187C17.1436 16.5914 17.1855 16.6921 17.1855 16.7949C17.1855 16.8976 17.1437 16.9985 17.071 17.0711C16.9983 17.1437 16.8976 17.1855 16.7949 17.1855Z" fill="#FF0000"/>
</g>
<defs>
<clipPath id="clip0">
<rect width="20" height="20" fill="white"/>
</clipPath>
</defs>
</svg>
