<svg width="20" height="20" viewBox="0 0 20 20" fill="none" xmlns="http://www.w3.org/2000/svg">
<path d="M15.8644 2.07871C15.8644 2.07871 15.8644 2.07871 15.8643 2.07871C14.468 0.738242 12.5408 0 10.4379 0C7.246 0 5.27479 1.31637 4.18326 2.42074C2.8308 3.78906 2.05518 5.60984 2.05518 7.41625C2.05518 9.72141 3.04182 11.4999 4.69373 12.1733C4.84221 12.2341 4.99424 12.265 5.14561 12.265C5.47303 12.265 5.76139 12.1231 5.95811 11.8821C5.6451 13.2082 5.31268 14.6159 5.21154 15.0421C5.16295 15.249 4.95674 16.3196 4.91166 17.4044C4.84768 18.9453 5.14451 19.7825 5.81916 19.9638C5.90908 19.9879 5.99869 20 6.08799 20C6.71994 20 7.33471 19.3954 7.919 18.1972C8.34654 17.3204 8.66068 16.3284 8.74568 16.0198C8.81365 15.7724 9.00814 15.0128 9.19908 14.2616C9.84303 14.68 10.6545 14.9265 11.4412 14.9265C13.319 14.9265 15.0066 14.0833 16.1927 12.5522C17.3221 11.0943 17.9441 9.07262 17.9441 6.85957C17.9442 5.09039 17.1861 3.34777 15.8644 2.07871ZM5.564 7.68262C5.564 5.53363 7.16846 3.24961 10.142 3.24961C12.4961 3.24961 13.9015 4.52281 13.9015 6.65543C13.9015 8.06773 13.6013 9.36871 13.0561 10.3186C12.7059 10.9287 12.1004 11.656 11.2045 11.656C10.8572 11.656 10.5487 11.5181 10.3585 11.2777C10.1814 11.0538 10.1267 10.7707 10.2004 10.4589C10.3121 9.98633 10.4657 9.48906 10.6153 9.00516C10.8992 8.08547 11.1674 7.21676 11.1674 6.48574C11.1674 5.12023 10.2809 4.1666 9.01166 4.1666C7.45244 4.1666 6.23104 5.69832 6.23107 7.65355C6.23107 8.45777 6.42049 9.09105 6.54092 9.41234L6.47541 9.68981C6.46049 9.75305 6.44436 9.82148 6.42709 9.89453C6.37318 9.68898 6.25807 9.5132 6.10443 9.33223C5.73072 8.88988 5.564 8.38113 5.564 7.68262ZM15.5629 12.0644C14.531 13.3963 13.0672 14.1298 11.4412 14.1298C10.6375 14.1298 9.77354 13.7977 9.23982 13.2836C9.1376 13.1852 8.99064 13.1486 8.85412 13.1875C8.7176 13.2264 8.61213 13.3351 8.57729 13.4727C8.2517 14.7576 8.04424 15.5654 7.97744 15.8085C7.97463 15.8189 7.67838 16.8729 7.20287 17.848C6.67381 18.9329 6.2383 19.2513 6.02592 19.1943C5.89213 19.1583 5.65346 18.7449 5.70772 17.4374C5.74713 16.4883 5.92635 15.4832 5.98693 15.2252C6.15385 14.522 6.95092 11.1444 7.25092 9.87289L7.3451 9.47379C7.36443 9.39188 7.35732 9.30598 7.32482 9.2284C7.23557 9.01516 7.02783 8.43484 7.02783 7.65363C7.02783 6.14512 7.89924 4.9634 9.0117 4.9634C9.83725 4.9634 10.3706 5.56098 10.3706 6.48582C10.3706 7.09668 10.1197 7.90957 9.85314 8.77301C9.7006 9.26656 9.54283 9.77695 9.42498 10.2758C9.29521 10.825 9.40482 11.3564 9.73369 11.7721C10.0761 12.2048 10.6122 12.4529 11.2045 12.4529C12.2155 12.4529 13.0947 11.8521 13.7472 10.7153C14.3606 9.6466 14.6983 8.2048 14.6983 6.65551C14.6983 5.38941 14.2672 4.3257 13.4517 3.57953C12.6461 2.8425 11.5017 2.45289 10.142 2.45289C8.10545 2.45289 6.84611 3.35906 6.14822 4.11926C5.27061 5.07527 4.76729 6.37406 4.76729 7.6827C4.76729 8.5707 4.99885 9.25832 5.49658 9.84723C5.67107 10.0528 5.69943 10.1146 5.6326 10.3611C5.63193 10.3636 5.63127 10.3662 5.63064 10.3687L5.62178 10.4041C5.56947 10.6134 5.46061 11.0491 5.41314 11.2276C5.38963 11.3175 5.32365 11.4682 5.14576 11.4682C5.0985 11.4682 5.04811 11.4574 4.99533 11.4357C3.65318 10.8887 2.85197 9.38601 2.85197 7.41621C2.85197 5.81781 3.54381 4.20117 4.74998 2.98082C5.73475 1.98445 7.521 0.796758 10.4379 0.796758C12.3341 0.796758 14.0653 1.45617 15.3125 2.65348C16.4786 3.77309 17.1474 5.30621 17.1474 6.85969C17.1474 8.89703 16.5846 10.7454 15.5629 12.0644Z" fill="white"/>
<path d="M9.31592 8.0958C9.10487 8.03342 8.88331 8.15389 8.82092 8.36482L8.38268 9.84644C8.32026 10.0575 8.44073 10.2791 8.6517 10.3415C8.6894 10.3526 8.72749 10.3579 8.76483 10.3579C8.93678 10.3579 9.09541 10.2457 9.14666 10.0725L9.5849 8.59084C9.64737 8.37982 9.5269 8.15818 9.31592 8.0958Z" fill="white"/>
<path d="M9.71493 6.74936C9.50395 6.68698 9.2823 6.80745 9.21988 7.01839L9.16097 7.21757C9.09863 7.42854 9.21906 7.65018 9.43004 7.71257C9.46773 7.72374 9.50582 7.72901 9.54316 7.72901C9.71512 7.72901 9.8738 7.61679 9.92505 7.44354L9.98395 7.24436C10.0463 7.03335 9.92591 6.81175 9.71493 6.74936Z" fill="white"/>
</svg>
