<svg width="20" height="21" viewBox="0 0 20 21" fill="none" xmlns="http://www.w3.org/2000/svg">
<g clip-path="url(#clip0)">
<path d="M3.64436 4.99328C3.54921 4.86297 3.38366 4.80458 3.22781 4.84633C3.07195 4.88809 2.95777 5.02141 2.94055 5.18187L2.68977 7.51367C2.66672 7.72816 2.82188 7.92074 3.0364 7.94382C3.05058 7.94535 3.06468 7.94609 3.07863 7.94609C3.27562 7.94609 3.44499 7.7975 3.46655 7.59719L3.60928 6.2699L4.39649 7.34801C4.52372 7.52223 4.76813 7.56035 4.94234 7.43313C5.11656 7.3059 5.15468 7.06153 5.02746 6.88728L3.64436 4.99328Z" fill="#04A5FF"/>
<path d="M18.8281 3.95828H12.2242L11.6615 1.85832C11.5805 1.55598 11.3866 1.30329 11.1155 1.14676C10.8445 0.990243 10.5287 0.948681 10.2263 1.0297L0.869049 3.53696C0.56671 3.61798 0.314019 3.81188 0.157498 4.08297C0.00101572 4.35402 -0.0405852 4.66983 0.0404292 4.97221L3.84178 19.159C3.92279 19.4614 4.11669 19.7141 4.38778 19.8706C4.56837 19.9748 4.76871 20.0281 4.9718 20.0281C5.07355 20.0281 5.17605 20.0147 5.27699 19.9876L7.96894 19.2664V19.8174C7.96894 20.4636 8.49463 20.9893 9.14079 20.9893H18.8281C19.4743 20.9893 20 20.4636 20 19.8174V14.2316C20 14.0158 19.8251 13.8409 19.6094 13.8409C19.3936 13.8409 19.2188 14.0158 19.2188 14.2316V19.8174C19.2188 20.0328 19.0435 20.208 18.8281 20.208H9.14079C8.92541 20.208 8.75018 20.0328 8.75018 19.8174V5.13014C8.75018 4.91475 8.92541 4.73952 9.14079 4.73952H18.8281C19.0435 4.73952 19.2188 4.91475 19.2188 5.13014V10.716C19.2188 10.9317 19.3936 11.1066 19.6094 11.1066C19.8251 11.1066 20 10.9317 20 10.716V5.13014C20 4.48398 19.4743 3.95828 18.8281 3.95828ZM7.96894 12.0852C7.58844 12.4669 6.98138 12.554 6.50607 12.2796C5.92815 11.9459 5.72944 11.2043 6.06311 10.6263L7.3352 8.42302L7.96894 8.78891V12.0852ZM7.96894 5.13014V7.88678L7.38754 7.55112C7.20067 7.44319 6.96181 7.50725 6.85396 7.69408L5.38656 10.2357C5.12058 10.6963 5.04992 11.2331 5.18761 11.7469C5.32527 12.2607 5.65483 12.6901 6.11549 12.9561C6.43092 13.1382 6.77536 13.2261 7.11567 13.2261C7.41047 13.2261 7.70207 13.1599 7.96894 13.032V18.4575L5.0748 19.233C4.97402 19.26 4.86875 19.2462 4.7784 19.194C4.68805 19.1419 4.6234 19.0576 4.59641 18.9568L0.795066 4.76999C0.739324 4.56195 0.863229 4.34734 1.07127 4.29156L10.4285 1.78429C10.5293 1.7573 10.6346 1.77117 10.7249 1.82332C10.8153 1.87546 10.8799 1.95972 10.9069 2.0605L11.4154 3.95824H9.14079C8.49463 3.95828 7.96894 4.48398 7.96894 5.13014Z" fill="#04A5FF"/>
<path d="M12.0672 8.77543C12.2685 8.69762 12.3685 8.47145 12.2907 8.27024L11.445 6.08277C11.3868 5.93222 11.242 5.83301 11.0807 5.83301C10.9193 5.83301 10.7745 5.93222 10.7163 6.08277L9.87063 8.27024C9.79282 8.47145 9.8929 8.69762 10.0941 8.77543C10.1404 8.79336 10.188 8.80184 10.2349 8.80184C10.3916 8.80184 10.5394 8.70688 10.5993 8.55196L11.0807 7.30686L11.5621 8.55196C11.6398 8.75316 11.8661 8.85332 12.0672 8.77543Z" fill="#04A5FF"/>
<path d="M16.524 18.8646C16.5822 19.0151 16.7269 19.1143 16.8883 19.1143C17.0497 19.1143 17.1944 19.0151 17.2526 18.8646L18.0983 16.6771C18.1761 16.4759 18.0761 16.2497 17.8749 16.1719C17.6737 16.0942 17.4475 16.1942 17.3697 16.3954L16.8883 17.6405L16.4069 16.3954C16.3291 16.1942 16.1029 16.094 15.9017 16.1719C15.7005 16.2497 15.6004 16.4759 15.6782 16.6771L16.524 18.8646Z" fill="#04A5FF"/>
<path d="M13.7079 15.4455C13.7841 15.5218 13.8841 15.5599 13.9841 15.5599C14.0841 15.5599 14.1841 15.5218 14.2603 15.4455L16.3356 13.3702C17.112 12.5938 17.112 11.3303 16.3356 10.5538V10.5538C15.7018 9.9201 14.7503 9.79143 13.9841 10.2071C13.2179 9.7915 12.2664 9.92013 11.6326 10.5538C10.8562 11.3303 10.8562 12.5937 11.6326 13.3702L13.7079 15.4455ZM12.1851 11.1062C12.4179 10.8734 12.7302 10.7539 13.0436 10.7539C13.2927 10.7539 13.5426 10.8295 13.7536 10.9837C13.8909 11.0841 14.0773 11.0841 14.2146 10.9837C14.6909 10.6356 15.3652 10.6883 15.7831 11.1062C16.255 11.5781 16.255 12.3459 15.7831 12.8178L13.9841 14.6168L12.185 12.8178C11.7132 12.346 11.7132 11.5781 12.1851 11.1062Z" fill="#04A5FF"/>
<path d="M19.6099 12.083C19.5071 12.083 19.4063 12.1248 19.3337 12.1975C19.261 12.2701 19.2192 12.3709 19.2192 12.4736C19.2192 12.5764 19.261 12.6771 19.3337 12.7498C19.4063 12.8225 19.5071 12.8643 19.6099 12.8643C19.7126 12.8643 19.8134 12.8225 19.886 12.7498C19.9587 12.6771 20.0005 12.5764 20.0005 12.4736C20.0005 12.3709 19.9587 12.2701 19.886 12.1975C19.8134 12.1248 19.7126 12.083 19.6099 12.083Z" fill="#04A5FF"/>
</g>
<defs>
<clipPath id="clip0">
<rect width="20" height="20" fill="white" transform="translate(0 0.989258)"/>
</clipPath>
</defs>
</svg>
