<svg width="30" height="30" viewBox="0 0 30 30" fill="none" xmlns="http://www.w3.org/2000/svg">
<path d="M9.14062 8.55469C8.81719 8.55469 8.55469 8.81719 8.55469 9.14062C8.55469 9.46406 8.81719 9.72656 9.14062 9.72656C9.46406 9.72656 9.72656 9.46406 9.72656 9.14062C9.72656 8.81719 9.46406 8.55469 9.14062 8.55469Z" fill="#04A5FF"/>
<path d="M15 6.21094C13.5272 6.21094 12.069 6.584 10.7829 7.28982C10.4992 7.44551 10.3955 7.8017 10.5512 8.08541C10.7068 8.36906 11.063 8.47277 11.3467 8.31715C12.4605 7.7059 13.7238 7.38281 15 7.38281C19.2002 7.38281 22.6172 10.7998 22.6172 15C22.6172 19.2002 19.2002 22.6172 15 22.6172C10.7998 22.6172 7.38281 19.2002 7.38281 15C7.38281 13.7238 7.7059 12.4605 8.31715 11.3467C8.47283 11.063 8.36912 10.7068 8.08541 10.5512C7.80182 10.3956 7.44557 10.4992 7.28982 10.7829C6.584 12.069 6.21094 13.5272 6.21094 15C6.21094 19.8463 10.1537 23.7891 15 23.7891C19.8463 23.7891 23.7891 19.8463 23.7891 15C23.7891 10.1537 19.8463 6.21094 15 6.21094Z" fill="#04A5FF"/>
<path d="M15 0C6.93041 0 0 6.88447 0 15C0 23.0894 6.9051 30 15 30C23.0875 30 30 23.0961 30 15C30 6.91283 23.0975 0 15 0ZM28.8137 14.4141H26.2928C26.1569 11.85 25.1316 9.42053 23.3607 7.46801L25.1106 5.71805C27.3416 8.13955 28.6671 11.2525 28.8137 14.4141ZM15.5859 1.18629C18.7475 1.33289 21.8604 2.6584 24.282 4.88941L22.532 6.63937C20.5795 4.8685 18.15 3.84311 15.5859 3.70723V1.18629ZM14.4141 1.18629V3.70723C11.85 3.84311 9.42053 4.86844 7.46801 6.63932L5.71805 4.88941C8.13955 2.6584 11.2525 1.33289 14.4141 1.18629ZM4.88941 5.71805L6.63937 7.46801C4.8685 9.42053 3.84311 11.85 3.70723 14.4141H1.18629C1.33289 11.2525 2.6584 8.13955 4.88941 5.71805ZM1.18629 15.5859H3.70723C3.84311 18.15 4.86844 20.5795 6.63932 22.532L4.88936 24.282C2.6584 21.8604 1.33289 18.7475 1.18629 15.5859ZM14.4141 28.8137C11.2525 28.6671 8.13955 27.3416 5.71805 25.1106L7.46801 23.3606C9.42047 25.1315 11.8499 26.1568 14.4141 26.2927V28.8137ZM4.86328 15C4.86328 9.53566 9.47039 4.86328 15 4.86328C17.6562 4.86328 20.1875 5.93186 22.1278 7.87219C24.0681 9.81252 25.1367 12.3438 25.1367 15C25.1367 20.4643 20.5296 25.1367 15 25.1367C9.53566 25.1367 4.86328 20.5296 4.86328 15ZM15.5859 28.8137V26.2927C18.15 26.1568 20.5795 25.1315 22.532 23.3606L24.282 25.1106C21.8604 27.3416 18.7475 28.6671 15.5859 28.8137ZM25.1106 24.282L23.3606 22.532C25.1315 20.5795 26.1568 18.1442 26.2927 15.5801H28.8137C28.6671 18.7416 27.3416 21.8604 25.1106 24.282Z" fill="#04A5FF"/>
<path d="M16.1719 14.4141H15.5859V12.0703H16.1719C16.495 12.0703 16.7578 12.3332 16.7578 12.6562C16.7578 12.9798 17.0202 13.2422 17.3438 13.2422C17.6673 13.2422 17.9297 12.9798 17.9297 12.6562C17.9297 11.687 17.1411 10.8984 16.1719 10.8984H15.5859V10.3125C15.5859 9.98895 15.3236 9.72656 15 9.72656C14.6764 9.72656 14.4141 9.98895 14.4141 10.3125V10.8984H13.8281C12.8589 10.8984 12.0703 11.687 12.0703 12.6562V13.8281C12.0703 14.7974 12.8589 15.5859 13.8281 15.5859H14.4141V17.9297H13.8281C13.505 17.9297 13.2422 17.6668 13.2422 17.3438C13.2422 17.0202 12.9798 16.7578 12.6562 16.7578C12.3327 16.7578 12.0703 17.0202 12.0703 17.3438C12.0703 18.313 12.8589 19.1016 13.8281 19.1016H14.4141V19.6875C14.4141 20.0111 14.6764 20.2734 15 20.2734C15.3236 20.2734 15.5859 20.0111 15.5859 19.6875V19.1016H16.1719C17.1411 19.1016 17.9297 18.313 17.9297 17.3438V16.1719C17.9297 15.2026 17.1411 14.4141 16.1719 14.4141ZM14.4141 14.4141H13.8281C13.505 14.4141 13.2422 14.1512 13.2422 13.8281V12.6562C13.2422 12.3332 13.505 12.0703 13.8281 12.0703H14.4141V14.4141ZM16.7578 17.3438C16.7578 17.6668 16.495 17.9297 16.1719 17.9297H15.5859V15.5859H16.1719C16.495 15.5859 16.7578 15.8488 16.7578 16.1719V17.3438Z" fill="#04A5FF"/>
</svg>
