<svg width="20" height="21" viewBox="0 0 20 21" fill="none" xmlns="http://www.w3.org/2000/svg">
<g clip-path="url(#clip0)">
<path d="M12.7344 5.91113C12.5187 5.91113 12.3438 6.08613 12.3438 6.30176C12.3438 6.51738 12.5187 6.69238 12.7344 6.69238C12.95 6.69238 13.125 6.51738 13.125 6.30176C13.125 6.08613 12.95 5.91113 12.7344 5.91113Z" fill="#04A5FF"/>
<path d="M10 0.989258C4.59285 0.989258 0 5.60883 0 10.9893C0 16.3888 4.6118 20.9893 10 20.9893C13.5824 20.9893 16.8205 18.9569 18.5901 16.0057C19.5125 14.4672 20 12.7325 20 10.9893C20 5.58414 15.3825 0.989258 10 0.989258ZM19.2096 10.5987H17.5274V10.5986C17.4698 9.53742 17.1783 8.49293 16.6734 7.53809L18.1106 6.7082C18.7725 7.9225 19.1484 9.25344 19.2096 10.5987ZM17.7078 6.03859L16.2733 6.86691C15.706 6.01715 14.9721 5.28324 14.1223 4.71594L14.9507 3.28148C16.0452 4.00152 16.9878 4.94406 17.7078 6.03859ZM10.3906 1.77969C11.7359 1.84086 13.0669 2.2168 14.2811 2.87867L13.4512 4.3159C12.4964 3.81094 11.4519 3.51949 10.3906 3.46184V1.77969ZM9.60938 1.77969V3.46184C8.54813 3.51945 7.50363 3.81094 6.54879 4.31586L5.71891 2.87871C6.93316 2.2168 8.2641 1.84086 9.60938 1.77969ZM5.04934 3.28148L5.87766 4.71594C5.02793 5.28324 4.29402 6.01719 3.72668 6.86691L2.29223 6.03859C3.01227 4.94406 3.95484 4.00148 5.04934 3.28148ZM1.88941 6.70816L3.3266 7.53805C2.82168 8.49293 2.53023 9.53742 2.47258 10.5986H0.79043C0.851602 9.2534 1.22758 7.92246 1.88941 6.70816ZM0.79043 11.3799H2.47258C2.5302 12.4411 2.82168 13.4856 3.3266 14.4404L1.88941 15.2704C1.22754 14.0561 0.851602 12.7251 0.79043 11.3799ZM2.29223 15.9399L3.72672 15.1116C4.29406 15.9614 5.02797 16.6953 5.8777 17.2626L5.04938 18.697C3.9548 17.977 3.01223 17.0345 2.29223 15.9399ZM9.60938 20.1988C8.2641 20.1376 6.93313 19.7617 5.71891 19.0998L6.54879 17.6626C7.50363 18.1675 8.54813 18.459 9.60938 18.5166V20.1988ZM3.24219 10.9893C3.24219 7.31453 6.35434 4.23145 10 4.23145C13.6779 4.23145 16.7578 7.35074 16.7578 10.9893C16.7578 14.6521 13.6598 17.7471 10 17.7471C6.33676 17.7471 3.24219 14.6486 3.24219 10.9893ZM10.3906 20.1989V18.5167C11.4518 18.4591 12.4964 18.1676 13.4512 17.6627L14.2811 19.0998C13.0668 19.7618 11.7359 20.1377 10.3906 20.1989ZM14.9507 18.697L14.1223 17.2626C14.972 16.6953 15.7059 15.9614 16.2732 15.1118L17.7078 15.94C16.9877 17.0345 16.0452 17.977 14.9507 18.697ZM18.1105 15.2704L16.6733 14.4406C17.1783 13.4857 17.4698 12.4372 17.5274 11.376H19.2096C19.1484 12.7212 18.7724 14.0561 18.1105 15.2704Z" fill="#04A5FF"/>
<path d="M15.6158 9.31497C15.3566 8.44766 14.8897 7.63868 14.2654 6.97543C14.1176 6.81836 13.8703 6.81082 13.7132 6.95875C13.5561 7.10661 13.5486 7.35379 13.6965 7.51094C14.2379 8.08606 14.6427 8.78723 14.8673 9.53864C14.9289 9.74493 15.1462 9.86293 15.3534 9.80106C15.5601 9.7393 15.6776 9.52168 15.6158 9.31497Z" fill="#04A5FF"/>
<path d="M13.9062 9.81738C13.397 9.81738 12.9628 10.144 12.8016 10.5986H11.9138C11.7581 9.83445 11.1548 9.23117 10.3906 9.07543V8.1877C10.8453 8.02645 11.1719 7.59227 11.1719 7.08301C11.1719 6.43684 10.6462 5.91113 10 5.91113C9.35383 5.91113 8.82812 6.43684 8.82812 7.08301C8.82812 7.59223 9.15473 8.02645 9.60938 8.1877V9.07543C8.8452 9.23117 8.24191 9.83445 8.08617 10.5986H7.19844C7.03719 10.144 6.60301 9.81738 6.09375 9.81738C5.44758 9.81738 4.92188 10.3431 4.92188 10.9893C4.92188 11.6354 5.44758 12.1611 6.09375 12.1611C6.60297 12.1611 7.03719 11.8345 7.19844 11.3799H8.08617C8.24191 12.1441 8.8452 12.7473 9.60938 12.9031V13.7908C9.15473 13.9521 8.82812 14.3862 8.82812 14.8955C8.82812 15.5417 9.35383 16.0674 10 16.0674C10.6462 16.0674 11.1719 15.5417 11.1719 14.8955C11.1719 14.3863 10.8453 13.9521 10.3906 13.7908V12.9031C11.1548 12.7473 11.7581 12.1441 11.9138 11.3799H12.8016C12.9628 11.8345 13.397 12.1611 13.9062 12.1611C14.5524 12.1611 15.0781 11.6354 15.0781 10.9893C15.0781 10.3431 14.5524 9.81738 13.9062 9.81738ZM6.09375 11.3799C5.87836 11.3799 5.70312 11.2046 5.70312 10.9893C5.70312 10.7739 5.87836 10.5986 6.09375 10.5986C6.30914 10.5986 6.48438 10.7739 6.48438 10.9893C6.48438 11.2046 6.30914 11.3799 6.09375 11.3799ZM10 6.69238C10.2154 6.69238 10.3906 6.86762 10.3906 7.08301C10.3906 7.2984 10.2154 7.47363 10 7.47363C9.78461 7.47363 9.60938 7.2984 9.60938 7.08301C9.60938 6.86762 9.78461 6.69238 10 6.69238ZM10 15.2861C9.78461 15.2861 9.60938 15.1109 9.60938 14.8955C9.60938 14.6801 9.78461 14.5049 10 14.5049C10.2154 14.5049 10.3906 14.6801 10.3906 14.8955C10.3906 15.1109 10.2154 15.2861 10 15.2861ZM10 12.1611C9.35383 12.1611 8.82812 11.6354 8.82812 10.9893C8.82812 10.3431 9.35383 9.81738 10 9.81738C10.6462 9.81738 11.1719 10.3431 11.1719 10.9893C11.1719 11.6354 10.6462 12.1611 10 12.1611ZM13.9062 11.3799C13.6909 11.3799 13.5156 11.2046 13.5156 10.9893C13.5156 10.7739 13.6909 10.5986 13.9062 10.5986C14.1216 10.5986 14.2969 10.7739 14.2969 10.9893C14.2969 11.2046 14.1216 11.3799 13.9062 11.3799Z" fill="#04A5FF"/>
</g>
<defs>
<clipPath id="clip0">
<rect width="20" height="20" fill="white" transform="translate(0 0.989258)"/>
</clipPath>
</defs>
</svg>
