<svg width="20" height="20" viewBox="0 0 20 20" fill="none" xmlns="http://www.w3.org/2000/svg">
<g clip-path="url(#clip0)">
<path d="M14.6776 12.9295C15.888 11.2779 16.4301 9.23016 16.1955 7.19598C15.9609 5.16181 14.9669 3.29122 13.4123 1.95846C11.8578 0.625697 9.85733 -0.0709498 7.81119 0.00789168C5.76505 0.0867331 3.82413 0.935248 2.37673 2.38368C0.929335 3.83211 0.0822089 5.77364 0.0048316 7.81984C-0.0725457 9.86604 0.625532 11.866 1.95941 13.4196C3.29328 14.9732 5.16458 15.9659 7.19892 16.199C9.23326 16.4322 11.2806 15.8886 12.9314 14.677H12.9301C12.9676 14.727 13.0076 14.7745 13.0526 14.8208L17.8651 19.6333C18.0995 19.8678 18.4175 19.9997 18.7491 19.9998C19.0807 19.9999 19.3987 19.8683 19.6333 19.6339C19.8678 19.3995 19.9997 19.0816 19.9998 18.75C19.9999 18.4184 19.8683 18.1003 19.6339 17.8658L14.8214 13.0533C14.7767 13.0081 14.7287 12.9663 14.6776 12.9283V12.9295ZM15.0001 8.12455C15.0001 9.02738 14.8223 9.92138 14.4768 10.7555C14.1313 11.5896 13.6249 12.3475 12.9865 12.9859C12.3481 13.6243 11.5902 14.1307 10.7561 14.4762C9.92198 14.8217 9.02798 14.9995 8.12515 14.9995C7.22231 14.9995 6.32831 14.8217 5.4942 14.4762C4.66008 14.1307 3.90219 13.6243 3.26379 12.9859C2.62538 12.3475 2.11898 11.5896 1.77347 10.7555C1.42797 9.92138 1.25015 9.02738 1.25015 8.12455C1.25015 6.30118 1.97447 4.5525 3.26379 3.26319C4.5531 1.97387 6.30178 1.24955 8.12515 1.24955C9.94851 1.24955 11.6972 1.97387 12.9865 3.26319C14.2758 4.5525 15.0001 6.30118 15.0001 8.12455Z" fill="#04A5FF"/>
</g>
<defs>
<clipPath id="clip0">
<rect width="20" height="20" fill="white"/>
</clipPath>
</defs>
</svg>
