<svg width="30" height="30" viewBox="0 0 30 30" fill="none" xmlns="http://www.w3.org/2000/svg">
<g clip-path="url(#clip0)">
<path d="M24.9253 18.2365C24.7637 17.9566 24.4058 17.8607 24.1258 18.0223L23.4946 18.3869L22.4765 16.6236L23.1078 16.2592C23.3879 16.0976 23.4838 15.7394 23.322 15.4595C23.1604 15.1796 22.8024 15.0837 22.5225 15.2453L21.8913 15.6099L20.8732 13.8466L21.5044 13.4822C21.7846 13.3206 21.8805 12.9624 21.7189 12.6825C21.5571 12.4025 21.1991 12.3066 20.9192 12.4682L20.2879 12.8328L19.2699 11.0695L19.9011 10.7052C20.1813 10.5436 20.2772 10.1854 20.1156 9.90544C19.9538 9.62552 19.5958 9.52962 19.3159 9.69121L18.6846 10.0558L17.8888 8.67749C17.7272 8.39757 17.3692 8.30167 17.0893 8.46326C16.8094 8.62485 16.7133 8.98305 16.8751 9.26297L17.6707 10.6411L17.0394 11.0057C16.7595 11.1673 16.6634 11.5252 16.8252 11.8052C16.9337 11.9931 17.1303 12.0979 17.3326 12.0979C17.4319 12.0979 17.5327 12.0727 17.6247 12.0194L18.2561 11.655L19.274 13.4181L18.6427 13.7827C18.3628 13.9443 18.2667 14.3023 18.4285 14.5822C18.5368 14.7701 18.7336 14.8749 18.9359 14.8749C19.0353 14.8749 19.136 14.8498 19.228 14.7964L19.8595 14.432L20.8773 16.1951L20.2461 16.5597C19.9661 16.7213 19.87 17.0793 20.0318 17.3592C20.1401 17.5471 20.3369 17.652 20.5392 17.652C20.6386 17.652 20.7393 17.6268 20.8313 17.5735L21.4628 17.2091L22.4806 18.9721L21.8494 19.3368C21.5694 19.4984 21.4733 19.8563 21.6351 20.1362C21.7434 20.3242 21.9402 20.429 22.1426 20.429C22.2419 20.429 22.3426 20.4038 22.4346 20.3505L23.0661 19.9861L23.8617 21.3642C23.9702 21.5521 24.1668 21.6569 24.3691 21.6569C24.4685 21.6569 24.5692 21.6318 24.6614 21.5784C24.9413 21.4168 25.0372 21.0589 24.8757 20.7789L24.0798 19.4006L24.7111 19.0362C24.991 18.8746 25.0871 18.5164 24.9253 18.2365Z" fill="#04A5FF"/>
<path d="M29.1295 13.4052C29.0205 13.1008 28.6857 12.9424 28.381 13.0511C28.0768 13.1601 27.9182 13.4951 28.0272 13.7996C29.3336 17.4523 29.0326 21.3941 27.2011 24.614C26.9615 25.0353 26.5127 25.2963 26.0281 25.2963C26.0251 25.2963 26.0222 25.2963 26.0192 25.2963C21.4807 25.267 17.1761 22.6765 14.7857 18.536C12.7896 15.0788 12.3971 11.0063 13.6282 7.45977C13.6301 7.45451 13.6324 7.4497 13.6342 7.44444C13.6349 7.44215 13.6353 7.44009 13.6358 7.4378C13.8779 6.74475 14.1817 6.07161 14.5481 5.4273C14.7877 5.00593 15.2366 4.74501 15.7211 4.74501H15.7298C19.4347 4.76881 22.9993 6.47947 25.5095 9.43822C25.7187 9.68473 26.0879 9.71517 26.3346 9.50597C26.5811 9.29677 26.6113 8.92736 26.4021 8.68085C23.6709 5.46164 19.7838 3.60037 15.7374 3.57428C14.8264 3.56787 13.9809 4.05676 13.5305 4.84869C13.2181 5.39755 12.9475 5.96563 12.7177 6.54814C11.8761 6.32612 11.0073 6.21351 10.1275 6.21351C9.10462 6.21351 8.11722 6.36641 7.18567 6.64976C7.15569 6.6564 7.12616 6.6651 7.09778 6.67654C4.98337 7.34075 3.16582 8.68154 1.89919 10.4437C1.85983 10.4854 1.82641 10.5325 1.80032 10.5842C0.703744 12.1658 0.0457097 14.0728 0.00336659 16.1289C-0.00121104 16.1685 -0.0016688 16.2083 0.00176442 16.2477C0.00153554 16.2786 0.000620013 16.3092 0.000620013 16.3401C0.000620013 18.5848 0.735101 20.6607 1.97564 22.3414C2.00379 22.3938 2.03995 22.4419 2.08276 22.4838C3.2782 24.045 4.91654 25.2498 6.80893 25.9078C6.83777 25.9204 6.86753 25.9312 6.89797 25.939C7.9126 26.2811 8.99864 26.467 10.1275 26.467C11.2389 26.467 12.3286 26.2848 13.3582 25.9383C13.389 25.9303 13.419 25.9195 13.4483 25.9067C14.9409 25.3885 16.3043 24.524 17.4201 23.3661C19.8744 25.3214 22.8908 26.4469 26.0116 26.467H26.0279C26.9327 26.467 27.7711 25.9797 28.2187 25.1926C30.2189 21.6758 30.5511 17.3795 29.1295 13.4052ZM10.1275 19.314L7.30744 17.265L8.38455 13.9499H11.9368C12.1169 15.0902 12.4323 16.22 12.8823 17.3124L10.1275 19.314ZM6.15433 17.025L3.78701 17.8002L1.18211 15.9076C1.26084 14.261 1.78658 12.7295 2.63985 11.432H5.8268L7.31018 13.4677L6.15433 17.025ZM1.23361 17.3921L2.98134 18.6619L2.31461 20.7141C1.75019 19.71 1.37391 18.5866 1.23361 17.3921ZM12.3348 7.65844C11.8448 9.30707 11.6669 11.0447 11.7999 12.7792H8.25707L6.7817 10.7545L7.77481 7.69827C8.52486 7.49387 9.31358 7.38401 10.1275 7.38401C10.8768 7.38401 11.6168 7.47648 12.3348 7.65844ZM6.37818 8.20776L5.71099 10.2613H3.55675C4.34937 9.40503 5.30678 8.70351 6.37818 8.20776ZM3.14637 21.9434L4.1285 18.9201L6.51711 18.1382L9.54201 20.336V22.8321L6.95175 24.714C5.44846 24.1418 4.13788 23.1764 3.14637 21.9434ZM8.37883 25.1242L10.1275 23.8539L11.8752 25.1237C11.3044 25.2372 10.7196 25.296 10.1275 25.296C9.52919 25.2963 8.94463 25.2368 8.37883 25.1242ZM13.303 24.714L10.7127 22.8321V20.336L13.3804 18.3978C13.5039 18.6415 13.6342 18.8828 13.7717 19.1213C14.5291 20.433 15.4645 21.6012 16.5323 22.5991C15.6138 23.5387 14.5101 24.256 13.303 24.714Z" fill="#04A5FF"/>
<path d="M27.471 11.7984C27.6255 11.7984 27.7759 11.7357 27.8853 11.6263C27.9942 11.518 28.0563 11.3669 28.0563 11.2124C28.0563 11.0584 27.9942 10.9073 27.8853 10.7984C27.7759 10.6897 27.6255 10.627 27.471 10.627C27.317 10.627 27.1666 10.6897 27.0572 10.7984C26.9483 10.9073 26.8862 11.0584 26.8862 11.2124C26.8862 11.3669 26.9483 11.518 27.0572 11.6263C27.1666 11.7357 27.317 11.7984 27.471 11.7984Z" fill="#04A5FF"/>
</g>
<defs>
<clipPath id="clip0">
<rect width="30" height="30" fill="white"/>
</clipPath>
</defs>
</svg>
