<svg width="50" height="50" viewBox="0 0 50 50" fill="none" xmlns="http://www.w3.org/2000/svg">
<g clip-path="url(#clip0)">
<path d="M11.9441 48.9669C11.1459 48.9669 10.3532 48.7169 9.67542 48.2247C8.47551 47.3534 7.88556 45.9041 8.13586 44.4425L10.2829 31.9046L1.17152 23.0279C0.109395 21.9931 -0.266 20.4742 0.191818 19.0637C0.649636 17.6533 1.84574 16.6444 3.31305 16.4308L15.9008 14.5983L21.5273 3.18987C22.1833 1.85997 23.5119 1.0335 24.9948 1.0332H24.9959C26.4785 1.0332 27.807 1.8588 28.4634 3.18801L29.4273 5.13989C29.6661 5.62349 29.4677 6.20914 28.984 6.44792C28.5006 6.68669 27.9149 6.48835 27.676 6.00465L26.7121 4.05287C26.3824 3.38509 25.7407 2.98635 24.9958 2.98635C24.9956 2.98635 24.9955 2.98635 24.9952 2.98635C24.2502 2.98655 23.6085 3.38557 23.2789 4.05384L17.4253 15.9227C17.2831 16.211 17.0082 16.4108 16.6902 16.4571L3.5943 18.3636C2.85699 18.4709 2.27944 18.9581 2.04946 19.6668C1.81938 20.3755 2.00063 21.109 2.53433 21.629L12.0133 30.8638C12.2435 31.0881 12.3487 31.4113 12.2944 31.7282L10.0608 44.7722C9.935 45.5066 10.2199 46.2065 10.8228 46.6442C11.4257 47.082 12.1794 47.1363 12.8387 46.7893L24.5508 40.6279C24.8353 40.4782 25.1751 40.4782 25.4597 40.6277L37.175 46.7829C37.8345 47.1294 38.5882 47.0748 39.1909 46.6366C39.7935 46.1985 40.078 45.4985 39.952 44.7641L37.7114 31.7214C37.6569 31.4046 37.7619 31.0813 37.9921 30.8568L47.4662 21.6169C47.9996 21.0967 48.1805 20.3631 47.95 19.6545C47.7195 18.946 47.1418 18.4591 46.4044 18.3522L33.3075 16.4526C32.9895 16.4064 32.7145 16.2067 32.5721 15.9185L31.5689 13.8872C31.3302 13.4036 31.5285 12.8179 32.0122 12.5791C32.4958 12.3403 33.0814 12.5388 33.3202 13.0224L34.096 14.5934L46.6847 16.4192C48.1522 16.6321 49.3487 17.6402 49.8074 19.0504C50.266 20.4606 49.8915 21.9798 48.8299 23.0152L39.7233 31.8967L41.877 44.4334C42.128 45.8949 41.5389 47.3444 40.3395 48.2164C39.1401 49.0885 37.5795 49.2015 36.2667 48.5118L25.0058 42.5954L13.7481 48.5177C13.1773 48.8184 12.559 48.9669 11.9441 48.9669Z" fill="white"/>
<path d="M30.4922 10.4922C30.2354 10.4922 29.9834 10.3887 29.8018 10.2061C29.6201 10.0244 29.5156 9.77344 29.5156 9.51562C29.5156 9.25879 29.6201 9.00781 29.8018 8.8252C29.9834 8.64355 30.2354 8.53906 30.4922 8.53906C30.75 8.53906 31.001 8.64355 31.1826 8.8252C31.3643 9.00684 31.4688 9.25879 31.4688 9.51562C31.4688 9.77344 31.3643 10.0244 31.1826 10.2061C31.001 10.3887 30.749 10.4922 30.4922 10.4922Z" fill="white"/>
</g>
<defs>
<clipPath id="clip0">
<rect width="50" height="50" fill="white"/>
</clipPath>
</defs>
</svg>
