<svg width="20" height="21" viewBox="0 0 20 21" fill="none" xmlns="http://www.w3.org/2000/svg">
<g clip-path="url(#clip0)">
<path d="M5.30459 5.74151C5.15225 5.58877 4.90459 5.58877 4.75225 5.74151C4.59951 5.89385 4.59951 6.14151 4.75225 6.29386C4.90459 6.4466 5.15225 6.4466 5.30459 6.29386C5.45733 6.14151 5.45733 5.89385 5.30459 5.74151Z" fill="#04A5FF"/>
<path d="M19.6567 17.3313C19.4353 17.11 19.1411 16.9881 18.8281 16.9881C18.6208 16.9881 18.4219 17.0418 18.2468 17.1422C18.1889 17.0086 18.1059 16.8854 17.9996 16.7789C17.7937 16.573 17.5246 16.4533 17.236 16.4376C17.2202 16.1492 17.1005 15.8802 16.8948 15.6744C16.6889 15.4682 16.4198 15.3484 16.1313 15.3326C16.1156 15.0437 15.9958 14.7745 15.7899 14.5691C15.6933 14.4725 15.5834 14.3964 15.466 14.3408L15.7896 14.0172C16.0112 13.7962 16.1332 13.5018 16.1332 13.1883C16.1332 12.8752 16.0113 12.5808 15.7899 12.3594C15.5685 12.138 15.2742 12.0162 14.9611 12.0162C14.7832 12.0162 14.6115 12.0556 14.4556 12.1302L13.3145 10.9891L19.0539 5.24969C19.1057 5.1979 19.1419 5.13262 19.1584 5.06129L19.9869 1.47065C19.9872 1.46909 19.9873 1.46753 19.9877 1.46597C19.9907 1.45183 19.9932 1.43757 19.9947 1.42323C19.9948 1.42245 19.995 1.42163 19.995 1.42085C19.9965 1.40604 19.9968 1.39116 19.9966 1.37632C19.9965 1.3719 19.9962 1.36757 19.996 1.36315C19.9954 1.35226 19.9945 1.34144 19.993 1.33061C19.9924 1.32624 19.9919 1.32186 19.9911 1.31753C19.9889 1.30444 19.9861 1.29147 19.9826 1.27866C19.9822 1.27726 19.982 1.27581 19.9815 1.2744C19.9773 1.25968 19.9721 1.24518 19.9661 1.23097C19.965 1.22858 19.9639 1.22636 19.9628 1.22401C19.9577 1.21261 19.9521 1.20143 19.9459 1.19046C19.9439 1.1869 19.9418 1.18343 19.9396 1.17995C19.9337 1.17015 19.9272 1.16057 19.9202 1.1512C19.9178 1.14792 19.9155 1.1446 19.913 1.14136C19.9036 1.12936 19.8936 1.11772 19.8825 1.10667C19.8714 1.09561 19.8598 1.08557 19.8478 1.07616C19.8446 1.07366 19.8412 1.07139 19.838 1.06897C19.8286 1.06202 19.819 1.0555 19.8091 1.04948C19.8057 1.04741 19.8023 1.04538 19.7988 1.04339C19.7876 1.03702 19.7762 1.03128 19.7645 1.02612C19.7625 1.02518 19.7604 1.02413 19.7583 1.02323C19.7439 1.01714 19.7293 1.01186 19.7143 1.00761C19.7135 1.00737 19.7127 1.00721 19.7118 1.00698C19.6984 1.00319 19.6847 1.0003 19.6709 0.997996C19.667 0.997332 19.6631 0.996824 19.6592 0.996316C19.6478 0.994754 19.6364 0.993738 19.6249 0.993191C19.621 0.992996 19.6171 0.992684 19.6131 0.992645C19.598 0.992371 19.583 0.992762 19.5679 0.994207C19.5676 0.994246 19.5673 0.994324 19.567 0.994363C19.5522 0.995848 19.5376 0.998387 19.523 1.00155C19.5215 1.0019 19.52 1.00194 19.5184 1.00233L15.9278 1.83085C15.8565 1.8473 15.7912 1.88351 15.7394 1.93527L9.99996 7.67455L4.25736 1.93198C4.2056 1.88023 4.14033 1.84405 4.069 1.82757L0.478361 0.999051C0.476838 0.998699 0.475275 0.998621 0.473713 0.99827C0.459025 0.995066 0.44422 0.992488 0.429338 0.991004C0.429181 0.991004 0.429025 0.990965 0.428869 0.990926C0.413791 0.989441 0.398634 0.98909 0.383517 0.989324C0.37965 0.989481 0.375822 0.989754 0.371955 0.989949C0.360431 0.990496 0.348908 0.991551 0.337462 0.993113C0.333595 0.99366 0.329728 0.994129 0.325861 0.994793C0.312032 0.997098 0.298282 1.00003 0.284689 1.00386C0.283946 1.00405 0.283204 1.00417 0.282462 1.0044C0.26754 1.0087 0.252853 1.01397 0.238399 1.02007C0.236368 1.02093 0.234376 1.02194 0.232384 1.02284C0.220665 1.02804 0.209181 1.03382 0.19793 1.04022C0.194532 1.04214 0.191212 1.04413 0.187852 1.0462C0.177852 1.05225 0.168126 1.05886 0.158594 1.06589C0.15543 1.06823 0.152227 1.07042 0.149102 1.07284C0.13711 1.08237 0.125391 1.09237 0.114297 1.10347C0.103243 1.11452 0.0932035 1.12624 0.0837503 1.13823C0.0812503 1.1414 0.0790237 1.14472 0.0766019 1.14796C0.0696878 1.15733 0.0631643 1.1669 0.0571877 1.17671C0.0550393 1.18022 0.0529299 1.18378 0.0508986 1.18737C0.0447267 1.19823 0.0391408 1.20933 0.0341017 1.22065C0.0330079 1.22308 0.0317579 1.22546 0.0307423 1.22792C0.0247657 1.2421 0.0195704 1.25651 0.0153516 1.27116C0.0148829 1.27272 0.0146094 1.27436 0.0141797 1.27593C0.0107032 1.28858 0.00792972 1.30136 0.00574221 1.31425C0.00500002 1.3187 0.00441408 1.32319 0.00378908 1.32765C0.00238282 1.33839 0.00140626 1.34909 0.000859378 1.35983C0.000625002 1.36436 0.000273439 1.36882 0.000195313 1.37335C-3.90627e-05 1.38815 0.000312501 1.40296 0.00175782 1.41769C0.00187501 1.41866 0.00207032 1.41964 0.00218751 1.42061C0.00367189 1.43476 0.00609377 1.44878 0.0091016 1.46269C0.00945316 1.46429 0.00953129 1.46593 0.00988285 1.46753L0.838402 5.05817C0.854847 5.1295 0.891058 5.19477 0.942816 5.24657L6.68538 10.9891L5.54444 12.1301C5.38869 12.0555 5.21693 12.0161 5.039 12.0161C4.72584 12.0161 4.43146 12.138 4.21006 12.3594C3.7531 12.8164 3.7531 13.56 4.21006 14.017L4.5333 14.3402C4.41502 14.3969 4.30584 14.4737 4.21009 14.5692C3.9983 14.781 3.88486 15.0545 3.86951 15.3325C3.58103 15.3481 3.31173 15.4679 3.10536 15.6743C2.89353 15.8861 2.78009 16.1596 2.7647 16.4375C2.4754 16.453 2.20587 16.5729 2.00028 16.779C1.89259 16.8867 1.81063 17.0104 1.75372 17.1424C1.5786 17.0418 1.37946 16.988 1.17184 16.988C0.858363 16.988 0.563947 17.1101 0.343283 17.3313C0.121875 17.5526 0 17.847 0 18.1601C0 18.4731 0.121875 18.7675 0.343204 18.9888L2.00024 20.6458C2.22165 20.8672 2.51591 20.9892 2.8288 20.9892C3.14142 20.9892 3.43568 20.8674 3.65775 20.6458C3.87908 20.4245 4.00095 20.1303 4.00095 19.8173C4.00095 19.61 3.9472 19.4111 3.84677 19.236C3.98045 19.178 4.10361 19.095 4.21009 18.9888C4.42205 18.7769 4.53553 18.5033 4.55084 18.2252C4.83943 18.2096 5.10865 18.0898 5.31459 17.8839C5.52076 17.678 5.64061 17.409 5.65635 17.1204C5.94534 17.1047 6.21452 16.9849 6.41983 16.779C6.51647 16.6824 6.59249 16.5725 6.64815 16.4551L6.97175 16.7786C7.1928 17.0002 7.48718 17.1223 7.80069 17.1223C8.11386 17.1223 8.40824 17.0004 8.62964 16.779C8.98976 16.4188 9.06586 15.8808 8.85835 15.4452L9.99992 14.3036L11.1409 15.4446C11.0663 15.6003 11.0269 15.7721 11.0269 15.95C11.0269 16.2633 11.1488 16.5576 11.3702 16.779C11.5915 17.0003 11.8858 17.1222 12.199 17.1222C12.5121 17.1222 12.8064 17.0004 13.0277 16.779L13.351 16.4558C13.4077 16.574 13.4845 16.6833 13.58 16.779C13.7918 16.9908 14.0652 17.1042 14.3432 17.1195C14.3588 17.408 14.4787 17.6773 14.6851 17.8837C14.891 18.0895 15.1599 18.2092 15.4483 18.225C15.4639 18.514 15.5838 18.7833 15.7897 18.9888C15.8974 19.0965 16.0212 19.1784 16.1532 19.2354C16.0526 19.4105 15.9988 19.6096 15.9988 19.8172C15.9988 20.1308 16.1208 20.4251 16.3421 20.6458C16.5635 20.8671 16.8578 20.989 17.1709 20.989C17.484 20.989 17.7783 20.8671 17.9996 20.6458L19.6567 18.9888C19.8781 18.7674 20 18.4731 20 18.1602C20 17.8476 19.8782 17.5533 19.6567 17.3313ZM18.4223 4.77645L12.7621 10.4367L11.9335 9.60807L18.9194 2.6221L18.4223 4.77645ZM16.2126 2.56679L18.3669 2.06968L11.381 9.05561L10.5524 8.22697L16.2126 2.56679ZM7.23784 11.5416L8.06652 12.3702L6.97245 13.4646L6.14377 12.6357L7.23784 11.5416ZM3.10568 20.0931C3.03142 20.1671 2.9331 20.2079 2.8288 20.2079C2.72458 20.2079 2.62649 20.1673 2.55267 20.0934L0.895629 18.4364C0.821839 18.3626 0.781214 18.2645 0.781214 18.1601C0.781214 18.0556 0.821839 17.9575 0.89598 17.8834C0.969379 17.8098 1.06731 17.7692 1.17176 17.7692C1.27622 17.7692 1.37411 17.8098 1.4479 17.8838L3.10532 19.5412C3.17911 19.6149 3.21974 19.713 3.21974 19.8173C3.21974 19.9216 3.17911 20.0196 3.10568 20.0931ZM3.65802 18.436C3.58376 18.5101 3.48556 18.5509 3.38154 18.5509C3.27759 18.5509 3.1795 18.5102 3.10529 18.4362L2.55251 17.8835C2.40048 17.7311 2.40052 17.4836 2.55302 17.331C2.62642 17.2574 2.72439 17.2169 2.8288 17.2169C2.93321 17.2169 3.03138 17.2575 3.10517 17.3313C3.10521 17.3313 3.10525 17.3313 3.10529 17.3314L3.65747 17.8836C3.65755 17.8836 3.65759 17.8837 3.65767 17.8838C3.81005 18.0361 3.81005 18.284 3.65802 18.436ZM4.7624 17.3313C4.68857 17.4051 4.59049 17.4458 4.48627 17.4458C4.38205 17.4458 4.28396 17.4051 4.21013 17.3313L3.65779 16.779C3.50552 16.6267 3.50552 16.379 3.65779 16.2267C3.73185 16.1526 3.82994 16.1118 3.93392 16.1118C4.03787 16.1118 4.13588 16.1525 4.20994 16.2266C4.20998 16.2266 4.21002 16.2266 4.21006 16.2267L4.7624 16.779C4.76244 16.7791 4.76248 16.7791 4.76252 16.7792C4.76256 16.7792 4.76256 16.7792 4.7626 16.7792C4.83642 16.853 4.87709 16.951 4.87709 17.0552C4.87709 17.1593 4.83643 17.2574 4.7624 17.3313ZM5.86709 16.227C5.79369 16.3006 5.69576 16.3411 5.59135 16.3411C5.48686 16.3411 5.38865 16.3004 5.31483 16.2266L4.76264 15.6745C4.61025 15.5219 4.61017 15.2739 4.76213 15.122C4.83635 15.0479 4.93467 15.0071 5.03896 15.0071C5.14104 15.0071 5.2374 15.0463 5.31045 15.1174L5.87151 15.6784C6.01948 15.8306 6.01772 16.0763 5.86709 16.227ZM8.07722 16.2266C8.00339 16.3004 7.90519 16.3411 7.80069 16.3411C7.69628 16.3411 7.59831 16.3005 7.52456 16.2266L6.42983 15.1318C6.42651 15.1284 6.42319 15.1248 6.41987 15.1215L5.86752 14.5691C5.8642 14.5658 5.86069 14.5625 5.85725 14.5593L4.76244 13.4644C4.61006 13.3121 4.61006 13.0642 4.76244 12.9118C4.83627 12.838 4.93447 12.7973 5.03896 12.7973C5.14338 12.7973 5.24135 12.8379 5.31475 12.9115C5.31479 12.9115 5.31479 12.9115 5.31483 12.9116C5.3149 12.9116 5.31498 12.9118 5.31506 12.9118L6.69592 14.2931C6.69721 14.2944 6.69862 14.2954 6.69991 14.2967L8.07722 15.674C8.2296 15.8263 8.2296 16.0742 8.07722 16.2266ZM8.35347 14.8453L7.52499 14.0168L8.6189 12.9226L9.4475 13.7512L8.35347 14.8453ZM7.51405 10.7129L1.5745 4.77336L1.07739 2.61902L3.64673 5.18836C3.72302 5.26465 3.82298 5.30278 3.92295 5.30278C4.02291 5.30278 4.12291 5.26465 4.19916 5.18836C4.3517 5.03582 4.3517 4.78848 4.19916 4.6359L1.62985 2.06656L3.78419 2.56367L9.72355 8.50303C9.72363 8.5031 9.72367 8.50314 9.72375 8.50322C9.72383 8.5033 9.72387 8.50334 9.72394 8.50342L12.4857 11.2651C12.4858 11.2652 12.4858 11.2653 12.4859 11.2653C12.4859 11.2654 12.486 11.2655 12.4861 11.2655L13.8562 12.6357L13.0276 13.4643L6.43514 6.87185C6.2826 6.71931 6.03526 6.71931 5.88268 6.87185C5.73014 7.02439 5.73014 7.27173 5.88268 7.42431L12.4751 14.0167L11.6465 14.8453L7.51405 10.7129ZM13.5784 15.123C13.5752 15.1262 13.5721 15.1296 13.569 15.1329L12.4753 16.2266C12.4015 16.3004 12.3034 16.341 12.199 16.341C12.0946 16.341 11.9965 16.3004 11.9227 16.2266C11.8488 16.1527 11.8082 16.0545 11.8082 15.95C11.8082 15.8456 11.8487 15.7477 11.9223 15.6743C11.9224 15.6742 11.9224 15.6741 11.9225 15.6741C11.9225 15.674 11.9226 15.674 11.9227 15.6739L13.3001 14.2965C13.3013 14.2953 13.3027 14.2943 13.3039 14.293C13.3052 14.2918 13.3062 14.2904 13.3074 14.2892L14.6848 12.9118C14.6849 12.9117 14.6849 12.9117 14.6849 12.9117C14.7587 12.838 14.8567 12.7974 14.9611 12.7974C15.0655 12.7974 15.1637 12.838 15.2374 12.9118C15.3112 12.9856 15.3519 13.0838 15.3519 13.1883C15.3519 13.2927 15.3113 13.3907 15.2374 13.4644L14.143 14.5588C14.1394 14.5623 14.1355 14.5659 14.1323 14.5691L13.5784 15.123ZM14.6851 16.2265C14.685 16.2266 14.685 16.2266 14.6849 16.2267C14.5323 16.3788 14.2845 16.3787 14.1328 16.2269C14.0587 16.1527 14.0179 16.0544 14.0179 15.9501C14.0179 15.8481 14.057 15.7518 14.128 15.6788L14.6893 15.1175C14.8414 14.9696 15.0872 14.9713 15.2378 15.1219C15.3114 15.1954 15.3519 15.2933 15.3519 15.3977C15.3519 15.5022 15.3113 15.6003 15.2375 15.6741C15.2374 15.6742 15.2374 15.6743 15.2372 15.6744C15.2372 15.6745 15.2371 15.6745 15.2371 15.6746L14.6854 16.2262C14.6853 16.2263 14.6852 16.2264 14.6851 16.2265ZM15.7897 17.3313C15.716 17.4051 15.618 17.4457 15.5137 17.4457C15.4094 17.4457 15.3113 17.4051 15.2375 17.3313C15.1634 17.2572 15.1226 17.1592 15.1226 17.0552C15.1226 16.9512 15.1634 16.8531 15.2375 16.779L15.7899 16.2267C15.7899 16.2266 15.79 16.2266 15.7901 16.2265C15.8638 16.1527 15.9618 16.112 16.066 16.112C16.1701 16.112 16.2682 16.1527 16.3421 16.2267C16.4159 16.3006 16.4566 16.3986 16.4566 16.5029C16.4566 16.607 16.416 16.705 16.3422 16.7789C16.3422 16.7789 16.3421 16.779 16.3421 16.779C16.342 16.7791 16.342 16.7791 16.3419 16.7792L15.7897 17.3313ZM16.3419 18.436C16.2683 18.3626 16.2278 18.2646 16.2278 18.1602C16.2278 18.0558 16.2684 17.9576 16.3421 17.8838C16.3422 17.8838 16.3423 17.8838 16.3423 17.8837L16.8946 17.3313C16.9684 17.2576 17.0665 17.2169 17.171 17.2169C17.2754 17.2169 17.3735 17.2576 17.4469 17.3309C17.5209 17.4053 17.5617 17.5035 17.5617 17.6075C17.5617 17.7114 17.521 17.8093 17.4473 17.8836L17.4472 17.8836C17.4472 17.8836 17.4471 17.8837 17.4471 17.8837L16.894 18.4369C16.7416 18.5885 16.4943 18.5884 16.3419 18.436ZM19.1042 18.4364L17.4472 20.0934C17.3734 20.1672 17.2753 20.2078 17.1709 20.2078C17.0664 20.2078 16.9683 20.1672 16.8942 20.093C16.8206 20.0197 16.7801 19.9217 16.7801 19.8172C16.7801 19.7128 16.8206 19.6149 16.8946 19.5411L17.4467 18.989C17.4467 18.9889 17.4468 18.9888 17.4469 18.9888C17.4469 18.9887 17.4469 18.9887 17.447 18.9887L17.9996 18.436L18.552 17.8836C18.6258 17.8099 18.7238 17.7693 18.8281 17.7693C18.9324 17.7693 19.0305 17.8099 19.1039 17.8833C19.178 17.9576 19.2187 18.0559 19.2187 18.1602C19.2187 18.2645 19.1781 18.3625 19.1042 18.4364Z" fill="#04A5FF"/>
</g>
<defs>
<clipPath id="clip0">
<rect width="20" height="20" fill="white" transform="translate(0 0.989258)"/>
</clipPath>
</defs>
</svg>
