<svg width="20" height="20" viewBox="0 0 20 20" fill="none" xmlns="http://www.w3.org/2000/svg">
<g clip-path="url(#clip0)">
<path d="M5.5742 6.37895L5.59229 6.38727C5.64502 6.41141 5.70029 6.42285 5.75475 6.42285C5.90279 6.42285 6.04443 6.33824 6.11017 6.19485C6.20002 5.99872 6.11388 5.76689 5.91775 5.67701L5.90158 5.66962C5.70569 5.57915 5.47362 5.6647 5.38323 5.8606C5.2928 6.05645 5.37831 6.28856 5.5742 6.37895Z" fill="white"/>
<path d="M19.9081 3.78966C19.7961 3.65677 19.6099 3.6138 19.451 3.68427C19.2132 3.7897 18.9712 3.88251 18.7258 3.96243C19.0439 3.55927 19.2912 3.09939 19.4525 2.60189C19.5026 2.44732 19.4518 2.27787 19.3249 2.17638C19.198 2.0749 19.0215 2.06259 18.8818 2.14537C18.1995 2.54962 17.4661 2.84068 16.6989 3.012C15.8975 2.24185 14.8158 1.80408 13.6971 1.80408C11.3085 1.80408 9.36538 3.74724 9.36538 6.13575C9.36538 6.29251 9.37393 6.45032 9.39089 6.60813C8.77679 6.54965 8.16886 6.43926 7.57777 6.27868C7.3696 6.22212 7.15495 6.34504 7.09839 6.55325C7.04183 6.76145 7.16476 6.97606 7.37296 7.03262C8.17343 7.25008 9.00241 7.38168 9.8369 7.42371C9.95921 7.42989 10.0766 7.37868 10.1552 7.28536C10.2339 7.19204 10.2644 7.06735 10.2378 6.94825C10.1773 6.67821 10.1466 6.40481 10.1466 6.13575C10.1466 4.17802 11.7394 2.58533 13.6971 2.58533C14.6754 2.58533 15.6188 2.99341 16.2856 3.70493C16.3774 3.80298 16.5132 3.847 16.6451 3.8213C17.1815 3.71708 17.7036 3.56044 18.2069 3.35325C17.9248 3.74485 17.5645 4.07802 17.1447 4.32931C16.9866 4.42395 16.9161 4.61622 16.9756 4.7906C17.0351 4.96497 17.2083 5.07411 17.3913 5.05239C17.7521 5.00958 18.1095 4.94278 18.4615 4.85251C18.1413 5.18751 17.7901 5.49286 17.4101 5.76614C17.3054 5.84145 17.2445 5.96356 17.2476 6.09247L17.2595 6.59836C17.257 11.9162 13.2091 17.4152 6.43652 17.4152C4.88883 17.4152 3.37238 17.0861 1.97758 16.4545C3.61953 16.3304 5.16039 15.7347 6.46699 14.713C6.5971 14.6112 6.64917 14.4386 6.59699 14.2819C6.5448 14.1251 6.39968 14.0182 6.23453 14.0147C4.92695 13.9874 3.75711 13.2498 3.15949 12.1247C3.20211 12.1259 3.24504 12.1265 3.2882 12.1265C3.6757 12.1265 4.0584 12.0771 4.42566 11.9798C4.60113 11.9334 4.72144 11.7722 4.71609 11.5907C4.71074 11.4093 4.58113 11.2555 4.40324 11.2194C2.94617 10.9241 1.84192 9.74539 1.60379 8.31227C2.03446 8.46969 2.48082 8.55496 2.93746 8.56664C3.11141 8.57078 3.26734 8.45992 3.31988 8.29399C3.37234 8.12805 3.30875 7.94742 3.16391 7.85098C2.17493 7.19258 1.5845 6.08891 1.5845 4.89868C1.5845 4.45849 1.6652 4.02528 1.82051 3.62165C2.45735 4.32481 3.17633 4.94688 3.96422 5.47575C4.14336 5.59602 4.38601 5.54825 4.50625 5.36915C4.62652 5.19005 4.57875 4.94735 4.39965 4.82712C3.50828 4.2288 2.71141 3.50255 2.0311 2.66857C1.95024 2.56943 1.82582 2.51634 1.6984 2.52599C1.57086 2.53583 1.45622 2.60747 1.39149 2.71783C1.00669 3.37388 0.803287 4.12802 0.803287 4.89872C0.803287 5.85106 1.11313 6.75793 1.66688 7.49614C1.56149 7.45008 1.45719 7.39864 1.35426 7.3418C1.23325 7.275 1.08594 7.27711 0.966881 7.34735C0.847857 7.41762 0.774811 7.54551 0.774811 7.68375V7.7318C0.774811 9.17699 1.49602 10.4898 2.62324 11.2843C2.6209 11.2839 2.61856 11.2835 2.61621 11.283C2.48086 11.2575 2.34196 11.3051 2.25075 11.4084C2.15957 11.5118 2.12957 11.6555 2.17184 11.7866C2.63016 13.2094 3.77957 14.2721 5.18129 14.6483C4.02164 15.3374 2.70711 15.6976 1.32899 15.6976C1.02989 15.6976 0.737115 15.6812 0.433874 15.6475C0.25364 15.6275 0.0830541 15.7343 0.0224683 15.9053C-0.0381566 16.0764 0.0270776 16.2667 0.17989 16.3646C2.04977 17.563 4.21328 18.1965 6.43656 18.1965C8.22472 18.1965 9.89831 17.8412 11.4108 17.1405C12.7982 16.4978 14.0241 15.5793 15.0545 14.4105C16.9523 12.2578 18.0407 9.40867 18.0407 6.59368C18.0407 6.59063 18.0407 6.58754 18.0406 6.5845L18.0334 6.27692C18.7774 5.71364 19.4163 5.03524 19.9344 4.25802C20.0308 4.11345 20.02 3.92255 19.9081 3.78966Z" fill="white"/>
<path d="M14.7149 11.2899C14.5299 11.1789 14.2899 11.2388 14.1789 11.4238L14.1782 11.425C14.0672 11.61 14.1275 11.8494 14.3125 11.9603C14.3753 11.998 14.4444 12.0159 14.5127 12.0159C14.6457 12.0159 14.7755 11.948 14.8488 11.8258C14.9598 11.6408 14.8999 11.4008 14.7149 11.2899Z" fill="white"/>
<path d="M13.9523 12.4658C13.7858 12.3286 13.5396 12.3523 13.4024 12.5188C12.7186 13.3484 11.9102 14.0329 10.9996 14.5533C10.8123 14.6604 10.7472 14.899 10.8543 15.0863C10.9264 15.2125 11.0581 15.2832 11.1938 15.2832C11.2595 15.2832 11.3261 15.2666 11.3872 15.2317C12.3802 14.6641 13.261 13.9186 14.0052 13.0157C14.1424 12.8492 14.1187 12.603 13.9523 12.4658Z" fill="white"/>
</g>
<defs>
<clipPath id="clip0">
<rect width="20" height="20" fill="white"/>
</clipPath>
</defs>
</svg>
