<svg width="30" height="30" viewBox="0 0 30 30" fill="none" xmlns="http://www.w3.org/2000/svg">
<path d="M28.2422 16.1706H27.6562V12.069C27.6562 10.452 26.5208 9.09618 25.0056 8.75446L22.3387 4.13528C21.9479 3.45835 21.3168 2.97407 20.5617 2.77175C20.0286 2.62895 19.4788 2.63944 18.9633 2.79507L17.0241 0.855791C15.883 -0.285205 14.0265 -0.285322 12.8854 0.855791L5.07076 8.67056H3.39844C1.52455 8.67056 0 10.1951 0 12.069V26.6002C0 28.4741 1.52455 29.9987 3.39844 29.9987H11.1914C11.515 29.9987 11.7773 29.7363 11.7773 29.4127C11.7773 29.0892 11.515 28.8268 11.1914 28.8268H3.39844C2.17072 28.8268 1.17188 27.828 1.17188 26.6002V12.069C1.17188 10.8413 2.17072 9.84243 3.39844 9.84243H24.2578C25.4855 9.84243 26.4844 10.8413 26.4844 12.069V16.1706H22.1484C20.4038 16.1706 18.9844 17.59 18.9844 19.3346C18.9844 21.0792 20.4038 22.4987 22.1484 22.4987H26.4844V26.6002C26.4844 27.828 25.4855 28.8268 24.2578 28.8268H16.4648C16.1413 28.8268 15.8789 29.0892 15.8789 29.4127C15.8789 29.7363 16.1413 29.9987 16.4648 29.9987H24.2578C26.1317 29.9987 27.6562 28.4741 27.6562 26.6002V22.4987H28.2422C29.2114 22.4987 30 21.7101 30 20.7409V17.9284C30 16.9592 29.2114 16.1706 28.2422 16.1706ZM20.2584 3.90372C20.7111 4.02501 21.0895 4.31534 21.3238 4.72122L23.604 8.67056H10.9742L18.927 4.07897C19.3328 3.84472 19.8056 3.78237 20.2584 3.90372ZM13.7141 1.68448C14.0454 1.35308 14.4861 1.17056 14.9548 1.17056C15.4235 1.17056 15.8641 1.35308 16.1955 1.68448L17.8555 3.3445L8.63051 8.67056H6.72809L13.7141 1.68448ZM28.8281 20.7409C28.8281 21.064 28.5653 21.3268 28.2422 21.3268H22.1484C21.0499 21.3268 20.1562 20.4331 20.1562 19.3346C20.1562 18.2361 21.0499 17.3424 22.1484 17.3424H28.2422C28.5653 17.3424 28.8281 17.6053 28.8281 17.9284V20.7409Z" fill="#04A5FF"/>
<path d="M22.0503 18.749C21.8962 18.749 21.745 18.8117 21.636 18.9207C21.5271 19.0297 21.4644 19.1803 21.4644 19.335C21.4644 19.4891 21.527 19.6402 21.636 19.7492C21.745 19.8581 21.8962 19.9209 22.0503 19.9209C22.205 19.9209 22.3556 19.8582 22.4645 19.7492C22.5741 19.6402 22.6362 19.4891 22.6362 19.335C22.6362 19.1809 22.5741 19.0297 22.4645 18.9207C22.3556 18.8117 22.205 18.749 22.0503 18.749Z" fill="#04A5FF"/>
<path d="M13.8281 28.8271C13.674 28.8271 13.5229 28.8898 13.4139 28.9988C13.3049 29.1079 13.2422 29.259 13.2422 29.4131C13.2422 29.5672 13.3048 29.7184 13.4139 29.8273C13.5229 29.9363 13.674 29.999 13.8281 29.999C13.9822 29.999 14.1334 29.9363 14.2423 29.8273C14.3513 29.7184 14.4141 29.5672 14.4141 29.4131C14.4141 29.259 14.3514 29.1078 14.2423 28.9988C14.1334 28.8898 13.9822 28.8271 13.8281 28.8271Z" fill="#04A5FF"/>
</svg>
