<svg width="20" height="21" fill="none" xmlns="http://www.w3.org/2000/svg"><path d="M18.047 3.567h-6.29a.39.39 0 000 .782h6.29c.646 0 1.172.525 1.172 1.172v10.937c0 .646-.526 1.172-1.172 1.172H1.953a1.173 1.173 0 01-1.172-1.172V5.521c0-.647.526-1.172 1.172-1.172h6.29a.39.39 0 100-.782h-6.29A1.955 1.955 0 000 5.521v10.937c0 1.077.876 1.953 1.953 1.953h16.094A1.955 1.955 0 0020 16.458V5.521a1.955 1.955 0 00-1.953-1.954z" fill="#04A5FF"/><path d="M1.719 5.677v10.625c0 .215.175.39.39.39h15.782a.39.39 0 00.39-.39V5.677a.39.39 0 00-.39-.39H2.109a.39.39 0 00-.39.39zM7.773 15.91V6.067h4.454v9.844H7.773zm9.727 0h-4.492V6.067H17.5v9.844zm-15-9.844h4.492v9.844H2.5V6.067z" fill="#04A5FF"/><path d="M6.128 8.859a.39.39 0 00-.327-.177H3.69a.39.39 0 100 .78h1.511L3.758 12.75a.39.39 0 00.715.315L6.158 9.23a.39.39 0 00-.03-.37zm8.072.604h1.51l-1.445 3.286a.39.39 0 00.716.315l1.685-3.835a.39.39 0 00-.357-.547h-2.11a.39.39 0 000 .78zm-2.818-.604a.39.39 0 00-.327-.177h-2.11a.39.39 0 100 .78h1.511L9.012 12.75a.39.39 0 00.715.315l1.685-3.835a.39.39 0 00-.03-.37zM10 4.349a.394.394 0 00.39-.391.394.394 0 00-.39-.39.394.394 0 00-.39.39.394.394 0 00.39.39z" fill="#04A5FF"/></svg>