<svg width="30" height="30" fill="none" xmlns="http://www.w3.org/2000/svg"><g clip-path="url(#clip0)" fill="#00C437"><path d="M14.865 28.792a.586.586 0 10.018 1.173.586.586 0 00-.018-1.173z"/><path d="M26.464 5.356A14.887 14.887 0 0016.267.09 14.911 14.911 0 005.33 3.58a14.914 14.914 0 00-5.274 10.2 14.891 14.891 0 003.48 10.936 15.02 15.02 0 008.615 5.048.588.588 0 00.222-1.154 13.841 13.841 0 01-7.938-4.652c-2.38-2.82-3.52-6.4-3.208-10.08a13.746 13.746 0 014.86-9.4A13.74 13.74 0 0116.17 1.26a13.72 13.72 0 019.397 4.853c2.38 2.82 3.52 6.4 3.208 10.08a13.746 13.746 0 01-4.86 9.4 13.828 13.828 0 01-6.484 3.05.593.593 0 00-.478.671c.05.321.364.544.684.487a15.006 15.006 0 007.035-3.31 14.913 14.913 0 005.274-10.2 14.891 14.891 0 00-3.48-10.936z"/><path d="M24.402 12.895a3.282 3.282 0 000-4.636 3.282 3.282 0 00-4.635 0l-6.765 6.765-2.768-2.768a3.281 3.281 0 00-4.636 0 3.256 3.256 0 00-.96 2.318c0 .875.341 1.698.96 2.317l5.004 5.004a3.431 3.431 0 002.4 1.017c.892 0 1.745-.361 2.4-1.017l9-9zm-11.4 8.841c-.57 0-1.142-.245-1.57-.672L6.43 16.06a2.089 2.089 0 01-.616-1.486c0-.562.218-1.09.616-1.487.41-.41.948-.615 1.486-.615.539 0 1.077.205 1.487.615l3.183 3.184c.23.23.602.23.832 0l7.18-7.18c.82-.82 2.154-.82 2.973 0 .82.82.82 2.153 0 2.973l-9 9c-.433.433-.99.672-1.569.672z"/></g><defs><clipPath id="clip0"><path fill="#fff" d="M0 0h30v30H0z"/></clipPath></defs></svg>