<svg width="30" height="30" fill="none" xmlns="http://www.w3.org/2000/svg"><g clip-path="url(#clip0)" fill="#04A5FF"><path d="M6.537 6.523H3.753a1.6 1.6 0 00-1.599 1.6v1.87a1.6 1.6 0 001.6 1.598h2.783a1.6 1.6 0 001.599-1.599v-1.87a1.6 1.6 0 00-1.6-1.599zm.427 3.47a.427.427 0 01-.427.426H3.753a.427.427 0 01-.427-.427v-1.87c0-.235.192-.427.427-.427h2.784c.235 0 .427.192.427.427v1.87zm6.879-1.813h-3.111c-.86 0-1.56.7-1.56 1.56v1.949c0 .86.7 1.56 1.56 1.56h3.111c.86 0 1.56-.7 1.56-1.56V9.74c0-.86-.7-1.56-1.56-1.56zm.388 3.509a.388.388 0 01-.388.387h-3.111a.388.388 0 01-.388-.387V9.74c0-.213.174-.387.388-.387h3.111c.214 0 .388.174.388.387v1.949z"/><path d="M29.994 18.41c0-.805-.655-1.46-1.46-1.46h-2.098v-4.628c0-1.037-.843-1.88-1.88-1.88H22.35v-5.59a2.806 2.806 0 00-2.803-2.802H2.803A2.806 2.806 0 000 4.852V15.32a2.806 2.806 0 002.803 2.802h6.222l-.471 2.548H7.006a.586.586 0 000 1.172h8.338a.586.586 0 000-1.172h-1.547l-.472-2.548H16.3v4.628c0 1.037.844 1.88 1.88 1.88h5.088v1.86c0 .805.655 1.46 1.46 1.46h3.807c.805 0 1.46-.655 1.46-1.46 0-3.145.013-1.1 0-8.08zm-5.555 1.54h4.383v.578h-1.8c-.811 0-1.471.66-1.471 1.472v.925c0 .811.66 1.471 1.471 1.471h1.8v.554H24.44v-5zm4.383 3.274h-1.8a.3.3 0 01-.3-.3V22a.3.3 0 01.3-.3h1.8v1.524zm0-4.814v.368H24.44c.012-.312-.03-.41.05-.529a.288.288 0 01.238-.127h3.807c.159 0 .288.13.288.288zm-4.095-1.46c-.802 0-1.46.652-1.46 1.46v2.575H17.47v-6.898h7.793v2.863h-.537zm.537-4.628v.593h-7.793v-.593a.71.71 0 01.709-.708h6.376a.71.71 0 01.708.708zm-22.461-9.1h16.745c.818 0 1.496.605 1.613 1.39h-1.51a.586.586 0 000 1.172h1.527v4.658H18.18c-1.037 0-1.88.843-1.88 1.88v2.066H1.171V5.784h13.79a.586.586 0 100-1.172H1.19a1.633 1.633 0 011.613-1.39zm9.802 17.448h-2.86l.472-2.548h1.916l.472 2.548zm-9.802-3.72a1.633 1.633 0 01-1.613-1.39H16.3v1.39H2.802zm15.377 6.51a.71.71 0 01-.709-.709v-.593h5.796v1.302H18.18zm10.354 3.32h-3.807a.288.288 0 01-.288-.289v-.368h4.383v.368c0 .16-.13.289-.288.289z"/><path d="M17.307 5.784a.586.586 0 000-1.172h-.001a.585.585 0 10.001 1.172zm4.057 8.943h-1.978c-.769 0-1.394.625-1.394 1.393v1.394c0 .769.625 1.394 1.394 1.394h1.978c.768 0 1.393-.625 1.393-1.394V16.12c0-.768-.625-1.393-1.393-1.393zm.221 2.787c0 .122-.1.222-.221.222h-1.978a.222.222 0 01-.222-.222V16.12c0-.122.1-.221.222-.221h1.978c.122 0 .221.1.221.221v1.394z"/></g><defs><clipPath id="clip0"><path fill="#fff" d="M0 0h30v30H0z"/></clipPath></defs></svg>