<svg width="20" height="20" fill="none" xmlns="http://www.w3.org/2000/svg"><g clip-path="url(#clip0)" fill="#fff"><path d="M2.186 18.79a2.18 2.18 0 01-.879-.183A2.201 2.201 0 010 16.611c0-.399.114-.793.331-1.141L8.14 2.243l.006-.009a2.18 2.18 0 011.85-1.023h.011a2.181 2.181 0 011.85 1.023l.005.01 4.979 8.434a.388.388 0 01-.336.59.393.393 0 01-.337-.193l-4.975-8.428A1.39 1.39 0 0010 1.992a1.39 1.39 0 00-1.19.653L1 15.872l-.005.009a1.365 1.365 0 00-.215.73c0 .357.144.71.396.971a1.38 1.38 0 001.012.426H17.81a1.381 1.381 0 001.012-.426 1.41 1.41 0 00.396-.97c0-.258-.073-.504-.215-.731l-.005-.01-1.045-1.769a.387.387 0 01.138-.534.389.389 0 01.535.137l1.043 1.767a2.147 2.147 0 01.168 1.959 2.196 2.196 0 01-1.145 1.176 2.19 2.19 0 01-.879.182H2.186z"/><path d="M17.617 16.836H2.383a.39.39 0 01-.337-.59l7.618-12.89a.39.39 0 01.672 0l7.617 12.89a.39.39 0 01-.336.59zm-14.55-.781h13.866L10 4.323 3.067 16.055z"/><path d="M10 15.234a1.173 1.173 0 01-1.172-1.171 1.173 1.173 0 012.344-.001c0 .647-.526 1.172-1.172 1.172zm0-1.562a.391.391 0 100 .782.391.391 0 000-.782zm0-1.562c-.428 0-.6-.497-.673-.71a7.796 7.796 0 01-.263-1.069c-.146-.78-.236-1.606-.236-1.854a1.173 1.173 0 012.344 0c0 .248-.09 1.073-.236 1.854a7.797 7.797 0 01-.263 1.07c-.073.212-.245.708-.673.708zm0-4.024a.391.391 0 00-.39.39c0 .15.063.796.184 1.5.075.44.146.747.206.96.06-.213.13-.52.206-.96.121-.704.185-1.35.185-1.5a.391.391 0 00-.391-.39zm7.396 4.694a.39.39 0 100-.781.39.39 0 000 .781z"/></g><defs><clipPath id="clip0"><path fill="#fff" d="M0 0h20v20H0z"/></clipPath></defs></svg>