<svg width="20" height="20" fill="none" xmlns="http://www.w3.org/2000/svg"><path d="M7.285 11.592V3.711a.39.39 0 00-.39-.39H4.27a2.33 2.33 0 00-2.33 2.326v.563c0 .216.175.39.391.39h2.625c.593 0 1.135-.223 1.547-.59V7.4a4.699 4.699 0 00-2.895 1.313 4.7 4.7 0 00-1.413 2.877A2.562 2.562 0 000 14.12a2.559 2.559 0 004.727 1.356 2.559 2.559 0 004.726-1.356c0-1.278-.942-2.34-2.168-2.529zM4.957 5.82H2.723v-.172c0-.852.694-1.546 1.547-1.546h2.234v.171c0 .853-.694 1.547-1.547 1.547zm1.547 2.363v3.41a2.563 2.563 0 00-1.777 1.172 2.563 2.563 0 00-1.745-1.167 3.926 3.926 0 013.522-3.415zm-3.945 7.715A1.78 1.78 0 01.78 14.121c0-.98.798-1.777 1.778-1.777s1.777.797 1.777 1.777a1.78 1.78 0 01-1.777 1.777zm4.336 0a1.78 1.78 0 01-1.778-1.777c0-.98.797-1.777 1.778-1.777.98 0 1.777.797 1.777 1.777a1.78 1.78 0 01-1.777 1.777zm10.937-4.306V3.711a.39.39 0 00-.39-.39h-2.626a2.33 2.33 0 00-2.328 2.327v.563c0 .216.175.39.39.39h2.626c.593 0 1.135-.223 1.547-.59V7.4a4.7 4.7 0 00-2.895 1.313 4.7 4.7 0 00-1.413 2.877 2.562 2.562 0 00-2.196 2.532c0 .636.235 1.246.662 1.718a.39.39 0 10.579-.525 1.78 1.78 0 011.317-2.97 1.78 1.78 0 011.318 2.97.39.39 0 00.579.525c.102-.113.193-.234.272-.36a2.559 2.559 0 102.558-3.887zM15.504 5.82H13.27v-.172c0-.852.694-1.546 1.546-1.546h2.235v.171c0 .853-.694 1.547-1.547 1.547zm-1.975 5.778a3.926 3.926 0 013.522-3.415v3.41a2.563 2.563 0 00-1.778 1.172 2.563 2.563 0 00-1.744-1.167zm3.912 4.3a1.78 1.78 0 01-1.777-1.777c0-.98.797-1.777 1.777-1.777.98 0 1.778.797 1.778 1.777a1.78 1.78 0 01-1.778 1.777z" fill="#04A5FF"/><path d="M13.105 15.898a.393.393 0 00-.39.391.393.393 0 00.39.39.393.393 0 00.391-.39.393.393 0 00-.39-.39z" fill="#04A5FF"/></svg>