<svg width="20" height="21" fill="none" xmlns="http://www.w3.org/2000/svg"><g clip-path="url(#clip0)" fill="#04A5FF"><path d="M17.605.99H2.395A2.397 2.397 0 000 3.383v15.21a2.397 2.397 0 002.395 2.395h15.21A2.397 2.397 0 0020 18.595V3.384A2.397 2.397 0 0017.605.989zm1.598 17.605a1.6 1.6 0 01-1.598 1.598H2.395a1.6 1.6 0 01-1.598-1.598V3.384a1.6 1.6 0 011.598-1.598h15.21a1.6 1.6 0 011.598 1.598v15.21z"/><path d="M17.398 15.779l-3.566-3.566a.398.398 0 00-.391-.102l-.531.152a.402.402 0 00-.112.052l-.546.364-.756.504a13.716 13.716 0 01-3.851-3.932l.534-.534.456-.455a.4.4 0 00.101-.173l.152-.53a.4.4 0 00-.102-.392L5.22 3.601a.399.399 0 00-.42-.091l-.607.227a.399.399 0 00-.142.092 5.165 5.165 0 000 7.316l5.804 5.804a5.164 5.164 0 007.316 0 .4.4 0 00.092-.142l.227-.607a.398.398 0 00-.091-.421zM4.554 4.452l.284-.106 3.22 3.219-.06.206-.1.1-3.38-3.38.036-.039zm5.864 11.934L4.613 10.58a4.37 4.37 0 01-.59-5.457l3.311 3.311-.477.477a.398.398 0 00-.058.49 14.501 14.501 0 004.482 4.594.398.398 0 00.438-.003l.703-.47 3.453 3.453a4.37 4.37 0 01-5.457-.59zm6.129.059a4.583 4.583 0 01-.04.037l-3.409-3.41.09-.06.246-.07 3.22 3.219-.107.284zm1.859-5.535a.398.398 0 00-.398.398v.199a.398.398 0 00.797 0v-.2a.398.398 0 00-.399-.398zm0-7.85a.398.398 0 00-.398.399v6.335a.398.398 0 00.797 0V3.459a.398.398 0 00-.399-.398z"/></g><defs><clipPath id="clip0"><path fill="#fff" transform="translate(0 .99)" d="M0 0h20v20H0z"/></clipPath></defs></svg>