<svg width="30" height="30" fill="none" xmlns="http://www.w3.org/2000/svg"><path d="M29.204 10.296l-9.5-9.5a2.704 2.704 0 00-1.926-.795c-.729 0-1.412.282-1.925.795L.795 15.854A2.704 2.704 0 000 17.779c0 .73.282 1.413.795 1.926l1.172 1.171L9.84 28.75H8.75a.625.625 0 000 1.25h12.499a.625.625 0 000-1.25h-6.648l14.603-14.603a2.727 2.727 0 000-3.851zm-.884 2.967L13.262 28.321a1.463 1.463 0 01-1.04.429h-.004a1.465 1.465 0 01-1.04-.43l-7.885-7.885 14.46-14.461a.625.625 0 10-.884-.884L2.41 19.55l-.73-.729a1.463 1.463 0 01-.429-1.042c0-.395.152-.765.429-1.041L16.736 1.68a1.463 1.463 0 011.042-.429c.396 0 .766.152 1.042.429l3.381 3.381-14.46 14.46a.625.625 0 00.883.885L23.085 5.945l5.235 5.234c.574.575.574 1.51 0 2.084z" fill="#04A5FF"/><path d="M15.399 18.051a.625.625 0 00-.884 0L9.597 22.97a.625.625 0 00.883.884l4.918-4.918a.625.625 0 000-.884zm-2.018 4.669l-2.017 2.016a.625.625 0 00.884.884l2.017-2.017a.625.625 0 00-.884-.884zm1.857-1.856l-.265.265a.625.625 0 00.883.884l.266-.266a.625.625 0 10-.884-.883zm8.613-11.267a.625.625 0 00-.883 0l-2.652 2.652a.625.625 0 000 .883l1.768 1.768a.623.623 0 00.884 0l2.651-2.651a.625.625 0 000-.884l-1.768-1.768zm-1.325 3.978l-.884-.884 1.767-1.768.884.884-1.767 1.768zM18.77 4.699c.16 0 .32-.061.442-.183l.265-.266a.625.625 0 00-.884-.883l-.265.265a.625.625 0 00.442 1.067zM6.282 20.98l-.265.265a.625.625 0 00.884.884l.265-.265a.625.625 0 00-.884-.884z" fill="#04A5FF"/></svg>