<svg width="20" height="21" fill="none" xmlns="http://www.w3.org/2000/svg"><g clip-path="url(#clip0)" fill="#04A5FF"><path d="M1.953 10.599a.39.39 0 100 .781.39.39 0 000-.781z"/><path d="M19.657 6.857l-5.524-5.524a1.164 1.164 0 00-.83-.344c-.31 0-.6.12-.821.337L10.156 3.47V2.16c0-.646-.525-1.172-1.172-1.172H1.172A1.176 1.176 0 000 2.161v17.656c0 .647.526 1.172 1.172 1.172h7.812c.647 0 1.172-.525 1.172-1.172v-1.802l3.422-3.422.002-.002 6.077-6.077c.221-.221.343-.516.343-.829 0-.313-.122-.607-.343-.828zM9.375 10.599h-5.86a.39.39 0 000 .78h5.86v8.438a.39.39 0 01-.39.391H1.171a.391.391 0 01-.39-.39V2.16a.39.39 0 01.39-.39h7.812a.39.39 0 01.391.39v8.44zm.781 6.31v-4.616l2.563 2.054-2.563 2.563zm8.948-8.948l-5.829 5.83-3.119-2.499v-6.76l2.86-2.636a.388.388 0 01.564-.011l5.524 5.524a.388.388 0 010 .552z"/><path d="M2.734 2.669a1.173 1.173 0 000 2.344 1.173 1.173 0 000-2.344zm0 1.562a.391.391 0 11.001-.782.391.391 0 010 .782zm0 7.93a1.173 1.173 0 000 2.344 1.173 1.173 0 000-2.344zm0 1.563a.391.391 0 11.001-.782.391.391 0 010 .782zm4.688-1.563c-.646 0-1.172.526-1.172 1.172 0 .646.526 1.172 1.172 1.172.646 0 1.172-.526 1.172-1.172 0-.646-.526-1.172-1.172-1.172zm0 1.563a.391.391 0 110-.782.391.391 0 010 .782zm0 3.242a1.173 1.173 0 000 2.344 1.173 1.173 0 000-2.344zm0 1.562a.391.391 0 110-.782.391.391 0 010 .782zm-4.688-1.562a1.172 1.172 0 000 2.344 1.173 1.173 0 000-2.344zm0 1.562a.391.391 0 11.001-.782.391.391 0 010 .782zM7.422 7.474c-.646 0-1.172.525-1.172 1.172a1.173 1.173 0 002.344 0c0-.647-.526-1.172-1.172-1.172zm0 1.562a.391.391 0 110-.782.391.391 0 010 .782zM5.078 5.13c-.646 0-1.172.526-1.172 1.172 0 .646.526 1.172 1.172 1.172.646 0 1.172-.526 1.172-1.172 0-.646-.526-1.172-1.172-1.172zm0 1.562a.391.391 0 11.001-.782.391.391 0 010 .782zm9.055-3.15a1.173 1.173 0 00-2 .828 1.168 1.168 0 001.172 1.171 1.168 1.168 0 001.17-1.17c0-.314-.121-.608-.342-.83zm-.553 1.104a.391.391 0 11-.552-.553.391.391 0 01.552.553zm.553 5.526a1.173 1.173 0 00-2 .829c0 .313.121.607.343.828.22.222.515.343.828.343.313 0 .607-.121.829-.343.221-.221.343-.515.343-.829 0-.313-.122-.607-.343-.828zm-.553 1.105a.388.388 0 01-.552 0 .389.389 0 010-.553.39.39 0 01.667.277.388.388 0 01-.115.276zm.553-4.42a1.164 1.164 0 00-.829-.343c-.313 0-.607.122-.828.343a1.164 1.164 0 00-.344.828c0 .313.122.608.344.829.22.221.515.343.828.343a1.167 1.167 0 001.172-1.172c0-.313-.122-.607-.343-.828zm-.553 1.105a.388.388 0 01-.552 0 .388.388 0 010-.553.388.388 0 01.552 0 .388.388 0 010 .553z"/></g><defs><clipPath id="clip0"><path fill="#fff" transform="translate(0 .99)" d="M0 0h20v20H0z"/></clipPath></defs></svg>