<svg width="30" height="30" fill="none" xmlns="http://www.w3.org/2000/svg"><g clip-path="url(#clip0)" fill="red"><path d="M29.586 14.138l-5.118-4.13a1.15 1.15 0 00-1.223-.18 1.101 1.101 0 00-.667 1.015v1.814H7.911c-.808 0-1.465.657-1.465 1.464v1.758c0 .808.657 1.465 1.465 1.465h14.667v1.813c0 .43.246.814.64 1.003a1.135 1.135 0 001.215-.14l5.144-4.15a1.105 1.105 0 00.01-1.732zm-5.836 4.927v-2.307a.586.586 0 00-.586-.586H7.911a.297.297 0 01-.293-.293v-1.758c0-.158.134-.293.293-.293h15.253a.586.586 0 00.586-.585v-2.308L28.788 15l-5.038 4.065z"/><path d="M18.457 19.102h-1.758c-.808 0-1.465.657-1.465 1.465v4.746H4.687V4.687h2.637a.586.586 0 000-1.171H4.102a.586.586 0 00-.586.586v21.796c0 .324.262.586.586.586H15.82a.586.586 0 00.586-.586v-5.332c0-.158.134-.293.293-.293h1.758c.159 0 .293.135.293.293v6.504a1.76 1.76 0 01-1.758 1.758H2.93a1.76 1.76 0 01-1.758-1.758V2.93c0-.97.788-1.758 1.758-1.758h14.062c.97 0 1.758.788 1.758 1.758v6.504a.297.297 0 01-.293.293h-1.758a.297.297 0 01-.293-.293V4.102a.586.586 0 00-.586-.586h-3.222a.586.586 0 000 1.171h2.636v4.747c0 .807.657 1.464 1.465 1.464h1.758c.808 0 1.465-.657 1.465-1.464V2.93A2.933 2.933 0 0016.992 0H2.93A2.933 2.933 0 000 2.93v24.14A2.933 2.933 0 002.93 30h14.062a2.933 2.933 0 002.93-2.93v-6.503c0-.808-.657-1.465-1.465-1.465zm-9.082-15z"/></g><defs><clipPath id="clip0"><path fill="#fff" d="M0 0h30v30H0z"/></clipPath></defs></svg>