<svg width="20" height="20" fill="none" xmlns="http://www.w3.org/2000/svg"><g clip-path="url(#clip0)" fill="#fff"><path d="M12.719 4.347h1.822a.71.71 0 00.708-.708V.71a.709.709 0 00-.708-.708h-2.503A2.97 2.97 0 0011.914 0C11.442 0 9.8.093 8.497 1.292 7.076 2.6 7.212 4.165 7.271 4.55v1.908h-1.81a.709.709 0 00-.71.708v3.15c0 .39.319.707.71.707h1.706v8.268c0 .39.317.708.708.708h3.569a.71.71 0 00.708-.708v-8.227h2.021c.36 0 .663-.27.704-.627l.367-3.19a.709.709 0 00-.703-.79h-2.389v-1.6c0-.332.09-.511.567-.511zm-.965 2.908h2.687l-.347 3.013h-2.34a.398.398 0 00-.399.399v8.536H7.963v-8.577a.398.398 0 00-.398-.398H5.549V7.255h2.12a.4.4 0 00.4-.398V4.518a.4.4 0 00-.007-.068c-.042-.241-.192-1.499.975-2.572C10.127.875 11.515.797 11.914.797a2.05 2.05 0 01.116.002h2.422V3.55H12.72c-.854 0-1.364.489-1.364 1.307v2c0 .22.179.398.399.398z"/><path d="M8.765 13.426a.398.398 0 00-.398.399v.199a.398.398 0 00.796 0v-.2a.398.398 0 00-.398-.398zm0 1.474a.398.398 0 00-.398.399v3.028a.398.398 0 00.796 0v-3.028a.398.398 0 00-.398-.399z"/></g><defs><clipPath id="clip0"><path fill="#fff" d="M0 0h20v20H0z"/></clipPath></defs></svg>