<svg width="30" height="30" fill="none" xmlns="http://www.w3.org/2000/svg"><g clip-path="url(#clip0)" fill="#04A5FF"><path d="M27.936 17.135a.587.587 0 00-1.095-.267c-.325.572-1.661.888-2.853.992 1.268-3.323.771-5.801.09-7.337-.813-1.827-2.047-2.746-2.1-2.784a.586.586 0 00-.928.539c.129 1.131-.736 1.694-1.114 1.883-.851.427-2.204.475-3.162-.427-1.559-1.466-1.423-4.716.37-8.918a.586.586 0 00-.646-.806c-1.405.264-2.909.802-3.831 1.37a.586.586 0 00.616.998c.572-.353 1.445-.705 2.357-.963-2.14 5.656-.743 8.162.33 9.173 1.376 1.294 3.247 1.244 4.49.621.796-.398 1.35-1.01 1.61-1.736.305.374.65.882.936 1.526.935 2.104.784 4.54-.448 7.242a.586.586 0 00.529.83c.037 0 .936.003 1.943-.166.69-.116 1.266-.286 1.726-.509-.28 5.07-3.581 7.66-5.625 8.784-.853.47-1.758.837-2.691 1.105.21-.16.41-.325.6-.498a7.724 7.724 0 002.065-3.04.586.586 0 00-1.099-.409 6.622 6.622 0 01-.317.719c.323-1.506-.09-2.89-1.194-4.005a.584.584 0 00-.864.035c-.807.958-1.901 1.225-2.788.682-.822-.504-1.474-1.82-.609-3.868a.586.586 0 00-.828-.739c-1.739.982-2.947 2.237-3.591 3.731-.563 1.305-.662 2.747-.289 4.171a7.28 7.28 0 00.92 2.08c-.528-.46-.988-1-1.354-1.611-1.194-1.99-1.228-4.353-.093-6.482.252-.472.564-1 .895-1.558 1.126-1.9 2.375-4.007 2.466-5.848.512.284 1.174.71 1.795 1.285 1.605 1.487 2.198 3.246 1.762 5.228a.587.587 0 00.748.685 6.293 6.293 0 002.618-1.77c.536 1.02.913 2.178 1.08 3.34a.586.586 0 001.16-.167c-.234-1.625-.838-3.247-1.701-4.568a.585.585 0 00-.998.028c-.436.754-1.08 1.264-1.608 1.583.109-1.96-.672-3.756-2.293-5.245a10.53 10.53 0 00-3.03-1.924.586.586 0 00-.774.698c.426 1.59-1.049 4.079-2.233 6.077-.338.57-.657 1.109-.921 1.605-1.334 2.5-1.29 5.284.122 7.636.346.576.762 1.1 1.233 1.562a10.418 10.418 0 01-1.53-.87c-3.225-2.22-4.764-6.023-4.396-10.788.919.873 2.309 2.05 3.289 2.22a.586.586 0 00.681-.647c-.01-.077-.865-7.741 2.92-12.636a.586.586 0 10-.928-.717c-2.138 2.766-2.881 6.29-3.129 8.76a25.808 25.808 0 00-.1 3.738c-.885-.56-2.058-1.659-2.755-2.401a.586.586 0 00-1.008.32c-.806 5.789.885 10.447 4.762 13.117 2.017 1.388 4.5 2.15 7.18 2.203a15.304 15.304 0 00.605 0c.049 0 .097.003.145.003a.596.596 0 00.115-.012c2.292-.09 4.58-.71 6.525-1.781 1.935-1.066 3.523-2.565 4.592-4.337 1.19-1.972 1.744-4.238 1.648-6.735zm-15.232 1.91a4.472 4.472 0 00.062 1.629c.213.901.733 1.645 1.465 2.094a3.038 3.038 0 002.172.388 3.53 3.53 0 001.646-.826c.53.735.694 1.573.49 2.5-.324 1.477-1.626 3.02-3.142 3.794-.175.068-.354.132-.538.193l-.041.001c-1.79-.143-3.585-1.87-4.158-4.051-.284-1.082-.568-3.607 2.044-5.723z"/><path d="M20.454 22.002v.012a.586.586 0 00.565.606h.02a.586.586 0 00.585-.565l.001-.018a.586.586 0 10-1.171-.035zM11.598 3.34a.586.586 0 11-1.172 0 .586.586 0 011.172 0z"/></g><defs><clipPath id="clip0"><path fill="#fff" d="M0 0h30v30H0z"/></clipPath></defs></svg>