<svg width="30" height="30" fill="none" xmlns="http://www.w3.org/2000/svg"><g clip-path="url(#clip0)" fill="#04A5FF"><path d="M13.844 20.348a.586.586 0 10-.828-.829.586.586 0 00.828.829zM11.065 6.443c0 3.553 2.896 6.444 6.455 6.444 3.56 0 6.457-2.89 6.457-6.444C23.977 2.891 21.08 0 17.52 0s-6.455 2.89-6.455 6.443zm11.738 0c0 2.908-2.37 5.273-5.283 5.273-2.912 0-5.282-2.365-5.282-5.273 0-2.906 2.37-5.271 5.282-5.271 2.913 0 5.283 2.365 5.283 5.271z"/><path d="M6.79 29.827a.588.588 0 00.828.004l2.845-2.797c.484-.483.63-1.197.418-1.818l.612-.59c.33-.317.764-.492 1.223-.492h7.802a5.26 5.26 0 003.684-1.494c.041-.04-.31.372 5.323-6.346a2.343 2.343 0 00-.278-3.303 2.357 2.357 0 00-3.294.261l-3.463 3.553a2.361 2.361 0 00-1.825-.872H14.12a7.584 7.584 0 00-2.94-.586c-2.825 0-5.293 1.303-6.618 3.746a1.756 1.756 0 00-1.57.485l-2.79 2.795A.585.585 0 00.2 23.2l6.59 6.628zm4.39-13.308c.9 0 1.769.18 2.585.536.074.033.154.05.235.05h6.665c.636 0 1.174.518 1.174 1.171 0 .646-.527 1.172-1.174 1.172h-4.789a.586.586 0 100 1.171h4.789a2.348 2.348 0 002.327-2.65c3.35-3.436 3.822-3.92 3.843-3.943a1.172 1.172 0 111.792 1.514l-5.264 6.28a4.091 4.091 0 01-2.845 1.142h-7.803a2.92 2.92 0 00-2.037.822l-.499.48-4.598-4.589c1.075-2.012 3.091-3.156 5.6-3.156zm-7.357 3.887a.587.587 0 01.727-.082c.102.061-.19-.204 5.084 5.052a.586.586 0 01.003.826L7.21 28.587l-5.767-5.8 2.38-2.381zM16.815 2.929v.686a1.76 1.76 0 00-1.174 1.657c0 .969.79 1.757 1.76 1.757a.587.587 0 110 1.171c-.25 0-.52-.157-.761-.443a.588.588 0 00-.827-.071.585.585 0 00-.072.825c.314.373.683.632 1.074.763v.684a.586.586 0 001.174 0V9.27a1.76 1.76 0 001.174-1.656c0-.97-.79-1.758-1.761-1.758a.587.587 0 010-1.171c.208 0 .427.106.635.306a.585.585 0 10.816-.842 2.268 2.268 0 00-.864-.539v-.682a.586.586 0 00-1.174 0z"/></g><defs><clipPath id="clip0"><path fill="#fff" d="M0 0h30v30H0z"/></clipPath></defs></svg>