<svg width="20" height="21" fill="none" xmlns="http://www.w3.org/2000/svg"><g clip-path="url(#clip0)" fill="#04A5FF"><path d="M11.068 19.921H8.932a.39.39 0 01-.39-.39v-1.745H6.797a.39.39 0 01-.39-.39V15.65H4.66a.39.39 0 01-.39-.39v-1.745H2.526a.39.39 0 01-.39-.39V11.38H.39a.39.39 0 01-.39-.391V4.583a.39.39 0 01.39-.39h1.745V2.446a.39.39 0 01.391-.39h4.27a.39.39 0 01.391.39v1.745h1.745a.39.39 0 01.39.39v1.745h1.355V4.583a.39.39 0 01.39-.39h1.745V2.446a.39.39 0 01.391-.39h4.271a.39.39 0 01.39.39v1.745h1.745a.39.39 0 01.391.39v1.446a.39.39 0 01-.781 0V4.973h-1.745a.39.39 0 01-.39-.39V2.838h-3.49v1.745a.39.39 0 01-.39.39h-1.746v1.745a.39.39 0 01-.39.39H8.932a.39.39 0 01-.39-.39V4.973H6.797a.39.39 0 01-.39-.39V2.838h-3.49v1.745a.39.39 0 01-.391.39H.781v5.625h1.745a.39.39 0 01.39.39v1.746h1.745a.39.39 0 01.391.39v1.745h1.745a.39.39 0 01.39.39v1.746h1.745a.39.39 0 01.39.39l.001 1.745h1.354v-1.745a.39.39 0 01.39-.39h1.745V15.26a.39.39 0 01.391-.39h1.745v-1.746a.39.39 0 01.39-.39h1.745v-1.745a.39.39 0 01.391-.39h1.745V9.543a.39.39 0 01.781 0v1.445a.39.39 0 01-.39.39h-1.745v1.745a.39.39 0 01-.391.391h-1.745v1.745a.39.39 0 01-.39.39h-1.745v1.745a.39.39 0 01-.39.39h-1.746v1.746a.39.39 0 01-.39.39z"/><path d="M19.61 8.177a.394.394 0 01-.391-.39.393.393 0 01.39-.391.393.393 0 01.391.39.393.393 0 01-.39.39z"/></g><defs><clipPath id="clip0"><path fill="#fff" transform="translate(0 .99)" d="M0 0h20v20H0z"/></clipPath></defs></svg>