<svg width="20" height="21" fill="none" xmlns="http://www.w3.org/2000/svg"><g clip-path="url(#clip0)" fill="#04A5FF"><path d="M3.071 11.596a2.066 2.066 0 00-2.464.357c-.81.81-.81 2.129 0 2.939l2.188 2.188a.39.39 0 00.552 0l2.188-2.188c.393-.393.61-.915.61-1.47 0-.555-.217-1.077-.61-1.47a2.066 2.066 0 00-2.464-.356zm1.912 2.743L3.07 16.252 1.16 14.34a1.299 1.299 0 010-1.834 1.3 1.3 0 011.682-.131c.137.1.323.1.46 0a1.306 1.306 0 011.682.13c.245.246.38.572.38.918 0 .347-.135.672-.38.917zm14.406-2.386a2.066 2.066 0 00-2.464-.357 2.066 2.066 0 00-2.465.357 2.08 2.08 0 000 2.939l2.188 2.188a.39.39 0 00.553 0l2.188-2.188c.393-.393.609-.915.609-1.47 0-.555-.216-1.077-.61-1.47zm-.553 2.387l-1.911 1.911-1.912-1.911a1.299 1.299 0 010-1.835 1.3 1.3 0 011.681-.131c.137.1.324.1.461 0a1.306 1.306 0 011.681.131c.245.245.38.57.38.917 0 .347-.135.672-.38.918zM9 4.417a2.066 2.066 0 00-2.465-.356 2.066 2.066 0 00-2.464.356 2.08 2.08 0 000 2.94l2.188 2.188a.39.39 0 00.552 0L9 7.357a2.08 2.08 0 000-2.94zm-.553 2.387L6.535 8.716 4.623 6.804a1.289 1.289 0 01-.38-.917c0-.346.135-.672.38-.917a1.3 1.3 0 011.681-.131c.138.1.324.1.461 0a1.306 1.306 0 011.682.13 1.299 1.299 0 010 1.835zm7.479-2.387a2.066 2.066 0 00-2.464-.356 2.066 2.066 0 00-2.464.356 2.08 2.08 0 000 2.94l2.188 2.188a.39.39 0 00.552 0l2.188-2.188c.81-.81.81-2.13 0-2.94zm-4.756 1.47c0-.346.135-.672.38-.917a1.3 1.3 0 011.521-.23v3.586L11.55 6.804a1.288 1.288 0 01-.38-.917zm4.204.917l-1.522 1.522V4.739a1.308 1.308 0 011.522.23c.245.246.38.572.38.918 0 .347-.135.672-.38.917zm-2.911 5.149A2.065 2.065 0 0010 11.596a2.066 2.066 0 00-2.464.357 2.08 2.08 0 000 2.939l2.188 2.188a.39.39 0 00.552 0l.945-.945a.39.39 0 00-.552-.552l-.67.668-1.911-1.911a1.299 1.299 0 010-1.835 1.305 1.305 0 011.681-.131c.138.1.324.1.461 0a1.306 1.306 0 011.682.131c.148.148.255.323.318.521a.39.39 0 10.744-.238 2.084 2.084 0 00-.51-.835z"/><path d="M12.188 14.226a.394.394 0 00-.277.114.394.394 0 000 .552.394.394 0 00.553 0 .394.394 0 000-.552.393.393 0 00-.277-.114z"/></g><defs><clipPath id="clip0"><path fill="#fff" transform="translate(0 .5)" d="M0 0h20v20H0z"/></clipPath></defs></svg>