<svg width="20" height="21" fill="none" xmlns="http://www.w3.org/2000/svg"><path d="M19.56 14.942a1.415 1.415 0 00-.469-2.344 1.416 1.416 0 00-1.213-2.141h-5.771l.79-.79c.438-.439.692-1.02.715-1.64a2.442 2.442 0 00-.589-1.688.897.897 0 00-1.244-.108L8.896 8.603a7.382 7.382 0 00-1.611 1.853H.39a.39.39 0 000 .782h7.117a.39.39 0 00.339-.197 6.605 6.605 0 011.546-1.834l2.883-2.373a.112.112 0 01.154.013 1.676 1.676 0 01-.086 2.267l-.86.86a.738.738 0 00-.16.807.738.738 0 00.683.456h1.42a1.41 1.41 0 00.29 1.657 1.41 1.41 0 000 2.048 1.41 1.41 0 000 2.047 1.41 1.41 0 00-.29 1.657h-3.59c-.65 0-1.265-.247-1.734-.696a.39.39 0 10-.54.565 3.276 3.276 0 002.274.912h8.044a1.416 1.416 0 001.212-2.141 1.41 1.41 0 00.469-2.344zm-5.501-3.071c0-.35.284-.633.633-.633h3.187a.634.634 0 010 1.266h-3.187a.634.634 0 01-.633-.633zm0 2.047c0-.35.284-.633.633-.633h3.894a.634.634 0 010 1.266h-3.894a.634.634 0 01-.633-.633zm3.82 4.728h-3.187a.634.634 0 010-1.266h3.187a.634.634 0 010 1.266zm.707-2.047h-3.894a.634.634 0 010-1.267h3.894a.634.634 0 010 1.267zM4.315 17.84H.391a.39.39 0 100 .782h3.924a.39.39 0 000-.781zM14.456 5.248l.676.488-.259.793a.75.75 0 00.277.852.76.76 0 00.447.148.76.76 0 00.45-.149l.674-.491.67.487a.75.75 0 00.896 0 .75.75 0 00.275-.854l-.258-.786.674-.489a.75.75 0 00.278-.852.75.75 0 00-.725-.526h-.837l-.256-.79a.75.75 0 00-.725-.527.75.75 0 00-.725.528l-.253.789h-.833a.75.75 0 00-.725.527.75.75 0 00.28.852zm1.563-.598c.17 0 .32-.11.372-.271l.322-1.002.325 1.003a.39.39 0 00.372.27h1.06l-.855.62a.39.39 0 00-.142.438l.328 1-.851-.618a.39.39 0 00-.46 0l-.855.623.328-1.006a.39.39 0 00-.143-.438l-.858-.62h1.057zM6.073 17.84a.393.393 0 00-.277.667.394.394 0 00.553 0 .392.392 0 000-.552.393.393 0 00-.276-.114z" fill="#04A5FF"/></svg>