<svg width="30" height="30" fill="none" xmlns="http://www.w3.org/2000/svg"><path d="M15.015 12.422a.59.59 0 00-.586.586.59.59 0 00.586.586.59.59 0 00.586-.586.59.59 0 00-.586-.586zm5.548-.84a.583.583 0 00.746-.36A6.687 6.687 0 0015 2.344a6.687 6.687 0 00-6.323 8.838.586.586 0 001.11-.379A5.514 5.514 0 0115 3.515a5.514 5.514 0 015.202 7.321.586.586 0 00.36.746z" fill="#04A5FF"/><path d="M7.154 12.33a.586.586 0 00.363-.745 7.837 7.837 0 01-.427-2.562c0-4.329 3.522-7.851 7.851-7.851 4.33 0 7.852 3.522 7.852 7.851 0 .878-.144 1.74-.427 2.562a.586.586 0 001.108.381 9.006 9.006 0 00.49-2.943C23.965 4.048 19.918 0 14.942 0S5.918 4.048 5.918 9.023c0 1.009.165 1.999.491 2.944a.586.586 0 00.745.362z" fill="#04A5FF"/><path d="M27.07 15.352h-9.11a4.324 4.324 0 001.376-3.165V9.024A4.34 4.34 0 0015 4.688a4.34 4.34 0 00-4.336 4.335v3.165c0 1.247.53 2.372 1.376 3.164H9.023a.586.586 0 100 1.171h5.391v1.641h-1.651a.586.586 0 100 1.172h4.474a.586.586 0 100-1.172h-1.651v-1.64H27.07c.97 0 1.758.788 1.758 1.757v8.79a1.76 1.76 0 01-1.758 1.757H2.93a1.76 1.76 0 01-1.758-1.758v-8.789a1.76 1.76 0 011.758-1.758h.82a.586.586 0 100-1.171h-.82A2.933 2.933 0 000 18.282v8.788A2.933 2.933 0 002.93 30h24.14A2.933 2.933 0 0030 27.07v-8.789a2.933 2.933 0 00-2.93-2.93zM15 5.859a3.168 3.168 0 013.164 3.164v1.12h-6.328v-1.12A3.168 3.168 0 0115 5.86zm-3.164 6.329v-.873h6.328v.873A3.168 3.168 0 0115 15.351a3.168 3.168 0 01-3.164-3.165z" fill="#04A5FF"/><path d="M6.964 20.998a.586.586 0 00-.586.586v4.684c0 .285.206.529.487.577.042.007.074.013.596.013.251 0 .615-.002 1.148-.005a.586.586 0 00-.003-1.171h-.004l-1.052.004v-4.102a.586.586 0 00-.586-.586zm5.274 5.273v-4.687a.586.586 0 10-1.172 0v4.688a.586.586 0 001.172 0zm10.798-4.081a.586.586 0 100-1.171H21.08a.586.586 0 00-.586.586v4.644c0 .324.263.586.586.586h1.957a.586.586 0 000-1.172h-1.371v-1.15h1.227a.586.586 0 100-1.172h-1.227v-1.15h1.371zm-6.634 4.668h.004a.694.694 0 00.652-.473l1.53-4.608a.586.586 0 00-1.112-.369l-1.084 3.265-1.139-3.281a.586.586 0 00-1.107.384l1.604 4.622c.098.275.36.46.652.46zM6.387 16.523a.59.59 0 00.414-.171.59.59 0 00.172-.415.59.59 0 00-.172-.414.59.59 0 00-.414-.171.59.59 0 00-.415.171.59.59 0 00-.171.415.59.59 0 00.171.414.59.59 0 00.415.171z" fill="#04A5FF"/></svg>