<svg width="30" height="30" fill="none" xmlns="http://www.w3.org/2000/svg"><path d="M15 26.133a.586.586 0 100 1.172.586.586 0 000-1.172z" fill="#04A5FF"/><path d="M26.719 12.89c0-5.547-3.9-10.296-9.239-11.453l.351-.526A.586.586 0 0017.344 0h-4.688a.586.586 0 00-.487.91l.35.527C7.184 2.594 3.282 7.34 3.282 12.891c0 4.632 2.708 8.68 6.676 10.577l-3.089 5.666a.586.586 0 00.515.866h15.234a.586.586 0 00.515-.866l-3.089-5.666c3.968-1.896 6.676-5.945 6.676-10.577zM16.249 1.173L15 3.045l-1.249-1.873h2.498zm-.663 14.59a2.894 2.894 0 001.03-.427l3.753 3.753a8.128 8.128 0 01-4.783 1.985v-5.311zm-3.03-4.487a2.895 2.895 0 00-.427 1.03H6.818a8.128 8.128 0 011.985-4.783l3.753 3.753zM9.63 6.693a8.129 8.129 0 014.783-1.985v5.312a2.894 2.894 0 00-1.03.426L9.631 6.693zm2.498 6.784c.074.368.219.716.427 1.03l-3.754 3.752a8.128 8.128 0 01-1.984-4.782h5.31zm1.255 1.858c.313.208.662.352 1.03.427v5.31a8.128 8.128 0 01-4.783-1.984l3.753-3.753zm-.142-2.444a1.759 1.759 0 113.517.001 1.759 1.759 0 01-3.517-.001zm4.202 1.615c.208-.313.353-.667.427-1.035h5.311a8.145 8.145 0 01-1.984 4.788l-3.754-3.753zm.427-2.201a2.898 2.898 0 00-.427-1.03l3.754-3.753a8.128 8.128 0 011.984 4.783h-5.31zm-1.255-1.859a2.894 2.894 0 00-1.03-.426V4.708a8.128 8.128 0 014.783 1.985l-3.753 3.753zm3.545 15.687h-2.817a.586.586 0 100 1.172H20.8l.83 1.523H8.37l.83-1.523h3.456a.586.586 0 100-1.172H9.84l1.205-2.211c1.266.456 2.594.687 3.956.687s2.69-.231 3.956-.688l1.205 2.212zM15 23.438c-5.773 0-10.547-4.664-10.547-10.547 0-5.136 3.746-9.542 8.771-10.397l.72 1.08c-4.64.52-8.319 4.47-8.319 9.317 0 5.166 4.2 9.375 9.375 9.375 5.166 0 9.375-4.2 9.375-9.375 0-4.84-3.673-8.797-8.32-9.316l.721-1.08c5.025.855 8.77 5.26 8.77 10.396 0 5.871-4.76 10.546-10.546 10.546z" fill="#04A5FF"/></svg>