<svg width="20" height="20" fill="none" xmlns="http://www.w3.org/2000/svg"><g clip-path="url(#clip0)" fill="red"><path d="M15.781 11.953H4.22a.39.39 0 01-.39-.39V8.437a.39.39 0 01.39-.39h11.56a.39.39 0 01.39.39v3.126a.39.39 0 01-.39.39zM4.61 11.172h10.782V8.828H4.609v2.344z"/><path d="M9.998 20a10 10 0 01-7.069-2.929A9.935 9.935 0 010 10a9.935 9.935 0 012.929-7.071A9.935 9.935 0 0110 0a9.935 9.935 0 017.071 2.929 10 10 0 011.057 12.9.39.39 0 11-.635-.456A9.179 9.179 0 0016.52 3.48 9.158 9.158 0 0010 .781a9.158 9.158 0 00-6.519 2.7c-3.594 3.595-3.594 9.443 0 13.038a9.178 9.178 0 0011.892.974.39.39 0 11.456.635A9.999 9.999 0 019.998 20z"/><path d="M16.795 17.186a.393.393 0 01-.39-.391.393.393 0 01.39-.39.394.394 0 01.39.39.393.393 0 01-.39.39z"/></g><defs><clipPath id="clip0"><path fill="#fff" d="M0 0h20v20H0z"/></clipPath></defs></svg>