<svg width="20" height="20" fill="none" xmlns="http://www.w3.org/2000/svg"><path d="M15.864 2.079C14.468.739 12.541 0 10.438 0 7.246 0 5.275 1.316 4.183 2.42 2.831 3.79 2.055 5.61 2.055 7.417c0 2.305.987 4.084 2.639 4.757.148.061.3.092.452.092.327 0 .615-.142.812-.383l-.746 3.16a15.353 15.353 0 00-.3 2.362c-.064 1.541.233 2.378.907 2.56.09.024.18.036.269.036.632 0 1.247-.605 1.831-1.803.428-.877.742-1.869.827-2.177.068-.248.262-1.007.453-1.758a4.21 4.21 0 002.242.665c1.878 0 3.566-.844 4.752-2.375 1.13-1.458 1.751-3.48 1.751-5.692 0-1.77-.758-3.512-2.08-4.781zm-10.3 5.604c0-2.15 1.604-4.433 4.578-4.433 2.354 0 3.76 1.273 3.76 3.405 0 1.413-.3 2.714-.846 3.664-.35.61-.956 1.337-1.851 1.337-.348 0-.656-.138-.847-.378-.177-.224-.231-.507-.158-.82.112-.472.266-.969.415-1.453.284-.92.552-1.788.552-2.52 0-1.365-.886-2.318-2.155-2.318-1.56 0-2.781 1.531-2.78 3.487 0 .804.188 1.437.309 1.758l-.066.278-.048.205c-.054-.206-.169-.382-.323-.563-.373-.442-.54-.95-.54-1.65zm9.999 4.381c-1.032 1.332-2.496 2.066-4.122 2.066-.804 0-1.667-.332-2.201-.846a.399.399 0 00-.663.189 203.215 203.215 0 01-.6 2.335c-.002.01-.299 1.065-.774 2.04-.53 1.085-.965 1.403-1.177 1.346-.134-.036-.373-.45-.318-1.757.04-.949.218-1.954.279-2.212L7.25 9.873l.094-.4a.398.398 0 00-.02-.245 4.192 4.192 0 01-.297-1.574c0-1.509.871-2.69 1.984-2.69.825 0 1.359.597 1.359 1.522 0 .61-.251 1.424-.518 2.287-.152.494-.31 1.004-.428 1.503-.13.549-.02 1.08.309 1.496.342.433.878.68 1.47.68 1.011 0 1.89-.6 2.543-1.737.614-1.068.951-2.51.951-4.06 0-1.266-.43-2.33-1.246-3.075-.806-.738-1.95-1.127-3.31-1.127-2.037 0-3.296.906-3.994 1.666a5.325 5.325 0 00-1.38 3.564c0 .888.23 1.575.729 2.164.174.206.202.268.136.514a.53.53 0 00-.002.008l-.01.035c-.052.21-.16.645-.208.824-.023.09-.09.24-.267.24a.397.397 0 01-.15-.032c-1.343-.547-2.144-2.05-2.144-4.02 0-1.598.692-3.215 1.898-4.435C5.734 1.984 7.52.797 10.437.797c1.896 0 3.627.66 4.874 1.856 1.167 1.12 1.835 2.653 1.835 4.207 0 2.037-.562 3.885-1.584 5.204z" fill="#fff"/><path d="M9.316 8.096a.398.398 0 00-.495.269l-.438 1.481a.398.398 0 00.764.226l.438-1.481a.398.398 0 00-.27-.495zm.399-1.346a.398.398 0 00-.495.268l-.059.2a.398.398 0 00.764.226l.059-.2a.398.398 0 00-.27-.495z" fill="#fff"/></svg>