<svg width="20" height="21" fill="none" xmlns="http://www.w3.org/2000/svg"><g clip-path="url(#clip0)" fill="#04A5FF"><path d="M12.15 13.15a.46.46 0 00-.857.01l-1.175 3.08a.39.39 0 10.73.279l.197-.516h1.346l.194.515a.39.39 0 10.731-.276l-1.163-3.081a.233.233 0 00-.004-.01zm-.808 2.072l.38-.994.374.994h-.754zm-3.527-2.358a.39.39 0 00-.39.39v3.123c0 .216.175.39.39.39H8.91a.39.39 0 000-.78h-.704v-2.732a.39.39 0 00-.39-.39zm6.857 3.906h.001a.39.39 0 00.39-.39l.004-1.48.927-1.424a.39.39 0 00-.654-.426l-.664 1.018-.67-1.027a.39.39 0 10-.654.428l.934 1.43-.004 1.48a.39.39 0 00.39.392z"/><path d="M12.15 13.15a.46.46 0 00-.857.01l-1.175 3.08a.39.39 0 10.73.279l.197-.516h1.346l.194.515a.39.39 0 10.731-.276l-1.163-3.081a.233.233 0 00-.004-.01zm-.808 2.072l.38-.994.374.994h-.754zm-3.527-2.358a.39.39 0 00-.39.39v3.123c0 .216.175.39.39.39H8.91a.39.39 0 000-.78h-.704v-2.732a.39.39 0 00-.39-.39zm6.857 3.906h.001a.39.39 0 00.39-.39l.004-1.48.927-1.424a.39.39 0 00-.654-.426l-.664 1.018-.67-1.027a.39.39 0 10-.654.428l.934 1.43-.004 1.48a.39.39 0 00.39.392z"/><path d="M18.047 1.77H1.953A1.955 1.955 0 000 3.725v14.53c0 1.078.876 1.954 1.953 1.954h16.094A1.955 1.955 0 0020 18.255V3.724a1.955 1.955 0 00-1.953-1.953zm1.172 16.485c0 .646-.526 1.172-1.172 1.172H1.953a1.173 1.173 0 01-1.172-1.172V3.724c0-.647.526-1.172 1.172-1.172h16.094c.646 0 1.172.525 1.172 1.172v14.53z"/><path d="M17.89 3.49h-6.132a.39.39 0 000 .78H17.5v13.438h-15V4.271h5.742a.39.39 0 000-.782H2.11a.39.39 0 00-.39.39V18.1c0 .215.175.39.39.39h15.782a.39.39 0 00.39-.39V3.879a.39.39 0 00-.39-.39z"/><path d="M11.123 7.911L10.08 7.31a.928.928 0 00-.938 0 .928.928 0 00-.469.812v1.205c0 .339.176.642.47.812a.936.936 0 00.937 0l1.043-.603a.928.928 0 00.47-.812.928.928 0 00-.47-.812zm-.39.947l-1.044.603a.151.151 0 01-.156 0 .151.151 0 01-.078-.135V8.12a.159.159 0 01.157-.157.15.15 0 01.077.021l1.044.603c.068.04.078.101.078.135s-.01.096-.078.135z"/><path d="M10 5.208a3.52 3.52 0 00-3.516 3.516A3.52 3.52 0 0010 12.239a3.52 3.52 0 003.516-3.515A3.52 3.52 0 0010 5.208zm0 6.25a2.737 2.737 0 01-2.734-2.734A2.737 2.737 0 0110 5.989a2.738 2.738 0 012.734 2.735A2.737 2.737 0 0110 11.458zm0-7.188a.394.394 0 00.39-.39.394.394 0 00-.39-.39.394.394 0 00-.39.39.394.394 0 00.39.39zm-4.803 8.594h-.864a.39.39 0 00-.39.39v3.126a.39.39 0 00.78 0v-.969l.474-.002c.711 0 1.29-.57 1.29-1.272 0-.702-.579-1.273-1.29-1.273zm0 1.764c-.11 0-.3 0-.473.002v-.985h.473c.276 0 .509.226.509.492a.507.507 0 01-.509.491z"/><path d="M18.047 1.77H1.953A1.955 1.955 0 000 3.725v14.53c0 1.078.876 1.954 1.953 1.954h16.094A1.955 1.955 0 0020 18.255V3.724a1.955 1.955 0 00-1.953-1.953zm1.172 16.485c0 .646-.526 1.172-1.172 1.172H1.953a1.173 1.173 0 01-1.172-1.172V3.724c0-.647.526-1.172 1.172-1.172h16.094c.646 0 1.172.525 1.172 1.172v14.53z"/><path d="M17.89 3.49h-6.132a.39.39 0 000 .78H17.5v13.438h-15V4.271h5.742a.39.39 0 000-.782H2.11a.39.39 0 00-.39.39V18.1c0 .215.175.39.39.39h15.782a.39.39 0 00.39-.39V3.879a.39.39 0 00-.39-.39z"/><path d="M11.123 7.911l-1.044-.602a.928.928 0 00-.937 0 .928.928 0 00-.47.812v1.205c0 .339.176.642.47.812a.936.936 0 00.937 0l1.044-.603a.928.928 0 00.469-.812.928.928 0 00-.47-.812zm-.39.947l-1.045.603a.151.151 0 01-.156 0 .151.151 0 01-.078-.135V8.12a.159.159 0 01.157-.157.15.15 0 01.077.021l1.044.603c.068.04.078.101.078.135s-.01.096-.078.135z"/><path d="M10 5.208a3.52 3.52 0 00-3.516 3.516A3.52 3.52 0 0010 12.239a3.52 3.52 0 003.516-3.515A3.52 3.52 0 0010 5.208zm0 6.25a2.737 2.737 0 01-2.734-2.734A2.737 2.737 0 0110 5.989a2.738 2.738 0 012.734 2.735A2.737 2.737 0 0110 11.458zm0-7.188a.394.394 0 00.39-.39.394.394 0 00-.39-.39.394.394 0 00-.39.39.394.394 0 00.39.39z"/></g><defs><clipPath id="clip0"><path fill="#fff" transform="translate(0 .99)" d="M0 0h20v20H0z"/></clipPath></defs></svg>