<svg width="20" height="20" fill="none" xmlns="http://www.w3.org/2000/svg"><g clip-path="url(#clip0)" fill="#00C437"><path d="M11.563 16.172H8.437a.39.39 0 01-.39-.39v-3.829H4.219a.39.39 0 01-.39-.39V8.437a.39.39 0 01.39-.39h3.828V4.219a.39.39 0 01.39-.39h3.126a.39.39 0 01.39.39v3.828h3.828a.39.39 0 01.39.39v3.126a.39.39 0 01-.39.39h-3.828v3.828a.39.39 0 01-.39.39zm-2.735-.781h2.344v-3.829a.39.39 0 01.39-.39h3.829V8.828h-3.829a.39.39 0 01-.39-.39v-3.83H8.828v3.829a.39.39 0 01-.39.39h-3.83v2.344h3.829a.39.39 0 01.39.39v3.829z"/><path d="M9.998 20a10 10 0 01-7.069-2.929A9.935 9.935 0 010 10a9.935 9.935 0 012.929-7.071A9.935 9.935 0 0110 0a9.935 9.935 0 017.071 2.929 10 10 0 011.057 12.9.39.39 0 11-.635-.456A9.179 9.179 0 0016.52 3.48c-3.595-3.594-9.443-3.594-13.038 0-3.594 3.595-3.594 9.443 0 13.038a9.179 9.179 0 0011.892.974.39.39 0 01.456.635A9.999 9.999 0 019.998 20z"/><path d="M16.795 17.186a.394.394 0 01-.39-.391.394.394 0 01.39-.39c.103 0 .203.041.276.114a.394.394 0 010 .552.394.394 0 01-.276.114z"/></g><defs><clipPath id="clip0"><path fill="#fff" d="M0 0h20v20H0z"/></clipPath></defs></svg>