<svg width="20" height="21" fill="none" xmlns="http://www.w3.org/2000/svg"><g clip-path="url(#clip0)" fill="#04A5FF"><path d="M17.071 3.918A9.935 9.935 0 0010 .99a9.954 9.954 0 00-3.39.59l-.223-.383a.39.39 0 00-.676.002L4.166 3.89a.39.39 0 00.339.585l3.105-.008a.39.39 0 00.336-.587l-.133-.23A7.644 7.644 0 0110 3.333c4.222 0 7.656 3.435 7.656 7.656 0 4.222-3.434 7.656-7.656 7.656-4.222 0-7.656-3.434-7.656-7.656a.39.39 0 00-.39-.39H.39a.39.39 0 00-.391.39 9.935 9.935 0 002.929 7.071A9.934 9.934 0 0010 20.99a9.935 9.935 0 007.071-2.93A9.935 9.935 0 0020 10.99a9.935 9.935 0 00-2.929-7.072zM10 20.208c-4.952 0-9.005-3.925-9.21-8.828h.781a8.376 8.376 0 002.463 5.575A8.382 8.382 0 0010 19.427a8.382 8.382 0 005.966-2.472 8.382 8.382 0 002.472-5.966 8.382 8.382 0 00-2.472-5.966A8.382 8.382 0 0010 2.552a8.41 8.41 0 00-2.9.512.39.39 0 00-.204.563l.035.06-1.751.005.871-1.518.05.084a.39.39 0 00.482.167A9.174 9.174 0 0110 1.77c5.083 0 9.219 4.135 9.219 9.218 0 5.084-4.136 9.219-9.219 9.219z"/><path d="M14.806 6.183a.392.392 0 10.003.003l-.003-.003z"/><path d="M13.46 5.582a.39.39 0 00-.152-.532 6.845 6.845 0 00-4.202-.799 6.734 6.734 0 00-3.912 1.932 6.752 6.752 0 00-1.99 4.806c0 1.816.706 3.523 1.99 4.806A6.752 6.752 0 0010 17.786a6.752 6.752 0 004.806-1.99 6.785 6.785 0 001.028-8.297.39.39 0 00-.67.402 6.005 6.005 0 01-.91 7.342A5.977 5.977 0 0110 17.005a5.976 5.976 0 01-4.254-1.762 5.976 5.976 0 01-1.762-4.254c0-1.607.626-3.117 1.762-4.253a6.038 6.038 0 017.182-1.004.39.39 0 00.531-.15z"/><path d="M10.396 6.321v-.293a.39.39 0 00-.782 0v.293a.39.39 0 10.781 0zm-.792 9.336v.293a.39.39 0 00.782 0v-.293a.39.39 0 10-.782 0zm4.673-4.663c0 .216.175.39.391.39h.293a.39.39 0 000-.78h-.293a.39.39 0 00-.39.39zm-9.237-.4a.39.39 0 000 .781h.292a.39.39 0 100-.781h-.293zm7.304.396a.39.39 0 00-.39-.391h-1.792L7.233 7.67a.39.39 0 10-.552.552l3.043 3.043a.39.39 0 00.276.115h1.953a.39.39 0 00.39-.39z"/></g><defs><clipPath id="clip0"><path fill="#fff" transform="translate(0 .99)" d="M0 0h20v20H0z"/></clipPath></defs></svg>