<svg width="20" height="21" fill="none" xmlns="http://www.w3.org/2000/svg"><g clip-path="url(#clip0)" fill="#04A5FF"><path d="M12.734 5.911a.39.39 0 100 .782.39.39 0 000-.782z"/><path d="M10 .99c-5.407 0-10 4.619-10 10 0 5.399 4.612 10 10 10 3.582 0 6.82-2.033 8.59-4.984A9.77 9.77 0 0020 10.989c0-5.405-4.617-10-10-10zm9.21 9.609h-1.683a7.411 7.411 0 00-.854-3.06l1.438-.83a8.992 8.992 0 011.099 3.89zm-1.502-4.56l-1.435.828a7.796 7.796 0 00-2.15-2.151l.828-1.435a9.668 9.668 0 012.757 2.758zm-7.317-4.26a8.992 8.992 0 013.89 1.1l-.83 1.437a7.41 7.41 0 00-3.06-.854V1.78zm-.782 0v1.683a7.411 7.411 0 00-3.06.854l-.83-1.437a8.991 8.991 0 013.89-1.1zM5.05 3.282l.829 1.435a7.798 7.798 0 00-2.151 2.15L2.292 6.04A9.668 9.668 0 015.05 3.28zM1.89 6.708l1.438.83c-.505.955-.797 2-.854 3.06H.79a8.993 8.993 0 011.1-3.89zM.79 11.38h1.683a7.41 7.41 0 00.854 3.06l-1.438.83A8.992 8.992 0 01.79 11.38zm1.502 4.56l1.435-.828a7.797 7.797 0 002.15 2.15l-.828 1.435a9.666 9.666 0 01-2.757-2.757zm7.317 4.259a8.992 8.992 0 01-3.89-1.1l.83-1.436c.955.505 2 .796 3.06.854v1.682zm-6.367-9.21c0-3.674 3.112-6.758 6.758-6.758 3.678 0 6.758 3.12 6.758 6.758 0 3.663-3.098 6.758-6.758 6.758-3.663 0-6.758-3.098-6.758-6.758zm7.149 9.21v-1.682a7.411 7.411 0 003.06-.854l.83 1.437a8.99 8.99 0 01-3.89 1.099zm4.56-1.502l-.829-1.434a7.799 7.799 0 002.151-2.151l1.435.828a9.669 9.669 0 01-2.757 2.757zm3.16-3.427l-1.438-.83a7.428 7.428 0 00.854-3.064h1.683a9.009 9.009 0 01-1.1 3.894z"/><path d="M15.616 9.315a5.894 5.894 0 00-1.35-2.34.39.39 0 10-.57.536 5.11 5.11 0 011.171 2.028.39.39 0 10.749-.224zm-1.71.502c-.509 0-.943.327-1.104.782h-.888a1.959 1.959 0 00-1.523-1.524v-.887A1.173 1.173 0 0010 5.91a1.173 1.173 0 00-.392 2.277v.887A1.959 1.959 0 008.086 10.6h-.888a1.173 1.173 0 00-2.277.39 1.173 1.173 0 002.277.39h.888a1.959 1.959 0 001.523 1.524v.888a1.173 1.173 0 00.39 2.277 1.173 1.173 0 00.392-2.277v-.888a1.959 1.959 0 001.523-1.523h.888a1.173 1.173 0 101.104-1.563zM6.094 11.38a.391.391 0 110-.782.391.391 0 010 .782zM10 6.692a.391.391 0 110 .782.391.391 0 010-.782zm0 8.594a.391.391 0 110-.782.391.391 0 010 .782zm0-3.125a1.173 1.173 0 01-1.172-1.172c0-.646.526-1.172 1.172-1.172.646 0 1.172.526 1.172 1.172 0 .646-.526 1.172-1.172 1.172zm3.906-.781a.391.391 0 11.001-.782.391.391 0 010 .782z"/></g><defs><clipPath id="clip0"><path fill="#fff" transform="translate(0 .99)" d="M0 0h20v20H0z"/></clipPath></defs></svg>