<svg width="30" height="30" fill="none" xmlns="http://www.w3.org/2000/svg"><path d="M.175 12.08L10.542 1.713a.598.598 0 011.02.423v5.642h2.912c4.147 0 8.046 1.615 10.979 4.547A15.424 15.424 0 0130 23.303v4.56a.598.598 0 01-1.039.404l-5.447-5.961a15.64 15.64 0 00-11.52-5.08h-.432v5.643a.598.598 0 01-1.02.422L.175 12.925a.598.598 0 010-.845zm10.191 9.346v-4.797c0-.33.268-.597.598-.597h1.03a16.84 16.84 0 0112.402 5.467l4.409 4.825v-3.02c0-7.902-6.429-14.331-14.33-14.331h-3.51a.598.598 0 01-.598-.598V3.58l-8.924 8.923 8.924 8.924z" fill="#04A5FF"/><path d="M15.033 9.98c.163 0 .327.003.49.01a.597.597 0 11-.049 1.194 11.157 11.157 0 00-.441-.01.598.598 0 110-1.195zm2.013.76a.597.597 0 01.718-.447 11.863 11.863 0 014.343 1.999.598.598 0 11-.706.963 10.68 10.68 0 00-3.909-1.798.597.597 0 01-.446-.718z" fill="#04A5FF"/></svg>