<svg width="20" height="20" fill="none" xmlns="http://www.w3.org/2000/svg"><path d="M5.078 17.656a.39.39 0 100 .782.39.39 0 000-.782zm-1.245-7.103a.39.39 0 00-.317-.162H1.953a.39.39 0 000 .78h1.02l-.61 1.83a.39.39 0 00.742.248l.781-2.344a.39.39 0 00-.054-.352zm4.687 0a.39.39 0 00-.317-.162H6.641a.39.39 0 000 .78h1.02l-.61 1.83a.39.39 0 00.741.248l.782-2.344a.39.39 0 00-.054-.352zm4.687 0a.39.39 0 00-.316-.162h-1.563a.39.39 0 000 .78h1.02l-.61 1.83a.39.39 0 10.742.248l.781-2.344a.39.39 0 00-.053-.352zm-3.441 7.103H6.64a.39.39 0 000 .782h3.125a.39.39 0 100-.782z" fill="#04A5FF"/><path d="M18.047 6.484a1.955 1.955 0 00-1.953 1.954c0 .616.294 1.195.781 1.561v4.415h-2.031V7.422C14.844 3.329 11.514 0 7.422 0 3.329 0 0 3.33 0 7.422v11.406C0 19.474.526 20 1.172 20h12.5c.646 0 1.172-.526 1.172-1.172v-1.172h2.422a1.955 1.955 0 001.953-1.953V10A1.96 1.96 0 0020 8.437a1.955 1.955 0 00-1.953-1.953zM.78 9.492h3.906v4.922H.781V9.492zm10.156 9.727h-7.03v-2.344h7.03v2.344zm3.126-1.953v1.562a.39.39 0 01-.391.39h-1.953v-2.734a.39.39 0 00-.39-.39H3.515a.39.39 0 00-.391.39v2.735H1.172a.391.391 0 01-.39-.39v-3.634h13.279v2.07zm-8.594-2.852V9.492h3.906v4.922H5.469zm8.593 0h-3.906V9.492h3.906v4.922zm0-5.703H.783V7.42A6.648 6.648 0 017.423.78a6.648 6.648 0 016.64 6.64v1.29zm2.813 8.164h-2.031v-1.68h2.031v1.68zm1.563-1.172c0 .51-.327.944-.782 1.105v-4.855h.782v3.75zm0-4.531h-.782v-.821a1.958 1.958 0 00.782 0v.82zm.195-1.72a1.174 1.174 0 01-1.758-1.014c0-.647.526-1.172 1.172-1.172a1.173 1.173 0 01.586 2.187z" fill="#04A5FF"/><path d="M7.422 1.563a5.866 5.866 0 00-5.86 5.859c0 .216.175.39.391.39h10.938a.39.39 0 00.39-.39 5.866 5.866 0 00-5.86-5.86zM5.859 7.03h-3.5a5.085 5.085 0 015.063-4.687 5.085 5.085 0 015.063 4.687H5.86z" fill="#04A5FF"/><path d="M7.422 3.125a.39.39 0 00-.39.39v1.563a.39.39 0 00.78 0V3.516a.39.39 0 00-.39-.391zM6.04 5.488L4.937 4.384a.39.39 0 00-.553.552l1.105 1.105a.39.39 0 00.553 0 .39.39 0 000-.553zm4.42-1.105a.39.39 0 00-.552 0L8.803 5.488a.39.39 0 00.553.553l1.104-1.105a.39.39 0 000-.553z" fill="#04A5FF"/></svg>