<svg width="30" height="30" fill="none" xmlns="http://www.w3.org/2000/svg"><g clip-path="url(#clip0)" fill="#04A5FF"><path d="M24.925 18.236a.585.585 0 00-.8-.214l-.63.365-1.018-1.763.63-.365a.585.585 0 10-.584-1.014l-.632.365-1.018-1.763.631-.365a.585.585 0 10-.585-1.014l-.631.365-1.018-1.764.631-.364a.585.585 0 10-.585-1.014l-.631.365-.796-1.379a.585.585 0 10-1.014.586l.796 1.378-.632.365a.585.585 0 10.586 1.013l.631-.364 1.018 1.763-.631.365a.585.585 0 10.585 1.013l.631-.364 1.018 1.763-.63.365a.585.585 0 10.584 1.014l.632-.365 1.018 1.763-.632.365a.585.585 0 10.586 1.014l.631-.365.796 1.378a.585.585 0 101.014-.585L24.08 19.4l.631-.365a.585.585 0 00.214-.8z"/><path d="M29.13 13.405a.586.586 0 00-1.103.395c1.307 3.652 1.006 7.594-.826 10.814a1.35 1.35 0 01-1.173.682h-.009c-4.538-.029-8.843-2.62-11.233-6.76-1.996-3.457-2.389-7.53-1.158-11.076l.006-.016.002-.006a12.22 12.22 0 01.912-2.01 1.35 1.35 0 011.173-.683h.009c3.705.024 7.27 1.734 9.78 4.693a.585.585 0 10.892-.757c-2.731-3.22-6.618-5.08-10.665-5.107A2.522 2.522 0 0013.53 4.85a13.303 13.303 0 00-.812 1.7 10.144 10.144 0 00-5.532.1A10.169 10.169 0 001.9 10.444a.596.596 0 00-.1.141A10.067 10.067 0 00.003 16.13a.59.59 0 00-.001.119L0 16.34c0 2.245.734 4.32 1.975 6.001a.59.59 0 00.107.143 10.17 10.17 0 004.815 3.455 10.125 10.125 0 0010.522-2.573c2.454 1.955 5.47 3.08 8.592 3.101h.016a2.52 2.52 0 002.19-1.274c2-3.517 2.333-7.814.912-11.788zm-19.003 5.909l-2.82-2.049 1.078-3.315h3.552c.18 1.14.495 2.27.945 3.362l-2.755 2.002zm-3.973-2.289l-2.367.775-2.605-1.892a8.901 8.901 0 011.458-4.476h3.187l1.483 2.036-1.156 3.557zm-4.92.367l1.747 1.27-.666 2.052a8.887 8.887 0 01-1.081-3.322zm11.1-9.734a14.176 14.176 0 00-.534 5.121H8.257l-1.475-2.024.993-3.057a8.976 8.976 0 014.56-.04zm-5.956.55l-.667 2.053H3.557a8.996 8.996 0 012.821-2.053zM3.146 21.943l.982-3.023 2.39-.782 3.024 2.198v2.496l-2.59 1.882a8.997 8.997 0 01-3.806-2.77zm5.233 3.181l1.748-1.27 1.748 1.27a8.958 8.958 0 01-3.496 0zm4.924-.41l-2.59-1.882v-2.496l2.667-1.938a15.078 15.078 0 003.152 4.201 8.959 8.959 0 01-3.229 2.115z"/><path d="M27.471 11.798a.59.59 0 00.585-.586.59.59 0 00-.17-.414.591.591 0 00-.415-.171.591.591 0 00-.414.171.59.59 0 000 .828c.11.11.26.172.414.172z"/></g><defs><clipPath id="clip0"><path fill="#fff" d="M0 0h30v30H0z"/></clipPath></defs></svg>