<svg width="20" height="21" fill="none" xmlns="http://www.w3.org/2000/svg"><g clip-path="url(#clip0)" fill="#04A5FF"><path d="M5.305 5.742a.39.39 0 10-.553.55.39.39 0 00.553-.55z"/><path d="M19.657 17.331a1.164 1.164 0 00-.829-.343c-.207 0-.406.054-.581.154a1.175 1.175 0 00-1.011-.704 1.164 1.164 0 00-.341-.764 1.163 1.163 0 00-.764-.341 1.161 1.161 0 00-.665-.992l.324-.324c.221-.22.343-.515.343-.829 0-.313-.122-.607-.343-.829a1.164 1.164 0 00-.829-.343c-.178 0-.35.04-.505.114l-1.141-1.14 5.739-5.74a.391.391 0 00.104-.189l.829-3.59v-.005a.414.414 0 00.008-.043v-.002a.39.39 0 00.002-.045l-.001-.013a.395.395 0 00-.003-.032l-.002-.013a.397.397 0 00-.008-.04l-.002-.004a.38.38 0 00-.015-.043l-.003-.007a.4.4 0 00-.043-.073l-.007-.01a.374.374 0 00-.065-.065l-.01-.007a.386.386 0 00-.073-.043c-.003 0-.005-.002-.007-.003a.376.376 0 00-.044-.015l-.002-.001a.38.38 0 00-.041-.009l-.012-.002a.388.388 0 00-.034-.003h-.012l-.045.001h-.001a.393.393 0 00-.044.008h-.005l-3.59.829a.391.391 0 00-.189.104L10 7.675 4.257 1.932a.39.39 0 00-.188-.104L.479.999H.473A.4.4 0 00.384.99H.372a.393.393 0 00-.035.003L.326.995a.385.385 0 00-.041.009H.282a.394.394 0 00-.044.016l-.006.003a.387.387 0 00-.073.043l-.01.007a.405.405 0 00-.065.065l-.007.01a.392.392 0 00-.043.073l-.003.007a.388.388 0 00-.016.043v.005a.392.392 0 00-.01.038l-.001.014A.407.407 0 000 1.36v.058l.001.003a.393.393 0 00.007.042v.005l.83 3.59a.39.39 0 00.104.189l5.742 5.742-1.14 1.141a1.167 1.167 0 00-.506-.114 1.174 1.174 0 00-.829 2l.323.324a1.167 1.167 0 00-.664.992 1.167 1.167 0 00-1.105 1.105 1.161 1.161 0 00-1.01.705 1.164 1.164 0 00-.582-.154c-.314 0-.608.122-.829.343a1.164 1.164 0 00-.343.83c0 .312.122.606.343.828L2 20.646a1.17 1.17 0 002.001-.829c0-.207-.054-.406-.154-.581a1.177 1.177 0 00.704-1.01 1.167 1.167 0 001.105-1.106 1.161 1.161 0 00.992-.665l.324.324c.22.221.515.343.829.343a1.174 1.174 0 001.058-1.677l1.14-1.141 1.142 1.14a1.167 1.167 0 00-.114.506 1.167 1.167 0 001.172 1.172c.313 0 .607-.122.829-.343l.323-.323a1.166 1.166 0 00.992.664 1.17 1.17 0 001.105 1.105 1.162 1.162 0 00.705 1.01A1.172 1.172 0 0018 20.646l1.657-1.657a1.17 1.17 0 000-1.658zM18.422 4.776l-5.66 5.66-.829-.828 6.986-6.986-.497 2.154zm-2.21-2.21l2.155-.496-6.986 6.986-.829-.829 5.66-5.66zm-8.974 8.976l.829.828-1.095 1.095-.828-.83 1.094-1.093zm-4.132 8.551a.39.39 0 01-.553 0L.896 18.436a.388.388 0 010-.553.387.387 0 01.552 0l1.657 1.658a.388.388 0 010 .552zm.552-1.657a.39.39 0 01-.553 0l-.552-.552a.391.391 0 01.552-.553l.552.553a.39.39 0 01.001.552zm1.104-1.105a.388.388 0 01-.552 0l-.552-.552a.391.391 0 01.552-.552l.552.552a.388.388 0 010 .552zm1.105-1.104a.389.389 0 01-.552 0l-.552-.553a.391.391 0 01.547-.557l.562.561a.392.392 0 01-.005.549zm2.21 0a.389.389 0 01-.552 0L6.43 15.132l-.01-.01-.552-.553a.433.433 0 00-.01-.01l-1.096-1.095a.391.391 0 01.553-.552l1.38 1.381.005.004 1.377 1.377a.39.39 0 010 .553zm.276-1.382l-.828-.828 1.094-1.094.829.828-1.095 1.094zm-.839-4.132l-5.94-5.94-.497-2.154 2.57 2.57a.39.39 0 00.552 0 .39.39 0 000-.553l-2.57-2.57 2.155.498 5.94 5.939 2.762 2.762 1.37 1.37-.828.83-6.593-6.593a.39.39 0 00-.552.552l6.592 6.593-.829.828-4.132-4.132zm6.064 4.41l-.009.01-1.094 1.094a.388.388 0 01-.552 0 .388.388 0 010-.553l1.377-1.377.004-.004.003-.004 1.378-1.377a.388.388 0 01.552 0 .388.388 0 010 .552l-1.094 1.095-.01.01-.555.554zm1.107 1.104a.391.391 0 01-.557-.548l.561-.562a.392.392 0 01.663.28c0 .105-.04.203-.114.277l-.553.552zm1.105 1.104a.387.387 0 01-.552 0 .388.388 0 010-.552l.552-.552a.387.387 0 01.552 0 .388.388 0 010 .552l-.552.552zm.552 1.105a.389.389 0 010-.552l.553-.553a.389.389 0 01.552 0 .39.39 0 010 .553l-.553.553a.391.391 0 01-.552-.001zm2.762 0l-1.657 1.657a.388.388 0 01-.553 0 .386.386 0 01-.114-.276c0-.104.04-.202.115-.276l.552-.552.553-.553.552-.552a.388.388 0 01.552 0 .39.39 0 010 .552z"/></g><defs><clipPath id="clip0"><path fill="#fff" transform="translate(0 .99)" d="M0 0h20v20H0z"/></clipPath></defs></svg>