<svg width="20" height="20" fill="none" xmlns="http://www.w3.org/2000/svg"><g clip-path="url(#clip0)" fill="#fff"><path d="M15.05 4.762L6.823 9.828a1.23 1.23 0 00-.536 1.38l.89 3.125a.606.606 0 00.632.442.606.606 0 00.56-.528l.232-1.713c.031-.23.142-.445.313-.604l6.787-6.31a.54.54 0 00-.653-.858zm-6.678 6.585a1.811 1.811 0 00-.56 1.08l-.112.831-.645-2.268a.431.431 0 01.187-.483l6.026-3.711-4.896 4.55z"/><path d="M19.675 1.46a.919.919 0 00-.926-.156L.589 8.309A.913.913 0 000 9.172a.914.914 0 00.598.858l4.242 1.583 1.655 5.321a.919.919 0 001.46.44l2.466-2.01a.338.338 0 01.41-.012l4.45 3.23a.917.917 0 001.44-.557l3.26-15.676a.92.92 0 00-.306-.889zm-.474.727l-3.26 15.676a.12.12 0 01-.075.09.12.12 0 01-.117-.016l-4.449-3.23a1.133 1.133 0 00-1.383.039l-2.467 2.01a.12.12 0 01-.112.023.12.12 0 01-.082-.081L5.543 11.19a.399.399 0 00-.241-.255L.877 9.284a.116.116 0 01-.08-.116c0-.039.013-.09.079-.115l18.16-7.006a.118.118 0 01.123.02.122.122 0 01.042.12z"/><path d="M16.698 9.85a.398.398 0 00-.474.304l-.06.28a.398.398 0 00.779.168l.06-.279a.399.399 0 00-.305-.473zm-.398 1.834a.398.398 0 00-.474.305l-.916 4.221a.398.398 0 00.779.17l.916-4.222a.398.398 0 00-.305-.474z"/></g><defs><clipPath id="clip0"><path fill="#fff" d="M0 0h20v20H0z"/></clipPath></defs></svg>