<svg width="20" height="21" fill="none" xmlns="http://www.w3.org/2000/svg"><g clip-path="url(#clip0)" fill="#04A5FF"><path d="M20 15.666V2.555H0v13.111h7.828v1.918H5.773a.45.45 0 00-.45.45v1.39h9.354v-1.39a.45.45 0 00-.45-.45h-2.055v-1.918H20zM.587 3.142h18.826v11.937H.587V3.142zM14.09 18.837H5.91v-.666h8.18v.666zm-2.505-1.253h-3.17v-1.918h3.17v1.918z"/><path d="M8.434 5.372h.626v.587h-.626v-.587zm1.253 0h.626v.587h-.626v-.587zm1.253 0h.626v.587h-.627v-.587z"/><path d="M1.252 14.414h17.495v-2.798h-.587v2.211h-1.61a6.542 6.542 0 00-4.497-5.934l-.184.557a5.957 5.957 0 014.092 5.377h-.666c-.092-2.414-2.034-4.58-4.42-4.937l1.22-1.951h-4.19l1.22 1.95c-2.386.359-4.328 2.524-4.42 4.938h-.666A5.956 5.956 0 018.13 8.45l-.184-.557a6.543 6.543 0 00-4.496 5.934H1.84V4.395h16.32v6.595h.587V3.808H1.252v10.606zM10 13.162a.96.96 0 01.913.665H9.087a.96.96 0 01.913-.665zm1.518.665a1.522 1.522 0 00-.057-.21l2.758-1.593c.276.55.447 1.161.488 1.803h-3.19zm2.406-2.311l-2.757 1.592a1.57 1.57 0 00-.154-.154l1.592-2.759c.523.35.972.8 1.32 1.321zm-2.888-3.99L10 9.183 8.964 7.526h2.072zM10 10.29l.535-.856a4.649 4.649 0 011.563.465l-1.594 2.76a1.53 1.53 0 00-.21-.057V10.99h-.588v1.613a1.547 1.547 0 00-.21.057L7.901 9.9a4.65 4.65 0 011.563-.465l.535.856zm-2.605-.096l1.592 2.759c-.055.048-.106.1-.154.154l-2.757-1.592a4.783 4.783 0 011.319-1.32zm-1.615 1.83l2.758 1.592a1.53 1.53 0 00-.057.211H5.293a4.67 4.67 0 01.488-1.803z"/><path d="M3.092 6.606v-.96h.959V5.06H2.505v1.546h.587z"/></g><defs><clipPath id="clip0"><path fill="#fff" transform="translate(0 .99)" d="M0 0h20v20H0z"/></clipPath></defs></svg>