<svg width="20" height="20" fill="none" xmlns="http://www.w3.org/2000/svg"><path d="M12.885 16.308c-.918.032-1.888.047-2.885.047-2.88 0-5.43-.13-6.818-.346-1.484-.23-2.074-.922-2.254-2.641-.196-1.881-.196-4.828 0-6.709.18-1.719.77-2.41 2.254-2.641.24-.038.524-.074.841-.107a.39.39 0 10-.08-.777c-.331.035-.628.072-.882.112-.925.144-1.574.455-2.041.978C.539 4.762.263 5.51.15 6.578c-.201 1.927-.201 4.945 0 6.871.112 1.069.388 1.816.869 2.354.467.523 1.116.834 2.041.978 1.426.223 4.02.356 6.939.356 1.005 0 1.985-.016 2.911-.048a.39.39 0 00-.026-.78zm6.964-9.73c-.112-1.068-.388-1.816-.869-2.354-.467-.523-1.116-.834-2.041-.978-1.427-.222-4.02-.355-6.94-.355-1.004 0-1.984.016-2.91.047a.39.39 0 10.026.781A85.58 85.58 0 0110 3.672c2.88 0 5.43.13 6.819.346 1.483.232 2.073.923 2.253 2.642.197 1.88.197 4.827 0 6.708-.18 1.72-.77 2.41-2.253 2.642-.241.037-.525.073-.842.106a.39.39 0 10.08.777c.331-.034.628-.072.882-.111.925-.145 1.574-.455 2.041-.978.481-.538.757-1.286.869-2.355.201-1.926.201-4.944 0-6.87z" fill="#fff"/><path d="M13.22 9.68L8.384 6.695a.39.39 0 00-.596.332V13a.39.39 0 00.596.332l4.835-2.987a.39.39 0 000-.664zM8.57 12.3V7.727l3.7 2.286-3.7 2.287zM5.54 3.79zm8.893 12.448a.39.39 0 10.052.78.39.39 0 10-.052-.78z" fill="#fff"/></svg>