<svg width="20" height="21" fill="none" xmlns="http://www.w3.org/2000/svg"><g clip-path="url(#clip0)" fill="#04A5FF"><path d="M8.435 2.552a.39.39 0 100 .781.39.39 0 000-.781zM5.31 16.219a.39.39 0 10.001.781.39.39 0 000-.781zM8.187 5.404l-.155-.131a93.223 93.223 0 01-.906-.771.39.39 0 00-.512 0 88.61 88.61 0 01-.904.77c-.522.441-.974.822-1.361 1.192-.916.875-1.361 1.728-1.361 2.608 0 .603.207 1.169.584 1.592a2.05 2.05 0 001.552.693c.2 0 .392-.028.575-.083a2.339 2.339 0 01-.702 1.776.39.39 0 00.273.67h3.206a.39.39 0 00.273-.669 2.325 2.325 0 01-.702-1.776c.18.055.371.082.57.082a2.05 2.05 0 001.552-.693c.377-.423.584-.989.584-1.592 0-1.387-1.162-2.482-2.566-3.668zm.43 5.172c-.247 0-.462-.065-.658-.199a.39.39 0 00-.598.226 3.127 3.127 0 00.32 2.336H6.066a3.139 3.139 0 00.32-2.338.39.39 0 00-.598-.226 1.15 1.15 0 01-.664.201c-.772 0-1.355-.647-1.355-1.504 0-.656.366-1.324 1.12-2.043.37-.353.812-.727 1.325-1.16.212-.18.43-.363.656-.557.228.195.445.378.658.558l.155.13c1.484 1.255 2.29 2.116 2.29 3.072-.001.857-.584 1.504-1.356 1.504zm2.942-8.024H9.997a.39.39 0 000 .78h1.562a.39.39 0 100-.78zM3.748 16.219H1.952a.39.39 0 100 .78h1.796a.39.39 0 000-.78z"/><path d="M19.237 4.513l-5.726-2.344V2.16c0-.646-.525-1.172-1.171-1.172H1.172A1.176 1.176 0 000 2.161v15.23c0 .645.526 1.171 1.172 1.171h6.097l6.091 2.354c.003 0 .005.002.007.003a1.175 1.175 0 001.503-.703L19.93 6.01a1.173 1.173 0 00-.693-1.498zM1.172 17.78a.391.391 0 01-.391-.39V2.16a.39.39 0 01.39-.39H12.34a.39.39 0 01.39.39v15.23a.39.39 0 01-.39.39H1.172zM19.195 5.747l-5.06 14.204a.391.391 0 01-.498.235l-4.201-1.624h2.904c.646 0 1.171-.526 1.171-1.172V3.012l5.437 2.226a.392.392 0 01.247.508z"/></g><defs><clipPath id="clip0"><path fill="#fff" transform="translate(0 .99)" d="M0 0h20v20H0z"/></clipPath></defs></svg>