<svg width="30" height="30" fill="none" xmlns="http://www.w3.org/2000/svg"><path d="M5.102 19.093a.586.586 0 10.592 1.013.586.586 0 00-.592-1.013zm13.048-15.1a.587.587 0 10.352-1.12.587.587 0 00-.352 1.12zM5.948 7.553a.585.585 0 10.733-.913.585.585 0 00-.733.913zm5.807-3.557a.586.586 0 100-1.171.586.586 0 000 1.17zM8.76 5.43a.586.586 0 10-.002-1.173.586.586 0 00.001 1.172zm6.28-1.914h.002a.586.586 0 10-.002 0zm10.481 9.811c.021.31.28.546.585.546.013 0 .027 0 .04-.002a.586.586 0 10-.625-.544zm-.681-3.07a.585.585 0 101.094-.421.585.585 0 00-1.095.42zm-3.861-4.885a.585.585 0 10.666-.962.585.585 0 00-.666.962zm2.758 2.375a.586.586 0 100-1.172.586.586 0 000 1.172zm.368 11.642a.586.586 0 101.011.593.586.586 0 00-1.011-.593zm1.87-3.359a.586.586 0 10-.266 1.14.586.586 0 00.266-1.14zM4.02 15.946a.586.586 0 10.27 1.14.586.586 0 00-.27-1.14zm.409-5.435a.587.587 0 00.76-.33v.002a.586.586 0 10-.76.329zM3.9 13.79a.586.586 0 10-.585-.63.586.586 0 00.585.63zm6.413-.313H8.555a.586.586 0 100 1.171h1.758a.586.586 0 100-1.171zm11.132 1.171a.586.586 0 100-1.171h-1.758a.586.586 0 100 1.171h1.758zM19.972 9.09a.586.586 0 00-.829 0l-1.657 1.658a.586.586 0 00.829.829l1.657-1.658a.586.586 0 000-.828zm-9.115 0a.586.586 0 00-.829.83l1.657 1.656a.584.584 0 00.829 0 .586.586 0 000-.828L10.857 9.09zM15 7.031a.586.586 0 00-.586.586v2.344a.586.586 0 101.172 0V7.617A.586.586 0 0015 7.031zm0 13.594a.586.586 0 00.586-.586v-.469a.586.586 0 00-1.172 0v.47c0 .323.262.585.586.585z" fill="#04A5FF"/><path d="M29.414 28.828h-1.45l-3.262-4.585a13.97 13.97 0 004.36-10.18 13.97 13.97 0 00-4.118-9.944A13.97 13.97 0 0015 0a13.97 13.97 0 00-9.944 4.119 13.97 13.97 0 00-4.119 9.944A13.97 13.97 0 005.3 24.242l-3.263 4.586H.586a.586.586 0 000 1.172h28.828a.586.586 0 000-1.172zM2.11 14.063C2.11 6.955 7.892 1.171 15 1.171s12.89 5.783 12.89 12.89c0 3.605-1.488 6.866-3.88 9.208l-2.156-3.03c1.628-1.628 2.521-3.808 2.521-6.177 0-5.17-4.206-9.376-9.375-9.376-5.17 0-9.375 4.206-9.375 9.375 0 2.37.893 4.55 2.52 6.178L5.99 23.27a12.852 12.852 0 01-3.88-9.207zm15.228-.174A2.346 2.346 0 0015 11.719a2.346 2.346 0 00-2.337 2.17l-3.829 5.383c-1.279-1.355-2.037-3.165-2.037-5.21 0-4.523 3.68-8.203 8.203-8.203s8.203 3.68 8.203 8.204c0 2.043-.758 3.854-2.037 5.208l-3.83-5.382zM15 16.649l3.249 4.56a9.032 9.032 0 01-3.249.588 9.031 9.031 0 01-3.249-.587L15 16.648zm0-1.415a1.173 1.173 0 01-1.172-1.171 1.173 1.173 0 012.344-.001c0 .647-.526 1.172-1.172 1.172zM3.475 28.828l9.577-13.464c.22.327.519.596.87.778L4.887 28.828H3.475zm2.85 0l1.782-2.502c.885.499 1.82.898 2.791 1.193v1.31H6.325zm9.847-1.172h1.758v1.172h-5.86v-2.344c0-.646.526-1.172 1.172-1.172h3.516c.646 0 1.172.526 1.172 1.172h-1.758a.587.587 0 000 1.172zm.586-3.515h-3.516a2.346 2.346 0 00-2.335 2.144 12.824 12.824 0 01-2.11-.927l2.258-3.17c1.213.511 2.552.78 3.945.78 1.393 0 2.732-.27 3.944-.782l2.26 3.173c-.67.369-1.376.68-2.111.927a2.347 2.347 0 00-2.335-2.145zm2.344 3.379a13.89 13.89 0 002.79-1.194l1.783 2.502h-4.573V27.52zm6.011 1.308l-9.035-12.686a2.36 2.36 0 00.87-.778l9.577 13.464h-1.412z" fill="#04A5FF"/><path d="M13.828 26.484a.587.587 0 000 1.172.586.586 0 000-1.172z" fill="#04A5FF"/></svg>