<svg width="30" height="30" fill="none" xmlns="http://www.w3.org/2000/svg"><path d="M26.8 5.738h.926a.586.586 0 000-1.17h-2.225a.586.586 0 00-.586.585v2.225a.586.586 0 001.172 0v-.644A13.784 13.784 0 0128.829 15c0 7.625-6.204 13.829-13.829 13.829-7.625 0-13.829-6.204-13.829-13.829C1.171 7.375 7.375 1.171 15 1.171c.564 0 1.131.034 1.687.102A.586.586 0 0016.828.11 15.213 15.213 0 0015 0C10.993 0 7.226 1.56 4.393 4.393A14.902 14.902 0 000 15c0 4.007 1.56 7.773 4.393 10.607A14.902 14.902 0 0015 30c4.007 0 7.773-1.56 10.607-4.393A14.902 14.902 0 0030 15a14.96 14.96 0 00-3.2-9.262z" fill="#04A5FF"/><path d="M6.351 8.842a.586.586 0 00-.808.182 11.227 11.227 0 00-1.666 7.15 11.21 11.21 0 003.215 6.734A11.15 11.15 0 0015 26.178a11.15 11.15 0 007.908-3.27c4.361-4.36 4.361-11.456 0-15.816a11.21 11.21 0 00-6.724-3.214 11.227 11.227 0 00-7.14 1.653.586.586 0 00.624.991C13.646 4.015 18.75 4.59 22.08 7.92c3.904 3.904 3.904 10.256 0 14.16s-10.256 3.904-14.16 0c-3.285-3.284-3.868-8.512-1.387-12.43a.586.586 0 00-.182-.808z" fill="#04A5FF"/><path d="M22.612 15.596h.723a.586.586 0 000-1.171h-.723a.586.586 0 000 1.17zM6.08 14.99c0 .324.262.586.586.586h.722a.586.586 0 000-1.17h-.722a.586.586 0 00-.586.585zm9.515-7.602v-.722a.586.586 0 00-1.171 0v.722a.586.586 0 001.17 0zm-1.19 15.225v.722a.586.586 0 001.17 0v-.722a.586.586 0 00-1.17 0zm-2.34-11.376a.586.586 0 00-.828.828l1.984 1.985A2.02 2.02 0 0015 17.018a2.02 2.02 0 001.779-2.968l4.004-4.005a.586.586 0 00-.828-.828l-4.004 4.005a2.005 2.005 0 00-1.901 0l-1.985-1.985zM15.846 15a.847.847 0 11-1.694-.002.847.847 0 011.694.002zM7.92 7.92a.588.588 0 000-.829.59.59 0 00-.829 0 .589.589 0 00.414 1 .59.59 0 00.414-.172zm11.136-6.17a.588.588 0 00.586-.585.59.59 0 00-.586-.586.59.59 0 00-.585.586.589.589 0 00.585.585z" fill="#04A5FF"/></svg>