<svg width="30" height="30" fill="none" xmlns="http://www.w3.org/2000/svg"><path d="M29.477 26.237h-1.881V24.46a.523.523 0 00-.523-.523h-.59v-9.93h.59a.523.523 0 00.523-.523v-1.777h.836a.523.523 0 00.523-.522v-2.09h.522A.523.523 0 0030 8.57V5.958a.523.523 0 00-.342-.49L15.18.137a.523.523 0 00-.362 0L.342 5.467A.523.523 0 000 5.959v2.613c0 .289.234.523.523.523h.522v2.09c0 .29.234.523.523.523h.836v1.777c0 .289.234.523.523.523h.59v9.93h-.59a.523.523 0 00-.523.523v1.777H.523A.523.523 0 000 26.76v2.614c0 .288.234.522.523.522h28.954a.523.523 0 00.523-.522V26.76a.523.523 0 00-.523-.522zm-2.927-1.255v1.255h-5.226v-1.255h5.226zm-8.414-1.045h-.59v-9.93h.59a.523.523 0 00.523-.523v-1.777h1.62v1.777c0 .289.234.523.522.523h.59v9.93h-.59a.523.523 0 00-.522.523v1.777h-1.62V24.46a.523.523 0 00-.523-.523zm-8.937 0h-.59v-9.93h.59a.523.523 0 00.522-.523v-1.777h1.62v1.777c0 .289.235.523.523.523h.59v9.93h-.59a.523.523 0 00-.523.523v1.777h-1.62V24.46a.523.523 0 00-.522-.523zm3.188-10.976v-1.254h5.226v1.254h-5.226zm4.114 1.046v9.93h-3.002v-9.93h3.002zm-4.114 10.975h5.226v1.255h-5.226v-1.255zm10.05-1.045v-9.93h3v9.93h-3zm4.113-10.976h-5.226v-1.254h5.226v1.254zm-24.46-2.3V9.095h1.793a.523.523 0 000-1.045H1.045V6.323L15 1.184l13.955 5.139v1.726H6.975a.523.523 0 000 1.045h20.934v1.568H2.091zm1.36 2.3v-1.254h5.226v1.254H3.45zm4.113 1.046v9.93h-3v-9.93h3zM3.45 24.982h5.226v1.255H3.45v-1.255zm25.505 3.868H1.045v-1.568h27.91v1.568z" fill="#04A5FF"/><path d="M4.923 8.77c-.013-.03.013.033 0 0z" fill="#04A5FF"/><path d="M5.037 8.202a.528.528 0 000 .74c.206.199.533.2.74 0a.53.53 0 000-.74.53.53 0 00-.74 0z" fill="#04A5FF"/></svg>