<svg width="20" height="20" fill="none" xmlns="http://www.w3.org/2000/svg"><path d="M17.071 2.929A9.934 9.934 0 0010 0a9.934 9.934 0 00-7.071 2.929A9.934 9.934 0 000 10a9.934 9.934 0 002.929 7.071A9.934 9.934 0 0010 20a9.934 9.934 0 007.071-2.929A9.934 9.934 0 0020 10a9.934 9.934 0 00-2.929-7.071zM10 19.203C4.925 19.203.797 15.075.797 10 .797 4.925 4.925.797 10 .797c5.075 0 9.203 4.128 9.203 9.203 0 5.075-4.128 9.203-9.203 9.203z" fill="red"/><path d="M11.77 9.92l2.775-2.775a1.281 1.281 0 00-.905-2.185c-.342 0-.664.133-.905.375L9.96 8.11 7.184 5.335a1.272 1.272 0 00-.905-.375 1.281 1.281 0 00-.905 2.185L8.15 9.92l-2.776 2.775a1.281 1.281 0 00.905 2.185c.342 0 .664-.133.905-.375L9.96 11.73l2.775 2.775c.242.242.563.375.905.375a1.282 1.282 0 00.905-2.185L11.77 9.92zm2.212 4.022a.48.48 0 01-.684 0l-3.057-3.057a.398.398 0 00-.563 0L6.62 13.942a.48.48 0 01-.683 0 .484.484 0 010-.683l3.057-3.057a.399.399 0 000-.564L5.938 6.582a.484.484 0 01.683-.684l3.057 3.057a.398.398 0 00.563 0l3.057-3.057a.48.48 0 01.684 0 .484.484 0 010 .684l-3.057 3.056a.399.399 0 000 .564l3.056 3.057a.484.484 0 010 .683z" fill="red"/><path d="M6.73 2.678a.398.398 0 00-.536-.175A8.434 8.434 0 002.87 5.545a8.384 8.384 0 00-1.276 4.456.398.398 0 00.797 0 7.58 7.58 0 014.164-6.787.4.4 0 00.175-.536zm1.637-.121a.402.402 0 00.081-.008 7.665 7.665 0 011.553-.158.398.398 0 000-.797c-.577 0-1.154.059-1.715.175a.398.398 0 00.08.788z" fill="red"/></svg>