<svg width="20" height="20" fill="none" xmlns="http://www.w3.org/2000/svg"><path d="M10 6.094a.39.39 0 100 .781.39.39 0 000-.781z" fill="#04A5FF"/><path d="M20 6.481c0-.01 0-.02-.002-.03v-.007a.422.422 0 00-.006-.036l-.003-.015a.46.46 0 00-.005-.02l-.006-.016-.006-.018a.439.439 0 00-.015-.033l-.009-.015a.372.372 0 00-.041-.06l-.005-.005-4.14-4.688-.003-.003a.406.406 0 00-.02-.02l-.009-.008a.354.354 0 00-.025-.021l-.005-.004a.395.395 0 00-.107-.055h-.001l-.012-.004a.38.38 0 00-.028-.008l-.01-.001a.406.406 0 00-.03-.005h-.01a.379.379 0 00-.03-.003H4.53l-.03.002h-.011a.388.388 0 00-.03.006l-.01.001-.027.008-.013.003a.383.383 0 00-.107.055l-.006.005a.394.394 0 00-.025.021l-.008.008a.387.387 0 00-.02.02l-.004.003-4.14 4.688-.004.005a.347.347 0 00-.05.075.368.368 0 00-.022.05l-.006.017a.398.398 0 00-.005.02l-.003.015a.377.377 0 00-.006.036v.006L0 6.481v.013a.388.388 0 00.02.112l.006.018.006.016.01.018c.001.005.004.01.006.014l.012.02.007.011a.4.4 0 00.022.029v.001l9.609 11.718.002.003.027.028.003.003a.383.383 0 00.026.023l.008.006.029.02.003.002c.01.007.022.013.033.018l.01.004a.139.139 0 00.028.012l.008.003a.388.388 0 00.037.01l.007.002a.36.36 0 00.13.005.365.365 0 00.032-.005l.007-.002a.383.383 0 00.037-.01c.003 0 .005-.002.007-.003a.434.434 0 00.03-.012l.008-.004a.372.372 0 00.034-.018l.003-.002a.368.368 0 00.028-.02l.009-.006a.392.392 0 00.026-.023l.003-.003a.356.356 0 00.026-.028l.003-.003L19.91 6.733l.001-.001a.394.394 0 00.022-.029l.007-.011.012-.02.007-.014a.328.328 0 00.009-.018l.006-.016.006-.018a.303.303 0 00.013-.052.37.37 0 00.006-.06l.001-.01v-.003zm-4.375-3.917l3.118 3.53h-4.295l1.177-3.53zm-.698-.376l-1.17 3.508-2.923-3.508h4.093zm-5.761 0L6.243 5.696l-1.17-3.508h4.093zm-4.79.376l1.176 3.53H1.257l3.118-3.53zm-3.16 4.311h4.596l3.148 9.444-7.744-9.444zM10 16.968L6.636 6.875h1.801a.39.39 0 000-.781h-1.51L10 2.407l3.072 3.687h-1.546a.39.39 0 100 .781h1.838L10 16.968zm1.04-.649l3.148-9.444h4.596l-7.744 9.444z" fill="#04A5FF"/></svg>