<svg width="20" height="20" fill="none" xmlns="http://www.w3.org/2000/svg"><g clip-path="url(#clip0)" fill="#04A5FF"><path d="M7.422 10.156a.39.39 0 100 .782.39.39 0 000-.782z"/><path d="M19.657 10.819L12.5 3.662v-2.49c0-.645-.526-1.171-1.172-1.171H1.172C.526.001 0 .527 0 1.173v10.156c0 .646.526 1.172 1.172 1.172h2.49l7.156 7.157c.221.221.516.343.829.343.313 0 .607-.122.828-.343l4.42-4.42 2.762-2.762c.221-.221.343-.516.343-.828 0-.313-.122-.608-.343-.829zm-15.834.9H1.172a.391.391 0 01-.39-.39V1.173a.39.39 0 01.39-.39h10.156a.39.39 0 01.39.39v10.156a.39.39 0 01-.39.39H3.823zm15.281.205l-.552.552-6.63 6.63a.388.388 0 01-.552 0L4.766 12.5h6.562c.646 0 1.172-.526 1.172-1.172V4.767l6.604 6.604a.388.388 0 010 .553z"/><path d="M6.25 4.688a1.564 1.564 0 000 3.125 1.564 1.564 0 000-3.125zm0 2.343a.782.782 0 010-1.562.782.782 0 010 1.562zm3.125-5.468a1.564 1.564 0 000 3.125c.862 0 1.563-.701 1.563-1.563 0-.861-.701-1.562-1.563-1.562zm0 2.343a.782.782 0 010-1.562.782.782 0 010 1.562zm-6.25 3.907a1.564 1.564 0 000 3.125 1.564 1.564 0 000-3.125zm0 2.343a.782.782 0 010-1.562.782.782 0 010 1.562zm14.045.386a1.551 1.551 0 00-1.104-.458c-.417 0-.81.163-1.105.458a1.551 1.551 0 00-.458 1.105 1.561 1.561 0 103.125 0c0-.418-.162-.81-.457-1.105zm-.552 1.657a.782.782 0 11-1.104-1.107.782.782 0 011.104 1.107zm-3.866 2.762a1.552 1.552 0 00-1.105-.457c-.418 0-.81.162-1.105.457a1.55 1.55 0 00-.458 1.105c0 .418.163.81.458 1.105.295.295.687.458 1.105.458a1.564 1.564 0 001.105-2.667zm-.553 1.657a.777.777 0 01-.552.23.776.776 0 01-.553-.23.776.776 0 01-.229-.552c0-.209.082-.405.23-.552a.775.775 0 01.552-.23.782.782 0 01.553 1.334zm-1.652-6.462H8.984a.39.39 0 000 .782h1.563a.39.39 0 000-.782z"/></g><defs><clipPath id="clip0"><path fill="#fff" d="M0 0h20v20H0z"/></clipPath></defs></svg>