<svg width="30" height="30" fill="none" xmlns="http://www.w3.org/2000/svg"><path d="M.414 14.138l5.118-4.13a1.15 1.15 0 011.223-.18 1.1 1.1 0 01.667 1.015v1.814h14.667c.808 0 1.465.657 1.465 1.464v1.758c0 .808-.657 1.465-1.465 1.465H7.422v1.813c0 .43-.246.814-.64 1.003a1.135 1.135 0 01-1.215-.14L.422 15.87a1.105 1.105 0 01-.01-1.732zm5.836 4.927v-2.307c0-.323.262-.586.586-.586h15.253a.297.297 0 00.293-.293v-1.758a.297.297 0 00-.293-.293H6.836a.586.586 0 01-.586-.585v-2.308L1.212 15l5.038 4.065z" fill="#00C437"/><path d="M11.543 19.102h1.758c.808 0 1.465.657 1.465 1.465v4.746h10.546V4.687h-2.636a.586.586 0 110-1.171h3.223c.323 0 .585.262.585.586v21.796a.586.586 0 01-.586.586H14.18a.586.586 0 01-.586-.586v-5.332a.297.297 0 00-.293-.293h-1.758a.297.297 0 00-.293.293v6.504c0 .97.789 1.758 1.758 1.758H27.07a1.76 1.76 0 001.758-1.758V2.93a1.76 1.76 0 00-1.758-1.758H13.008A1.76 1.76 0 0011.25 2.93v6.504c0 .158.134.293.293.293h1.758a.297.297 0 00.293-.293V4.102c0-.324.262-.586.586-.586h3.222a.586.586 0 010 1.171h-2.636v4.747c0 .807-.657 1.464-1.465 1.464h-1.758a1.467 1.467 0 01-1.465-1.464V2.93A2.933 2.933 0 0113.008 0H27.07A2.933 2.933 0 0130 2.93v24.14A2.933 2.933 0 0127.07 30H13.008a2.933 2.933 0 01-2.93-2.93v-6.503c0-.808.657-1.465 1.465-1.465z" fill="#00C437"/><path d="M20.625 4.102a.586.586 0 11-1.173 0 .586.586 0 011.173 0z" fill="#00C437"/></svg>