<svg width="20" height="21" fill="none" xmlns="http://www.w3.org/2000/svg"><g clip-path="url(#clip0)" fill="#04A5FF"><path d="M19.885 1.104a.39.39 0 00-.313-.113 8.576 8.576 0 00-5.247 2.469l-8.137 8.137-.604-.604a1.633 1.633 0 00-.474-1.027 1.642 1.642 0 00-2.32 2.32c.285.287.651.444 1.026.475l.604.604L.663 17.12a2.268 2.268 0 000 3.205 2.25 2.25 0 001.602.663 2.25 2.25 0 001.602-.663l3.757-3.757.603.603c.031.388.197.749.475 1.027.31.31.722.48 1.16.48.438 0 .85-.17 1.16-.48.31-.31.481-.722.481-1.16 0-.438-.17-.85-.48-1.16a1.628 1.628 0 00-1.028-.475l-.603-.603 3.865-3.865a.39.39 0 00-.552-.553L8.84 14.25l-.774-.774 3.326-3.326a.39.39 0 00-.553-.552l-3.325 3.326-.27-.27-.504-.504 8.137-8.137a7.796 7.796 0 014.281-2.182 7.796 7.796 0 01-2.181 4.281L15.19 7.897a.39.39 0 00.552.552l1.786-1.785a8.575 8.575 0 002.469-5.247.39.39 0 00-.113-.313zM9.082 15.595a1.647 1.647 0 00-.663.663l-3.69-3.688a1.634 1.634 0 00.664-.663l3.689 3.688zm-5.74-5.076a.86.86 0 011.215 1.215.86.86 0 01-1.215-1.215zm3.73 5.497l-3.757 3.757c-.28.28-.653.435-1.05.435a1.486 1.486 0 01-1.05-2.534l3.757-3.757 2.1 2.1zm3.65 1.023c0 .23-.09.445-.252.608a.854.854 0 01-.608.252.854.854 0 01-.607-.252.854.854 0 01-.252-.608c0-.23.09-.445.252-.608a.854.854 0 01.607-.252c.23 0 .446.09.608.252a.854.854 0 01.252.608z"/><path d="M5.028 16.403a.39.39 0 00.553 0 .39.39 0 000-.553l-.442-.442a.39.39 0 10-.553.553l.442.442zm-1.216 1.216a.39.39 0 00.552 0 .39.39 0 000-.553l-.442-.442a.39.39 0 10-.552.553l.442.442zm-1.216 1.214a.39.39 0 00.553 0 .39.39 0 000-.552l-.442-.442a.39.39 0 00-.553.552l.442.442zm11.628-9.808a.394.394 0 00-.39.391.393.393 0 00.39.39.393.393 0 00.39-.39.393.393 0 00-.113-.276.395.395 0 00-.277-.115z"/></g><defs><clipPath id="clip0"><path fill="#fff" transform="translate(0 .99)" d="M0 0h20v20H0z"/></clipPath></defs></svg>