<svg width="20" height="20" fill="none" xmlns="http://www.w3.org/2000/svg"><g clip-path="url(#clip0)" fill="#04A5FF"><path d="M18.341 4.434h-2.355c.51-.463.857-1.099.944-1.822.049-.402.008-.778-.118-1.087C16.36.408 14.895-.228 13.48.077a.442.442 0 00-.034.008c-.837.26-1.736 1.12-2.672 2.554-.32.488-.586.957-.781 1.32a18.055 18.055 0 00-.781-1.32C8.274 1.205 7.375.346 6.538.085a3.341 3.341 0 00-2.141.217.392.392 0 00.333.711A2.586 2.586 0 016.322.84c1.135.368 2.395 2.378 3.036 3.594H6.032a2.224 2.224 0 01-2.02-1.278.392.392 0 10-.712.33c.169.365.408.685.698.948H1.642a.392.392 0 00-.392.392v4.036c0 .216.176.392.392.392h.434v10.354c0 .216.176.392.393.392h15.046a.392.392 0 00.392-.392V9.254h.434a.392.392 0 00.392-.392V4.826a.392.392 0 00-.392-.392zM13.661.84c1.033-.215 2.117.223 2.425.98.075.186.098.428.066.7-.132 1.09-1.077 1.914-2.2 1.914h-3.327c.64-1.216 1.9-3.225 3.037-3.594zM2.035 8.47V5.218H6.81V8.47H2.034zm9.583 10.746H2.861V9.254h4.72v7.217a.392.392 0 10.785 0V9.254h3.251v9.962zM12.39 8.47H7.594V5.218h4.795V8.47zm4.734 10.746h-4.721V9.254h4.72v9.962zM17.95 8.47h-4.776V5.218h4.776V8.47z"/><path d="M8.366 18.039a.394.394 0 11-.787 0 .394.394 0 01.787 0zM3.93 1.787a.394.394 0 11-.787 0 .394.394 0 01.787 0z"/></g><defs><clipPath id="clip0"><path fill="#fff" d="M0 0h20v20H0z"/></clipPath></defs></svg>