<svg width="20" height="20" fill="none" xmlns="http://www.w3.org/2000/svg"><path d="M19.85 7.99L10.24.503a.39.39 0 00-.48 0L.15 7.99a.39.39 0 00.24.7h2.033v10.498a.39.39 0 00.39.391h5.503a.39.39 0 000-.781H3.204v-10.5a.39.39 0 00-.39-.39H1.528L10 1.307l8.472 6.6h-1.286a.39.39 0 00-.39.39v10.5h-5.043a.39.39 0 000 .781h5.433a.39.39 0 00.391-.39v-10.5h2.032a.39.39 0 00.24-.699z" fill="#04A5FF"/><path d="M13.192 13.796V8.192a.39.39 0 00-.39-.39H7.198a.39.39 0 00-.39.39v5.604c0 .215.175.39.39.39h5.604a.39.39 0 00.39-.39zm-.781-3.173h-2.04v-2.04h2.04v2.04zm-2.782-2.04v2.04h-2.04v-2.04h2.04zm-2.04 2.782h2.04v2.04h-2.04v-2.04zm2.782 2.04v-2.04h2.04v2.04h-2.04zm.029 5.633a.393.393 0 00-.51-.211.393.393 0 00-.212.51.393.393 0 00.51.21.394.394 0 00.211-.509z" fill="#04A5FF"/></svg>