<svg width="20" height="20" fill="none" xmlns="http://www.w3.org/2000/svg"><path d="M14.14 0H5.86A5.866 5.866 0 000 5.86v8.28A5.866 5.866 0 005.86 20h8.28A5.866 5.866 0 0020 14.14V5.86A5.866 5.866 0 0014.14 0zm5.079 14.14c0 2.8-2.278 5.079-5.078 5.079H5.859A5.084 5.084 0 01.781 14.14V5.859A5.085 5.085 0 015.86.781h8.282c2.8 0 5.078 2.278 5.078 5.078v8.282z" fill="#fff"/><path d="M14.14 1.719H5.86a4.145 4.145 0 00-4.141 4.14v8.282a4.145 4.145 0 004.14 4.14h2.383a.39.39 0 000-.781H5.86a3.363 3.363 0 01-3.36-3.36V5.86A3.363 3.363 0 015.86 2.5h8.28a3.363 3.363 0 013.36 3.36v8.28a3.363 3.363 0 01-3.36 3.36h-2.356a.39.39 0 100 .781h2.357a4.145 4.145 0 004.14-4.14V5.859a4.145 4.145 0 00-4.14-4.14z" fill="#fff"/><path d="M10.276 17.615a.394.394 0 00-.552 0 .393.393 0 000 .552.393.393 0 00.552 0 .394.394 0 000-.552zM6.868 6.083a.39.39 0 00-.552-.018l-.018.016a.39.39 0 00.537.568l.015-.014a.39.39 0 00.018-.552z" fill="#fff"/><path d="M10 4.61a5.41 5.41 0 00-2.47.597.39.39 0 00.359.694A4.615 4.615 0 0114.609 10 4.615 4.615 0 0110 14.61a4.615 4.615 0 01-4.011-6.882.39.39 0 00-.68-.386A5.392 5.392 0 0010 15.39 5.397 5.397 0 0015.39 10 5.397 5.397 0 0010 4.61z" fill="#fff"/><path d="M10 6.484A3.52 3.52 0 006.484 10 3.52 3.52 0 0010 13.516 3.52 3.52 0 0013.516 10 3.52 3.52 0 0010 6.484zm0 6.25A2.737 2.737 0 017.266 10 2.737 2.737 0 0110 7.266 2.738 2.738 0 0112.734 10 2.738 2.738 0 0110 12.735zm5.127-9.345a1.485 1.485 0 000 2.969c.818 0 1.484-.666 1.484-1.485 0-.818-.666-1.484-1.484-1.484zm0 2.187a.704.704 0 11.002-1.408.704.704 0 01-.002 1.408z" fill="#fff"/></svg>