<svg width="20" height="21" fill="none" xmlns="http://www.w3.org/2000/svg"><g clip-path="url(#clip0)" fill="#04A5FF"><path d="M3.644 4.993a.39.39 0 00-.703.189L2.69 7.514a.39.39 0 00.777.083l.142-1.327.787 1.078a.39.39 0 00.631-.46L3.644 4.992z"/><path d="M18.828 3.958h-6.604l-.563-2.1a1.164 1.164 0 00-.545-.711 1.164 1.164 0 00-.89-.117L.87 3.537a1.164 1.164 0 00-.712.546 1.164 1.164 0 00-.117.89l3.802 14.186c.08.302.275.555.546.712a1.165 1.165 0 00.889.117l2.692-.722v.551c0 .647.526 1.172 1.172 1.172h9.687c.646 0 1.172-.525 1.172-1.172v-5.585a.39.39 0 10-.781 0v5.585a.39.39 0 01-.39.391H9.14a.391.391 0 01-.39-.39V5.13a.39.39 0 01.39-.39h9.687a.39.39 0 01.39.39v5.586a.39.39 0 10.782 0V5.13c0-.646-.526-1.172-1.172-1.172zm-10.86 8.127a1.22 1.22 0 01-1.462.195 1.212 1.212 0 01-.443-1.654l1.272-2.203.634.366v3.296zm0-6.955v2.757l-.58-.336a.39.39 0 00-.534.143l-1.467 2.542c-.266.46-.337.997-.2 1.51a1.996 1.996 0 001.928 1.48c.295 0 .587-.066.854-.194v5.425l-2.894.776a.388.388 0 01-.479-.276L.796 4.77a.391.391 0 01.275-.478l9.357-2.508a.388.388 0 01.479.277l.508 1.897H9.141c-.646 0-1.172.526-1.172 1.172z"/><path d="M12.067 8.775a.39.39 0 00.224-.505l-.846-2.187a.39.39 0 00-.729 0L9.871 8.27a.39.39 0 00.728.282l.482-1.245.481 1.245a.39.39 0 00.505.223zm4.457 10.09a.39.39 0 00.729 0l.845-2.188a.39.39 0 10-.728-.282l-.482 1.245-.481-1.245a.39.39 0 10-.729.282l.846 2.188zm-2.816-3.42a.39.39 0 00.552 0l2.076-2.075a1.994 1.994 0 000-2.816 1.98 1.98 0 00-2.352-.347 1.98 1.98 0 00-2.351.347 1.994 1.994 0 000 2.816l2.075 2.075zm-1.523-4.339a1.213 1.213 0 011.569-.122c.137.1.323.1.46 0a1.218 1.218 0 011.57.122c.471.472.471 1.24 0 1.712l-1.8 1.799-1.799-1.8a1.212 1.212 0 010-1.71zm7.425.977a.393.393 0 00-.39.39.393.393 0 00.39.391.393.393 0 00.39-.39.393.393 0 00-.39-.391z"/></g><defs><clipPath id="clip0"><path fill="#fff" transform="translate(0 .99)" d="M0 0h20v20H0z"/></clipPath></defs></svg>