<svg width="30" height="30" fill="none" xmlns="http://www.w3.org/2000/svg"><path d="M9.14 8.555a.586.586 0 10.001 1.172.586.586 0 000-1.172z" fill="#04A5FF"/><path d="M15 6.21a8.788 8.788 0 00-4.217 1.08.586.586 0 00.564 1.027A7.613 7.613 0 0115 7.383c4.2 0 7.617 3.417 7.617 7.617S19.2 22.617 15 22.617 7.383 19.2 7.383 15c0-1.276.323-2.54.934-3.653a.586.586 0 10-1.027-.564A8.788 8.788 0 006.21 15c0 4.846 3.944 8.79 8.79 8.79 4.846 0 8.79-3.944 8.79-8.79 0-4.846-3.944-8.79-8.79-8.79z" fill="#04A5FF"/><path d="M15 0C6.93 0 0 6.884 0 15c0 8.09 6.905 15 15 15 8.087 0 15-6.904 15-15 0-8.087-6.902-15-15-15zm13.814 14.414h-2.521c-.136-2.564-1.161-4.993-2.932-6.946l1.75-1.75c2.23 2.422 3.556 5.534 3.703 8.696zM15.586 1.186c3.161.147 6.274 1.472 8.696 3.703l-1.75 1.75c-1.953-1.77-4.382-2.796-6.946-2.932v-2.52zm-1.172 0v2.521c-2.564.136-4.993 1.161-6.946 2.932l-1.75-1.75c2.422-2.23 5.534-3.556 8.696-3.703zM4.89 5.718l1.75 1.75c-1.77 1.953-2.796 4.382-2.932 6.946h-2.52c.146-3.162 1.471-6.274 3.702-8.696zm-3.703 9.868h2.521c.136 2.564 1.161 4.993 2.932 6.946l-1.75 1.75c-2.23-2.422-3.556-5.535-3.703-8.696zm13.228 13.228c-3.162-.147-6.274-1.472-8.696-3.703l1.75-1.75c1.952 1.77 4.382 2.796 6.946 2.932v2.52zM4.864 15C4.863 9.536 9.47 4.863 15 4.863c2.656 0 5.188 1.069 7.128 3.01 1.94 1.94 3.009 4.47 3.009 7.127 0 5.464-4.607 10.137-10.137 10.137C9.536 25.137 4.863 20.53 4.863 15zm10.722 13.814v-2.521c2.564-.136 4.993-1.162 6.946-2.932l1.75 1.75c-2.422 2.23-5.535 3.556-8.696 3.703zm9.525-4.532l-1.75-1.75c1.77-1.953 2.796-4.388 2.932-6.952h2.52c-.146 3.162-1.471 6.28-3.702 8.702z" fill="#04A5FF"/><path d="M16.172 14.414h-.586V12.07h.586c.323 0 .586.263.586.586a.586.586 0 001.172 0 1.76 1.76 0 00-1.758-1.758h-.586v-.585a.586.586 0 00-1.172 0v.585h-.586a1.76 1.76 0 00-1.758 1.758v1.172c0 .97.789 1.758 1.758 1.758h.586v2.344h-.586a.587.587 0 01-.586-.586.586.586 0 00-1.172 0 1.76 1.76 0 001.758 1.758h.586v.585a.586.586 0 101.172 0v-.585h.586a1.76 1.76 0 001.758-1.758v-1.172a1.76 1.76 0 00-1.758-1.758zm-1.758 0h-.586a.587.587 0 01-.586-.586v-1.172c0-.323.263-.586.586-.586h.586v2.344zm2.344 2.93a.587.587 0 01-.586.586h-.586v-2.344h.586c.323 0 .586.263.586.586v1.172z" fill="#04A5FF"/></svg>