<svg width="20" height="21" fill="none" xmlns="http://www.w3.org/2000/svg"><g clip-path="url(#clip0)" fill="#04A5FF"><path d="M19.333 10.242l-1.155 1.156a.39.39 0 00-.115.276c0 .828-.322 1.606-.907 2.19l-6.172 6.173a.588.588 0 01-.871-.786l3.574-3.574a.39.39 0 000-.553h-.002v-.002a.39.39 0 00-.553 0l-4.31 4.314a.583.583 0 01-.83 0 .588.588 0 01-.041-.785l4.355-4.355a.39.39 0 10-.553-.553l-5.07 5.07a.584.584 0 01-.83 0 .584.584 0 010-.83l5.073-5.07a.39.39 0 10-.552-.552l-4.529 4.524a.588.588 0 01-.785-.871l1.482-1.482a.39.39 0 00-.553-.553l-.758.758-1.506-1.506A7.56 7.56 0 011.758 9.8a.39.39 0 00-.102-.177l-.99-.99a.39.39 0 00-.552.552l.916.916a8.343 8.343 0 002.143 3.684l1.506 1.506-.172.171a1.36 1.36 0 00-.4.968 1.36 1.36 0 00.963 1.307c-.111.2-.17.426-.17.662 0 .365.142.709.4.967.26.259.603.401.968.401.312 0 .607-.103.847-.293a1.36 1.36 0 001.292.917c.321 0 .626-.11.87-.313a1.364 1.364 0 001.291.912c.35 0 .701-.133.968-.4l.5-.5.35.35c.266.267.617.4.967.4a1.365 1.365 0 001.358-1.197 1.364 1.364 0 001.6-1.348v-.015h.015a1.364 1.364 0 001.369-1.368 1.39 1.39 0 00-.014-.196c.31-.032.598-.17.822-.393.259-.258.4-.602.4-.968 0-.365-.141-.71-.4-.968l-.413-.413a3.845 3.845 0 00.75-2.134l1.045-1.044a.39.39 0 10-.552-.553zm-5.564 9.645a.588.588 0 01-.831 0l-.346-.346.83-.831.199.198.148.148a.583.583 0 010 .83zm1.761-1.593a.588.588 0 01-1.003.415l-.206-.206-.346-.345.83-.831.553.552a.584.584 0 01.172.415zm1.211-.967a.588.588 0 01-.83 0l-.553-.553.831-.83.552.552a.583.583 0 010 .83zm1.21-1.557a.583.583 0 01-.831 0l-.378-.379.83-.83.379.378a.584.584 0 010 .83z"/><path d="M4.635 6.178a.39.39 0 00.276.114h2.016c1.458 0 2.884.506 4.015 1.425l3.174 2.578a2.558 2.558 0 01-2.669.155l-2.16-1.17a.39.39 0 00-.299-.03 7.248 7.248 0 01-4.173.011l-.039-.011a.39.39 0 10-.222.749l.038.011c1.46.434 3 .445 4.465.034l.563.305-1.146 1.145a.39.39 0 10.553.553l1.31-1.31.738.4a3.294 3.294 0 002.06.366 3.297 3.297 0 001.87-.938.39.39 0 00-.03-.58l-3.153-2.56a5.994 5.994 0 013.126-.9.39.39 0 00.273-.114l4.665-4.665a.39.39 0 10-.553-.552L14.78 5.747c-1.29.039-2.53.44-3.602 1.165a7.173 7.173 0 00-4.25-1.401H5.072L.667 1.105a.39.39 0 00-.553.552l4.521 4.52zm2.596 6.56a.393.393 0 000 .552.394.394 0 00.667-.276.394.394 0 00-.39-.391.394.394 0 00-.277.115z"/></g><defs><clipPath id="clip0"><path fill="#fff" transform="translate(0 .99)" d="M0 0h20v20H0z"/></clipPath></defs></svg>