<svg width="50" height="50" fill="none" xmlns="http://www.w3.org/2000/svg"><g clip-path="url(#clip0)" fill="#fff"><path d="M11.944 48.967c-.798 0-1.59-.25-2.269-.742a3.844 3.844 0 01-1.54-3.782l2.148-12.538-9.111-8.877a3.844 3.844 0 01-.98-3.964 3.843 3.843 0 013.121-2.633l12.588-1.833L21.527 3.19a3.843 3.843 0 013.468-2.157c1.483 0 2.812.826 3.468 2.155l.964 1.952a.977.977 0 11-1.751.865l-.964-1.952a1.878 1.878 0 00-1.716-1.067c-.746 0-1.387.4-1.717 1.068l-5.854 11.869a.977.977 0 01-.735.534L3.594 18.364a1.878 1.878 0 00-1.545 1.303 1.878 1.878 0 00.485 1.962l9.48 9.235c.23.224.335.547.28.864l-2.233 13.044a1.877 1.877 0 00.762 1.872 1.878 1.878 0 002.016.145l11.712-6.161a.976.976 0 01.909 0l11.715 6.155a1.88 1.88 0 002.016-.146 1.879 1.879 0 00.761-1.873l-2.24-13.043a.976.976 0 01.28-.864l9.474-9.24c.534-.52.715-1.254.484-1.963a1.878 1.878 0 00-1.546-1.302l-13.097-1.9a.977.977 0 01-.735-.534l-1.003-2.03a.977.977 0 011.751-.866l.776 1.571 12.589 1.826a3.844 3.844 0 013.122 2.631 3.844 3.844 0 01-.977 3.965l-9.107 8.882 2.154 12.536a3.844 3.844 0 01-1.538 3.783 3.84 3.84 0 01-4.072.296l-11.261-5.917-11.258 5.923a3.87 3.87 0 01-1.804.449z"/><path d="M30.492 10.492a.98.98 0 01-.976-.976c0-.257.104-.508.286-.69a.984.984 0 01.69-.287c.258 0 .509.105.69.286a.984.984 0 01.287.69.98.98 0 01-.977.977z"/></g><defs><clipPath id="clip0"><path fill="#fff" d="M0 0h50v50H0z"/></clipPath></defs></svg>