<svg width="20" height="20" fill="none" xmlns="http://www.w3.org/2000/svg"><g clip-path="url(#clip0)" fill="#fff"><path d="M5.574 6.379l.018.008a.39.39 0 00.518-.192.39.39 0 00-.192-.518l-.016-.007a.39.39 0 10-.328.709z"/><path d="M19.908 3.79a.39.39 0 00-.457-.106c-.238.106-.48.199-.725.278.318-.403.565-.863.727-1.36a.39.39 0 00-.571-.457 7.466 7.466 0 01-2.183.867 4.346 4.346 0 00-3.002-1.208 4.337 4.337 0 00-4.306 4.804 10.845 10.845 0 01-1.813-.33.39.39 0 00-.205.755c.8.217 1.63.349 2.464.39a.39.39 0 00.4-.475 3.555 3.555 0 013.46-4.363 3.56 3.56 0 012.589 1.12.39.39 0 00.36.116 8.214 8.214 0 001.56-.468 3.567 3.567 0 01-1.061.976.39.39 0 00.246.723c.361-.042.719-.11 1.07-.2-.32.336-.67.64-1.05.914a.39.39 0 00-.163.326l.011.506c-.002 5.318-4.05 10.817-10.822 10.817a10.81 10.81 0 01-4.46-.96 8.247 8.247 0 004.49-1.742.39.39 0 00-.232-.698 3.568 3.568 0 01-3.076-1.89l.13.002c.387 0 .77-.05 1.137-.147a.39.39 0 00-.023-.76 3.569 3.569 0 01-2.8-2.908 4.18 4.18 0 001.334.255.391.391 0 00.227-.716 3.557 3.557 0 01-1.343-4.23 11.653 11.653 0 002.143 1.855.39.39 0 10.436-.649A10.88 10.88 0 012.03 2.67a.391.391 0 00-.64.049 4.312 4.312 0 00-.588 2.18c0 .953.31 1.86.864 2.598a3.77 3.77 0 01-.313-.154.39.39 0 00-.58.342v.048c0 1.445.722 2.758 1.85 3.552l-.008-.001a.391.391 0 00-.444.504 4.345 4.345 0 003.01 2.861 7.492 7.492 0 01-3.853 1.05c-.3 0-.592-.017-.895-.05a.39.39 0 00-.254.717 11.573 11.573 0 006.257 1.832c1.788 0 3.461-.356 4.974-1.056a10.999 10.999 0 003.644-2.73c1.897-2.153 2.986-5.002 2.986-7.817v-.01l-.008-.307a8.297 8.297 0 001.901-2.019.39.39 0 00-.026-.468z"/><path d="M14.715 11.29a.39.39 0 00-.536.134v.001a.39.39 0 10.67.4.39.39 0 00-.134-.535zm-.763 1.176a.39.39 0 00-.55.053A8.71 8.71 0 0111 14.553a.39.39 0 00.387.679 9.49 9.49 0 002.618-2.216.39.39 0 00-.053-.55z"/></g><defs><clipPath id="clip0"><path fill="#fff" d="M0 0h20v20H0z"/></clipPath></defs></svg>