<svg width="30" height="30" fill="none" xmlns="http://www.w3.org/2000/svg"><path d="M28.242 16.17h-.586v-4.1a3.404 3.404 0 00-2.65-3.315l-2.667-4.619a2.907 2.907 0 00-1.777-1.363 2.908 2.908 0 00-1.599.023L17.024.855a2.93 2.93 0 00-4.139 0L5.071 8.672H3.398A3.402 3.402 0 000 12.069V26.6A3.402 3.402 0 003.398 30h7.793a.586.586 0 000-1.172H3.398A2.23 2.23 0 011.172 26.6V12.07a2.23 2.23 0 012.226-2.227h20.86a2.23 2.23 0 012.226 2.227v4.102h-4.336a3.168 3.168 0 00-3.164 3.164 3.168 3.168 0 003.164 3.164h4.336v4.1a2.23 2.23 0 01-2.226 2.227h-7.793a.586.586 0 000 1.172h7.793a3.402 3.402 0 003.398-3.399v-4.1h.586A1.76 1.76 0 0030 20.74v-2.813a1.76 1.76 0 00-1.758-1.757zM20.258 3.905a1.74 1.74 0 011.066.817l2.28 3.95h-12.63l7.953-4.592a1.743 1.743 0 011.331-.175zm-6.544-2.22a1.743 1.743 0 011.24-.513c.47 0 .91.182 1.241.513l1.66 1.66-9.224 5.327H6.728l6.986-6.987zm15.114 19.057a.587.587 0 01-.586.586h-6.094a1.994 1.994 0 01-1.992-1.992c0-1.099.894-1.993 1.992-1.993h6.094c.323 0 .586.263.586.586v2.813z" fill="#04A5FF"/><path d="M22.05 18.749a.59.59 0 00-.414 1 .589.589 0 001-.414.588.588 0 00-.586-.586zm-8.222 10.078a.59.59 0 00-.586.586.59.59 0 00.586.586.59.59 0 00.586-.586.59.59 0 00-.586-.586z" fill="#04A5FF"/></svg>