<svg width="30" height="30" viewBox="0 0 30 30" fill="none" xmlns="http://www.w3.org/2000/svg">
<path d="M5.10228 19.0929C4.82279 19.2558 4.72845 19.615 4.89134 19.8945C5.00033 20.0808 5.19661 20.1851 5.39818 20.1851C5.49837 20.1851 5.60032 20.1594 5.6929 20.1049C5.97239 19.942 6.06673 19.5828 5.90384 19.3033C5.74036 19.0238 5.38177 18.9294 5.10228 19.0929Z" fill="#04A5FF"/>
<path d="M18.15 3.99294C18.208 4.0111 18.2672 4.01989 18.3252 4.01989C18.5743 4.01989 18.8057 3.85934 18.8842 3.6085C18.9808 3.29971 18.8086 2.971 18.4998 2.87432C18.1905 2.77823 17.8623 2.94991 17.7657 3.25929C17.669 3.56813 17.8412 3.89626 18.15 3.99294Z" fill="#04A5FF"/>
<path d="M5.94849 7.55264C6.05689 7.63936 6.18638 7.68155 6.31528 7.68155C6.48638 7.68155 6.6563 7.60655 6.77232 7.46305C6.97505 7.21045 6.93462 6.84137 6.68208 6.63864C6.43013 6.43649 6.06099 6.47633 5.85884 6.72887C5.6561 6.98082 5.69595 7.34991 5.94849 7.55264Z" fill="#04A5FF"/>
<path d="M11.7547 3.99553C11.8115 3.99553 11.8689 3.98727 11.9258 3.97028C12.2352 3.876 12.4098 3.54841 12.3154 3.23909C12.2211 2.92913 11.8941 2.75446 11.5848 2.84885C11.2748 2.94319 11.1002 3.27008 11.1945 3.58005C11.2713 3.83264 11.5033 3.99553 11.7547 3.99553Z" fill="#04A5FF"/>
<path d="M8.75922 5.42905C8.87231 5.42905 8.98657 5.39617 9.08735 5.32768C9.35512 5.14604 9.42485 4.78158 9.24321 4.51381C9.06157 4.24604 8.69711 4.17631 8.42934 4.35795C8.16156 4.53959 8.09184 4.90404 8.27348 5.17182C8.38656 5.33881 8.57113 5.42905 8.75922 5.42905Z" fill="#04A5FF"/>
<path d="M15.0397 3.51563C15.0403 3.51563 15.0409 3.51563 15.0415 3.51563C15.3644 3.51563 15.6262 3.25489 15.6274 2.93203C15.6286 2.60854 15.3673 2.34487 15.0438 2.34375C14.7204 2.34252 14.4567 2.60385 14.4556 2.92735C14.4544 3.25137 14.7157 3.5144 15.0397 3.51563Z" fill="#04A5FF"/>
<path d="M25.5214 13.3272C25.5425 13.6366 25.8004 13.8727 26.1057 13.8727C26.1191 13.8727 26.1326 13.8727 26.146 13.8715C26.469 13.8493 26.7126 13.5698 26.6904 13.2469C26.6681 12.9241 26.3887 12.6803 26.0658 12.7026C25.743 12.7248 25.4992 13.0043 25.5214 13.3272Z" fill="#04A5FF"/>
<path d="M24.8399 10.2565C24.9296 10.4891 25.1511 10.6315 25.386 10.6315C25.4563 10.6315 25.5278 10.6186 25.5975 10.5916C25.8992 10.4744 26.0492 10.1352 25.9327 9.83341C25.8155 9.53171 25.4763 9.38165 25.1745 9.49884C24.8728 9.61544 24.7227 9.9547 24.8393 10.2565H24.8399Z" fill="#04A5FF"/>
<path d="M20.9788 5.37183C21.0807 5.44215 21.1961 5.4756 21.311 5.4756C21.4973 5.4756 21.6801 5.38713 21.7937 5.22248C21.9778 4.95587 21.9103 4.59084 21.6443 4.40744C21.3777 4.22345 21.0127 4.29089 20.8293 4.55691C20.6454 4.82345 20.7127 5.18849 20.9788 5.37183Z" fill="#04A5FF"/>
<path d="M23.7366 7.74719C23.8644 7.74719 23.9926 7.70559 24.0998 7.62063C24.3536 7.41965 24.3969 7.05168 24.1959 6.79739C23.995 6.54367 23.627 6.5009 23.3727 6.70188C23.119 6.90227 23.0762 7.27082 23.2766 7.52453C23.3926 7.67102 23.5637 7.74719 23.7366 7.74719Z" fill="#04A5FF"/>
<path d="M24.1049 19.389C23.9415 19.6685 24.0346 20.0271 24.3141 20.1911C24.4067 20.2457 24.5092 20.2714 24.6094 20.2714C24.8109 20.2714 25.0067 20.1677 25.1157 19.982C25.2792 19.7031 25.186 19.3439 24.9065 19.1804C24.6276 19.0164 24.2684 19.1101 24.1049 19.389Z" fill="#04A5FF"/>
<path d="M25.9749 16.0292C25.6597 15.9554 25.345 16.1517 25.2712 16.467C25.198 16.7822 25.3937 17.0968 25.7089 17.1707C25.7535 17.1812 25.7986 17.1859 25.8425 17.1859C26.1085 17.1859 26.3493 17.0031 26.4126 16.733C26.4859 16.4177 26.2901 16.1025 25.9749 16.0292Z" fill="#04A5FF"/>
<path d="M4.02057 15.9458C3.70592 16.0208 3.51139 16.3366 3.58639 16.6512C3.58581 16.6512 3.58581 16.6512 3.58581 16.6512C3.64967 16.9208 3.89049 17.1018 4.15534 17.1018C4.20045 17.1018 4.24616 17.0965 4.29127 17.0859C4.60651 17.0109 4.80104 16.6951 4.72604 16.3805C4.65163 16.0658 4.33581 15.8707 4.02057 15.9458Z" fill="#04A5FF"/>
<path d="M4.42864 10.5115C4.49954 10.5397 4.57219 10.5531 4.64426 10.5531C4.87747 10.5531 5.09778 10.4126 5.18919 10.1823V10.1829C5.30813 9.88166 5.16048 9.54128 4.85989 9.42234C4.55872 9.30281 4.21829 9.45046 4.09934 9.75164C3.9804 10.0522 4.12747 10.3927 4.42864 10.5115Z" fill="#04A5FF"/>
<path d="M3.89987 13.7899C4.20339 13.7899 4.46061 13.5562 4.48405 13.2485C4.50866 12.9257 4.26667 12.6444 3.9444 12.6199C3.62155 12.5953 3.33971 12.8367 3.31511 13.1595C3.31569 13.1595 3.31569 13.1595 3.31569 13.1595C3.29108 13.4824 3.53249 13.7636 3.85534 13.7882C3.86999 13.7894 3.88522 13.7899 3.89987 13.7899Z" fill="#04A5FF"/>
<path d="M10.3125 13.4766H8.55469C8.23107 13.4766 7.96875 13.7389 7.96875 14.0625C7.96875 14.3861 8.23107 14.6484 8.55469 14.6484H10.3125C10.6361 14.6484 10.8984 14.3861 10.8984 14.0625C10.8984 13.7389 10.6361 13.4766 10.3125 13.4766Z" fill="#04A5FF"/>
<path d="M21.4453 14.6484C21.7689 14.6484 22.0312 14.3861 22.0312 14.0625C22.0312 13.7389 21.7689 13.4766 21.4453 13.4766H19.6875C19.3639 13.4766 19.1016 13.7389 19.1016 14.0625C19.1016 14.3861 19.3639 14.6484 19.6875 14.6484H21.4453Z" fill="#04A5FF"/>
<path d="M19.9721 9.09051C19.7432 8.86176 19.3723 8.86176 19.1434 9.09051L17.4861 10.7478C17.2573 10.9766 17.2573 11.3477 17.4861 11.5765C17.6005 11.6909 17.7504 11.7482 17.9004 11.7482C18.0503 11.7482 18.2003 11.6909 18.3147 11.5765L19.972 9.9192C20.2009 9.69039 20.2009 9.31938 19.9721 9.09051Z" fill="#04A5FF"/>
<path d="M10.8567 9.09049C10.6279 8.86179 10.2569 8.86174 10.0281 9.09049C9.79927 9.31929 9.79921 9.69031 10.0281 9.91918L11.6853 11.5765C11.7998 11.6909 11.9497 11.7481 12.0997 11.7481C12.2496 11.7481 12.3996 11.6909 12.514 11.5765C12.7428 11.3477 12.7428 10.9767 12.514 10.7478L10.8567 9.09049Z" fill="#04A5FF"/>
<path d="M15 7.03125C14.6764 7.03125 14.4141 7.29363 14.4141 7.61719V9.96094C14.4141 10.2845 14.6764 10.5469 15 10.5469C15.3236 10.5469 15.5859 10.2845 15.5859 9.96094V7.61719C15.5859 7.29363 15.3236 7.03125 15 7.03125Z" fill="#04A5FF"/>
<path d="M15 20.625C15.3236 20.625 15.5859 20.3626 15.5859 20.0391V19.5703C15.5859 19.2468 15.3236 18.9844 15 18.9844C14.6764 18.9844 14.4141 19.2468 14.4141 19.5703V20.0391C14.4141 20.3626 14.6764 20.625 15 20.625Z" fill="#04A5FF"/>
<path d="M29.4141 28.8281H27.9636L24.7017 24.2425C24.7831 24.1648 24.8638 24.0861 24.9437 24.0062C27.5998 21.3502 29.0625 17.8187 29.0625 14.0625C29.0625 10.3063 27.5998 6.77484 24.9437 4.11879C22.2877 1.46273 18.7562 0 15 0C11.2438 0 7.7124 1.46273 5.05629 4.11879C2.40018 6.77484 0.9375 10.3063 0.9375 14.0625C0.9375 17.8187 2.40023 21.3502 5.05629 24.0062C5.13615 24.0861 5.21725 24.1643 5.29875 24.2418L2.03637 28.8281H0.585938C0.262324 28.8281 0 29.0905 0 29.4141C0 29.7376 0.262324 30 0.585938 30H29.4141C29.7376 30 30 29.7376 30 29.4141C30 29.0905 29.7376 28.8281 29.4141 28.8281ZM2.10938 14.0625C2.10938 6.95455 7.89205 1.17188 15 1.17188C22.1079 1.17188 27.8906 6.95455 27.8906 14.0625C27.8906 17.6666 26.4022 20.9281 24.0096 23.2695L21.8542 20.2396C23.4821 18.6115 24.375 16.4316 24.375 14.0625C24.375 8.89307 20.1694 4.6875 15 4.6875C9.83063 4.6875 5.625 8.89307 5.625 14.0625C5.625 16.4316 6.51797 18.6115 8.14582 20.2395L5.98945 23.2709C3.59695 20.9293 2.10938 17.6667 2.10938 14.0625ZM17.3366 13.8886C17.2472 12.6773 16.2338 11.7188 15 11.7188C13.7662 11.7188 12.7528 12.6773 12.6634 13.8886L8.83424 19.2717C7.55531 17.9169 6.79688 16.1065 6.79688 14.0625C6.79688 9.5393 10.4768 5.85938 15 5.85938C19.5232 5.85938 23.2031 9.5393 23.2031 14.0625C23.2031 16.1065 22.4447 17.9169 21.1656 19.2715L17.3366 13.8886ZM15 16.6484L18.2487 21.2097C17.2619 21.5891 16.167 21.7969 15 21.7969C13.833 21.7969 12.7382 21.589 11.7514 21.2096L15 16.6484ZM15 15.2344C14.3538 15.2344 13.8281 14.7087 13.8281 14.0625C13.8281 13.4163 14.3538 12.8906 15 12.8906C15.6462 12.8906 16.1719 13.4163 16.1719 14.0625C16.1719 14.7087 15.6462 15.2344 15 15.2344ZM3.47455 28.8281L13.052 15.364C13.2712 15.6911 13.5706 15.9596 13.9216 16.1423L4.88666 28.8281H3.47455ZM6.32537 28.8281L8.1075 26.3259C8.99227 26.825 9.9273 27.2244 10.8984 27.5191V28.8281H6.32537ZM16.1719 27.6562H17.9297V28.8281H12.0703V26.4844C12.0703 25.8382 12.596 25.3125 13.2422 25.3125H16.7578C17.404 25.3125 17.9297 25.8382 17.9297 26.4844H16.1719C15.849 26.4844 15.5859 26.7475 15.5859 27.0703C15.5859 27.3932 15.849 27.6562 16.1719 27.6562ZM16.7578 24.1406H13.2422C12.0169 24.1406 11.0089 25.0859 10.9075 26.2853C10.1723 26.0385 9.46664 25.7271 8.79697 25.3579L11.0552 22.1872C12.2675 22.699 13.6066 22.9688 15 22.9688C16.3934 22.9688 17.7318 22.6979 18.9441 22.1862L21.2037 25.3587C20.5339 25.728 19.8279 26.0393 19.0926 26.2862C18.9915 25.0863 17.9833 24.1406 16.7578 24.1406ZM19.1016 27.5198C20.0727 27.225 21.0075 26.8248 21.8923 26.3257L23.6746 28.8281H19.1016V27.5198ZM25.1133 28.8281L16.0784 16.1424C16.4294 15.9596 16.7288 15.6911 16.948 15.3641L26.5254 28.8281H25.1133Z" fill="#04A5FF"/>
<path d="M13.8281 26.4844C13.5053 26.4844 13.2422 26.7475 13.2422 27.0703C13.2422 27.3932 13.5053 27.6562 13.8281 27.6562C14.1516 27.6562 14.4141 27.3932 14.4141 27.0703C14.4141 26.7475 14.1516 26.4844 13.8281 26.4844Z" fill="#04A5FF"/>
</svg>
