<svg width="30" height="30" viewBox="0 0 30 30" fill="none" xmlns="http://www.w3.org/2000/svg">
<path d="M26.7991 5.73848H27.726C28.0493 5.73848 28.3116 5.47627 28.3116 5.15293C28.3116 4.82958 28.0493 4.56737 27.726 4.56737H25.5009C25.1776 4.56737 24.9153 4.82958 24.9153 5.15293V7.37803C24.9153 7.70137 25.1776 7.96358 25.5009 7.96358C25.8242 7.96358 26.0865 7.70137 26.0865 7.37803V6.73375C27.8631 9.11232 28.8289 11.9983 28.8289 15C28.8289 22.6253 22.6253 28.8289 15 28.8289C7.37469 28.8289 1.17111 22.6253 1.17111 15C1.17111 7.37469 7.37469 1.17111 15 1.17111C15.5639 1.17111 16.1315 1.20536 16.6871 1.27288C17.0077 1.31164 17.3001 1.08333 17.3391 0.762273C17.3781 0.441273 17.1495 0.149316 16.8284 0.110318C16.2261 0.0371241 15.611 0 15 0C10.9934 0 7.22649 1.56027 4.39341 4.39341C1.56027 7.22649 0 10.9934 0 15C0 19.0066 1.56027 22.7735 4.39341 25.6066C7.22649 28.4397 10.9934 30 15 30C19.0066 30 22.7735 28.4397 25.6066 25.6066C28.4397 22.7735 30 19.0066 30 15C30 11.619 28.8705 8.37312 26.7991 5.73848Z" fill="#04A5FF"/>
<path d="M6.35147 8.84241C6.07819 8.66944 5.71649 8.75083 5.54346 9.02393C4.2067 11.1352 3.61494 13.6743 3.87721 16.1735C4.14335 18.7097 5.28488 21.1015 7.09155 22.9082C9.27186 25.0885 12.1359 26.1787 14.9999 26.1787C17.864 26.1787 20.7279 25.0886 22.9083 22.9082C27.269 18.5475 27.269 11.4522 22.9083 7.09155C21.1044 5.28769 18.7165 4.14656 16.1845 3.87838C13.6899 3.614 11.1536 4.20114 9.0432 5.53134C8.76957 5.70378 8.68765 6.06536 8.86004 6.33893C9.03248 6.61256 9.39406 6.69448 9.66763 6.5221C13.6458 4.01476 18.7499 4.58936 22.0801 7.91964C25.9842 11.8237 25.9842 18.176 22.0801 22.0801C18.1761 25.9842 11.8237 25.9842 7.9197 22.0801C4.63545 18.7958 4.05223 13.5684 6.53299 9.65047C6.7059 9.37719 6.62469 9.01544 6.35147 8.84241Z" fill="#04A5FF"/>
<path d="M22.6124 15.5959H23.3345C23.6579 15.5959 23.9201 15.3337 23.9201 15.0104C23.9201 14.687 23.6579 14.4248 23.3345 14.4248H22.6124C22.2891 14.4248 22.0269 14.687 22.0269 15.0104C22.0269 15.3337 22.289 15.5959 22.6124 15.5959Z" fill="#04A5FF"/>
<path d="M6.08008 14.9908C6.08008 15.3142 6.34229 15.5764 6.66563 15.5764H7.38773C7.71108 15.5764 7.97329 15.3142 7.97329 14.9908C7.97329 14.6675 7.71108 14.4053 7.38773 14.4053H6.66563C6.34229 14.4053 6.08008 14.6674 6.08008 14.9908Z" fill="#04A5FF"/>
<path d="M15.5949 7.38773V6.66563C15.5949 6.34229 15.3327 6.08008 15.0094 6.08008C14.686 6.08008 14.4238 6.34229 14.4238 6.66563V7.38773C14.4238 7.71108 14.686 7.97329 15.0094 7.97329C15.3327 7.97329 15.5949 7.71108 15.5949 7.38773Z" fill="#04A5FF"/>
<path d="M14.4048 22.6129V23.335C14.4048 23.6583 14.667 23.9206 14.9903 23.9206C15.3137 23.9206 15.5759 23.6583 15.5759 23.335V22.6129C15.5759 22.2896 15.3137 22.0273 14.9903 22.0273C14.667 22.0273 14.4048 22.2895 14.4048 22.6129Z" fill="#04A5FF"/>
<path d="M12.0651 11.237C11.8364 11.0084 11.4657 11.0084 11.2369 11.237C11.0083 11.4657 11.0083 11.8365 11.2369 12.0652L13.2214 14.0497C13.0694 14.3331 12.9829 14.6567 12.9829 15.0002C12.9829 16.1125 13.8878 17.0174 15.0001 17.0174C16.1124 17.0174 17.0173 16.1125 17.0173 15.0002C17.0173 14.6567 16.9308 14.3331 16.7788 14.0497L20.783 10.0455C21.0116 9.81684 21.0116 9.44607 20.783 9.21735C20.5542 8.98875 20.1836 8.98875 19.9548 9.21735L15.9506 13.2215C15.6672 13.0695 15.3436 12.983 15.0001 12.983C14.6566 12.983 14.333 13.0695 14.0496 13.2215L12.0651 11.237ZM15.8462 15.0002C15.8462 15.4668 15.4667 15.8463 15.0001 15.8463C14.5335 15.8463 14.154 15.4668 14.154 15.0002C14.154 14.5336 14.5335 14.1541 15.0001 14.1541C15.4667 14.1541 15.8462 14.5336 15.8462 15.0002Z" fill="#04A5FF"/>
<path d="M7.91946 7.91946C8.02895 7.81055 8.09155 7.65947 8.09155 7.50547C8.09155 7.35147 8.02895 7.20099 7.91946 7.09149C7.81054 6.98263 7.66 6.91992 7.50547 6.91992C7.35147 6.91992 7.2004 6.98258 7.09149 7.09149C6.98263 7.2004 6.91992 7.35147 6.91992 7.50547C6.91992 7.66006 6.98258 7.81055 7.09149 7.91946C7.2004 8.02831 7.35147 8.09103 7.50547 8.09103C7.66 8.09103 7.81054 8.02831 7.91946 7.91946Z" fill="#04A5FF"/>
<path d="M19.0563 1.75021C19.2109 1.75021 19.362 1.68808 19.4708 1.57864C19.5797 1.46973 19.6425 1.31918 19.6425 1.16465C19.6425 1.01065 19.5798 0.859582 19.4708 0.750669C19.362 0.641814 19.2109 0.579102 19.0563 0.579102C18.9023 0.579102 18.7512 0.641756 18.6423 0.750669C18.5334 0.859582 18.4707 1.01065 18.4707 1.16465C18.4707 1.31924 18.5334 1.46973 18.6423 1.57864C18.7512 1.68808 18.9023 1.75021 19.0563 1.75021Z" fill="#04A5FF"/>
</svg>
