<svg width="30" height="30" viewBox="0 0 30 30" fill="none" xmlns="http://www.w3.org/2000/svg">
<path d="M29.4773 26.2367H27.5958V24.4597C27.5958 24.1711 27.3618 23.9371 27.0731 23.9371H26.4831V14.0069H27.0731C27.3618 14.0069 27.5958 13.7729 27.5958 13.4842V11.7073H28.4319C28.7206 11.7073 28.9546 11.4733 28.9546 11.1846V9.09407H29.4773C29.7659 9.09407 29.9999 8.86005 29.9999 8.5714V5.95812C29.9999 5.73908 29.8634 5.54333 29.6579 5.46764L15.1806 0.136689C15.064 0.09376 14.936 0.09376 14.8194 0.136689L0.342035 5.46764C0.136521 5.54333 0 5.73915 0 5.95812V8.5714C0 8.86005 0.234017 9.09407 0.52267 9.09407H1.04534V11.1846C1.04534 11.4733 1.27936 11.7073 1.56801 11.7073H2.40414V13.4842C2.40414 13.7729 2.63816 14.0069 2.92681 14.0069H3.5168V23.9371H2.92681C2.63816 23.9371 2.40414 24.1711 2.40414 24.4597V26.2367H0.52267C0.234017 26.2367 0 26.4708 0 26.7594V29.3726C0 29.6613 0.234017 29.8953 0.52267 29.8953H29.4773C29.766 29.8953 30 29.6613 30 29.3726V26.7594C30 26.4708 29.766 26.2367 29.4773 26.2367ZM26.5504 24.9824V26.2367H21.3241V24.9824H26.5504ZM18.1358 23.9371H17.5458V14.0069H18.1358C18.4245 14.0069 18.6585 13.7729 18.6585 13.4842V11.7073H20.2788V13.4842C20.2788 13.7729 20.5128 14.0069 20.8014 14.0069H21.3914V23.9371H20.8014C20.5128 23.9371 20.2788 24.1711 20.2788 24.4597V26.2367H18.6585V24.4597C18.6585 24.1711 18.4245 23.9371 18.1358 23.9371ZM9.19857 23.9371H8.60858V14.0069H9.19857C9.48723 14.0069 9.72124 13.7729 9.72124 13.4842V11.7073H11.3415V13.4842C11.3415 13.7729 11.5755 14.0069 11.8642 14.0069H12.4542V23.9371H11.8642C11.5755 23.9371 11.3415 24.1711 11.3415 24.4597V26.2367H9.72124V24.4597C9.72124 24.1711 9.48723 23.9371 9.19857 23.9371ZM12.3868 12.9615V11.7073H17.6132V12.9615H12.3868ZM16.5006 14.0069V23.9371H13.4994V14.0069H16.5006ZM12.3868 24.9824H17.6132V26.2367H12.3868V24.9824ZM22.4368 23.9371V14.0069H25.4379V23.9371H22.4368ZM26.5504 12.9615H21.3241V11.7073H26.5504V12.9615ZM2.09068 10.6619V9.09407H3.88344C4.17209 9.09407 4.40611 8.86005 4.40611 8.5714C4.40611 8.28274 4.17209 8.04873 3.88344 8.04873H1.56801H1.04534V6.32266L15 1.18419L28.9547 6.32266V8.04873H28.432H6.97451C6.68585 8.04873 6.45184 8.28274 6.45184 8.5714C6.45184 8.86005 6.68585 9.09407 6.97451 9.09407H27.9093V10.6619H2.09068ZM3.44955 12.9615V11.7073H8.6759V12.9615H3.44955ZM7.56317 14.0069V23.9371H4.56214V14.0069H7.56317ZM3.44955 24.9824H8.6759V26.2367H3.44955V24.9824ZM28.9547 28.8499H1.04534V27.2821H28.9547V28.8499Z" fill="#04A5FF"/>
<path d="M4.92326 8.77069C4.91001 8.73936 4.9365 8.80272 4.92326 8.77069V8.77069Z" fill="#04A5FF"/>
<path d="M5.0367 8.20166C4.89126 8.35149 4.84178 8.57666 4.9238 8.77103C4.95007 8.83465 4.98882 8.89173 5.0367 8.94107C5.2427 9.14101 5.57017 9.14129 5.7761 8.94107C5.97604 8.73541 5.97604 8.40731 5.7761 8.20166C5.57038 8.00165 5.24249 8.00193 5.0367 8.20166Z" fill="#04A5FF"/>
</svg>
