<svg width="20" height="21" viewBox="0 0 20 21" fill="none" xmlns="http://www.w3.org/2000/svg">
<g clip-path="url(#clip0)">
<path d="M17.6054 0.989258H2.39465C1.07426 0.989258 0 2.06352 0 3.38391V18.5945C0 19.915 1.07426 20.9893 2.39465 20.9893H17.6053C18.9257 20.9893 20 19.915 20 18.5946V3.38391C20 2.06352 18.9257 0.989258 17.6054 0.989258ZM19.2032 18.5946C19.2032 19.4757 18.4864 20.1925 17.6054 20.1925H2.39465C1.51355 20.1925 0.796797 19.4757 0.796797 18.5946V3.38391C0.796797 2.50285 1.51355 1.78605 2.39465 1.78605H17.6053C18.4864 1.78605 19.2032 2.50285 19.2032 3.38391V18.5946H19.2032Z" fill="#04A5FF"/>
<path d="M17.398 15.7788L13.8319 12.2127C13.7296 12.1105 13.5799 12.0716 13.4408 12.1114L12.9097 12.2631C12.87 12.2745 12.8323 12.2919 12.7979 12.3148L12.2517 12.6793C12.2516 12.6793 12.2516 12.6794 12.2515 12.6794L11.4961 13.1834C9.96642 12.153 8.64349 10.8021 7.64505 9.25113L8.17899 8.71718C8.17907 8.7171 8.17911 8.71706 8.17919 8.71699L8.63458 8.26163C8.68243 8.21374 8.71731 8.15445 8.73595 8.08937L8.88771 7.55824C8.92747 7.4191 8.8886 7.26941 8.78634 7.16706L5.22024 3.60105C5.10981 3.49062 4.94501 3.45492 4.7986 3.50972L4.19161 3.73734C4.13837 3.7573 4.09001 3.78847 4.04978 3.82867C3.91415 3.96433 3.78368 4.11031 3.66208 4.26257C2.01794 6.32097 2.18462 9.27972 4.04978 11.1448L9.85407 16.9491C10.8603 17.9554 12.1845 18.4673 13.5142 18.4672C14.6493 18.4671 15.7884 18.094 16.7363 17.3369C16.8886 17.2152 17.0346 17.0848 17.1702 16.9492C17.2104 16.9089 17.2416 16.8606 17.2616 16.8073L17.4892 16.2003C17.5442 16.0541 17.5084 15.8893 17.398 15.7788ZM4.55415 4.45245L4.83825 4.34593L8.05712 7.5648L7.99814 7.77124L7.89751 7.87187L4.51708 4.49144C4.52938 4.47835 4.54177 4.46538 4.55415 4.45245ZM10.4176 16.3858L4.61333 10.5814C3.14243 9.11058 2.91985 6.83609 4.0229 5.12413L7.33411 8.43535L6.85724 8.91222C6.72712 9.04234 6.70306 9.24464 6.79899 9.40167C7.92204 11.2394 9.47208 12.8282 11.2815 13.9962C11.4149 14.0823 11.5865 14.081 11.7187 13.9929L12.4223 13.5234L15.875 16.9761C14.1629 18.0793 11.8884 17.8567 10.4176 16.3858ZM16.5466 16.4449C16.5337 16.4573 16.5207 16.4696 16.5076 16.4819L13.0981 13.0724L13.1884 13.0121L13.4342 12.9419L16.6531 16.1608L16.5466 16.4449Z" fill="#04A5FF"/>
<path d="M18.4062 10.9092C18.1862 10.9092 18.0078 11.0875 18.0078 11.3076V11.5068C18.0078 11.7268 18.1862 11.9052 18.4062 11.9052C18.6262 11.9052 18.8046 11.7268 18.8046 11.5068V11.3076C18.8046 11.0875 18.6262 10.9092 18.4062 10.9092Z" fill="#04A5FF"/>
<path d="M18.4062 3.06055C18.1862 3.06055 18.0078 3.23891 18.0078 3.45895V9.79359C18.0078 10.0136 18.1862 10.192 18.4062 10.192C18.6262 10.192 18.8046 10.0136 18.8046 9.79359V3.45895C18.8046 3.23891 18.6262 3.06055 18.4062 3.06055Z" fill="#04A5FF"/>
</g>
<defs>
<clipPath id="clip0">
<rect width="20" height="20" fill="white" transform="translate(0 0.989258)"/>
</clipPath>
</defs>
</svg>
