<svg width="30" height="30" viewBox="0 0 30 30" fill="none" xmlns="http://www.w3.org/2000/svg">
<path d="M29.2037 10.2956L19.7041 0.796152C19.1913 0.283398 18.5074 0.000976562 17.7784 0.000976562C17.0494 0.000976562 16.3655 0.283281 15.8527 0.796035L0.795176 15.8536C0.282422 16.3664 0 17.0502 0 17.7793C0 18.5083 0.282422 19.1922 0.795176 19.7049L1.96658 20.8763C1.9667 20.8763 1.96676 20.8765 1.96688 20.8766C1.96699 20.8767 1.96711 20.8768 1.96723 20.8769L9.83988 28.7496H8.7498C8.40469 28.7496 8.12484 29.0294 8.12484 29.3746C8.12484 29.7197 8.40469 29.9995 8.7498 29.9995H12.2179C12.2187 29.9995 12.2195 29.9996 12.2203 29.9996C12.2211 29.9996 12.2219 29.9995 12.2227 29.9995L21.2493 29.9996C21.5944 29.9996 21.8742 29.7198 21.8742 29.3747C21.8742 29.0295 21.5944 28.7497 21.2493 28.7497L14.601 28.7496L29.2037 14.1469C30.2654 13.085 30.2654 11.3573 29.2037 10.2956ZM28.3198 13.263L13.2622 28.3207C12.986 28.5968 12.6169 28.749 12.2226 28.7496H12.2179C11.8237 28.7489 11.4547 28.5968 11.1786 28.3207L3.29268 20.4347L17.7533 5.97391C17.9974 5.72986 17.9974 5.33412 17.7533 5.09008C17.5092 4.84604 17.1136 4.84604 16.8694 5.09014L2.40879 19.5509L1.67895 18.8211C1.40232 18.5444 1.24998 18.1745 1.24998 17.7793C1.24998 17.3842 1.40232 17.0141 1.679 16.7375L16.7365 1.67992C17.0132 1.4033 17.3832 1.25096 17.7784 1.25096C18.1736 1.25096 18.5436 1.4033 18.8203 1.67998L22.2013 5.06096L7.74047 19.5219C7.49643 19.7659 7.49643 20.1616 7.74047 20.4058C7.86252 20.5278 8.02248 20.5888 8.18238 20.5888C8.34229 20.5888 8.50225 20.5277 8.6243 20.4057L23.0851 5.94484L28.3198 11.1794C28.8942 11.7538 28.8942 12.6886 28.3198 13.263Z" fill="#04A5FF"/>
<path d="M15.3985 18.0512C15.1545 17.8071 14.7588 17.8072 14.5146 18.0512L9.59661 22.9691C9.35256 23.2132 9.35256 23.6088 9.59661 23.853C9.71866 23.9751 9.87862 24.036 10.0385 24.036C10.1984 24.036 10.3584 23.975 10.4804 23.853L15.3984 18.9351C15.6426 18.6909 15.6426 18.2952 15.3985 18.0512Z" fill="#04A5FF"/>
<path d="M13.3813 22.7192L11.3642 24.7363C11.1201 24.9803 11.1201 25.3761 11.3642 25.6202C11.4862 25.7422 11.6462 25.8032 11.8061 25.8032C11.9661 25.8032 12.126 25.7422 12.248 25.6202L14.2651 23.6031C14.5091 23.359 14.5091 22.9633 14.2651 22.7192C14.0211 22.4751 13.6255 22.4751 13.3813 22.7192Z" fill="#04A5FF"/>
<path d="M15.2378 20.8637L14.9726 21.1287C14.7285 21.3728 14.7285 21.7685 14.9726 22.0126C15.0946 22.1347 15.2546 22.1957 15.4145 22.1957C15.5744 22.1957 15.7344 22.1347 15.8563 22.0126L16.1215 21.7475C16.3656 21.5035 16.3656 21.1078 16.1215 20.8637C15.8776 20.6197 15.4818 20.6196 15.2378 20.8637Z" fill="#04A5FF"/>
<path d="M23.8513 9.59711C23.7342 9.47992 23.5752 9.41406 23.4094 9.41406C23.2437 9.41406 23.0848 9.47992 22.9675 9.59711L20.3159 12.2487C20.1987 12.366 20.1328 12.5249 20.1328 12.6906C20.1328 12.8564 20.1987 13.0154 20.3159 13.1325L22.0836 14.9001C22.2057 15.0222 22.3656 15.0832 22.5255 15.0832C22.6856 15.0832 22.8454 15.0221 22.9675 14.9001L25.619 12.2487C25.863 12.0046 25.863 11.6089 25.619 11.3648L23.8513 9.59711ZM22.5255 13.5745L21.6416 12.6906L23.4094 10.9229L24.2932 11.8068L22.5255 13.5745Z" fill="#04A5FF"/>
<path d="M18.77 4.69879C18.93 4.69879 19.09 4.63773 19.212 4.51562L19.4771 4.25037C19.7211 4.00627 19.721 3.61052 19.4769 3.36654C19.2329 3.12255 18.8371 3.12261 18.5931 3.36671L18.328 3.63197C18.084 3.87607 18.084 4.27181 18.3281 4.5158C18.4502 4.63785 18.61 4.69879 18.77 4.69879Z" fill="#04A5FF"/>
<path d="M6.28215 20.9799L6.01702 21.2451C5.77297 21.4891 5.77297 21.8848 6.01702 22.129C6.13907 22.251 6.29903 22.312 6.45893 22.312C6.61883 22.312 6.7788 22.251 6.90085 22.129L7.16598 21.8638C7.41003 21.6197 7.41003 21.224 7.16598 20.9799C6.92188 20.7359 6.52626 20.7359 6.28215 20.9799Z" fill="#04A5FF"/>
</svg>
