<svg width="20" height="21" viewBox="0 0 20 21" fill="none" xmlns="http://www.w3.org/2000/svg">
<g clip-path="url(#clip0)">
<path d="M1.95312 10.5986C1.7375 10.5986 1.5625 10.7736 1.5625 10.9893C1.5625 11.2049 1.7375 11.3799 1.95312 11.3799C2.16875 11.3799 2.34375 11.2049 2.34375 10.9893C2.34375 10.7736 2.16879 10.5986 1.95312 10.5986Z" fill="#04A5FF"/>
<path d="M19.6566 6.85684L14.1325 1.33262C13.9111 1.11125 13.6169 0.989336 13.3039 0.989336C12.9938 0.989336 12.7022 1.10898 12.4816 1.32645L10.1562 3.46891V2.16113C10.1562 1.51496 9.63055 0.989258 8.98438 0.989258H1.17188C0.525703 0.989258 0 1.51496 0 2.16113V19.8174C0 20.4636 0.525703 20.9893 1.17188 20.9893H8.98438C9.63055 20.9893 10.1562 20.4636 10.1562 19.8174V18.0148L13.578 14.593C13.5781 14.5929 13.5782 14.5928 13.5783 14.5927L13.5801 14.5909L19.6566 8.51395C19.878 8.29262 19.9999 7.9984 19.9999 7.68539C19.9999 7.37238 19.878 7.07816 19.6566 6.85684ZM9.375 10.5986H3.51562C3.29992 10.5986 3.125 10.7736 3.125 10.9893C3.125 11.205 3.29992 11.3799 3.51562 11.3799H9.375V17.8527C9.375 17.8529 9.375 17.853 9.375 17.8531V19.8174C9.375 20.0328 9.19977 20.208 8.98438 20.208H1.17188C0.956484 20.208 0.78125 20.0328 0.78125 19.8174V2.16113C0.78125 1.94574 0.956484 1.77051 1.17188 1.77051H8.98438C9.19977 1.77051 9.375 1.94574 9.375 2.16113V10.5986ZM10.1562 16.9098V12.293L12.7193 14.3467L10.1562 16.9098ZM19.1042 7.96145L13.275 13.7909L10.1563 11.292V4.53121L13.0163 1.89609C13.0202 1.89246 13.024 1.88875 13.0278 1.885C13.1016 1.81125 13.1996 1.77059 13.3039 1.77059C13.4082 1.77059 13.5062 1.81125 13.58 1.88504L19.1043 7.40926C19.178 7.48305 19.2186 7.58105 19.2186 7.68535C19.2186 7.78965 19.178 7.8877 19.1042 7.96145Z" fill="#04A5FF"/>
<path d="M2.73438 2.66895C2.0882 2.66895 1.5625 3.19465 1.5625 3.84082C1.5625 4.48699 2.0882 5.0127 2.73438 5.0127C3.38055 5.0127 3.90625 4.48699 3.90625 3.84082C3.90625 3.19465 3.38059 2.66895 2.73438 2.66895ZM2.73438 4.23145C2.51898 4.23145 2.34375 4.05621 2.34375 3.84082C2.34375 3.62543 2.51902 3.4502 2.73438 3.4502C2.94977 3.4502 3.125 3.62543 3.125 3.84082C3.125 4.05621 2.9498 4.23145 2.73438 4.23145Z" fill="#04A5FF"/>
<path d="M2.73438 12.1611C2.0882 12.1611 1.5625 12.6868 1.5625 13.333C1.5625 13.9792 2.0882 14.5049 2.73438 14.5049C3.38055 14.5049 3.90625 13.9792 3.90625 13.333C3.90625 12.6868 3.38059 12.1611 2.73438 12.1611ZM2.73438 13.7236C2.51898 13.7236 2.34375 13.5484 2.34375 13.333C2.34375 13.1176 2.51902 12.9424 2.73438 12.9424C2.94977 12.9424 3.125 13.1176 3.125 13.333C3.125 13.5484 2.9498 13.7236 2.73438 13.7236Z" fill="#04A5FF"/>
<path d="M7.42188 12.1611C6.7757 12.1611 6.25 12.6868 6.25 13.333C6.25 13.9792 6.7757 14.5049 7.42188 14.5049C8.06805 14.5049 8.59375 13.9792 8.59375 13.333C8.59375 12.6868 8.06805 12.1611 7.42188 12.1611ZM7.42188 13.7236C7.20648 13.7236 7.03125 13.5484 7.03125 13.333C7.03125 13.1176 7.20652 12.9424 7.42188 12.9424C7.63727 12.9424 7.8125 13.1176 7.8125 13.333C7.8125 13.5484 7.63727 13.7236 7.42188 13.7236Z" fill="#04A5FF"/>
<path d="M7.42188 16.9658C6.7757 16.9658 6.25 17.4915 6.25 18.1377C6.25 18.7839 6.7757 19.3096 7.42188 19.3096C8.06805 19.3096 8.59375 18.7839 8.59375 18.1377C8.59375 17.4915 8.06805 16.9658 7.42188 16.9658ZM7.42188 18.5283C7.20648 18.5283 7.03125 18.3531 7.03125 18.1377C7.03125 17.9223 7.20652 17.7471 7.42188 17.7471C7.63727 17.7471 7.8125 17.9223 7.8125 18.1377C7.8125 18.3531 7.63727 18.5283 7.42188 18.5283Z" fill="#04A5FF"/>
<path d="M2.73438 16.9658C2.0882 16.9658 1.5625 17.4915 1.5625 18.1377C1.5625 18.7839 2.0882 19.3096 2.73438 19.3096C3.38055 19.3096 3.90625 18.7839 3.90625 18.1377C3.90625 17.4915 3.38059 16.9658 2.73438 16.9658ZM2.73438 18.5283C2.51898 18.5283 2.34375 18.3531 2.34375 18.1377C2.34375 17.9223 2.51902 17.7471 2.73438 17.7471C2.94977 17.7471 3.125 17.9223 3.125 18.1377C3.125 18.3531 2.9498 18.5283 2.73438 18.5283Z" fill="#04A5FF"/>
<path d="M7.42188 7.47363C6.7757 7.47363 6.25 7.99934 6.25 8.64551C6.25 9.29168 6.7757 9.81738 7.42188 9.81738C8.06805 9.81738 8.59375 9.29168 8.59375 8.64551C8.59375 7.99934 8.06805 7.47363 7.42188 7.47363ZM7.42188 9.03613C7.20648 9.03613 7.03125 8.8609 7.03125 8.64551C7.03125 8.43012 7.20652 8.25488 7.42188 8.25488C7.63727 8.25488 7.8125 8.43012 7.8125 8.64551C7.8125 8.8609 7.63727 9.03613 7.42188 9.03613Z" fill="#04A5FF"/>
<path d="M5.07812 5.12988C4.43195 5.12988 3.90625 5.65559 3.90625 6.30176C3.90625 6.94793 4.43195 7.47363 5.07812 7.47363C5.7243 7.47363 6.25 6.94793 6.25 6.30176C6.25 5.65559 5.7243 5.12988 5.07812 5.12988ZM5.07812 6.69238C4.86273 6.69238 4.6875 6.51715 4.6875 6.30176C4.6875 6.08637 4.86277 5.91113 5.07812 5.91113C5.29352 5.91113 5.46875 6.08637 5.46875 6.30176C5.46875 6.51715 5.29352 6.69238 5.07812 6.69238Z" fill="#04A5FF"/>
<path d="M14.1327 3.54185C13.6758 3.08501 12.9324 3.08501 12.4756 3.54185C12.2542 3.76321 12.1323 4.05743 12.1323 4.37044C12.1323 4.68345 12.2542 4.97767 12.4756 5.19899C12.704 5.42739 13.004 5.54161 13.3041 5.54161C13.6042 5.54161 13.9042 5.42739 14.1326 5.19899C14.354 4.97767 14.4759 4.68345 14.4759 4.37044C14.4759 4.05743 14.354 3.76321 14.1327 3.54185ZM13.5802 4.64649H13.5802C13.428 4.79872 13.1803 4.7988 13.0279 4.64649C12.9541 4.5727 12.9135 4.4747 12.9135 4.3704C12.9135 4.2661 12.9542 4.16806 13.028 4.09427C13.1041 4.01813 13.2041 3.98005 13.3041 3.98005C13.404 3.98005 13.5041 4.01813 13.5802 4.09427C13.654 4.16806 13.6946 4.2661 13.6946 4.3704C13.6946 4.4747 13.654 4.57274 13.5802 4.64649Z" fill="#04A5FF"/>
<path d="M14.1327 10.1717C13.6758 9.71489 12.9324 9.71489 12.4756 10.1717C12.2542 10.3931 12.1323 10.6874 12.1323 11.0005C12.1323 11.3136 12.2542 11.6079 12.4756 11.8292C12.6969 12.0506 12.9911 12.1725 13.3041 12.1725C13.6171 12.1725 13.9113 12.0506 14.1326 11.8293C14.1326 11.8293 14.1326 11.8293 14.1327 11.8292C14.354 11.6079 14.4759 11.3136 14.4759 11.0005C14.4759 10.6874 14.354 10.3931 14.1327 10.1717ZM13.5802 11.2768C13.5802 11.2768 13.5802 11.2768 13.5802 11.2768C13.5064 11.3506 13.4084 11.3912 13.3041 11.3912C13.1998 11.3912 13.1017 11.3506 13.0279 11.2768C12.9542 11.203 12.9135 11.1049 12.9135 11.0005C12.9135 10.8961 12.9542 10.798 13.028 10.7242C13.1041 10.6481 13.2041 10.61 13.3041 10.61C13.404 10.61 13.5041 10.6481 13.5802 10.7242C13.654 10.798 13.6946 10.8961 13.6946 11.0005C13.6946 11.1049 13.654 11.2031 13.5802 11.2768Z" fill="#04A5FF"/>
<path d="M14.1327 6.85695C13.9113 6.63559 13.6171 6.51367 13.3041 6.51367C12.9911 6.51367 12.6969 6.63559 12.4756 6.85691C12.2542 7.07824 12.1323 7.37246 12.1323 7.68547C12.1323 7.99848 12.2542 8.2927 12.4756 8.51398C12.6969 8.73535 12.9911 8.85727 13.3041 8.85727C13.6171 8.85727 13.9113 8.73535 14.1326 8.51402C14.1326 8.51402 14.1326 8.51402 14.1327 8.51398C14.354 8.2927 14.4759 7.99844 14.4759 7.68547C14.4759 7.37246 14.354 7.07824 14.1327 6.85695ZM13.5802 7.96156C13.5802 7.96156 13.5802 7.96156 13.5802 7.9616C13.5064 8.03539 13.4084 8.07602 13.3041 8.07602C13.1998 8.07602 13.1017 8.03539 13.0279 7.96156C12.9542 7.88777 12.9135 7.78977 12.9135 7.68547C12.9135 7.58117 12.9542 7.48312 13.028 7.40934C13.1018 7.33555 13.1998 7.29492 13.3041 7.29492C13.4084 7.29492 13.5064 7.33555 13.5802 7.40938C13.654 7.48316 13.6946 7.58117 13.6946 7.68547C13.6946 7.78977 13.654 7.88781 13.5802 7.96156Z" fill="#04A5FF"/>
</g>
<defs>
<clipPath id="clip0">
<rect width="20" height="20" fill="white" transform="translate(0 0.989258)"/>
</clipPath>
</defs>
</svg>
