<svg width="30" height="30" viewBox="0 0 30 30" fill="none" xmlns="http://www.w3.org/2000/svg">
<path d="M0.413773 14.1384L5.53203 10.0089C5.86607 9.7166 6.34372 9.64505 6.75476 9.82722C7.16608 10.0096 7.42161 10.3989 7.42161 10.8431V12.6566H22.0894C22.8971 12.6566 23.5542 13.3137 23.5542 14.1214V15.8792C23.5542 16.6869 22.8971 17.3441 22.0894 17.3441H7.42161V19.1574C7.42184 19.5869 7.17639 19.9711 6.78112 20.1601C6.62075 20.2368 6.45048 20.2744 6.28185 20.2744C6.02644 20.2744 5.77472 20.188 5.56648 20.0198L0.422913 15.8699C0.156431 15.6591 0.00221252 15.3452 -0.000249863 15.0079C-0.00265121 14.6699 0.148109 14.353 0.413773 14.1384ZM6.24974 19.0653V16.7582C6.24974 16.4346 6.51212 16.1723 6.83567 16.1723H22.0894C22.2482 16.1723 22.3823 16.0381 22.3823 15.8793V14.1215C22.3823 13.9627 22.2482 13.8285 22.0894 13.8285H6.83567C6.51212 13.8285 6.24974 13.5662 6.24974 13.2426V10.9355L1.21158 15.0004L6.24974 19.0653Z" fill="#00C437"/>
<path d="M11.543 19.1017H13.3008C14.1086 19.1017 14.7657 19.7588 14.7657 20.5665V25.3126H25.3125V4.68748H22.6756C22.352 4.68748 22.0896 4.42516 22.0896 4.10155C22.0896 3.77793 22.352 3.51561 22.6756 3.51561H25.8985C26.222 3.51561 26.4844 3.77793 26.4844 4.10155V25.8985C26.4844 26.2221 26.222 26.4844 25.8985 26.4844H14.1797C13.8562 26.4844 13.5938 26.2221 13.5938 25.8985V20.5664C13.5938 20.4077 13.4596 20.2735 13.3008 20.2735H11.543C11.3842 20.2735 11.25 20.4077 11.25 20.5664V27.0703C11.25 28.0395 12.0386 28.8281 13.0078 28.8281H27.0703C28.0396 28.8281 28.8281 28.0395 28.8281 27.0703V2.92968C28.8281 1.96042 28.0396 1.17187 27.0703 1.17187H13.0078C12.0386 1.17187 11.25 1.96042 11.25 2.92968V9.43356C11.25 9.59235 11.3842 9.72652 11.543 9.72652H13.3008C13.4596 9.72652 13.5938 9.59235 13.5938 9.43356V4.10155C13.5938 3.77793 13.8562 3.51561 14.1797 3.51561H17.4022C17.7257 3.51561 17.9881 3.77793 17.9881 4.10155C17.9881 4.42516 17.7257 4.68748 17.4022 4.68748H14.7657V9.43356C14.7657 10.2413 14.1086 10.8984 13.3008 10.8984H11.543C10.7353 10.8984 10.0781 10.2413 10.0781 9.43356V2.92968C10.0781 1.31425 11.3924 0 13.0078 0H27.0703C28.6857 0 30 1.31425 30 2.92968V27.0703C30 28.6857 28.6857 30 27.0703 30H13.0078C11.3924 30 10.0781 28.6857 10.0781 27.0703V20.5665C10.0781 19.7588 10.7353 19.1017 11.543 19.1017Z" fill="#00C437"/>
<path d="M20.625 4.10156C20.625 4.42518 20.3626 4.6875 20.0391 4.6875H20.0386C19.715 4.6875 19.4529 4.42518 19.4529 4.10156C19.4529 3.77795 19.7154 3.51562 20.0391 3.51562C20.3627 3.51562 20.625 3.77795 20.625 4.10156Z" fill="#00C437"/>
</svg>
