<svg width="20" height="20" viewBox="0 0 20 20" fill="none" xmlns="http://www.w3.org/2000/svg">
<g clip-path="url(#clip0)">
<path d="M12.7185 4.34695H14.5409C14.9314 4.34695 15.2491 4.0293 15.2491 3.63883V0.71043C15.2491 0.319961 14.9314 0.00230469 14.5409 0.00230469H12.0384C12.0144 0.00128906 11.9727 0 11.9143 0C11.4421 0 9.80016 0.093164 8.49746 1.29156C7.07555 2.59988 7.2116 4.16488 7.27145 4.55074V6.45855H5.46008C5.06965 6.45855 4.75195 6.77621 4.75195 7.16668V10.3162C4.75195 10.7068 5.06961 11.0245 5.46008 11.0245H7.16664V19.2919C7.16664 19.6823 7.4843 20 7.87477 20H11.4438C11.8343 20 12.152 19.6823 12.152 19.2919V11.0653H14.1734C14.5333 11.0653 14.8357 10.7956 14.8769 10.4381L15.2444 7.24777C15.2675 7.04734 15.2038 6.84602 15.0695 6.69543C14.9353 6.54492 14.7427 6.45859 14.541 6.45859H12.1521V4.85715C12.152 4.52625 12.2423 4.34695 12.7185 4.34695ZM11.7537 7.25543H14.4414L14.0943 10.2685H11.7536C11.5336 10.2685 11.3552 10.4468 11.3552 10.6669V19.2032H7.9634V10.626C7.9634 10.406 7.785 10.2276 7.565 10.2276H5.54871V7.25535H7.66984C7.88984 7.25535 8.06824 7.07699 8.06824 6.85695V4.51836C8.06824 4.49551 8.06629 4.47266 8.06238 4.45012C8.02039 4.20891 7.87027 2.95148 9.03699 1.87797C10.1274 0.874805 11.5151 0.796836 11.9144 0.796836C11.9704 0.796836 12.0037 0.79832 12.0098 0.798633C12.0163 0.798945 12.0229 0.799102 12.0295 0.799102H14.4523V3.5502H12.7186C11.8649 3.5502 11.3552 4.03879 11.3552 4.85715V6.85699C11.3552 7.07707 11.5337 7.25543 11.7537 7.25543Z" fill="white"/>
<path d="M8.7651 13.4264C8.5451 13.4264 8.3667 13.6048 8.3667 13.8248V14.024C8.3667 14.244 8.5451 14.4224 8.7651 14.4224C8.9851 14.4224 9.1635 14.244 9.1635 14.024V13.8248C9.1635 13.6048 8.98506 13.4264 8.7651 13.4264Z" fill="white"/>
<path d="M8.7651 14.9003C8.5451 14.9003 8.3667 15.0786 8.3667 15.2987V18.3266C8.3667 18.5466 8.5451 18.725 8.7651 18.725C8.9851 18.725 9.1635 18.5466 9.1635 18.3266V15.2987C9.1635 15.0786 8.98506 14.9003 8.7651 14.9003Z" fill="white"/>
</g>
<defs>
<clipPath id="clip0">
<rect width="20" height="20" fill="white"/>
</clipPath>
</defs>
</svg>
