<svg width="20" height="21" viewBox="0 0 20 21" fill="none" xmlns="http://www.w3.org/2000/svg">
<g clip-path="url(#clip0)">
<path d="M19.885 1.10365C19.8027 1.02139 19.6881 0.980021 19.5721 0.990998C17.5936 1.17764 15.7301 2.05432 14.3248 3.45956L6.18772 11.5966L5.58382 10.9927C5.55347 10.6182 5.39573 10.2522 5.10987 9.96624C4.47019 9.32656 3.42929 9.32656 2.78952 9.96624C2.1498 10.606 2.1498 11.6469 2.78952 12.2866C3.07542 12.5725 3.44144 12.7302 3.81597 12.7606L4.41987 13.3645L0.663037 17.1213C-0.220361 18.0048 -0.220361 19.4422 0.663037 20.3256C1.09101 20.7536 1.65999 20.9893 2.26519 20.9893C2.87038 20.9893 3.4394 20.7536 3.86733 20.3256L7.62417 16.5688L8.22729 17.172C8.25819 17.5601 8.42378 17.9209 8.7021 18.1992C9.01198 18.5091 9.42397 18.6798 9.86226 18.6798C10.3005 18.6798 10.7126 18.5091 11.0224 18.1992V18.1992C11.3323 17.8893 11.503 17.4773 11.503 17.0391C11.503 16.6008 11.3323 16.1888 11.0224 15.8789C10.7441 15.6006 10.3833 15.435 9.99519 15.4041L9.39206 14.801L13.2574 10.9356C13.4099 10.7831 13.4099 10.5357 13.2574 10.3832C13.1048 10.2307 12.8575 10.2307 12.7049 10.3832L8.8396 14.2486L8.06608 13.4751L11.3918 10.1493C11.5443 9.99679 11.5443 9.74945 11.3918 9.59691C11.2392 9.44437 10.9919 9.44437 10.8393 9.59695L7.51362 12.9227L7.2446 12.6537L6.74011 12.1492L14.8773 4.01198C16.0382 2.85108 17.5434 2.08713 19.1583 1.83041C18.9016 3.4453 18.1376 4.95053 16.9767 6.1114L15.191 7.89702C15.0385 8.04956 15.0385 8.29691 15.191 8.44948C15.3436 8.60202 15.5909 8.60202 15.7435 8.44945L17.5291 6.66382C18.9344 5.25858 19.8111 3.39506 19.9977 1.41651C20.0086 1.30069 19.9673 1.18596 19.885 1.10365ZM9.08155 15.5953C8.94382 15.67 8.81601 15.765 8.7021 15.8789C8.58819 15.9928 8.49327 16.1206 8.41854 16.2583L4.72983 12.5696C4.86636 12.4959 4.99468 12.4018 5.10987 12.2866C5.22503 12.1714 5.31913 12.0431 5.39284 11.9066L9.08155 15.5953ZM3.34194 10.5187C3.67706 10.1836 4.22229 10.1836 4.55741 10.5187C4.89249 10.8538 4.89249 11.3991 4.55741 11.7342C4.22229 12.0693 3.67706 12.0694 3.34194 11.7342C3.00683 11.3991 3.00683 10.8538 3.34194 10.5187ZM7.07171 16.0164L3.31487 19.7732C3.03452 20.0536 2.66175 20.208 2.26519 20.208C1.86862 20.208 1.49585 20.0536 1.21546 19.7732C0.63667 19.1944 0.63667 18.2526 1.21546 17.6738L4.97229 13.9169L7.07171 16.0164ZM10.7217 17.039C10.7217 17.2686 10.6323 17.4844 10.47 17.6468C10.3077 17.8091 10.0918 17.8985 9.86226 17.8985C9.63269 17.8985 9.41687 17.8091 9.25452 17.6467C9.09218 17.4844 9.0028 17.2686 9.0028 17.039C9.0028 16.8094 9.09218 16.5936 9.25452 16.4312C9.41683 16.2689 9.63269 16.1795 9.86226 16.1795C10.0918 16.1795 10.3076 16.2689 10.47 16.4312C10.6323 16.5936 10.7217 16.8095 10.7217 17.039Z" fill="#04A5FF"/>
<path d="M5.02808 16.4028C5.10437 16.4791 5.20433 16.5172 5.30429 16.5172C5.40425 16.5172 5.50421 16.479 5.5805 16.4028C5.73304 16.2502 5.73304 16.0029 5.5805 15.8503L5.13855 15.4084C4.98601 15.2558 4.73874 15.2558 4.58608 15.4084C4.43354 15.5609 4.43354 15.8082 4.58608 15.9608L5.02808 16.4028Z" fill="#04A5FF"/>
<path d="M3.81177 17.6186C3.88806 17.6949 3.98802 17.733 4.08798 17.733C4.18794 17.733 4.2879 17.6948 4.36419 17.6186C4.51673 17.4661 4.51673 17.2187 4.36419 17.0662L3.92224 16.6242C3.7697 16.4716 3.52243 16.4716 3.36978 16.6242C3.21724 16.7767 3.21724 17.0241 3.36978 17.1766L3.81177 17.6186Z" fill="#04A5FF"/>
<path d="M2.59643 18.8334C2.67272 18.9097 2.77268 18.9478 2.87265 18.9478C2.97261 18.9478 3.07257 18.9097 3.14886 18.8334C3.30139 18.6809 3.30139 18.4335 3.14886 18.281L2.7069 17.839C2.55436 17.6865 2.3071 17.6865 2.15444 17.839C2.0019 17.9916 2.0019 18.2389 2.15444 18.3914L2.59643 18.8334Z" fill="#04A5FF"/>
<path d="M14.2241 9.02539C14.1214 9.02539 14.021 9.06719 13.948 9.13984C13.8753 9.2125 13.8335 9.31328 13.8335 9.41602C13.8335 9.51914 13.8753 9.61953 13.948 9.69219C14.021 9.76523 14.1214 9.80664 14.2241 9.80664C14.3273 9.80664 14.4276 9.76523 14.5007 9.69219C14.5733 9.61953 14.6147 9.51914 14.6147 9.41602C14.6147 9.31328 14.5733 9.2125 14.5007 9.13984C14.4276 9.06719 14.3273 9.02539 14.2241 9.02539Z" fill="#04A5FF"/>
</g>
<defs>
<clipPath id="clip0">
<rect width="20" height="20" fill="white" transform="translate(0 0.989258)"/>
</clipPath>
</defs>
</svg>
