<svg width="30" height="30" viewBox="0 0 30 30" fill="none" xmlns="http://www.w3.org/2000/svg">
<g clip-path="url(#clip0)">
<path d="M13.8439 20.348C14.073 20.1189 14.073 19.7481 13.8439 19.519C13.6145 19.2906 13.243 19.2906 13.0135 19.519C12.7846 19.7481 12.7846 20.1189 13.0135 20.348C13.243 20.5764 13.6145 20.5764 13.8439 20.348Z" fill="#04A5FF"/>
<path d="M11.0645 6.44348C11.0645 9.99642 13.9607 12.8872 17.5205 12.8872C21.0804 12.8872 23.9766 9.99642 23.9766 6.44348C23.9766 2.89055 21.0804 0 17.5205 0C13.9607 0 11.0645 2.89055 11.0645 6.44348V6.44348ZM22.8029 6.44348C22.8029 9.35051 20.4333 11.7156 17.5205 11.7156C14.6078 11.7156 12.2382 9.35051 12.2382 6.44348C12.2382 3.53668 14.6078 1.17165 17.5205 1.17165C20.4333 1.17165 22.8029 3.53668 22.8029 6.44348Z" fill="#04A5FF"/>
<path d="M6.78965 29.8266C7.01715 30.0555 7.38751 30.058 7.61799 29.8314L10.4635 27.0335C10.9469 26.5511 11.0939 25.8367 10.8814 25.2158L11.4934 24.6266C11.823 24.3089 12.2569 24.1338 12.7155 24.1338H20.518C21.9023 24.1338 23.2106 23.6033 24.2024 22.6399C24.2432 22.6003 23.8926 23.0125 29.5254 16.2935C30.3609 15.307 30.2359 13.8257 29.2465 12.991C28.2634 12.164 26.7906 12.2828 25.9529 13.2523L22.4896 16.805C22.0522 16.2679 21.3853 15.933 20.6648 15.933H14.1199C13.1886 15.5441 12.2005 15.3473 11.1809 15.3473C8.3546 15.3473 5.88678 16.6501 4.5624 19.0927C4.00444 18.9872 3.41598 19.1557 2.99264 19.5782L0.200549 22.3731C-0.0274045 22.6012 -0.0278632 22.9704 0.199632 23.1993L6.78965 29.8266ZM11.1806 16.5187C12.0796 16.5187 12.9488 16.6993 13.7645 17.0554C13.8388 17.0879 13.9188 17.1046 13.9998 17.1046H20.6648C21.3012 17.1046 21.8387 17.6226 21.8387 18.2761C21.8387 18.9222 21.3122 19.4477 20.6648 19.4477H15.8762C15.5521 19.4477 15.2893 19.71 15.2893 20.0334C15.2893 20.3571 15.5521 20.6191 15.8762 20.6191H20.6648C21.9594 20.6191 23.0124 19.5681 23.0124 18.2761C23.0124 18.1731 23.0051 18.071 22.9918 17.9698C26.3421 14.5327 26.8145 14.0498 26.8347 14.0257C27.253 13.5329 27.9955 13.4705 28.4895 13.8861C28.984 14.3034 29.0466 15.044 28.6271 15.5396L23.3629 21.8205C22.5941 22.5571 21.5849 22.9624 20.518 22.9624H12.7155C11.9509 22.9624 11.2272 23.2542 10.6782 23.7836L10.1794 24.2641L5.58131 19.6752C6.65595 17.6631 8.67245 16.5187 11.1806 16.5187V16.5187ZM3.82327 20.406C4.01683 20.2129 4.31404 20.1781 4.55002 20.3236C4.65161 20.3854 4.3599 20.1204 9.63357 25.3764C9.86817 25.6106 9.85556 25.9837 9.63678 26.202L7.21093 28.5872L1.44398 22.7876L3.82327 20.406Z" fill="#04A5FF"/>
<path d="M16.815 2.92871V3.61513C16.1318 3.85683 15.641 4.508 15.641 5.27178C15.641 6.24063 16.4308 7.02913 17.4018 7.02913C17.7254 7.02913 17.9887 7.29189 17.9887 7.61484C17.9887 7.93779 17.7254 8.20055 17.4018 8.20055C17.1512 8.20055 16.8803 8.04331 16.6398 7.75743C16.4311 7.50978 16.0609 7.47797 15.8128 7.68602C15.5647 7.8943 15.5326 8.26372 15.7413 8.51137C16.055 8.88376 16.424 9.14331 16.815 9.27423V9.9579C16.815 10.2815 17.0778 10.5436 17.4018 10.5436C17.7259 10.5436 17.9887 10.2815 17.9887 9.9579V9.27149C18.6719 9.02956 19.1626 8.37839 19.1626 7.61484C19.1626 6.64575 18.3728 5.85748 17.4018 5.85748C17.0782 5.85748 16.815 5.59473 16.815 5.27178C16.815 4.94882 17.0782 4.68584 17.4018 4.68584C17.6098 4.68584 17.8293 4.79181 18.0366 4.99208C18.2696 5.21707 18.6411 5.21089 18.8666 4.97858C19.092 4.74603 19.0858 4.37525 18.853 4.15025C18.5551 3.86255 18.257 3.69981 17.9887 3.61101V2.92871C17.9887 2.60507 17.7259 2.34277 17.4018 2.34277C17.0778 2.34277 16.815 2.60507 16.815 2.92871V2.92871Z" fill="#04A5FF"/>
</g>
<defs>
<clipPath id="clip0">
<rect width="30" height="30" fill="white"/>
</clipPath>
</defs>
</svg>
