<svg width="20" height="21" viewBox="0 0 20 21" fill="none" xmlns="http://www.w3.org/2000/svg">
<g clip-path="url(#clip0)">
<path d="M11.0677 19.9212H8.93231C8.71656 19.9212 8.54168 19.7464 8.54168 19.5306V17.7858H6.79688C6.58113 17.7858 6.40625 17.6109 6.40625 17.3952V15.6504H4.66148C4.44574 15.6504 4.27086 15.4755 4.27086 15.2598V13.515H2.52602C2.31027 13.515 2.13539 13.3401 2.13539 13.1243V11.3796H0.390625C0.174883 11.3796 0 11.2047 0 10.9889V4.5827C0 4.36695 0.174883 4.19207 0.390625 4.19207H2.13543V2.44727C2.13543 2.23152 2.31031 2.05664 2.52605 2.05664H6.79688C7.01262 2.05664 7.1875 2.23152 7.1875 2.44727V4.19207H8.93231C9.14805 4.19207 9.32293 4.36695 9.32293 4.5827V6.3275H10.6771V4.5827C10.6771 4.36695 10.852 4.19207 11.0678 4.19207H12.8125V2.44727C12.8125 2.23152 12.9874 2.05664 13.2031 2.05664H17.474C17.6897 2.05664 17.8646 2.23152 17.8646 2.44727V4.19207H19.6094C19.8251 4.19207 20 4.36695 20 4.5827V6.02801C20 6.24375 19.8251 6.41863 19.6094 6.41863C19.3937 6.41863 19.2188 6.24375 19.2188 6.02801V4.97332H17.474C17.2582 4.97332 17.0834 4.79844 17.0834 4.5827V2.83789H13.5938V4.5827C13.5938 4.79844 13.4188 4.97332 13.2031 4.97332H11.4584V6.71813C11.4584 6.93387 11.2834 7.10875 11.0677 7.10875H8.93227C8.71652 7.10875 8.54164 6.93387 8.54164 6.71813V4.97332H6.79688C6.58113 4.97332 6.40625 4.79844 6.40625 4.5827V2.83789H2.91664V4.5827C2.91664 4.79844 2.74176 4.97332 2.52602 4.97332H0.78125V10.5983H2.52602C2.74176 10.5983 2.91664 10.7732 2.91664 10.9889V12.7337H4.66145C4.87719 12.7337 5.05207 12.9086 5.05207 13.1244V14.8692H6.79688C7.01262 14.8692 7.1875 15.0441 7.1875 15.2598V17.0046H8.93231C9.14805 17.0046 9.32293 17.1795 9.32293 17.3952L9.32297 19.14H10.6771V17.3952C10.6771 17.1795 10.852 17.0046 11.0677 17.0046H12.8125V15.2598C12.8125 15.044 12.9874 14.8691 13.2031 14.8691H14.9479V13.1243C14.9479 12.9086 15.1229 12.7337 15.3386 12.7337H17.0834V10.9889C17.0834 10.7732 17.2582 10.5983 17.474 10.5983H19.2188V9.54363C19.2188 9.32789 19.3937 9.15301 19.6094 9.15301C19.8251 9.15301 20 9.32789 20 9.54363V10.9889C20 11.2047 19.8251 11.3796 19.6094 11.3796H17.8646V13.1244C17.8646 13.3401 17.6897 13.515 17.474 13.515H15.7292V15.2598C15.7292 15.4755 15.5543 15.6504 15.3386 15.6504H13.5938V17.3952C13.5938 17.6109 13.4188 17.7858 13.2031 17.7858H11.4584L11.4583 19.5306C11.4583 19.7464 11.2834 19.9212 11.0677 19.9212Z" fill="#04A5FF"/>
<path d="M19.6094 8.17676C19.5066 8.17676 19.4059 8.13496 19.3332 8.0623C19.2605 7.98965 19.2188 7.88887 19.2188 7.78613C19.2188 7.6834 19.2605 7.58262 19.3332 7.50996C19.4059 7.4373 19.5066 7.39551 19.6094 7.39551C19.7121 7.39551 19.8129 7.4373 19.8855 7.50996C19.9582 7.58262 20 7.6834 20 7.78613C20 7.88887 19.9582 7.98965 19.8855 8.0623C19.8129 8.13496 19.7121 8.17676 19.6094 8.17676Z" fill="#04A5FF"/>
</g>
<defs>
<clipPath id="clip0">
<rect width="20" height="20" fill="white" transform="translate(0 0.989258)"/>
</clipPath>
</defs>
</svg>
