<svg width="20" height="21" viewBox="0 0 20 21" fill="none" xmlns="http://www.w3.org/2000/svg">
<g clip-path="url(#clip0)">
<path d="M3.07112 11.5961C2.26971 11.1558 1.27095 11.2883 0.606817 11.9525C-0.203574 12.7629 -0.203574 14.0816 0.606817 14.892L2.79485 17.0801C2.87115 17.1563 2.97111 17.1945 3.07108 17.1945C3.17104 17.1945 3.27105 17.1563 3.3473 17.0801L5.53534 14.892C5.92794 14.4994 6.14416 13.9775 6.14416 13.4223C6.14416 12.8671 5.92794 12.3451 5.53538 11.9525C4.8712 11.2883 3.87244 11.1557 3.07112 11.5961ZM4.98293 14.3395L3.07112 16.2513L1.1593 14.3395C0.653499 13.8337 0.653499 13.0107 1.1593 12.5049C1.40889 12.2553 1.74359 12.1273 2.07951 12.1273C2.34659 12.1273 2.61445 12.2083 2.84056 12.3736C2.97783 12.4739 3.16432 12.474 3.30164 12.3736C3.81213 12.0005 4.53486 12.0569 4.98289 12.5049V12.5049C5.22794 12.7499 5.36287 13.0757 5.36287 13.4222C5.36291 13.7688 5.22798 14.0945 4.98293 14.3395Z" fill="#04A5FF"/>
<path d="M19.3889 11.9525H19.3889C18.7248 11.2883 17.726 11.1557 16.9246 11.5961C16.1232 11.1557 15.1245 11.2884 14.4604 11.9525C13.6499 12.763 13.6499 14.0816 14.4604 14.892L16.6484 17.0801C16.7217 17.1534 16.821 17.1945 16.9246 17.1945C17.0282 17.1945 17.1276 17.1533 17.2009 17.0801L19.3889 14.892C19.7815 14.4995 19.9977 13.9775 19.9977 13.4223C19.9977 12.8671 19.7815 12.3451 19.3889 11.9525ZM18.8364 14.3396L16.9246 16.2514L15.0129 14.3396C14.507 13.8338 14.507 13.0108 15.0129 12.505C15.2624 12.2554 15.5971 12.1273 15.9331 12.1273C16.2001 12.1273 16.468 12.2084 16.6941 12.3737C16.8315 12.474 17.0178 12.474 17.1552 12.3737C17.6656 12.0005 18.3885 12.057 18.8365 12.505C19.0815 12.75 19.2165 13.0757 19.2165 13.4222C19.2164 13.7688 19.0815 14.0945 18.8364 14.3396Z" fill="#04A5FF"/>
<path d="M8.99927 4.41734C8.33506 3.75313 7.3363 3.62058 6.53497 4.06092C5.73361 3.62058 4.73485 3.75317 4.07071 4.4173C3.26028 5.22773 3.26028 6.54639 4.07071 7.35682L6.25875 9.54486C6.33504 9.62111 6.43501 9.65928 6.53497 9.65928C6.63494 9.65928 6.73495 9.62111 6.8112 9.54486L8.99924 7.35678C9.80967 6.54643 9.80967 5.22777 8.99927 4.41734ZM8.44679 6.80441L6.53497 8.71622L4.62316 6.80441C4.37815 6.5594 4.24318 6.23364 4.24318 5.88714C4.24318 5.5406 4.37815 5.21484 4.62316 4.96983C4.87274 4.72025 5.20749 4.59219 5.54336 4.59219C5.81045 4.59219 6.07831 4.67321 6.30442 4.8385C6.44173 4.93889 6.62814 4.93885 6.76549 4.8385C7.27599 4.46531 7.99884 4.52184 8.44675 4.96979C8.95259 5.4756 8.95259 6.29861 8.44679 6.80441Z" fill="#04A5FF"/>
<path d="M15.926 4.41731C15.2618 3.75313 14.2631 3.62059 13.4618 4.06092C12.6605 3.62063 11.6616 3.75317 10.9975 4.41731C10.187 5.22774 10.187 6.54639 10.9975 7.35682L13.1856 9.54486C13.2588 9.61811 13.3582 9.65928 13.4618 9.65928C13.5654 9.65928 13.6647 9.61811 13.738 9.54486L15.926 7.35682C16.7365 6.54639 16.7365 5.22774 15.926 4.41731ZM11.17 5.88706C11.17 5.54052 11.3049 5.21477 11.55 4.96975C11.7995 4.72017 12.1343 4.59212 12.4702 4.59212C12.6767 4.59212 12.8834 4.64114 13.0712 4.73947V8.32554L11.55 6.80437C11.3049 6.55936 11.17 6.23357 11.17 5.88706ZM15.3736 6.80437L13.8524 8.32554V4.73904C14.3455 4.48082 14.9707 4.56684 15.3736 4.96979C15.6186 5.2148 15.7535 5.54056 15.7535 5.8871C15.7535 6.23357 15.6186 6.55936 15.3736 6.80437Z" fill="#04A5FF"/>
<path d="M12.4631 11.9525C11.799 11.2883 10.8002 11.1557 9.99887 11.5961C9.19751 11.1558 8.19875 11.2884 7.53458 11.9525C6.72415 12.763 6.72415 14.0816 7.53458 14.892L9.72261 17.0801C9.7989 17.1564 9.89887 17.1945 9.99883 17.1945C10.0988 17.1945 10.1988 17.1564 10.2751 17.0801L11.2201 16.1351C11.3726 15.9825 11.3726 15.7352 11.2201 15.5826C11.0675 15.43 10.8202 15.43 10.6676 15.5826L9.99879 16.2514L8.08699 14.3396C7.58118 13.8338 7.58118 13.0108 8.08699 12.505C8.53498 12.057 9.25778 12.0005 9.76824 12.3737C9.90559 12.4741 10.092 12.4741 10.2293 12.3737C10.7398 12.0005 11.4626 12.057 11.9106 12.505C12.0587 12.6531 12.1657 12.8283 12.2289 13.026C12.2945 13.2315 12.5143 13.3448 12.7199 13.2792C12.9254 13.2135 13.0387 12.9936 12.9731 12.7882C12.8731 12.4751 12.6968 12.1862 12.4631 11.9525Z" fill="#04A5FF"/>
<path d="M12.1875 14.2256C12.0848 14.2256 11.984 14.2674 11.9113 14.34C11.8387 14.4127 11.7969 14.5135 11.7969 14.6162C11.7969 14.7189 11.8387 14.8197 11.9113 14.8924C11.984 14.965 12.0848 15.0068 12.1875 15.0068C12.2902 15.0068 12.391 14.965 12.4637 14.8924C12.5363 14.8197 12.5781 14.7189 12.5781 14.6162C12.5781 14.5135 12.5363 14.4127 12.4637 14.34C12.391 14.2674 12.2906 14.2256 12.1875 14.2256Z" fill="#04A5FF"/>
</g>
<defs>
<clipPath id="clip0">
<rect width="20" height="20" fill="white" transform="translate(0 0.5)"/>
</clipPath>
</defs>
</svg>
