<svg width="20" height="21" viewBox="0 0 20 21" fill="none" xmlns="http://www.w3.org/2000/svg">
<path d="M19.56 14.9417C19.8307 14.6839 20 14.3205 20 13.918C20 13.3164 19.6222 12.8015 19.0915 12.5976C19.2194 12.385 19.2932 12.1363 19.2932 11.8706C19.2932 11.0907 18.6587 10.4562 17.8788 10.4562H12.1067L12.8968 9.66623C13.3347 9.22827 13.5889 8.64616 13.6124 8.02717C13.636 7.40819 13.4267 6.8085 13.0232 6.3385C12.7093 5.97288 12.1512 5.92456 11.7791 6.23073L8.89609 8.6033C8.2568 9.1294 7.71551 9.75194 7.28465 10.4562H0.390625C0.174883 10.4562 0 10.6311 0 10.8469C0 11.0626 0.174883 11.2375 0.390625 11.2375H7.5075C7.64777 11.2375 7.77727 11.1623 7.8468 11.0405C8.24781 10.3376 8.76785 9.72065 9.39254 9.20659L12.2756 6.83401C12.3219 6.79588 12.3913 6.80186 12.4304 6.84741C12.9952 7.50526 12.9573 8.50077 12.3443 9.11385L11.4839 9.97413C11.2715 10.1865 11.2086 10.5031 11.3236 10.7806C11.4385 11.0581 11.7069 11.2374 12.0073 11.2374H13.4277C13.3318 11.4281 13.2775 11.643 13.2775 11.8705C13.2775 12.273 13.4468 12.6365 13.7175 12.8942C13.4468 13.1521 13.2775 13.5155 13.2775 13.918C13.2775 14.3204 13.4468 14.6839 13.7175 14.9417C13.4468 15.1995 13.2775 15.5629 13.2775 15.9654C13.2775 16.3678 13.4468 16.7313 13.7175 16.9891C13.4468 17.2469 13.2775 17.6103 13.2775 18.0128C13.2775 18.2403 13.3318 18.4553 13.4277 18.6459H9.83523C9.18594 18.6459 8.56988 18.3987 8.10066 17.9499C7.9448 17.8008 7.69746 17.8062 7.54836 17.9622C7.39926 18.1181 7.40473 18.3653 7.56063 18.5145C8.17598 19.1031 8.98375 19.4272 9.83523 19.4272H17.8788C18.6587 19.4272 19.2931 18.7928 19.2931 18.0129C19.2931 17.7473 19.2194 17.4985 19.0914 17.286C19.6222 17.0819 20 16.5671 20 15.9655C20 15.563 19.8307 15.1996 19.56 14.9417ZM14.0588 11.8706C14.0588 11.5215 14.3428 11.2375 14.6918 11.2375H17.8788C18.2279 11.2375 18.5119 11.5215 18.5119 11.8706C18.5119 12.2197 18.2279 12.5037 17.8788 12.5037H14.6918C14.3428 12.5037 14.0588 12.2197 14.0588 11.8706ZM14.0588 13.918C14.0588 13.5689 14.3428 13.2849 14.6918 13.2849H18.5857C18.9347 13.2849 19.2188 13.5689 19.2188 13.918C19.2188 14.2671 18.9347 14.5511 18.5857 14.5511H14.6918C14.3428 14.5511 14.0588 14.2671 14.0588 13.918ZM17.8788 18.646H14.6918C14.3428 18.646 14.0588 18.362 14.0588 18.0129C14.0588 17.6638 14.3428 17.3798 14.6918 17.3798H17.8788C18.2279 17.3798 18.5119 17.6639 18.5119 18.0129C18.5119 18.362 18.2279 18.646 17.8788 18.646ZM18.5857 16.5985H14.6918C14.3428 16.5985 14.0588 16.3146 14.0588 15.9655C14.0588 15.6164 14.3428 15.3324 14.6918 15.3324H18.5857C18.9347 15.3324 19.2188 15.6164 19.2188 15.9655C19.2188 16.3146 18.9347 16.5985 18.5857 16.5985Z" fill="#04A5FF"/>
<path d="M4.31504 17.8408H0.390625C0.174883 17.8408 0 18.0157 0 18.2314C0 18.4472 0.174883 18.6221 0.390625 18.6221H4.31504C4.53074 18.6221 4.70566 18.4472 4.70566 18.2314C4.70566 18.0157 4.53074 17.8408 4.31504 17.8408Z" fill="#04A5FF"/>
<path d="M14.4561 5.24789L15.1316 5.73562L14.8733 6.52855C14.769 6.84855 14.8776 7.18313 15.1499 7.3809C15.2859 7.47965 15.4417 7.52902 15.5975 7.52902C15.7537 7.52898 15.9099 7.47941 16.0461 7.3802L16.7207 6.88871L17.3907 7.37566C17.6631 7.57367 18.0149 7.57348 18.2871 7.37516C18.5592 7.17687 18.6672 6.84199 18.5623 6.52207L18.3043 5.7357L18.9783 5.24695C19.2506 5.04949 19.3595 4.7152 19.2557 4.39523C19.152 4.07531 18.8675 3.86855 18.5312 3.86855H17.6939L17.4378 3.07855C17.334 2.75844 17.0497 2.55176 16.7132 2.55176C16.7129 2.55176 16.7126 2.55176 16.7123 2.55176C16.3755 2.55215 16.0912 2.75961 15.988 3.08031L15.7346 3.86855H14.902C14.5653 3.86855 14.2808 4.07559 14.1772 4.39598C14.0736 4.71641 14.1831 5.05078 14.4561 5.24789ZM16.0193 4.6498C16.189 4.6498 16.3392 4.54027 16.3912 4.37875L16.7133 3.37711L17.0383 4.37965C17.0905 4.54074 17.2406 4.6498 17.4099 4.6498L18.4709 4.64984L17.615 5.27047C17.4775 5.37012 17.4202 5.54715 17.4731 5.70848L17.801 6.70809L16.95 6.08957C16.813 5.98996 16.6273 5.99004 16.4904 6.08984L15.6348 6.71312L15.9627 5.70672C16.0154 5.54531 15.9577 5.36836 15.82 5.26898L14.9624 4.6498H16.0193Z" fill="#04A5FF"/>
<path d="M6.07324 17.8408C5.97012 17.8408 5.86973 17.8826 5.79668 17.9553C5.72406 18.0279 5.68262 18.1287 5.68262 18.2314C5.68262 18.3342 5.72406 18.435 5.79668 18.5076C5.86934 18.5803 5.97012 18.6221 6.07324 18.6221C6.17598 18.6221 6.27676 18.5803 6.34906 18.5076C6.42207 18.435 6.46387 18.3342 6.46387 18.2314C6.46387 18.1287 6.42207 18.0279 6.34906 17.9553C6.27637 17.8826 6.17598 17.8408 6.07324 17.8408Z" fill="#04A5FF"/>
</svg>
