<svg width="30" height="30" viewBox="0 0 30 30" fill="none" xmlns="http://www.w3.org/2000/svg">
<path d="M15.0146 12.4219C14.8605 12.4219 14.7094 12.4846 14.6004 12.5936C14.4914 12.7025 14.4287 12.8537 14.4287 13.0078C14.4287 13.1619 14.4914 13.3131 14.6004 13.4221C14.7094 13.5311 14.8605 13.5938 15.0146 13.5938C15.1687 13.5938 15.3199 13.5311 15.4289 13.4221C15.5379 13.3131 15.6006 13.1619 15.6006 13.0078C15.6006 12.8537 15.5379 12.7025 15.4289 12.5936C15.3199 12.4846 15.1687 12.4219 15.0146 12.4219Z" fill="#04A5FF"/>
<path d="M20.5628 11.5823C20.6266 11.6046 20.6916 11.6152 20.7556 11.6152C20.9979 11.6152 21.2246 11.4636 21.3089 11.2218C21.5549 10.5156 21.6797 9.77596 21.6797 9.02344C21.6797 5.34023 18.6832 2.34375 15 2.34375C11.3168 2.34375 8.32031 5.34023 8.32031 9.02344C8.32031 9.76166 8.44049 10.488 8.67744 11.1821C8.78197 11.4884 9.11508 11.6519 9.42129 11.5474C9.72756 11.4428 9.89103 11.1098 9.7865 10.8035C9.59121 10.2315 9.49219 9.63258 9.49219 9.02344C9.49219 5.98641 11.963 3.51562 15 3.51562C18.037 3.51562 20.5078 5.98641 20.5078 9.02344C20.5078 9.64441 20.405 10.2543 20.2022 10.8362C20.0958 11.1418 20.2572 11.4758 20.5628 11.5823Z" fill="#04A5FF"/>
<path d="M7.15395 12.3295C7.45986 12.2239 7.62234 11.8904 7.51682 11.5845C7.23352 10.763 7.08984 9.90129 7.08984 9.02344C7.08984 4.69406 10.612 1.17188 14.9414 1.17188C19.2708 1.17188 22.793 4.69406 22.793 9.02344C22.793 9.90129 22.6493 10.763 22.3659 11.5845C22.2604 11.8904 22.4229 12.2239 22.7288 12.3295C22.7921 12.3513 22.8565 12.3616 22.9199 12.3616C23.1629 12.3616 23.3901 12.2092 23.4738 11.9665C23.7996 11.0218 23.9648 10.0317 23.9648 9.02344C23.9648 4.04789 19.917 0 14.9414 0C9.96586 0 5.91797 4.04789 5.91797 9.02344C5.91797 10.0317 6.0832 11.0218 6.40898 11.9666C6.51451 12.2725 6.84797 12.4349 7.15395 12.3295Z" fill="#04A5FF"/>
<path d="M27.0703 15.3516H17.9602C18.8059 14.5598 19.3359 13.4347 19.3359 12.1875V9.02344C19.3359 6.63258 17.3909 4.6875 15 4.6875C12.6091 4.6875 10.6641 6.63258 10.6641 9.02344V12.1875C10.6641 13.4347 11.1941 14.5598 12.0398 15.3516H9.02344C8.69982 15.3516 8.4375 15.6139 8.4375 15.9375C8.4375 16.2611 8.69982 16.5234 9.02344 16.5234H14.4141V18.1641H12.7628C12.4392 18.1641 12.1768 18.4264 12.1768 18.75C12.1768 19.0736 12.4392 19.3359 12.7628 19.3359H17.2372C17.5608 19.3359 17.8232 19.0736 17.8232 18.75C17.8232 18.4264 17.5608 18.1641 17.2372 18.1641H15.5859V16.5234H27.0703C28.0396 16.5234 28.8281 17.312 28.8281 18.2812V27.0703C28.8281 28.0396 28.0396 28.8281 27.0703 28.8281H2.92969C1.96043 28.8281 1.17188 28.0396 1.17188 27.0703V18.2812C1.17188 17.312 1.96043 16.5234 2.92969 16.5234H3.75C4.07361 16.5234 4.33594 16.2611 4.33594 15.9375C4.33594 15.6139 4.07361 15.3516 3.75 15.3516H2.92969C1.31426 15.3516 0 16.6658 0 18.2812V27.0703C0 28.6857 1.31426 30 2.92969 30H27.0703C28.6857 30 30 28.6857 30 27.0703V18.2812C30 16.6658 28.6857 15.3516 27.0703 15.3516ZM15 5.85938C16.7447 5.85938 18.1641 7.27875 18.1641 9.02344V10.1432H11.8359V9.02344C11.8359 7.27875 13.2553 5.85938 15 5.85938ZM11.8359 12.1875V11.3151H18.1641V12.1875C18.1641 13.9322 16.7447 15.3516 15 15.3516C13.2553 15.3516 11.8359 13.9322 11.8359 12.1875Z" fill="#04A5FF"/>
<path d="M6.96436 20.998C6.64074 20.998 6.37842 21.2604 6.37842 21.584V26.2676C6.37842 26.553 6.58408 26.7969 6.86545 26.8451C6.90711 26.8522 6.93916 26.8577 7.46129 26.8577C7.71219 26.8577 8.07635 26.8565 8.60903 26.8535C8.93264 26.8517 9.1935 26.5879 9.19169 26.2643C9.18987 25.9418 8.9279 25.6816 8.60581 25.6816C8.60469 25.6816 8.60358 25.6816 8.60247 25.6816C8.24118 25.6837 7.85422 25.6851 7.55024 25.6855V21.584C7.5503 21.2604 7.28797 20.998 6.96436 20.998Z" fill="#04A5FF"/>
<path d="M12.2378 26.2715V21.584C12.2378 21.2604 11.9755 20.998 11.6519 20.998C11.3282 20.998 11.0659 21.2604 11.0659 21.584V26.2715C11.0659 26.5951 11.3282 26.8574 11.6519 26.8574C11.9755 26.8574 12.2378 26.5951 12.2378 26.2715Z" fill="#04A5FF"/>
<path d="M23.0362 22.1904C23.3598 22.1904 23.6221 21.9281 23.6221 21.6045C23.6221 21.2809 23.3598 21.0186 23.0362 21.0186H21.0791C20.7555 21.0186 20.4932 21.2809 20.4932 21.6045V26.2492C20.4932 26.5728 20.7555 26.8352 21.0791 26.8352H23.0362C23.3598 26.8352 23.6221 26.5728 23.6221 26.2492C23.6221 25.9256 23.3598 25.6633 23.0362 25.6633H21.665V24.5128H22.8919C23.2155 24.5128 23.4778 24.2505 23.4778 23.9269C23.4778 23.6032 23.2155 23.3409 22.8919 23.3409H21.665V22.1904H23.0362Z" fill="#04A5FF"/>
<path d="M16.4016 26.8576H16.4064C16.7006 26.8556 16.9619 26.6671 17.058 26.3846L18.5885 21.7775C18.6905 21.4704 18.5243 21.1387 18.2172 21.0367C17.9101 20.9346 17.5784 21.1009 17.4764 21.408L16.3918 24.6729L15.253 21.392C15.1468 21.0862 14.813 20.9245 14.5072 21.0306C14.2016 21.1367 14.0397 21.4706 14.1458 21.7763L15.7499 26.3975C15.8479 26.6732 16.1094 26.8576 16.4016 26.8576Z" fill="#04A5FF"/>
<path d="M6.38672 16.5234C6.54082 16.5234 6.69199 16.4607 6.80098 16.3518C6.90996 16.2428 6.97266 16.0916 6.97266 15.9375C6.97266 15.7834 6.90996 15.6322 6.80098 15.5232C6.69199 15.4143 6.54082 15.3516 6.38672 15.3516C6.23262 15.3516 6.08145 15.4143 5.97246 15.5232C5.86348 15.6322 5.80078 15.7834 5.80078 15.9375C5.80078 16.0916 5.86348 16.2428 5.97246 16.3518C6.08145 16.4607 6.23262 16.5234 6.38672 16.5234Z" fill="#04A5FF"/>
</svg>
