<svg width="30" height="30" viewBox="0 0 30 30" fill="none" xmlns="http://www.w3.org/2000/svg">
<path d="M15 26.1328C14.6766 26.1328 14.4141 26.3953 14.4141 26.7188C14.4141 27.0422 14.6766 27.3047 15 27.3047C15.3234 27.3047 15.5859 27.0422 15.5859 26.7188C15.5859 26.3953 15.3234 26.1328 15 26.1328Z" fill="#04A5FF"/>
<path d="M26.7188 12.8906C26.7188 7.34273 22.8192 2.59406 17.4805 1.43713L17.8313 0.910898C17.9511 0.731133 17.9623 0.499922 17.8603 0.309434C17.7584 0.118887 17.5598 0 17.3438 0H12.6562C12.4402 0 12.2416 0.118887 12.1397 0.309434C12.0377 0.499922 12.0489 0.731074 12.1687 0.910898L12.5196 1.43713C7.18307 2.59354 3.28125 7.34045 3.28125 12.8906C3.28125 17.5226 5.98893 21.5719 9.95666 23.4676L6.86836 29.1336C6.76939 29.3152 6.77344 29.5355 6.87902 29.7133C6.98461 29.8911 7.17604 30 7.38281 30H22.6172C22.824 30 23.0154 29.8911 23.121 29.7132C23.2266 29.5354 23.2306 29.3152 23.1316 29.1336L20.0433 23.4676C24.0108 21.572 26.7188 17.5229 26.7188 12.8906ZM16.249 1.17188L15 3.04535L13.751 1.17188H16.249ZM15.5859 15.7618C15.9541 15.6874 16.3027 15.5429 16.6157 15.335L20.3688 19.0881C19.0238 20.2575 17.3597 20.9481 15.5859 21.0729V15.7618ZM12.5557 11.2749C12.3478 11.588 12.2033 11.9365 12.1289 12.3047H6.81773C6.94254 10.5309 7.63312 8.86682 8.80254 7.5218L12.5557 11.2749ZM9.63117 6.69316C10.9762 5.52375 12.6403 4.83322 14.4141 4.7083V10.0195C14.0459 10.0939 13.6973 10.2383 13.3843 10.4462L9.63117 6.69316ZM12.1288 13.4766C12.2033 13.8447 12.3478 14.1933 12.5556 14.5063L8.80248 18.2595C7.63313 16.9145 6.94254 15.2504 6.81768 13.4766H12.1288ZM13.3843 15.335C13.6973 15.5429 14.0459 15.6874 14.4141 15.7618V21.0729C12.6403 20.948 10.9762 20.2575 9.63117 19.0881L13.3843 15.335ZM13.2422 12.8906C13.2422 11.9211 14.0292 11.1328 15 11.1328C15.9708 11.1328 16.7578 11.9197 16.7578 12.8906C16.7578 13.8601 15.9708 14.6484 15 14.6484C14.0292 14.6484 13.2422 13.8616 13.2422 12.8906ZM17.4443 14.5063C17.6522 14.1933 17.7967 13.8388 17.8711 13.4707H23.1823C23.0575 15.2445 22.3669 16.9144 21.1975 18.2595L17.4443 14.5063ZM17.8712 12.3047C17.7967 11.9365 17.6522 11.5879 17.4444 11.2749L21.1975 7.5218C22.3669 8.86676 23.0575 10.5309 23.1823 12.3047H17.8712ZM16.6157 10.4463C16.3027 10.2384 15.9541 10.0939 15.5859 10.0195V4.7083C17.3597 4.83316 19.0238 5.52375 20.3688 6.69316L16.6157 10.4463ZM20.1614 26.1328H17.3438C17.0201 26.1328 16.7578 26.3952 16.7578 26.7188C16.7578 27.0423 17.0201 27.3047 17.3438 27.3047H20.8001L21.6305 28.8281H8.36947L9.1998 27.3047H12.6562C12.9799 27.3047 13.2422 27.0423 13.2422 26.7188C13.2422 26.3952 12.9799 26.1328 12.6562 26.1328H9.83859L11.0439 23.9215C12.3102 24.3779 13.6384 24.6094 15 24.6094C16.3617 24.6094 17.6899 24.3779 18.9561 23.9215L20.1614 26.1328ZM15 23.4375C9.22705 23.4375 4.45312 18.7741 4.45312 12.8906C4.45312 7.75547 8.19891 3.34939 13.2241 2.49404L13.9447 3.57492C9.3041 4.09324 5.625 8.04475 5.625 12.8906C5.625 18.0571 9.82553 22.2656 15 22.2656C20.1664 22.2656 24.375 18.0651 24.375 12.8906C24.375 8.05078 20.7018 4.09395 16.0554 3.57492L16.776 2.4941C21.8012 3.34951 25.5469 7.75553 25.5469 12.8906C25.5469 18.7622 20.7858 23.4375 15 23.4375Z" fill="#04A5FF"/>
</svg>
