<svg width="20" height="21" viewBox="0 0 20 21" fill="none" xmlns="http://www.w3.org/2000/svg">
<path d="M17.6054 0.989258H2.39465C1.07426 0.989258 0 2.06352 0 3.38391V18.5945C0 19.915 1.07426 20.9893 2.39465 20.9893H17.6053C18.9257 20.9893 20 19.915 20 18.5946V3.38391C20 2.06352 18.9257 0.989258 17.6054 0.989258ZM19.2032 18.5946C19.2032 19.4757 18.4864 20.1925 17.6054 20.1925H2.39465C1.51355 20.1925 0.796797 19.4757 0.796797 18.5946V3.38391C0.796797 2.50285 1.51355 1.78605 2.39465 1.78605H17.6053C18.4864 1.78605 19.2032 2.50285 19.2032 3.38391V18.5946H19.2032Z" fill="#04A5FF"/>
</svg>
