<svg width="20" height="21" viewBox="0 0 20 21" fill="none" xmlns="http://www.w3.org/2000/svg">
<g clip-path="url(#clip0)">
<path d="M12.1492 13.1502C12.0778 12.9764 11.9103 12.8643 11.7225 12.8643C11.7224 12.8643 11.7222 12.8643 11.722 12.8643C11.534 12.8645 11.3665 12.977 11.2954 13.1511C11.2942 13.154 11.293 13.1569 11.2919 13.1599L10.1185 16.2409C10.0417 16.4425 10.1429 16.6682 10.3445 16.7449C10.5461 16.8217 10.7718 16.7205 10.8485 16.5189L11.0449 16.0032H12.391L12.5853 16.5178C12.6443 16.6742 12.7929 16.7706 12.9508 16.7706C12.9966 16.7706 13.0432 16.7625 13.0886 16.7453C13.2904 16.6691 13.3923 16.4437 13.3162 16.2419L12.1534 13.1608C12.1521 13.1573 12.1507 13.1537 12.1492 13.1502ZM11.3425 15.2219L11.7211 14.2279L12.0962 15.2219H11.3425Z" fill="#04A5FF"/>
<path d="M7.81543 12.8643C7.59969 12.8643 7.4248 13.0391 7.4248 13.2549V16.3773C7.4248 16.593 7.59969 16.7679 7.81543 16.7679H8.90969C9.12543 16.7679 9.30031 16.593 9.30031 16.3773C9.30031 16.1615 9.12543 15.9866 8.90969 15.9866H8.20605V13.2549C8.20605 13.0391 8.03117 12.8643 7.81543 12.8643Z" fill="#04A5FF"/>
<path d="M14.6721 16.7706H14.673C14.8883 16.7706 15.0631 16.5963 15.0636 16.3809L15.0673 14.9L15.9943 13.476C16.112 13.2952 16.0608 13.0532 15.88 12.9355C15.6993 12.8178 15.4572 12.8689 15.3396 13.0497L14.6764 14.0684L14.0058 13.0414C13.8879 12.8607 13.6458 12.8099 13.4652 12.9279C13.2845 13.0458 13.2337 13.2879 13.3517 13.4685L14.286 14.8994L14.2824 16.379C14.2818 16.5947 14.4563 16.77 14.6721 16.7706Z" fill="#04A5FF"/>
<path d="M12.1492 13.1502C12.0778 12.9764 11.9103 12.8643 11.7225 12.8643C11.7224 12.8643 11.7222 12.8643 11.722 12.8643C11.534 12.8645 11.3665 12.977 11.2954 13.1511C11.2942 13.154 11.293 13.1569 11.2919 13.1599L10.1185 16.2409C10.0417 16.4425 10.1429 16.6682 10.3445 16.7449C10.5461 16.8217 10.7717 16.7205 10.8485 16.5189L11.0449 16.0032H12.391L12.5853 16.5178C12.6443 16.6742 12.7929 16.7706 12.9508 16.7706C12.9966 16.7706 13.0432 16.7625 13.0886 16.7453C13.2904 16.6691 13.3923 16.4437 13.3162 16.2419L12.1534 13.1608C12.1521 13.1573 12.1507 13.1537 12.1492 13.1502ZM11.3425 15.2219L11.7211 14.2279L12.0962 15.2219H11.3425Z" fill="#04A5FF"/>
<path d="M7.81543 12.8643C7.59969 12.8643 7.4248 13.0391 7.4248 13.2549V16.3773C7.4248 16.593 7.59969 16.7679 7.81543 16.7679H8.90969C9.12543 16.7679 9.30031 16.593 9.30031 16.3773C9.30031 16.1615 9.12543 15.9866 8.90969 15.9866H8.20605V13.2549C8.20605 13.0391 8.03117 12.8643 7.81543 12.8643Z" fill="#04A5FF"/>
<path d="M14.672 16.7706H14.673C14.8883 16.7706 15.0631 16.5963 15.0636 16.3809L15.0673 14.9L15.9943 13.476C16.112 13.2952 16.0608 13.0532 15.88 12.9355C15.6993 12.8178 15.4572 12.8689 15.3396 13.0497L14.6764 14.0684L14.0058 13.0414C13.8878 12.8607 13.6458 12.8099 13.4652 12.9279C13.2845 13.0458 13.2337 13.2879 13.3517 13.4685L14.286 14.8994L14.2824 16.379C14.2818 16.5947 14.4563 16.77 14.672 16.7706Z" fill="#04A5FF"/>
<path d="M18.0469 1.77051H1.95312C0.876172 1.77051 0 2.64668 0 3.72363V18.2549C0 19.3318 0.876172 20.208 1.95312 20.208H18.0469C19.1238 20.208 20 19.3318 20 18.2549V3.72363C20 2.64668 19.1238 1.77051 18.0469 1.77051ZM19.2188 18.2549C19.2188 18.9011 18.693 19.4268 18.0469 19.4268H1.95312C1.30695 19.4268 0.78125 18.9011 0.78125 18.2549V3.72363C0.78125 3.07746 1.30695 2.55176 1.95312 2.55176H18.0469C18.693 2.55176 19.2188 3.07746 19.2188 3.72363V18.2549Z" fill="#04A5FF"/>
<path d="M17.8906 3.48926H11.7578C11.5421 3.48926 11.3672 3.66414 11.3672 3.87988C11.3672 4.09562 11.5421 4.27051 11.7578 4.27051H17.5V17.708H2.5V4.27051H8.24219C8.45793 4.27051 8.63281 4.09562 8.63281 3.87988C8.63281 3.66414 8.45793 3.48926 8.24219 3.48926H2.10938C1.89363 3.48926 1.71875 3.66414 1.71875 3.87988V18.0986C1.71875 18.3144 1.89363 18.4893 2.10938 18.4893H17.8906C18.1064 18.4893 18.2812 18.3144 18.2812 18.0986V3.87988C18.2812 3.66414 18.1064 3.48926 17.8906 3.48926Z" fill="#04A5FF"/>
<path d="M11.1233 7.91135L10.0796 7.30873C9.78604 7.13928 9.43561 7.13928 9.14209 7.30873C8.84857 7.47818 8.67334 7.7817 8.67334 8.12061V9.32584C8.67334 9.66475 8.84857 9.96827 9.14209 10.1377C9.28885 10.2224 9.44982 10.2648 9.61084 10.2648C9.77182 10.2648 9.93283 10.2224 10.0796 10.1377L11.1233 9.5351C11.4169 9.36565 11.5921 9.06217 11.5921 8.72323C11.5921 8.38432 11.4169 8.0808 11.1233 7.91135ZM10.7327 8.8585L9.68896 9.46112C9.62104 9.50038 9.56189 9.47799 9.53271 9.46112C9.50354 9.44428 9.45459 9.40428 9.45459 9.32581V8.12057C9.45459 8.04209 9.50354 8.00209 9.53271 7.98526C9.54994 7.97533 9.57756 7.96346 9.61131 7.96346C9.63475 7.96346 9.66111 7.9692 9.68896 7.98526L10.7327 8.58787C10.8007 8.62709 10.8108 8.68948 10.8108 8.72315C10.8108 8.75682 10.8007 8.81928 10.7327 8.8585Z" fill="#04A5FF"/>
<path d="M10 5.20801C8.06148 5.20801 6.48438 6.78512 6.48438 8.72363C6.48438 10.6621 8.06148 12.2393 10 12.2393C11.9385 12.2393 13.5156 10.6621 13.5156 8.72363C13.5156 6.78512 11.9385 5.20801 10 5.20801ZM10 11.458C8.49227 11.458 7.26562 10.2314 7.26562 8.72363C7.26562 7.2159 8.49227 5.98926 10 5.98926C11.5077 5.98926 12.7344 7.2159 12.7344 8.72363C12.7344 10.2314 11.5077 11.458 10 11.458Z" fill="#04A5FF"/>
<path d="M10 4.27051C10.1027 4.27051 10.2035 4.22871 10.2762 4.15605C10.3488 4.0834 10.3906 3.98262 10.3906 3.87988C10.3906 3.77715 10.3488 3.67637 10.2762 3.60371C10.2035 3.53105 10.1027 3.48926 10 3.48926C9.89727 3.48926 9.79648 3.53105 9.72383 3.60371C9.65117 3.67637 9.60938 3.77715 9.60938 3.87988C9.60938 3.98262 9.65117 4.0834 9.72383 4.15605C9.79648 4.22871 9.89727 4.27051 10 4.27051Z" fill="#04A5FF"/>
<path d="M5.19707 12.8643H4.33301C4.11727 12.8643 3.94238 13.0391 3.94238 13.2549V15.0225V16.3799C3.94238 16.5956 4.11727 16.7705 4.33301 16.7705C4.54875 16.7705 4.72363 16.5956 4.72363 16.3799V15.411C4.80961 15.4105 5.17031 15.4093 5.19707 15.4093C5.90828 15.4093 6.48688 14.8384 6.48688 14.1368C6.48688 13.4351 5.90828 12.8643 5.19707 12.8643ZM5.19707 14.628C5.08719 14.628 4.89754 14.6288 4.72363 14.6297V13.6455H5.19707C5.47273 13.6455 5.70563 13.8705 5.70563 14.1368C5.70563 14.403 5.47273 14.628 5.19707 14.628Z" fill="#04A5FF"/>
<path d="M18.0469 1.77051H1.95312C0.876172 1.77051 0 2.64668 0 3.72363V18.2549C0 19.3318 0.876172 20.208 1.95312 20.208H18.0469C19.1238 20.208 20 19.3318 20 18.2549V3.72363C20 2.64668 19.1238 1.77051 18.0469 1.77051ZM19.2188 18.2549C19.2188 18.9011 18.693 19.4268 18.0469 19.4268H1.95312C1.30695 19.4268 0.78125 18.9011 0.78125 18.2549V3.72363C0.78125 3.07746 1.30695 2.55176 1.95312 2.55176H18.0469C18.693 2.55176 19.2188 3.07746 19.2188 3.72363V18.2549Z" fill="#04A5FF"/>
<path d="M17.8906 3.48926H11.7578C11.5421 3.48926 11.3672 3.66414 11.3672 3.87988C11.3672 4.09562 11.5421 4.27051 11.7578 4.27051H17.5V17.708H2.5V4.27051H8.24219C8.45793 4.27051 8.63281 4.09562 8.63281 3.87988C8.63281 3.66414 8.45793 3.48926 8.24219 3.48926H2.10938C1.89363 3.48926 1.71875 3.66414 1.71875 3.87988V18.0986C1.71875 18.3144 1.89363 18.4893 2.10938 18.4893H17.8906C18.1064 18.4893 18.2812 18.3144 18.2812 18.0986V3.87988C18.2812 3.66414 18.1064 3.48926 17.8906 3.48926Z" fill="#04A5FF"/>
<path d="M11.1228 7.91135L10.079 7.30873C9.78546 7.13928 9.43504 7.13928 9.14156 7.30873C8.84805 7.47818 8.67285 7.7817 8.67285 8.12061V9.32584C8.67285 9.66475 8.84809 9.96827 9.14156 10.1377C9.28832 10.2224 9.44929 10.2648 9.61031 10.2648C9.77128 10.2648 9.9323 10.2224 10.079 10.1377L11.1228 9.5351C11.4163 9.36565 11.5915 9.06217 11.5915 8.72323C11.5915 8.38428 11.4163 8.0808 11.1228 7.91135ZM10.7321 8.8585L9.68839 9.46112C9.62046 9.50038 9.56132 9.47799 9.53218 9.46112C9.503 9.44428 9.4541 9.40428 9.4541 9.32581V8.12057C9.4541 8.04209 9.50304 8.00209 9.53218 7.98526C9.54941 7.97533 9.57703 7.96346 9.61078 7.96346C9.63421 7.96346 9.66058 7.96916 9.68843 7.98526L10.7322 8.58787C10.8001 8.62709 10.8103 8.68948 10.8103 8.72315C10.8103 8.75682 10.8001 8.81928 10.7321 8.8585Z" fill="#04A5FF"/>
<path d="M10 5.20801C8.06148 5.20801 6.48438 6.78512 6.48438 8.72363C6.48438 10.6621 8.06148 12.2393 10 12.2393C11.9385 12.2393 13.5156 10.6621 13.5156 8.72363C13.5156 6.78512 11.9385 5.20801 10 5.20801ZM10 11.458C8.49227 11.458 7.26562 10.2314 7.26562 8.72363C7.26562 7.2159 8.49227 5.98926 10 5.98926C11.5077 5.98926 12.7344 7.2159 12.7344 8.72363C12.7344 10.2314 11.5077 11.458 10 11.458Z" fill="#04A5FF"/>
<path d="M10 4.27051C10.1027 4.27051 10.2035 4.22871 10.2762 4.15605C10.3488 4.0834 10.3906 3.98262 10.3906 3.87988C10.3906 3.77715 10.3488 3.67637 10.2762 3.60371C10.2035 3.53105 10.1027 3.48926 10 3.48926C9.89727 3.48926 9.79648 3.53105 9.72383 3.60371C9.65117 3.67637 9.60938 3.77715 9.60938 3.87988C9.60938 3.98262 9.65117 4.0834 9.72383 4.15605C9.79648 4.22871 9.89727 4.27051 10 4.27051Z" fill="#04A5FF"/>
</g>
<defs>
<clipPath id="clip0">
<rect width="20" height="20" fill="white" transform="translate(0 0.989258)"/>
</clipPath>
</defs>
</svg>
