<svg width="20" height="20" viewBox="0 0 20 20" fill="none" xmlns="http://www.w3.org/2000/svg">
<g clip-path="url(#clip0)">
<path d="M11.5625 16.1719H8.4375C8.22174 16.1719 8.04688 15.997 8.04688 15.7812V11.9531H4.21875C4.00299 11.9531 3.82812 11.7783 3.82812 11.5625V8.4375C3.82812 8.22174 4.00299 8.04688 4.21875 8.04688H8.04688V4.21875C8.04688 4.00299 8.22174 3.82812 8.4375 3.82812H11.5625C11.7783 3.82812 11.9531 4.00299 11.9531 4.21875V8.04688H15.7812C15.997 8.04688 16.1719 8.22174 16.1719 8.4375V11.5625C16.1719 11.7783 15.997 11.9531 15.7812 11.9531H11.9531V15.7812C11.9531 15.997 11.7783 16.1719 11.5625 16.1719ZM8.82812 15.3906H11.1719V11.5625C11.1719 11.3467 11.3467 11.1719 11.5625 11.1719H15.3906V8.82812H11.5625C11.3467 8.82812 11.1719 8.65326 11.1719 8.4375V4.60938H8.82812V8.4375C8.82812 8.65326 8.65326 8.82812 8.4375 8.82812H4.60938V11.1719H8.4375C8.65326 11.1719 8.82812 11.3467 8.82812 11.5625V15.3906Z" fill="#00C437"/>
<path d="M9.99756 20C9.74243 20 9.487 19.9902 9.23111 19.9707C6.85471 19.7885 4.61655 18.7587 2.92892 17.0712C1.04019 15.1823 0 12.6712 0 10C0 7.32895 1.04019 4.81766 2.92892 2.92892C4.81766 1.04019 7.32895 0 10 0C12.6712 0 15.1823 1.04019 17.0712 2.92892C18.7587 4.61655 19.7885 6.85471 19.9707 9.23111C20.1509 11.5817 19.4963 13.9247 18.1276 15.8287C18.0017 16.0039 17.7576 16.0437 17.5824 15.9178C17.4072 15.7919 17.3674 15.5478 17.4933 15.3726C20.1389 11.6927 19.729 6.69174 16.5187 3.48129C12.9243 -0.113068 7.07581 -0.113068 3.48145 3.48129C-0.113068 7.07581 -0.113068 12.9242 3.48145 16.5187C6.69174 19.7289 11.6927 20.1389 15.3728 17.4931C15.5479 17.3672 15.7919 17.4072 15.918 17.5824C16.0439 17.7576 16.0039 18.0016 15.8287 18.1276C14.1319 19.3474 12.0863 20 9.99756 20Z" fill="#00C437"/>
<path d="M16.7949 17.1855C16.6921 17.1855 16.5914 17.1437 16.5187 17.0711C16.4461 16.9983 16.4043 16.8976 16.4043 16.7949C16.4043 16.6921 16.4461 16.5914 16.5187 16.5187C16.5914 16.4461 16.6921 16.4043 16.7949 16.4043C16.8976 16.4043 16.9983 16.4461 17.0711 16.5187C17.1437 16.5914 17.1855 16.6921 17.1855 16.7949C17.1855 16.8976 17.1437 16.9983 17.0711 17.0711C16.9983 17.1437 16.8976 17.1855 16.7949 17.1855Z" fill="#00C437"/>
</g>
<defs>
<clipPath id="clip0">
<rect width="20" height="20" fill="white"/>
</clipPath>
</defs>
</svg>
