<svg width="20" height="21" viewBox="0 0 20 21" fill="none" xmlns="http://www.w3.org/2000/svg">
<g clip-path="url(#clip0)">
<path d="M17.0711 3.91818C15.1823 2.02945 12.6711 0.989258 10 0.989258C8.83362 0.989258 7.6947 1.18747 6.60934 1.57901L6.38702 1.19617C6.31714 1.07593 6.18851 1.00177 6.04935 1.00177C6.04904 1.00177 6.04858 1.00177 6.04828 1.00177C5.90881 1.00223 5.78003 1.077 5.7106 1.198L4.1658 3.89041C4.09637 4.01157 4.09683 4.16049 4.16687 4.28104C4.23676 4.40143 4.36554 4.47543 4.50455 4.47543H4.50562L7.60971 4.46704C7.74933 4.46658 7.87811 4.39182 7.94754 4.27081C8.01697 4.14981 8.01651 4.00089 7.94647 3.88019L7.81296 3.65039C8.5202 3.43967 9.254 3.33301 10 3.33301C14.2216 3.33301 17.6562 6.76761 17.6562 10.9893C17.6562 15.2109 14.2216 18.6455 10 18.6455C5.77835 18.6455 2.34375 15.2109 2.34375 10.9893C2.34375 10.7735 2.16888 10.5986 1.95312 10.5986H0.390625C0.174866 10.5986 0 10.7735 0 10.9893C0 13.6603 1.04019 16.1716 2.92892 18.0603C4.81766 19.9491 7.32895 20.9893 10 20.9893C12.6711 20.9893 15.1823 19.9491 17.0711 18.0603C18.9598 16.1716 20 13.6603 20 10.9893C20 8.31821 18.9598 5.80692 17.0711 3.91818ZM10 20.208C5.04776 20.208 0.994873 16.2825 0.78949 11.3799H1.57135C1.66672 13.487 2.5325 15.4543 4.03381 16.9554C5.62744 18.5491 7.74628 19.4268 10 19.4268C12.2537 19.4268 14.3726 18.5491 15.9662 16.9554C17.5598 15.3618 18.4375 13.243 18.4375 10.9893C18.4375 8.73553 17.5598 6.6167 15.9662 5.02307C14.3726 3.42944 12.2537 2.55176 10 2.55176C9.00436 2.55176 8.02841 2.72418 7.09946 3.0643C6.99097 3.10397 6.90567 3.18973 6.86646 3.29837C6.82709 3.40701 6.83792 3.5274 6.89606 3.62735L6.931 3.68762L5.18005 3.69235L6.05133 2.17365L6.10046 2.25803C6.19766 2.42557 6.4032 2.49652 6.58295 2.4245C7.66983 1.99054 8.81943 1.77051 10 1.77051C15.0833 1.77051 19.2188 5.90594 19.2188 10.9893C19.2188 16.0726 15.0833 20.208 10 20.208Z" fill="#04A5FF"/>
<path d="M14.8056 6.18334C14.6533 6.03106 14.4073 6.03151 14.2548 6.18364C14.102 6.33562 14.1022 6.58343 14.2538 6.73632C14.2543 6.73678 14.2564 6.73891 14.2567 6.73922C14.3329 6.81521 14.4322 6.8532 14.5317 6.8532C14.6315 6.8532 14.7313 6.81506 14.8077 6.73891C14.9605 6.58694 14.9603 6.33913 14.8087 6.18609C14.8082 6.18578 14.8061 6.18364 14.8056 6.18334Z" fill="#04A5FF"/>
<path d="M13.4592 5.58151C13.5641 5.39306 13.4966 5.15518 13.3081 5.05004C12.0424 4.34417 10.5499 4.06066 9.10553 4.25125C7.61337 4.44839 6.26068 5.11642 5.19394 6.18331C3.91006 7.46704 3.20312 9.17388 3.20312 10.9894C3.20312 12.8049 3.91006 14.5117 5.19394 15.7954C6.47766 17.0793 8.18451 17.7862 10 17.7862C11.8155 17.7862 13.5223 17.0793 14.8061 15.7954C17.0148 13.5869 17.4376 10.1753 15.8342 7.49938C15.7234 7.3143 15.4834 7.25433 15.2983 7.36511C15.1132 7.47604 15.0531 7.71591 15.164 7.901C16.5829 10.269 16.2085 13.2883 14.2537 15.2431C13.1175 16.3792 11.6069 17.005 10 17.005C8.3931 17.005 6.88248 16.3792 5.74631 15.2431C4.61014 14.1069 3.98438 12.5963 3.98438 10.9894C3.98438 9.38247 4.61014 7.87185 5.74631 6.73568C7.63931 4.84268 10.5923 4.43023 12.9277 5.73242C13.1162 5.8374 13.354 5.7698 13.4592 5.58151Z" fill="#04A5FF"/>
<path d="M10.3955 6.32129V6.02832C10.3955 5.81256 10.2205 5.6377 10.0049 5.6377C9.78912 5.6377 9.61426 5.81256 9.61426 6.02832V6.32129C9.61426 6.53705 9.78912 6.71191 10.0049 6.71191C10.2205 6.71191 10.3955 6.53705 10.3955 6.32129Z" fill="#04A5FF"/>
<path d="M9.60449 15.6572V15.9502C9.60449 16.166 9.77951 16.3408 9.99512 16.3408C10.2109 16.3408 10.3857 16.166 10.3857 15.9502V15.6572C10.3857 15.4415 10.2109 15.2666 9.99512 15.2666C9.77951 15.2666 9.60449 15.4415 9.60449 15.6572Z" fill="#04A5FF"/>
<path d="M14.2773 10.9941C14.2773 11.2097 14.4522 11.3848 14.668 11.3848H14.9609C15.1767 11.3848 15.3516 11.2097 15.3516 10.9941C15.3516 10.7784 15.1767 10.6035 14.9609 10.6035H14.668C14.4522 10.6035 14.2773 10.7784 14.2773 10.9941Z" fill="#04A5FF"/>
<path d="M5.03906 10.5938C4.8233 10.5938 4.64844 10.7688 4.64844 10.9844C4.64844 11.2001 4.8233 11.375 5.03906 11.375H5.33203C5.54779 11.375 5.72266 11.2001 5.72266 10.9844C5.72266 10.7688 5.54779 10.5938 5.33203 10.5938H5.03906Z" fill="#04A5FF"/>
<path d="M12.3438 10.9893C12.3438 10.7736 12.169 10.5987 11.9532 10.5987H10.1618L7.23322 7.6701C7.08078 7.51752 6.83344 7.51752 6.68085 7.6701C6.52826 7.82254 6.52826 8.06989 6.68085 8.22247L9.72391 11.2655C9.79715 11.3388 9.89648 11.38 10.0001 11.38H11.9532C12.169 11.38 12.3438 11.2051 12.3438 10.9893Z" fill="#04A5FF"/>
</g>
<defs>
<clipPath id="clip0">
<rect width="20" height="20" fill="white" transform="translate(0 0.989258)"/>
</clipPath>
</defs>
</svg>
