<svg width="20" height="21" viewBox="0 0 20 21" fill="none" xmlns="http://www.w3.org/2000/svg">
<g clip-path="url(#clip0)">
<path d="M19.3331 10.2425L18.1776 11.3981C18.1043 11.4713 18.0631 11.5707 18.0631 11.6743C18.0631 12.5017 17.7409 13.2796 17.1558 13.8647L10.9838 20.0368C10.7547 20.2658 10.3821 20.2658 10.153 20.0368C10.0421 19.9259 9.98096 19.7784 9.98096 19.6214C9.98096 19.4848 10.0274 19.3554 10.1125 19.251L13.6866 15.6769C13.8391 15.5244 13.8391 15.2771 13.6866 15.1245C13.6863 15.1241 13.6858 15.1238 13.6854 15.1234C13.6851 15.123 13.6848 15.1226 13.6844 15.1223C13.5318 14.9698 13.2845 14.9698 13.1319 15.1223L8.82226 19.4364C8.71132 19.5474 8.56378 19.6085 8.40691 19.6085C8.25004 19.6085 8.1025 19.5473 7.99156 19.4364C7.77699 19.2218 7.76348 18.8813 7.9509 18.6508L12.3057 14.296C12.4583 14.1434 12.4583 13.8961 12.3057 13.7435C12.1532 13.591 11.9058 13.591 11.7533 13.7435L6.68379 18.813C6.57286 18.9239 6.42532 18.985 6.26845 18.985C6.11153 18.985 5.96403 18.9239 5.85306 18.813C5.74212 18.702 5.68103 18.5545 5.68103 18.3976C5.68103 18.2407 5.74212 18.0932 5.85306 17.9822L10.926 12.9137C11.0786 12.7612 11.0786 12.5139 10.926 12.3613C10.7735 12.2088 10.5262 12.2088 10.3736 12.3613L5.84528 16.8852C5.61478 17.0725 5.27427 17.059 5.05974 16.8445C4.94876 16.7335 4.88767 16.586 4.88767 16.4291C4.88767 16.2722 4.9488 16.1247 5.05974 16.0137L6.54188 14.5316C6.69442 14.379 6.69442 14.1317 6.54184 13.9791C6.3893 13.8266 6.14196 13.8266 5.98942 13.9791L5.23122 14.7373L3.72522 13.2313C2.7771 12.2832 2.09691 11.0963 1.75816 9.79908C1.74062 9.73189 1.7055 9.67064 1.65644 9.62154L0.666837 8.63194C0.51426 8.47948 0.266956 8.47944 0.114418 8.63194C-0.0381199 8.78448 -0.0381589 9.03182 0.114418 9.1844L1.03 10.1C1.4125 11.491 2.15191 12.7628 3.17276 13.7837L4.67881 15.2898L4.50732 15.4613C4.24881 15.7197 4.10643 16.0635 4.10643 16.429C4.10643 16.7946 4.24881 17.1383 4.50732 17.3968C4.67006 17.5596 4.864 17.6724 5.07001 17.7359C4.95904 17.9361 4.89974 18.1622 4.89974 18.3976C4.89974 18.7632 5.04208 19.1069 5.3006 19.3654C5.55911 19.6239 5.90282 19.7662 6.26841 19.7662C6.57954 19.7662 6.87461 19.6628 7.11504 19.4727C7.18067 19.6614 7.28863 19.8384 7.43906 19.9888C7.69758 20.2473 8.04129 20.3897 8.40687 20.3897C8.72827 20.3897 9.03273 20.2796 9.27726 20.0773C9.34433 20.2677 9.45362 20.4423 9.60057 20.5892C9.86741 20.856 10.2179 20.9894 10.5683 20.9894C10.9188 20.9894 11.2693 20.856 11.5361 20.5892L12.0359 20.0894L12.3854 20.4389C12.6522 20.7057 13.0027 20.8391 13.3532 20.8391C13.7036 20.8391 14.0541 20.7057 14.321 20.4389C14.5386 20.2213 14.6735 19.9432 14.7109 19.6425C14.7876 19.6556 14.8652 19.6625 14.9429 19.6625C15.2934 19.6625 15.6439 19.5291 15.9107 19.2623C16.1692 19.0038 16.3116 18.6601 16.3116 18.2945C16.3116 18.2893 16.3113 18.2842 16.3112 18.279C16.3162 18.2791 16.3211 18.2794 16.326 18.2794C16.6765 18.2794 17.027 18.146 17.2938 17.8792C17.5524 17.6207 17.6947 17.277 17.6947 16.9114C17.6947 16.8451 17.6899 16.7796 17.6807 16.7151C17.9913 16.6825 18.2791 16.5459 18.503 16.322C18.7615 16.0635 18.9039 15.7198 18.9039 15.3542C18.9039 14.9887 18.7615 14.6449 18.503 14.3864L18.0898 13.9732C18.547 13.3545 18.8085 12.6177 18.8409 11.8395L19.8854 10.795C20.038 10.6425 20.038 10.3951 19.8854 10.2426C19.7329 10.09 19.4856 10.09 19.3331 10.2425ZM13.7686 19.8865C13.5396 20.1154 13.1669 20.1155 12.9379 19.8865L12.5921 19.5407L13.4229 18.71L13.6207 18.9078L13.7687 19.0558C13.8796 19.1667 13.9407 19.3142 13.9407 19.4711C13.9407 19.628 13.8795 19.7756 13.7686 19.8865ZM15.5304 18.2945C15.5304 18.4515 15.4693 18.599 15.3583 18.7099C15.1293 18.9389 14.7566 18.939 14.5276 18.7099L14.3212 18.5035C14.3211 18.5034 14.3211 18.5034 14.321 18.5034L13.9752 18.1576L14.8059 17.3268L15.3583 17.8792C15.4693 17.9901 15.5304 18.1376 15.5304 18.2945ZM16.7415 17.3267C16.5124 17.5557 16.1397 17.5558 15.9107 17.3267L15.3584 16.7744L16.1891 15.9437L16.7415 16.496C16.8524 16.6069 16.9135 16.7544 16.9135 16.9113C16.9135 17.0683 16.8524 17.2158 16.7415 17.3267ZM17.9506 15.7696C17.8397 15.8805 17.6922 15.9416 17.5353 15.9416C17.3784 15.9416 17.2309 15.8805 17.1199 15.7696L16.7416 15.3912L17.5723 14.5605L17.9506 14.9388C18.0616 15.0498 18.1227 15.1973 18.1227 15.3542C18.1227 15.5111 18.0616 15.6586 17.9506 15.7696Z" fill="#04A5FF"/>
<path d="M4.63508 6.1777C4.70832 6.25095 4.8077 6.29212 4.91129 6.29212H6.92737C8.38486 6.29212 9.8106 6.79813 10.9419 7.71699L14.116 10.2948C13.3399 10.8369 12.2977 10.911 11.4473 10.4504L9.28751 9.28085C9.19591 9.23124 9.08818 9.22026 8.98838 9.2505C7.62424 9.66319 6.18097 9.66698 4.81461 9.2612L4.77629 9.24987C4.56942 9.18855 4.35207 9.30647 4.29075 9.51331C4.22942 9.72014 4.34739 9.93753 4.55422 9.99885L4.59242 10.0102C6.05288 10.4438 7.59276 10.4551 9.0567 10.0443L9.61954 10.3491L8.47447 11.4942C8.32193 11.6467 8.32193 11.894 8.47451 12.0466C8.5508 12.1229 8.65076 12.161 8.75072 12.161C8.85068 12.161 8.95068 12.1229 9.02693 12.0466L10.3363 10.7372L11.0754 11.1374C11.5655 11.4028 12.1024 11.5386 12.6505 11.5386C12.8113 11.5386 12.9732 11.5269 13.1351 11.5034C13.8485 11.3995 14.4951 11.0752 15.0049 10.5653C15.0831 10.4871 15.1245 10.3794 15.1188 10.2689C15.1131 10.1585 15.0608 10.0556 14.9749 9.98588L11.8223 7.42555C12.7623 6.84352 13.8362 6.53258 14.9477 6.52505C15.0504 6.52434 15.1487 6.48325 15.2213 6.41063L19.8856 1.74636C20.0382 1.59382 20.0382 1.34648 19.8856 1.19391C19.733 1.04145 19.4857 1.04145 19.3332 1.19391L14.7803 5.74681C13.4897 5.78595 12.2491 6.18751 11.1781 6.91211C9.95236 6.00645 8.45545 5.51087 6.92741 5.51087H5.07312L0.666861 1.10461C0.514323 0.95211 0.266981 0.95211 0.114404 1.10461C-0.0381345 1.25715 -0.0381345 1.50449 0.114404 1.65707L4.63508 6.1777Z" fill="#04A5FF"/>
<path d="M7.23125 12.7375C7.15859 12.8102 7.11719 12.9109 7.11719 13.0137C7.11719 13.1168 7.15859 13.2172 7.23125 13.2898C7.3043 13.3625 7.40508 13.4043 7.50781 13.4043C7.61055 13.4043 7.71094 13.3625 7.78398 13.2898C7.85664 13.2172 7.89844 13.1168 7.89844 13.0137C7.89844 12.9109 7.85664 12.8102 7.78398 12.7375C7.71133 12.6648 7.61055 12.623 7.50781 12.623C7.40473 12.623 7.3043 12.6648 7.23125 12.7375Z" fill="#04A5FF"/>
</g>
<defs>
<clipPath id="clip0">
<rect width="20" height="20" fill="white" transform="translate(0 0.989258)"/>
</clipPath>
</defs>
</svg>
