<svg width="30" height="30" viewBox="0 0 30 30" fill="none" xmlns="http://www.w3.org/2000/svg">
<path d="M0.17502 12.0796L10.5416 1.71311C10.7125 1.54219 10.9696 1.4911 11.1929 1.58362C11.4161 1.67614 11.5618 1.89411 11.5618 2.13575V7.77756H14.4742C18.6213 7.77756 22.5202 9.39252 25.4526 12.325C28.385 15.2574 30 19.1562 30 23.3034V27.8639C30 28.1105 29.8485 28.3318 29.6186 28.4211C29.5483 28.4484 29.4751 28.4616 29.4025 28.4616C29.2379 28.4616 29.0767 28.3934 28.9612 28.267L23.514 22.3056C20.5648 19.078 16.3659 17.2269 11.9938 17.2269H11.5618V22.8687C11.5618 23.1105 11.4161 23.3283 11.1929 23.4209C10.9696 23.5135 10.7125 23.4622 10.5416 23.2914L0.17502 12.9247C0.0629883 12.8127 0 12.6606 0 12.5022C0 12.3437 0.0629883 12.1917 0.17502 12.0796ZM10.3665 21.426V16.6293C10.3665 16.2992 10.6341 16.0317 10.9641 16.0317H11.9938C16.7007 16.0317 21.2212 18.0246 24.3963 21.4994L28.8047 26.3239V23.3034C28.8047 15.4015 22.376 8.97282 14.4741 8.97282H10.9641C10.6341 8.97282 10.3665 8.70528 10.3665 8.37522V3.5785L1.4427 12.5023L10.3665 21.426Z" fill="#04A5FF"/>
<path d="M15.0329 9.97949C15.1957 9.97949 15.3603 9.98283 15.5222 9.98934C15.8519 10.0026 16.1086 10.2807 16.0952 10.6105C16.0823 10.9321 15.8175 11.1841 15.4985 11.1841C15.4903 11.1841 15.4822 11.1839 15.4741 11.1835C15.3282 11.1777 15.1798 11.1747 15.0329 11.1747C14.7028 11.1747 14.4353 10.9071 14.4353 10.5771C14.4353 10.247 14.7028 9.97949 15.0329 9.97949Z" fill="#04A5FF"/>
<path d="M17.0459 10.7393C17.1208 10.418 17.4419 10.2181 17.7636 10.2931C19.3375 10.6601 20.7989 11.3325 22.1072 12.2917C22.3735 12.4868 22.431 12.8608 22.2359 13.127C22.1188 13.2866 21.9374 13.3713 21.7534 13.3713C21.6308 13.3713 21.507 13.3337 21.4005 13.2555C20.223 12.3923 18.9079 11.7872 17.4921 11.4569C17.1707 11.3821 16.971 11.0608 17.0459 10.7393Z" fill="#04A5FF"/>
</svg>
