<svg width="20" height="20" viewBox="0 0 20 20" fill="none" xmlns="http://www.w3.org/2000/svg">
<path d="M5.07812 17.6562C4.8625 17.6562 4.6875 17.8312 4.6875 18.0469C4.6875 18.2625 4.8625 18.4375 5.07812 18.4375C5.29375 18.4375 5.46875 18.2625 5.46875 18.0469C5.46875 17.8312 5.29375 17.6562 5.07812 17.6562Z" fill="#04A5FF"/>
<path d="M3.8325 10.5529C3.7591 10.451 3.64117 10.3906 3.51562 10.3906H1.95312C1.73738 10.3906 1.5625 10.5655 1.5625 10.7812C1.5625 10.997 1.73738 11.1719 1.95312 11.1719H2.97367L2.36379 13.0015C2.29555 13.2061 2.40617 13.4273 2.61086 13.4956C2.65184 13.5093 2.69348 13.5157 2.73445 13.5157C2.89801 13.5157 3.05043 13.4122 3.10496 13.2485L3.88621 10.9048C3.92594 10.7857 3.90594 10.6547 3.8325 10.5529Z" fill="#04A5FF"/>
<path d="M8.51999 10.5529C8.44659 10.451 8.32867 10.3906 8.20312 10.3906H6.64062C6.42488 10.3906 6.25 10.5655 6.25 10.7812C6.25 10.997 6.42488 11.1719 6.64062 11.1719H7.66117L7.05129 13.0015C6.98304 13.2061 7.09367 13.4273 7.29836 13.4956C7.33933 13.5093 7.38097 13.5157 7.42195 13.5157C7.5855 13.5157 7.73793 13.4122 7.79246 13.2485L8.5737 10.9048C8.61343 10.7857 8.59343 10.6547 8.51999 10.5529Z" fill="#04A5FF"/>
<path d="M13.2075 10.5529C13.1341 10.451 13.0162 10.3906 12.8906 10.3906H11.3281C11.1124 10.3906 10.9375 10.5655 10.9375 10.7812C10.9375 10.997 11.1124 11.1719 11.3281 11.1719H12.3487L11.7388 13.0015C11.6705 13.2061 11.7812 13.4273 11.9859 13.4956C12.0268 13.5093 12.0685 13.5157 12.1095 13.5157C12.273 13.5157 12.4254 13.4122 12.48 13.2485L13.2612 10.9048C13.3009 10.7857 13.2809 10.6547 13.2075 10.5529Z" fill="#04A5FF"/>
<path d="M9.76562 17.6562H6.64062C6.42488 17.6562 6.25 17.8312 6.25 18.0469C6.25 18.2626 6.42488 18.4375 6.64062 18.4375H9.76562C9.98137 18.4375 10.1562 18.2626 10.1562 18.0469C10.1562 17.8312 9.98137 17.6562 9.76562 17.6562Z" fill="#04A5FF"/>
<path d="M18.0469 6.48438C16.9699 6.48438 16.0938 7.36055 16.0938 8.4375C16.0938 9.05391 16.3884 9.63297 16.875 9.99922V14.4141H14.8438V9.10156V7.42188C14.8438 3.32941 11.5143 0 7.42188 0C3.32945 0 0 3.32941 0 7.42188V9.10156V18.8281C0 19.4743 0.525703 20 1.17188 20H3.51562H11.3281H13.6719C14.318 20 14.8438 19.4743 14.8438 18.8281V17.6562H17.2656C18.3426 17.6562 19.2188 16.7801 19.2188 15.7031V9.99922C19.7054 9.63297 20 9.05391 20 8.4375C20 7.36055 19.1238 6.48438 18.0469 6.48438ZM0.78125 9.49219H4.6875V14.4141H0.78125V9.49219ZM10.9375 19.2188H3.90625V16.875H10.9375V19.2188ZM14.0625 17.2656V18.8281C14.0625 19.0435 13.8873 19.2188 13.6719 19.2188H11.7188V16.4844C11.7188 16.2687 11.5439 16.0938 11.3281 16.0938H3.51562C3.29988 16.0938 3.125 16.2687 3.125 16.4844V19.2188H1.17188C0.956484 19.2188 0.78125 19.0435 0.78125 18.8281V15.1953H5.07812H9.76562H14.0625V17.2656ZM5.46875 14.4141V9.49219H9.375V14.4141H5.46875ZM14.0625 14.4141H10.1562V9.49219H14.0625V14.4141ZM14.0625 8.71094H0.78125V7.42188C0.78125 3.76023 3.76023 0.78125 7.42188 0.78125C11.0835 0.78125 14.0625 3.76023 14.0625 7.42188V8.71094ZM16.875 16.875H14.8438V15.1953H16.875V16.875ZM18.4375 15.7031C18.4375 16.2123 18.1109 16.6466 17.6562 16.8078V14.8047V11.9531H18.4375V15.7031ZM18.4375 11.1719H17.6562V10.3509C17.7844 10.377 17.9152 10.3906 18.0469 10.3906C18.1785 10.3906 18.3094 10.377 18.4375 10.3509V11.1719ZM18.6329 9.45269C18.4553 9.55519 18.2527 9.60938 18.0469 9.60938C17.8411 9.60938 17.6385 9.55519 17.4609 9.45269C17.0995 9.24344 16.875 8.85445 16.875 8.4375C16.875 7.79133 17.4007 7.26562 18.0469 7.26562C18.693 7.26562 19.2188 7.79133 19.2188 8.4375C19.2188 8.85461 18.9941 9.24371 18.6329 9.45269Z" fill="#04A5FF"/>
<path d="M7.42188 1.5625C4.19102 1.5625 1.5625 4.19102 1.5625 7.42188C1.5625 7.63758 1.73738 7.8125 1.95312 7.8125H5.85938H12.8906C13.1064 7.8125 13.2812 7.63758 13.2812 7.42188C13.2812 4.19102 10.6527 1.5625 7.42188 1.5625ZM5.85938 7.03125H2.35863C2.55875 4.41297 4.7532 2.34375 7.42188 2.34375C10.0905 2.34375 12.285 4.41301 12.4851 7.03125H5.85938Z" fill="#04A5FF"/>
<path d="M7.42188 3.125C7.20613 3.125 7.03125 3.29992 7.03125 3.51562V5.07812C7.03125 5.29383 7.20613 5.46875 7.42188 5.46875C7.63762 5.46875 7.8125 5.29383 7.8125 5.07812V3.51562C7.8125 3.29992 7.63762 3.125 7.42188 3.125Z" fill="#04A5FF"/>
<path d="M6.04057 5.48825L4.93588 4.38356C4.78334 4.23109 4.536 4.23106 4.38346 4.38356C4.23092 4.5361 4.23088 4.78344 4.38346 4.93602L5.48815 6.04071C5.56444 6.11696 5.6644 6.15512 5.76436 6.15512C5.86432 6.15512 5.96432 6.11696 6.04057 6.04071C6.19311 5.88817 6.19315 5.64082 6.04057 5.48825Z" fill="#04A5FF"/>
<path d="M10.4605 4.38348C10.3079 4.23098 10.0606 4.23098 9.90806 4.38348L8.80337 5.48817C8.65083 5.64071 8.65083 5.88806 8.80337 6.04063C8.87966 6.11692 8.97962 6.15505 9.07958 6.15505C9.17954 6.15505 9.27954 6.11689 9.35579 6.04063L10.4605 4.93594C10.613 4.7834 10.613 4.53606 10.4605 4.38348Z" fill="#04A5FF"/>
</svg>
