<svg width="20" height="20" viewBox="0 0 20 20" fill="none" xmlns="http://www.w3.org/2000/svg">
<g clip-path="url(#clip0)">
<path d="M15.0495 4.76239L6.82413 9.8284C6.35866 10.1157 6.13839 10.6833 6.28835 11.2082L7.17772 14.3332C7.2537 14.5997 7.49081 14.7768 7.76362 14.7768C7.77882 14.7768 7.79417 14.7762 7.80956 14.7751C8.1012 14.7539 8.33198 14.5367 8.37077 14.2472L8.60202 12.5336C8.63319 12.3031 8.74428 12.0886 8.91456 11.9301L15.7022 5.62059C15.9074 5.4304 15.9345 5.11895 15.7654 4.89618C15.5961 4.67321 15.2885 4.61555 15.0495 4.76239ZM8.37182 11.3467C8.06682 11.6306 7.86811 12.0143 7.81233 12.427L7.70018 13.2582L7.0546 10.9897C7.00214 10.806 7.0794 10.6073 7.24229 10.5067L13.268 6.79551L8.37182 11.3467Z" fill="white"/>
<path d="M19.6746 1.46007C19.4176 1.24226 19.063 1.1823 18.7489 1.30363L0.589073 8.30918C0.229425 8.44789 -0.00182509 8.78652 1.08522e-05 9.17187C0.00188585 9.55757 0.236534 9.89433 0.598292 10.0299L4.84009 11.613L6.49474 16.9343C6.5856 17.2269 6.81493 17.4542 7.10814 17.5424C7.40118 17.6305 7.71767 17.5675 7.95423 17.374L10.4206 15.3634C10.5391 15.2668 10.7082 15.262 10.8319 15.3518L15.2804 18.5816C15.4405 18.6979 15.6293 18.7578 15.8204 18.7578C15.9323 18.7578 16.045 18.7372 16.1531 18.6954C16.4455 18.5823 16.6582 18.3317 16.7218 18.025L19.9808 2.34886C20.0492 2.01878 19.9319 1.67824 19.6746 1.46007ZM19.2006 2.18695L15.9417 17.863C15.9299 17.9197 15.8892 17.9432 15.8659 17.9523C15.8424 17.9613 15.7961 17.9714 15.7488 17.9369L11.3001 14.707C11.1012 14.5627 10.8674 14.491 10.634 14.491C10.3794 14.491 10.1251 14.5763 9.91732 14.7456L7.45036 16.7568C7.40646 16.7927 7.36087 16.7863 7.33767 16.7793C7.31431 16.7723 7.27263 16.7523 7.25567 16.6978L5.54298 11.1898C5.50638 11.0721 5.41732 10.9779 5.30185 10.9348L0.877433 9.28351C0.811183 9.25871 0.797081 9.20703 0.796886 9.168C0.796691 9.12933 0.810284 9.07789 0.875909 9.05257L19.0358 2.04707C19.0359 2.04703 19.036 2.04699 19.0361 2.04695C19.0951 2.02418 19.1387 2.05035 19.1595 2.06793C19.1804 2.0857 19.2136 2.12476 19.2006 2.18695Z" fill="white"/>
<path d="M16.6983 9.8495C16.4833 9.80278 16.2712 9.9393 16.2245 10.1543L16.1639 10.4332C16.1173 10.6483 16.2537 10.8604 16.4688 10.9071C16.4973 10.9133 16.5257 10.9162 16.5537 10.9162C16.7371 10.9162 16.9021 10.7888 16.9427 10.6023L17.0032 10.3234C17.0499 10.1084 16.9133 9.89621 16.6983 9.8495Z" fill="white"/>
<path d="M16.3003 11.6844C16.085 11.6378 15.873 11.7742 15.8264 11.9893L14.91 16.21C14.8634 16.4251 14.9998 16.6372 15.2148 16.6839C15.2433 16.6901 15.2717 16.693 15.2998 16.693C15.4832 16.693 15.6482 16.5656 15.6887 16.3791L16.6051 12.1583C16.6518 11.9433 16.5153 11.7311 16.3003 11.6844Z" fill="white"/>
</g>
<defs>
<clipPath id="clip0">
<rect width="20" height="20" fill="white"/>
</clipPath>
</defs>
</svg>
