<svg width="20" height="21" viewBox="0 0 20 21" fill="none" xmlns="http://www.w3.org/2000/svg">
<g clip-path="url(#clip0)">
<path d="M20 15.6662V2.55469H0V15.6662H7.82779V17.584H5.77299C5.52481 17.584 5.3229 17.786 5.3229 18.0341V19.4236H14.6771V18.0341C14.6771 17.786 14.4752 17.584 14.227 17.584H12.1722V15.6662H20ZM0.587084 3.14177H19.4129V15.0791H0.587084V3.14177ZM14.09 18.8365H5.90998V18.1711H14.09V18.8365ZM11.5851 17.584H8.41487V15.6662H11.5851V17.584Z" fill="#04A5FF"/>
<path d="M8.43408 5.37207H9.0603V5.95915H8.43408V5.37207Z" fill="#04A5FF"/>
<path d="M9.68701 5.37207H10.3132V5.95915H9.68701V5.37207Z" fill="#04A5FF"/>
<path d="M10.9395 5.37207H11.5657V5.95915H10.9395V5.37207Z" fill="#04A5FF"/>
<path d="M1.25244 14.4143H18.7475V11.6158H18.1605V13.8272H16.5491C16.4292 11.1115 14.6528 8.7493 12.0526 7.89282L11.8689 8.4504C14.2278 9.22742 15.8418 11.3656 15.9613 13.8272H15.295C15.2029 11.4133 13.2606 9.2475 10.8758 8.88973L12.0952 6.93873H7.90481L9.12414 8.88973C6.73933 9.24754 4.79714 11.4133 4.70504 13.8272H4.03874C4.1582 11.3656 5.77221 9.22742 8.13107 8.4504L7.94743 7.89282C5.3472 8.7493 3.57084 11.1115 3.45091 13.8272H1.83953V4.3947H18.1605V10.9896H18.7475V3.80762H1.25244V14.4143ZM10 13.1618C10.4264 13.1618 10.7885 13.4416 10.9128 13.8272H9.0872C9.2115 13.4416 9.57362 13.1618 10 13.1618ZM11.5177 13.8272C11.5038 13.7549 11.4847 13.6845 11.461 13.6161L14.2192 12.0237C14.4954 12.5749 14.6665 13.1854 14.7068 13.8272H11.5177ZM13.9245 11.516L11.1668 13.1082C11.119 13.0533 11.0675 13.0017 11.0126 12.954L12.6055 10.1951C13.1276 10.5443 13.5766 10.9944 13.9245 11.516ZM11.0359 7.52582L10 9.18331L8.96407 7.52582H11.0359ZM10 10.291L10.5351 9.43486C11.0915 9.49791 11.6182 9.65885 12.0981 9.89959L10.5045 12.6597C10.4362 12.6361 10.3658 12.617 10.2935 12.6031V10.9896H9.70645V12.603C9.6342 12.617 9.56375 12.6361 9.49545 12.6597L7.90187 9.89955C8.38183 9.65881 8.90849 9.49791 9.46489 9.43482L10 10.291ZM7.39456 10.1951L8.98743 12.954C8.93248 13.0017 8.88101 13.0533 8.83326 13.1082L6.07557 11.516C6.4234 10.9944 6.8724 10.5443 7.39456 10.1951ZM5.78086 12.0237L8.53902 13.6161C8.51534 13.6845 8.49628 13.7549 8.48234 13.8272H5.2933C5.33354 13.1854 5.50465 12.5749 5.78086 12.0237Z" fill="#04A5FF"/>
<path d="M3.09197 6.60556V5.64665H4.05087V5.05957H2.50488V6.60556H3.09197Z" fill="#04A5FF"/>
</g>
<defs>
<clipPath id="clip0">
<rect width="20" height="20" fill="white" transform="translate(0 0.989258)"/>
</clipPath>
</defs>
</svg>
