<svg width="20" height="20" viewBox="0 0 20 20" fill="none" xmlns="http://www.w3.org/2000/svg">
<path d="M12.8847 16.3083C11.967 16.3395 10.9966 16.3552 10 16.3552C7.11929 16.3552 4.57047 16.2259 3.18161 16.0094C1.69769 15.7781 1.10809 15.0867 0.928192 13.3677C0.731506 11.4869 0.731506 8.54023 0.928192 6.65943C1.10809 4.94038 1.69769 4.24915 3.18161 4.01783C3.42255 3.98014 3.7056 3.94444 4.02313 3.91148C4.23782 3.8892 4.39377 3.69724 4.37149 3.48255C4.34921 3.26801 4.15695 3.11192 3.94257 3.13435C3.61176 3.16868 3.31528 3.20622 3.06122 3.24574C2.13562 3.39008 1.48682 3.70091 1.01959 4.22382C0.538788 4.76154 0.262909 5.50968 0.151062 6.57825C-0.050354 8.50468 -0.050354 11.5226 0.151062 13.449C0.262909 14.5176 0.538788 15.2655 1.01959 15.8034C1.48682 16.3263 2.13562 16.6372 3.06122 16.7813C4.48746 17.0038 7.08145 17.1366 10 17.1366C11.0052 17.1366 11.9847 17.1207 12.9111 17.0893C13.1267 17.0819 13.2956 16.9013 13.2883 16.6857C13.2809 16.4701 13.1012 16.3012 12.8847 16.3083Z" fill="white"/>
<path d="M19.8489 6.57846C19.737 5.51004 19.4611 4.7619 18.9805 4.22403C18.5131 3.70111 17.8643 3.39029 16.9387 3.24609C15.5123 3.02362 12.9183 2.89087 9.99992 2.89087C8.99468 2.89087 8.01537 2.90689 7.08901 2.93817C6.87325 2.9455 6.70433 3.12616 6.71166 3.34177C6.71898 3.55753 6.89888 3.72675 7.1154 3.71912C8.03291 3.68799 9.00353 3.67227 10.0001 3.67227C12.8805 3.67227 15.4295 3.80151 16.8185 4.01804C18.3022 4.24951 18.892 4.94073 19.0717 6.65979C19.2686 8.54059 19.2686 11.4872 19.0717 13.368C18.892 15.0871 18.3022 15.7783 16.8185 16.0098C16.5775 16.0473 16.2943 16.083 15.9768 16.116C15.7623 16.1382 15.6063 16.3302 15.6286 16.5449C15.6495 16.7458 15.819 16.8952 16.0166 16.8952C16.0302 16.8952 16.0438 16.8945 16.0575 16.8931C16.3882 16.8588 16.6846 16.8214 16.9387 16.7817C17.8643 16.6374 18.5131 16.3267 18.9805 15.8038C19.4611 15.2659 19.737 14.5178 19.8489 13.4493C20.0503 11.5229 20.0503 8.50488 19.8489 6.57846Z" fill="white"/>
<path d="M13.2195 9.68077L8.38458 6.69356C8.26404 6.6191 8.11267 6.61574 7.98892 6.68471C7.86533 6.75368 7.78857 6.8843 7.78857 7.0259V13.0002C7.78857 13.1418 7.86533 13.2724 7.98892 13.3413C8.04828 13.3743 8.11374 13.3908 8.1792 13.3908C8.25061 13.3908 8.32172 13.3713 8.38458 13.3325L13.2195 10.3454C13.3347 10.2742 13.4049 10.1485 13.4049 10.0131C13.4049 9.87761 13.3347 9.75188 13.2195 9.68077ZM8.56998 12.2996V7.72658L12.2708 10.0131L8.56998 12.2996Z" fill="white"/>
<path d="M5.54034 3.79018C5.54904 3.79018 5.55789 3.78987 5.56674 3.78941C5.78204 3.77507 5.94485 3.58891 5.93051 3.37361C5.91617 3.15831 5.7297 2.99519 5.51471 3.00969H5.5144C5.2991 3.02403 5.13644 3.21019 5.15078 3.42549C5.16452 3.63194 5.33633 3.79018 5.54034 3.79018Z" fill="white"/>
<path d="M14.4332 16.2378C14.2179 16.252 14.0549 16.4382 14.0692 16.6535C14.083 16.8599 14.2548 17.0181 14.4586 17.0181C14.4675 17.0181 14.4762 17.0178 14.485 17.0174H14.4854C14.7007 17.003 14.8633 16.8169 14.849 16.6016C14.8346 16.3863 14.6488 16.2236 14.4332 16.2378Z" fill="white"/>
</svg>
