<?xml version="1.0" standalone="no"?>
<!DOCTYPE svg PUBLIC "-//W3C//DTD SVG 20010904//EN"
 "http://www.w3.org/TR/2001/REC-SVG-20010904/DTD/svg10.dtd">
<svg version="1.0" xmlns="http://www.w3.org/2000/svg"
 width="646.000000pt" height="646.000000pt" viewBox="0 0 646.000000 646.000000"
 preserveAspectRatio="xMidYMid meet">
<metadata>
Created by potrace 1.11, written by Peter Selinger 2001-2013
</metadata>
<g transform="translate(0.000000,646.000000) scale(0.100000,-0.100000)"
fill="#000000" stroke="none">
<path d="M3020 6393 c-330 -33 -553 -79 -821 -172 -668 -230 -1261 -704 -1645
-1313 -80 -126 -231 -430 -278 -558 -245 -670 -269 -1369 -69 -2030 143 -475
403 -921 737 -1267 38 -40 67 -75 65 -76 -2 -2 -225 -169 -495 -370 -304 -227
-495 -376 -502 -392 -20 -44 -14 -82 17 -117 l29 -33 1739 0 c1908 0 1794 -3
2106 60 932 190 1755 811 2184 1651 129 253 199 439 263 698 71 288 84 408 85
751 0 348 -15 484 -90 780 -58 232 -119 395 -230 620 -156 318 -353 593 -600
840 -537 537 -1221 855 -1985 925 -106 9 -428 12 -510 3z m-217 -1654 c50 -17
113 -72 137 -120 30 -58 40 -152 40 -391 l0 -217 58 20 c250 87 550 71 790
-41 108 -51 190 -110 278 -201 191 -198 284 -456 284 -789 0 -692 -419 -1090
-1145 -1090 -244 0 -471 51 -665 151 -165 84 -245 161 -292 278 l-23 56 -3
1162 -3 1162 23 6 c107 26 186 34 328 31 90 -2 171 -9 193 -17z"/>
<path d="M2885 3368 c-89 -31 -138 -105 -138 -208 0 -147 56 -259 210 -423
106 -113 183 -227 183 -271 0 -9 4 -16 9 -16 6 0 106 47 223 104 248 122 349
194 435 314 75 105 96 167 91 272 -5 98 -26 149 -82 198 -121 106 -398 0 -486
-185 l-24 -51 -48 73 c-107 163 -249 236 -373 193z"/>
</g>
</svg>
