<?xml version="1.0" encoding="utf-8"?><svg xmlns="http://www.w3.org/2000/svg" xmlns:xlink="http://www.w3.org/1999/xlink"><symbol viewBox="0 0 20 21" id="777" xmlns="http://www.w3.org/2000/svg"><path d="M18.047 3.567h-6.29a.39.39 0 000 .782h6.29c.646 0 1.172.525 1.172 1.172v10.937c0 .646-.526 1.172-1.172 1.172H1.953a1.173 1.173 0 01-1.172-1.172V5.521c0-.647.526-1.172 1.172-1.172h6.29a.39.39 0 100-.782h-6.29A1.955 1.955 0 000 5.521v10.937c0 1.077.876 1.953 1.953 1.953h16.094A1.955 1.955 0 0020 16.458V5.521a1.955 1.955 0 00-1.953-1.954z"/><path d="M1.719 5.677v10.625c0 .215.175.39.39.39h15.782a.39.39 0 00.39-.39V5.677a.39.39 0 00-.39-.39H2.109a.39.39 0 00-.39.39zM7.773 15.91V6.067h4.454v9.844H7.773zm9.727 0h-4.492V6.067H17.5v9.844zm-15-9.844h4.492v9.844H2.5V6.067z"/><path d="M6.128 8.859a.39.39 0 00-.327-.177H3.69a.39.39 0 100 .78h1.511L3.758 12.75a.39.39 0 00.715.315L6.158 9.23a.39.39 0 00-.03-.37zm8.072.604h1.51l-1.445 3.286a.39.39 0 00.716.315l1.685-3.835a.39.39 0 00-.357-.547h-2.11a.39.39 0 000 .78zm-2.818-.604a.39.39 0 00-.327-.177h-2.11a.39.39 0 100 .78h1.511L9.012 12.75a.39.39 0 00.715.315l1.685-3.835a.39.39 0 00-.03-.37zM10 4.349a.394.394 0 00.39-.391.394.394 0 00-.39-.39.394.394 0 00-.39.39.394.394 0 00.39.39z"/></symbol><symbol viewBox="0 0 20 21" id="ace-of-spades" xmlns="http://www.w3.org/2000/svg"><g clip-path="url(#abclip0)"><path d="M8.435 2.552a.39.39 0 100 .781.39.39 0 000-.781zM5.31 16.219a.39.39 0 10.001.781.39.39 0 000-.781zM8.187 5.404l-.155-.131a93.223 93.223 0 01-.906-.771.39.39 0 00-.512 0 88.61 88.61 0 01-.904.77c-.522.441-.974.822-1.361 1.192-.916.875-1.361 1.728-1.361 2.608 0 .603.207 1.169.584 1.592a2.05 2.05 0 001.552.693c.2 0 .392-.028.575-.083a2.339 2.339 0 01-.702 1.776.39.39 0 00.273.67h3.206a.39.39 0 00.273-.669 2.325 2.325 0 01-.702-1.776c.18.055.371.082.57.082a2.05 2.05 0 001.552-.693c.377-.423.584-.989.584-1.592 0-1.387-1.162-2.482-2.566-3.668zm.43 5.172c-.247 0-.462-.065-.658-.199a.39.39 0 00-.598.226 3.127 3.127 0 00.32 2.336H6.066a3.139 3.139 0 00.32-2.338.39.39 0 00-.598-.226 1.15 1.15 0 01-.664.201c-.772 0-1.355-.647-1.355-1.504 0-.656.366-1.324 1.12-2.043.37-.353.812-.727 1.325-1.16.212-.18.43-.363.656-.557.228.195.445.378.658.558l.155.13c1.484 1.255 2.29 2.116 2.29 3.072-.001.857-.584 1.504-1.356 1.504zm2.942-8.024H9.997a.39.39 0 000 .78h1.562a.39.39 0 100-.78zM3.748 16.219H1.952a.39.39 0 100 .78h1.796a.39.39 0 000-.78z"/><path d="M19.237 4.513l-5.726-2.344V2.16c0-.646-.525-1.172-1.171-1.172H1.172A1.176 1.176 0 000 2.161v15.23c0 .645.526 1.171 1.172 1.171h6.097l6.091 2.354c.003 0 .005.002.007.003a1.175 1.175 0 001.503-.703L19.93 6.01a1.173 1.173 0 00-.693-1.498zM1.172 17.78a.391.391 0 01-.391-.39V2.16a.39.39 0 01.39-.39H12.34a.39.39 0 01.39.39v15.23a.39.39 0 01-.39.39H1.172zM19.195 5.747l-5.06 14.204a.391.391 0 01-.498.235l-4.201-1.624h2.904c.646 0 1.171-.526 1.171-1.172V3.012l5.437 2.226a.392.392 0 01.247.508z"/></g><defs><clipPath id="abclip0"><path transform="translate(0 .99)" d="M0 0h20v20H0z"/></clipPath></defs></symbol><symbol viewBox="0 0 15 15" id="arrow-angel-next" xmlns="http://www.w3.org/2000/svg"><path d="M11.371 7.088L4.445.162a.577.577 0 00-.817.816l6.519 6.519-6.519 6.518a.577.577 0 00.817.816l6.926-6.926a.577.577 0 000-.817z"/></symbol><symbol viewBox="0 0 15 15" id="arrow-next--blue" xmlns="http://www.w3.org/2000/svg"><path d="M11.371 7.088L4.445.162a.577.577 0 00-.817.816l6.519 6.519-6.519 6.518a.577.577 0 00.817.816l6.926-6.926a.577.577 0 000-.817z"/></symbol><symbol viewBox="0 0 20 20" id="cherry" xmlns="http://www.w3.org/2000/svg"><path d="M7.285 11.592V3.711a.39.39 0 00-.39-.39H4.27a2.33 2.33 0 00-2.33 2.326v.563c0 .216.175.39.391.39h2.625c.593 0 1.135-.223 1.547-.59V7.4a4.699 4.699 0 00-2.895 1.313 4.7 4.7 0 00-1.413 2.877A2.562 2.562 0 000 14.12a2.559 2.559 0 004.727 1.356 2.559 2.559 0 004.726-1.356c0-1.278-.942-2.34-2.168-2.529zM4.957 5.82H2.723v-.172c0-.852.694-1.546 1.547-1.546h2.234v.171c0 .853-.694 1.547-1.547 1.547zm1.547 2.363v3.41a2.563 2.563 0 00-1.777 1.172 2.563 2.563 0 00-1.745-1.167 3.926 3.926 0 013.522-3.415zm-3.945 7.715A1.78 1.78 0 01.78 14.121c0-.98.798-1.777 1.778-1.777s1.777.797 1.777 1.777a1.78 1.78 0 01-1.777 1.777zm4.336 0a1.78 1.78 0 01-1.778-1.777c0-.98.797-1.777 1.778-1.777.98 0 1.777.797 1.777 1.777a1.78 1.78 0 01-1.777 1.777zm10.937-4.306V3.711a.39.39 0 00-.39-.39h-2.626a2.33 2.33 0 00-2.328 2.327v.563c0 .216.175.39.39.39h2.626c.593 0 1.135-.223 1.547-.59V7.4a4.7 4.7 0 00-2.895 1.313 4.7 4.7 0 00-1.413 2.877 2.562 2.562 0 00-2.196 2.532c0 .636.235 1.246.662 1.718a.39.39 0 10.579-.525 1.78 1.78 0 011.317-2.97 1.78 1.78 0 011.318 2.97.39.39 0 00.579.525c.102-.113.193-.234.272-.36a2.559 2.559 0 102.558-3.887zM15.504 5.82H13.27v-.172c0-.852.694-1.546 1.546-1.546h2.235v.171c0 .853-.694 1.547-1.547 1.547zm-1.975 5.778a3.926 3.926 0 013.522-3.415v3.41a2.563 2.563 0 00-1.778 1.172 2.563 2.563 0 00-1.744-1.167zm3.912 4.3a1.78 1.78 0 01-1.777-1.777c0-.98.797-1.777 1.777-1.777.98 0 1.778.797 1.778 1.777a1.78 1.78 0 01-1.778 1.777z"/><path d="M13.105 15.898a.393.393 0 00-.39.391.393.393 0 00.39.39.393.393 0 00.391-.39.393.393 0 00-.39-.39z"/></symbol><symbol viewBox="0 0 20 21" id="contact" xmlns="http://www.w3.org/2000/svg"><g clip-path="url(#afclip0)"><path d="M17.605.99H2.395A2.397 2.397 0 000 3.383v15.21a2.397 2.397 0 002.395 2.395h15.21A2.397 2.397 0 0020 18.595V3.384A2.397 2.397 0 0017.605.989zm1.598 17.605a1.6 1.6 0 01-1.598 1.598H2.395a1.6 1.6 0 01-1.598-1.598V3.384a1.6 1.6 0 011.598-1.598h15.21a1.6 1.6 0 011.598 1.598v15.21z"/><path d="M17.398 15.779l-3.566-3.566a.398.398 0 00-.391-.102l-.531.152a.402.402 0 00-.112.052l-.546.364-.756.504a13.716 13.716 0 01-3.851-3.932l.534-.534.456-.455a.4.4 0 00.101-.173l.152-.53a.4.4 0 00-.102-.392L5.22 3.601a.399.399 0 00-.42-.091l-.607.227a.399.399 0 00-.142.092 5.165 5.165 0 000 7.316l5.804 5.804a5.164 5.164 0 007.316 0 .4.4 0 00.092-.142l.227-.607a.398.398 0 00-.091-.421zM4.554 4.452l.284-.106 3.22 3.219-.06.206-.1.1-3.38-3.38.036-.039zm5.864 11.934L4.613 10.58a4.37 4.37 0 01-.59-5.457l3.311 3.311-.477.477a.398.398 0 00-.058.49 14.501 14.501 0 004.482 4.594.398.398 0 00.438-.003l.703-.47 3.453 3.453a4.37 4.37 0 01-5.457-.59zm6.129.059a4.583 4.583 0 01-.04.037l-3.409-3.41.09-.06.246-.07 3.22 3.219-.107.284zm1.859-5.535a.398.398 0 00-.398.398v.199a.398.398 0 00.797 0v-.2a.398.398 0 00-.399-.398zm0-7.85a.398.398 0 00-.398.399v6.335a.398.398 0 00.797 0V3.459a.398.398 0 00-.399-.398z"/></g><defs><clipPath id="afclip0"><path transform="translate(0 .99)" d="M0 0h20v20H0z"/></clipPath></defs></symbol><symbol viewBox="0 0 20 21" id="conversation" xmlns="http://www.w3.org/2000/svg"><g clip-path="url(#agclip0)"><path d="M13.516 13.45a.39.39 0 00-.391.39v2.696a1.955 1.955 0 01-1.953 1.953H6.954a.39.39 0 00-.39.39v.777l-.933-.932a.39.39 0 00-.358-.235H2.734a1.955 1.955 0 01-1.953-1.953V10.52c0-1.076.876-1.953 1.953-1.953H6.68a.39.39 0 000-.78H2.734A2.737 2.737 0 000 10.52v6.015a2.737 2.737 0 002.734 2.734h2.339l1.604 1.605a.39.39 0 00.667-.276V19.27h3.828a2.737 2.737 0 002.734-2.734v-2.695a.39.39 0 00-.39-.39z"/><path d="M14.322.99h-.988a5.684 5.684 0 00-5.678 5.677 5.684 5.684 0 005.678 5.677h.988c.49 0 .973-.062 1.441-.184l1.46 1.46a.39.39 0 00.668-.277v-2.26a5.732 5.732 0 001.492-1.84c.41-.803.617-1.67.617-2.576A5.684 5.684 0 0014.322.989zm2.943 9.59a.39.39 0 00-.156.313V12.4l-.956-.955a.39.39 0 00-.39-.097 4.9 4.9 0 01-1.44.215h-.99a4.902 4.902 0 01-4.896-4.896c0-2.7 2.197-4.896 4.897-4.896h.989c2.7 0 4.896 2.196 4.896 4.896a4.86 4.86 0 01-1.954 3.914z"/><path d="M15.587 5.264a1.657 1.657 0 00-1.533-1.533 1.641 1.641 0 00-1.245.44 1.66 1.66 0 00-.525 1.21.39.39 0 10.78 0c0-.245.1-.472.278-.639a.873.873 0 11.787 1.49.74.74 0 00-.582.724v.939a.39.39 0 10.781 0v-.907a1.645 1.645 0 001.26-1.724zm-1.373 3.899a.394.394 0 00-.553 0 .394.394 0 000 .553.393.393 0 00.553 0 .394.394 0 000-.553zm-3.472 3.936H2.5a.39.39 0 000 .78h8.242a.39.39 0 000-.78zm.276 2.301a.393.393 0 00-.552 0 .393.393 0 000 .553.393.393 0 00.667-.276.393.393 0 00-.115-.276zm-1.812-.114H2.5a.39.39 0 000 .781h6.706a.39.39 0 100-.78zm-1.003-4.375H2.5a.39.39 0 000 .781h5.703a.39.39 0 100-.78z"/></g><defs><clipPath id="agclip0"><path transform="translate(0 .99)" d="M0 0h20v20H0z"/></clipPath></defs></symbol><symbol viewBox="0 0 20 20" id="diamond" xmlns="http://www.w3.org/2000/svg"><path d="M10 6.094a.39.39 0 100 .781.39.39 0 000-.781z"/><path d="M20 6.481c0-.01 0-.02-.002-.03v-.007a.422.422 0 00-.006-.036l-.003-.015a.46.46 0 00-.005-.02l-.006-.016-.006-.018a.439.439 0 00-.015-.033l-.009-.015a.372.372 0 00-.041-.06l-.005-.005-4.14-4.688-.003-.003a.406.406 0 00-.02-.02l-.009-.008a.354.354 0 00-.025-.021l-.005-.004a.395.395 0 00-.107-.055h-.001l-.012-.004a.38.38 0 00-.028-.008l-.01-.001a.406.406 0 00-.03-.005h-.01a.379.379 0 00-.03-.003H4.53l-.03.002h-.011a.388.388 0 00-.03.006l-.01.001-.027.008-.013.003a.383.383 0 00-.107.055l-.006.005a.394.394 0 00-.025.021l-.008.008a.387.387 0 00-.02.02l-.004.003-4.14 4.688-.004.005a.347.347 0 00-.05.075.368.368 0 00-.022.05l-.006.017a.398.398 0 00-.005.02l-.003.015a.377.377 0 00-.006.036v.006L0 6.481v.013a.388.388 0 00.02.112l.006.018.006.016.01.018c.001.005.004.01.006.014l.012.02.007.011a.4.4 0 00.022.029v.001l9.609 11.718.002.003.027.028.003.003a.383.383 0 00.026.023l.008.006.029.02.003.002c.01.007.022.013.033.018l.01.004a.139.139 0 00.028.012l.008.003a.388.388 0 00.037.01l.007.002a.36.36 0 00.13.005.365.365 0 00.032-.005l.007-.002a.383.383 0 00.037-.01c.003 0 .005-.002.007-.003a.434.434 0 00.03-.012l.008-.004a.372.372 0 00.034-.018l.003-.002a.368.368 0 00.028-.02l.009-.006a.392.392 0 00.026-.023l.003-.003a.356.356 0 00.026-.028l.003-.003L19.91 6.733l.001-.001a.394.394 0 00.022-.029l.007-.011.012-.02.007-.014a.328.328 0 00.009-.018l.006-.016.006-.018a.303.303 0 00.013-.052.37.37 0 00.006-.06l.001-.01v-.003zm-4.375-3.917l3.118 3.53h-4.295l1.177-3.53zm-.698-.376l-1.17 3.508-2.923-3.508h4.093zm-5.761 0L6.243 5.696l-1.17-3.508h4.093zm-4.79.376l1.176 3.53H1.257l3.118-3.53zm-3.16 4.311h4.596l3.148 9.444-7.744-9.444zM10 16.968L6.636 6.875h1.801a.39.39 0 000-.781h-1.51L10 2.407l3.072 3.687h-1.546a.39.39 0 100 .781h1.838L10 16.968zm1.04-.649l3.148-9.444h4.596l-7.744 9.444z"/></symbol><symbol viewBox="0 0 20 20" id="dice" xmlns="http://www.w3.org/2000/svg"><g clip-path="url(#aiclip0)"><path d="M7.422 10.156a.39.39 0 100 .782.39.39 0 000-.782z"/><path d="M19.657 10.819L12.5 3.662v-2.49c0-.645-.526-1.171-1.172-1.171H1.172C.526.001 0 .527 0 1.173v10.156c0 .646.526 1.172 1.172 1.172h2.49l7.156 7.157c.221.221.516.343.829.343.313 0 .607-.122.828-.343l4.42-4.42 2.762-2.762c.221-.221.343-.516.343-.828 0-.313-.122-.608-.343-.829zm-15.834.9H1.172a.391.391 0 01-.39-.39V1.173a.39.39 0 01.39-.39h10.156a.39.39 0 01.39.39v10.156a.39.39 0 01-.39.39H3.823zm15.281.205l-.552.552-6.63 6.63a.388.388 0 01-.552 0L4.766 12.5h6.562c.646 0 1.172-.526 1.172-1.172V4.767l6.604 6.604a.388.388 0 010 .553z"/><path d="M6.25 4.688a1.564 1.564 0 000 3.125 1.564 1.564 0 000-3.125zm0 2.343a.782.782 0 010-1.562.782.782 0 010 1.562zm3.125-5.468a1.564 1.564 0 000 3.125c.862 0 1.563-.701 1.563-1.563 0-.861-.701-1.562-1.563-1.562zm0 2.343a.782.782 0 010-1.562.782.782 0 010 1.562zm-6.25 3.907a1.564 1.564 0 000 3.125 1.564 1.564 0 000-3.125zm0 2.343a.782.782 0 010-1.562.782.782 0 010 1.562zm14.045.386a1.551 1.551 0 00-1.104-.458c-.417 0-.81.163-1.105.458a1.551 1.551 0 00-.458 1.105 1.561 1.561 0 103.125 0c0-.418-.162-.81-.457-1.105zm-.552 1.657a.782.782 0 11-1.104-1.107.782.782 0 011.104 1.107zm-3.866 2.762a1.552 1.552 0 00-1.105-.457c-.418 0-.81.162-1.105.457a1.55 1.55 0 00-.458 1.105c0 .418.163.81.458 1.105.295.295.687.458 1.105.458a1.564 1.564 0 001.105-2.667zm-.553 1.657a.777.777 0 01-.552.23.776.776 0 01-.553-.23.776.776 0 01-.229-.552c0-.209.082-.405.23-.552a.775.775 0 01.552-.23.782.782 0 01.553 1.334zm-1.652-6.462H8.984a.39.39 0 000 .782h1.563a.39.39 0 000-.782z"/></g><defs><clipPath id="aiclip0"><path d="M0 0h20v20H0z"/></clipPath></defs></symbol><symbol viewBox="0 0 20 21" id="domino" xmlns="http://www.w3.org/2000/svg"><g clip-path="url(#ajclip0)"><path d="M1.953 10.599a.39.39 0 100 .781.39.39 0 000-.781z"/><path d="M19.657 6.857l-5.524-5.524a1.164 1.164 0 00-.83-.344c-.31 0-.6.12-.821.337L10.156 3.47V2.16c0-.646-.525-1.172-1.172-1.172H1.172A1.176 1.176 0 000 2.161v17.656c0 .647.526 1.172 1.172 1.172h7.812c.647 0 1.172-.525 1.172-1.172v-1.802l3.422-3.422.002-.002 6.077-6.077c.221-.221.343-.516.343-.829 0-.313-.122-.607-.343-.828zM9.375 10.599h-5.86a.39.39 0 000 .78h5.86v8.438a.39.39 0 01-.39.391H1.171a.391.391 0 01-.39-.39V2.16a.39.39 0 01.39-.39h7.812a.39.39 0 01.391.39v8.44zm.781 6.31v-4.616l2.563 2.054-2.563 2.563zm8.948-8.948l-5.829 5.83-3.119-2.499v-6.76l2.86-2.636a.388.388 0 01.564-.011l5.524 5.524a.388.388 0 010 .552z"/><path d="M2.734 2.669a1.173 1.173 0 000 2.344 1.173 1.173 0 000-2.344zm0 1.562a.391.391 0 11.001-.782.391.391 0 010 .782zm0 7.93a1.173 1.173 0 000 2.344 1.173 1.173 0 000-2.344zm0 1.563a.391.391 0 11.001-.782.391.391 0 010 .782zm4.688-1.563c-.646 0-1.172.526-1.172 1.172 0 .646.526 1.172 1.172 1.172.646 0 1.172-.526 1.172-1.172 0-.646-.526-1.172-1.172-1.172zm0 1.563a.391.391 0 110-.782.391.391 0 010 .782zm0 3.242a1.173 1.173 0 000 2.344 1.173 1.173 0 000-2.344zm0 1.562a.391.391 0 110-.782.391.391 0 010 .782zm-4.688-1.562a1.172 1.172 0 000 2.344 1.173 1.173 0 000-2.344zm0 1.562a.391.391 0 11.001-.782.391.391 0 010 .782zM7.422 7.474c-.646 0-1.172.525-1.172 1.172a1.173 1.173 0 002.344 0c0-.647-.526-1.172-1.172-1.172zm0 1.562a.391.391 0 110-.782.391.391 0 010 .782zM5.078 5.13c-.646 0-1.172.526-1.172 1.172 0 .646.526 1.172 1.172 1.172.646 0 1.172-.526 1.172-1.172 0-.646-.526-1.172-1.172-1.172zm0 1.562a.391.391 0 11.001-.782.391.391 0 010 .782zm9.055-3.15a1.173 1.173 0 00-2 .828 1.168 1.168 0 001.172 1.171 1.168 1.168 0 001.17-1.17c0-.314-.121-.608-.342-.83zm-.553 1.104a.391.391 0 11-.552-.553.391.391 0 01.552.553zm.553 5.526a1.173 1.173 0 00-2 .829c0 .313.121.607.343.828.22.222.515.343.828.343.313 0 .607-.121.829-.343.221-.221.343-.515.343-.829 0-.313-.122-.607-.343-.828zm-.553 1.105a.388.388 0 01-.552 0 .389.389 0 010-.553.39.39 0 01.667.277.388.388 0 01-.115.276zm.553-4.42a1.164 1.164 0 00-.829-.343c-.313 0-.607.122-.828.343a1.164 1.164 0 00-.344.828c0 .313.122.608.344.829.22.221.515.343.828.343a1.167 1.167 0 001.172-1.172c0-.313-.122-.607-.343-.828zm-.553 1.105a.388.388 0 01-.552 0 .388.388 0 010-.553.388.388 0 01.552 0 .388.388 0 010 .553z"/></g><defs><clipPath id="ajclip0"><path transform="translate(0 .99)" d="M0 0h20v20H0z"/></clipPath></defs></symbol><symbol viewBox="0 0 20 20" id="facebook" xmlns="http://www.w3.org/2000/svg"><g clip-path="url(#akclip0)"><path d="M12.719 4.347h1.822a.71.71 0 00.708-.708V.71a.709.709 0 00-.708-.708h-2.503A2.97 2.97 0 0011.914 0C11.442 0 9.8.093 8.497 1.292 7.076 2.6 7.212 4.165 7.271 4.55v1.908h-1.81a.709.709 0 00-.71.708v3.15c0 .39.319.707.71.707h1.706v8.268c0 .39.317.708.708.708h3.569a.71.71 0 00.708-.708v-8.227h2.021c.36 0 .663-.27.704-.627l.367-3.19a.709.709 0 00-.703-.79h-2.389v-1.6c0-.332.09-.511.567-.511zm-.965 2.908h2.687l-.347 3.013h-2.34a.398.398 0 00-.399.399v8.536H7.963v-8.577a.398.398 0 00-.398-.398H5.549V7.255h2.12a.4.4 0 00.4-.398V4.518a.4.4 0 00-.007-.068c-.042-.241-.192-1.499.975-2.572C10.127.875 11.515.797 11.914.797a2.05 2.05 0 01.116.002h2.422V3.55H12.72c-.854 0-1.364.489-1.364 1.307v2c0 .22.179.398.399.398z"/><path d="M8.765 13.426a.398.398 0 00-.398.399v.199a.398.398 0 00.796 0v-.2a.398.398 0 00-.398-.398zm0 1.474a.398.398 0 00-.398.399v3.028a.398.398 0 00.796 0v-3.028a.398.398 0 00-.398-.399z"/></g><defs><clipPath id="akclip0"><path d="M0 0h20v20H0z"/></clipPath></defs></symbol><symbol viewBox="0 0 20 21" id="fencing" xmlns="http://www.w3.org/2000/svg"><g clip-path="url(#alclip0)"><path d="M19.885 1.104a.39.39 0 00-.313-.113 8.576 8.576 0 00-5.247 2.469l-8.137 8.137-.604-.604a1.633 1.633 0 00-.474-1.027 1.642 1.642 0 00-2.32 2.32c.285.287.651.444 1.026.475l.604.604L.663 17.12a2.268 2.268 0 000 3.205 2.25 2.25 0 001.602.663 2.25 2.25 0 001.602-.663l3.757-3.757.603.603c.031.388.197.749.475 1.027.31.31.722.48 1.16.48.438 0 .85-.17 1.16-.48.31-.31.481-.722.481-1.16 0-.438-.17-.85-.48-1.16a1.628 1.628 0 00-1.028-.475l-.603-.603 3.865-3.865a.39.39 0 00-.552-.553L8.84 14.25l-.774-.774 3.326-3.326a.39.39 0 00-.553-.552l-3.325 3.326-.27-.27-.504-.504 8.137-8.137a7.796 7.796 0 014.281-2.182 7.796 7.796 0 01-2.181 4.281L15.19 7.897a.39.39 0 00.552.552l1.786-1.785a8.575 8.575 0 002.469-5.247.39.39 0 00-.113-.313zM9.082 15.595a1.647 1.647 0 00-.663.663l-3.69-3.688a1.634 1.634 0 00.664-.663l3.689 3.688zm-5.74-5.076a.86.86 0 011.215 1.215.86.86 0 01-1.215-1.215zm3.73 5.497l-3.757 3.757c-.28.28-.653.435-1.05.435a1.486 1.486 0 01-1.05-2.534l3.757-3.757 2.1 2.1zm3.65 1.023c0 .23-.09.445-.252.608a.854.854 0 01-.608.252.854.854 0 01-.607-.252.854.854 0 01-.252-.608c0-.23.09-.445.252-.608a.854.854 0 01.607-.252c.23 0 .446.09.608.252a.854.854 0 01.252.608z"/><path d="M5.028 16.403a.39.39 0 00.553 0 .39.39 0 000-.553l-.442-.442a.39.39 0 10-.553.553l.442.442zm-1.216 1.216a.39.39 0 00.552 0 .39.39 0 000-.553l-.442-.442a.39.39 0 10-.552.553l.442.442zm-1.216 1.214a.39.39 0 00.553 0 .39.39 0 000-.552l-.442-.442a.39.39 0 00-.553.552l.442.442zm11.628-9.808a.394.394 0 00-.39.391.393.393 0 00.39.39.393.393 0 00.39-.39.393.393 0 00-.113-.276.395.395 0 00-.277-.115z"/></g><defs><clipPath id="alclip0"><path transform="translate(0 .99)" d="M0 0h20v20H0z"/></clipPath></defs></symbol><symbol viewBox="0 0 20 20" id="gift-box" xmlns="http://www.w3.org/2000/svg"><g clip-path="url(#amclip0)"><path d="M18.341 4.434h-2.355c.51-.463.857-1.099.944-1.822.049-.402.008-.778-.118-1.087C16.36.408 14.895-.228 13.48.077a.442.442 0 00-.034.008c-.837.26-1.736 1.12-2.672 2.554-.32.488-.586.957-.781 1.32a18.055 18.055 0 00-.781-1.32C8.274 1.205 7.375.346 6.538.085a3.341 3.341 0 00-2.141.217.392.392 0 00.333.711A2.586 2.586 0 016.322.84c1.135.368 2.395 2.378 3.036 3.594H6.032a2.224 2.224 0 01-2.02-1.278.392.392 0 10-.712.33c.169.365.408.685.698.948H1.642a.392.392 0 00-.392.392v4.036c0 .216.176.392.392.392h.434v10.354c0 .216.176.392.393.392h15.046a.392.392 0 00.392-.392V9.254h.434a.392.392 0 00.392-.392V4.826a.392.392 0 00-.392-.392zM13.661.84c1.033-.215 2.117.223 2.425.98.075.186.098.428.066.7-.132 1.09-1.077 1.914-2.2 1.914h-3.327c.64-1.216 1.9-3.225 3.037-3.594zM2.035 8.47V5.218H6.81V8.47H2.034zm9.583 10.746H2.861V9.254h4.72v7.217a.392.392 0 10.785 0V9.254h3.251v9.962zM12.39 8.47H7.594V5.218h4.795V8.47zm4.734 10.746h-4.721V9.254h4.72v9.962zM17.95 8.47h-4.776V5.218h4.776V8.47z"/><path d="M8.366 18.039a.394.394 0 11-.787 0 .394.394 0 01.787 0zM3.93 1.787a.394.394 0 11-.787 0 .394.394 0 01.787 0z"/></g><defs><clipPath id="amclip0"><path d="M0 0h20v20H0z"/></clipPath></defs></symbol><symbol viewBox="0 0 20 21" id="heart" xmlns="http://www.w3.org/2000/svg"><g clip-path="url(#anclip0)"><path d="M11.068 19.921H8.932a.39.39 0 01-.39-.39v-1.745H6.797a.39.39 0 01-.39-.39V15.65H4.66a.39.39 0 01-.39-.39v-1.745H2.526a.39.39 0 01-.39-.39V11.38H.39a.39.39 0 01-.39-.391V4.583a.39.39 0 01.39-.39h1.745V2.446a.39.39 0 01.391-.39h4.27a.39.39 0 01.391.39v1.745h1.745a.39.39 0 01.39.39v1.745h1.355V4.583a.39.39 0 01.39-.39h1.745V2.446a.39.39 0 01.391-.39h4.271a.39.39 0 01.39.39v1.745h1.745a.39.39 0 01.391.39v1.446a.39.39 0 01-.781 0V4.973h-1.745a.39.39 0 01-.39-.39V2.838h-3.49v1.745a.39.39 0 01-.39.39h-1.746v1.745a.39.39 0 01-.39.39H8.932a.39.39 0 01-.39-.39V4.973H6.797a.39.39 0 01-.39-.39V2.838h-3.49v1.745a.39.39 0 01-.391.39H.781v5.625h1.745a.39.39 0 01.39.39v1.746h1.745a.39.39 0 01.391.39v1.745h1.745a.39.39 0 01.39.39v1.746h1.745a.39.39 0 01.39.39l.001 1.745h1.354v-1.745a.39.39 0 01.39-.39h1.745V15.26a.39.39 0 01.391-.39h1.745v-1.746a.39.39 0 01.39-.39h1.745v-1.745a.39.39 0 01.391-.39h1.745V9.543a.39.39 0 01.781 0v1.445a.39.39 0 01-.39.39h-1.745v1.745a.39.39 0 01-.391.391h-1.745v1.745a.39.39 0 01-.39.39h-1.745v1.745a.39.39 0 01-.39.39h-1.746v1.746a.39.39 0 01-.39.39z"/><path d="M19.61 8.177a.394.394 0 01-.391-.39.393.393 0 01.39-.391.393.393 0 01.391.39.393.393 0 01-.39.39z"/></g><defs><clipPath id="anclip0"><path transform="translate(0 .99)" d="M0 0h20v20H0z"/></clipPath></defs></symbol><symbol viewBox="0 0 20 20" id="home" xmlns="http://www.w3.org/2000/svg"><path d="M19.85 7.99L10.24.503a.39.39 0 00-.48 0L.15 7.99a.39.39 0 00.24.7h2.033v10.498a.39.39 0 00.39.391h5.503a.39.39 0 000-.781H3.204v-10.5a.39.39 0 00-.39-.39H1.528L10 1.307l8.472 6.6h-1.286a.39.39 0 00-.39.39v10.5h-5.043a.39.39 0 000 .781h5.433a.39.39 0 00.391-.39v-10.5h2.032a.39.39 0 00.24-.699z"/><path d="M13.192 13.796V8.192a.39.39 0 00-.39-.39H7.198a.39.39 0 00-.39.39v5.604c0 .215.175.39.39.39h5.604a.39.39 0 00.39-.39zm-.781-3.173h-2.04v-2.04h2.04v2.04zm-2.782-2.04v2.04h-2.04v-2.04h2.04zm-2.04 2.782h2.04v2.04h-2.04v-2.04zm2.782 2.04v-2.04h2.04v2.04h-2.04zm.029 5.633a.393.393 0 00-.51-.211.393.393 0 00-.212.51.393.393 0 00.51.21.394.394 0 00.211-.509z"/></symbol><symbol viewBox="0 0 20 20" id="instagram" xmlns="http://www.w3.org/2000/svg"><path d="M14.14 0H5.86A5.866 5.866 0 000 5.86v8.28A5.866 5.866 0 005.86 20h8.28A5.866 5.866 0 0020 14.14V5.86A5.866 5.866 0 0014.14 0zm5.079 14.14c0 2.8-2.278 5.079-5.078 5.079H5.859A5.084 5.084 0 01.781 14.14V5.859A5.085 5.085 0 015.86.781h8.282c2.8 0 5.078 2.278 5.078 5.078v8.282z"/><path d="M14.14 1.719H5.86a4.145 4.145 0 00-4.141 4.14v8.282a4.145 4.145 0 004.14 4.14h2.383a.39.39 0 000-.781H5.86a3.363 3.363 0 01-3.36-3.36V5.86A3.363 3.363 0 015.86 2.5h8.28a3.363 3.363 0 013.36 3.36v8.28a3.363 3.363 0 01-3.36 3.36h-2.356a.39.39 0 100 .781h2.357a4.145 4.145 0 004.14-4.14V5.859a4.145 4.145 0 00-4.14-4.14z"/><path d="M10.276 17.615a.394.394 0 00-.552 0 .393.393 0 000 .552.393.393 0 00.552 0 .394.394 0 000-.552zM6.868 6.083a.39.39 0 00-.552-.018l-.018.016a.39.39 0 00.537.568l.015-.014a.39.39 0 00.018-.552z"/><path d="M10 4.61a5.41 5.41 0 00-2.47.597.39.39 0 00.359.694A4.615 4.615 0 0114.609 10 4.615 4.615 0 0110 14.61a4.615 4.615 0 01-4.011-6.882.39.39 0 00-.68-.386A5.392 5.392 0 0010 15.39 5.397 5.397 0 0015.39 10 5.397 5.397 0 0010 4.61z"/><path d="M10 6.484A3.52 3.52 0 006.484 10 3.52 3.52 0 0010 13.516 3.52 3.52 0 0013.516 10 3.52 3.52 0 0010 6.484zm0 6.25A2.737 2.737 0 017.266 10 2.737 2.737 0 0110 7.266 2.738 2.738 0 0112.734 10 2.738 2.738 0 0110 12.735zm5.127-9.345a1.485 1.485 0 000 2.969c.818 0 1.484-.666 1.484-1.485 0-.818-.666-1.484-1.484-1.484zm0 2.187a.704.704 0 11.002-1.408.704.704 0 01-.002 1.408z"/></symbol><symbol viewBox="0 0 20 21" id="like" xmlns="http://www.w3.org/2000/svg"><path d="M19.56 14.942a1.415 1.415 0 00-.469-2.344 1.416 1.416 0 00-1.213-2.141h-5.771l.79-.79c.438-.439.692-1.02.715-1.64a2.442 2.442 0 00-.589-1.688.897.897 0 00-1.244-.108L8.896 8.603a7.382 7.382 0 00-1.611 1.853H.39a.39.39 0 000 .782h7.117a.39.39 0 00.339-.197 6.605 6.605 0 011.546-1.834l2.883-2.373a.112.112 0 01.154.013 1.676 1.676 0 01-.086 2.267l-.86.86a.738.738 0 00-.16.807.738.738 0 00.683.456h1.42a1.41 1.41 0 00.29 1.657 1.41 1.41 0 000 2.048 1.41 1.41 0 000 2.047 1.41 1.41 0 00-.29 1.657h-3.59c-.65 0-1.265-.247-1.734-.696a.39.39 0 10-.54.565 3.276 3.276 0 002.274.912h8.044a1.416 1.416 0 001.212-2.141 1.41 1.41 0 00.469-2.344zm-5.501-3.071c0-.35.284-.633.633-.633h3.187a.634.634 0 010 1.266h-3.187a.634.634 0 01-.633-.633zm0 2.047c0-.35.284-.633.633-.633h3.894a.634.634 0 010 1.266h-3.894a.634.634 0 01-.633-.633zm3.82 4.728h-3.187a.634.634 0 010-1.266h3.187a.634.634 0 010 1.266zm.707-2.047h-3.894a.634.634 0 010-1.267h3.894a.634.634 0 010 1.267zM4.315 17.84H.391a.39.39 0 100 .782h3.924a.39.39 0 000-.781zM14.456 5.248l.676.488-.259.793a.75.75 0 00.277.852.76.76 0 00.447.148.76.76 0 00.45-.149l.674-.491.67.487a.75.75 0 00.896 0 .75.75 0 00.275-.854l-.258-.786.674-.489a.75.75 0 00.278-.852.75.75 0 00-.725-.526h-.837l-.256-.79a.75.75 0 00-.725-.527.75.75 0 00-.725.528l-.253.789h-.833a.75.75 0 00-.725.527.75.75 0 00.28.852zm1.563-.598c.17 0 .32-.11.372-.271l.322-1.002.325 1.003a.39.39 0 00.372.27h1.06l-.855.62a.39.39 0 00-.142.438l.328 1-.851-.618a.39.39 0 00-.46 0l-.855.623.328-1.006a.39.39 0 00-.143-.438l-.858-.62h1.057zM6.073 17.84a.393.393 0 00-.277.667.394.394 0 00.553 0 .392.392 0 000-.552.393.393 0 00-.276-.114z"/></symbol><symbol viewBox="0 0 20 21" id="phone" xmlns="http://www.w3.org/2000/svg"><path d="M17.605.99H2.395A2.397 2.397 0 000 3.383v15.21a2.397 2.397 0 002.395 2.395h15.21A2.397 2.397 0 0020 18.595V3.384A2.397 2.397 0 0017.605.989zm1.598 17.605a1.6 1.6 0 01-1.598 1.598H2.395a1.6 1.6 0 01-1.598-1.598V3.384a1.6 1.6 0 011.598-1.598h15.21a1.6 1.6 0 011.598 1.598v15.21z"/></symbol><symbol viewBox="0 0 20 20" id="pinterest" xmlns="http://www.w3.org/2000/svg"><path d="M15.864 2.079C14.468.739 12.541 0 10.438 0 7.246 0 5.275 1.316 4.183 2.42 2.831 3.79 2.055 5.61 2.055 7.417c0 2.305.987 4.084 2.639 4.757.148.061.3.092.452.092.327 0 .615-.142.812-.383l-.746 3.16a15.353 15.353 0 00-.3 2.362c-.064 1.541.233 2.378.907 2.56.09.024.18.036.269.036.632 0 1.247-.605 1.831-1.803.428-.877.742-1.869.827-2.177.068-.248.262-1.007.453-1.758a4.21 4.21 0 002.242.665c1.878 0 3.566-.844 4.752-2.375 1.13-1.458 1.751-3.48 1.751-5.692 0-1.77-.758-3.512-2.08-4.781zm-10.3 5.604c0-2.15 1.604-4.433 4.578-4.433 2.354 0 3.76 1.273 3.76 3.405 0 1.413-.3 2.714-.846 3.664-.35.61-.956 1.337-1.851 1.337-.348 0-.656-.138-.847-.378-.177-.224-.231-.507-.158-.82.112-.472.266-.969.415-1.453.284-.92.552-1.788.552-2.52 0-1.365-.886-2.318-2.155-2.318-1.56 0-2.781 1.531-2.78 3.487 0 .804.188 1.437.309 1.758l-.066.278-.048.205c-.054-.206-.169-.382-.323-.563-.373-.442-.54-.95-.54-1.65zm9.999 4.381c-1.032 1.332-2.496 2.066-4.122 2.066-.804 0-1.667-.332-2.201-.846a.399.399 0 00-.663.189 203.215 203.215 0 01-.6 2.335c-.002.01-.299 1.065-.774 2.04-.53 1.085-.965 1.403-1.177 1.346-.134-.036-.373-.45-.318-1.757.04-.949.218-1.954.279-2.212L7.25 9.873l.094-.4a.398.398 0 00-.02-.245 4.192 4.192 0 01-.297-1.574c0-1.509.871-2.69 1.984-2.69.825 0 1.359.597 1.359 1.522 0 .61-.251 1.424-.518 2.287-.152.494-.31 1.004-.428 1.503-.13.549-.02 1.08.309 1.496.342.433.878.68 1.47.68 1.011 0 1.89-.6 2.543-1.737.614-1.068.951-2.51.951-4.06 0-1.266-.43-2.33-1.246-3.075-.806-.738-1.95-1.127-3.31-1.127-2.037 0-3.296.906-3.994 1.666a5.325 5.325 0 00-1.38 3.564c0 .888.23 1.575.729 2.164.174.206.202.268.136.514a.53.53 0 00-.002.008l-.01.035c-.052.21-.16.645-.208.824-.023.09-.09.24-.267.24a.397.397 0 01-.15-.032c-1.343-.547-2.144-2.05-2.144-4.02 0-1.598.692-3.215 1.898-4.435C5.734 1.984 7.52.797 10.437.797c1.896 0 3.627.66 4.874 1.856 1.167 1.12 1.835 2.653 1.835 4.207 0 2.037-.562 3.885-1.584 5.204z"/><path d="M9.316 8.096a.398.398 0 00-.495.269l-.438 1.481a.398.398 0 00.764.226l.438-1.481a.398.398 0 00-.27-.495zm.399-1.346a.398.398 0 00-.495.268l-.059.2a.398.398 0 00.764.226l.059-.2a.398.398 0 00-.27-.495z"/></symbol><symbol viewBox="0 0 20 21" id="play" xmlns="http://www.w3.org/2000/svg"><g clip-path="url(#atclip0)"><path d="M12.15 13.15a.46.46 0 00-.857.01l-1.175 3.08a.39.39 0 10.73.279l.197-.516h1.346l.194.515a.39.39 0 10.731-.276l-1.163-3.081a.233.233 0 00-.004-.01zm-.808 2.072l.38-.994.374.994h-.754zm-3.527-2.358a.39.39 0 00-.39.39v3.123c0 .216.175.39.39.39H8.91a.39.39 0 000-.78h-.704v-2.732a.39.39 0 00-.39-.39zm6.857 3.906h.001a.39.39 0 00.39-.39l.004-1.48.927-1.424a.39.39 0 00-.654-.426l-.664 1.018-.67-1.027a.39.39 0 10-.654.428l.934 1.43-.004 1.48a.39.39 0 00.39.392z"/><path d="M12.15 13.15a.46.46 0 00-.857.01l-1.175 3.08a.39.39 0 10.73.279l.197-.516h1.346l.194.515a.39.39 0 10.731-.276l-1.163-3.081a.233.233 0 00-.004-.01zm-.808 2.072l.38-.994.374.994h-.754zm-3.527-2.358a.39.39 0 00-.39.39v3.123c0 .216.175.39.39.39H8.91a.39.39 0 000-.78h-.704v-2.732a.39.39 0 00-.39-.39zm6.857 3.906h.001a.39.39 0 00.39-.39l.004-1.48.927-1.424a.39.39 0 00-.654-.426l-.664 1.018-.67-1.027a.39.39 0 10-.654.428l.934 1.43-.004 1.48a.39.39 0 00.39.392z"/><path d="M18.047 1.77H1.953A1.955 1.955 0 000 3.725v14.53c0 1.078.876 1.954 1.953 1.954h16.094A1.955 1.955 0 0020 18.255V3.724a1.955 1.955 0 00-1.953-1.953zm1.172 16.485c0 .646-.526 1.172-1.172 1.172H1.953a1.173 1.173 0 01-1.172-1.172V3.724c0-.647.526-1.172 1.172-1.172h16.094c.646 0 1.172.525 1.172 1.172v14.53z"/><path d="M17.89 3.49h-6.132a.39.39 0 000 .78H17.5v13.438h-15V4.271h5.742a.39.39 0 000-.782H2.11a.39.39 0 00-.39.39V18.1c0 .215.175.39.39.39h15.782a.39.39 0 00.39-.39V3.879a.39.39 0 00-.39-.39z"/><path d="M11.123 7.911L10.08 7.31a.928.928 0 00-.938 0 .928.928 0 00-.469.812v1.205c0 .339.176.642.47.812a.936.936 0 00.937 0l1.043-.603a.928.928 0 00.47-.812.928.928 0 00-.47-.812zm-.39.947l-1.044.603a.151.151 0 01-.156 0 .151.151 0 01-.078-.135V8.12a.159.159 0 01.157-.157.15.15 0 01.077.021l1.044.603c.068.04.078.101.078.135s-.01.096-.078.135z"/><path d="M10 5.208a3.52 3.52 0 00-3.516 3.516A3.52 3.52 0 0010 12.239a3.52 3.52 0 003.516-3.515A3.52 3.52 0 0010 5.208zm0 6.25a2.737 2.737 0 01-2.734-2.734A2.737 2.737 0 0110 5.989a2.738 2.738 0 012.734 2.735A2.737 2.737 0 0110 11.458zm0-7.188a.394.394 0 00.39-.39.394.394 0 00-.39-.39.394.394 0 00-.39.39.394.394 0 00.39.39zm-4.803 8.594h-.864a.39.39 0 00-.39.39v3.126a.39.39 0 00.78 0v-.969l.474-.002c.711 0 1.29-.57 1.29-1.272 0-.702-.579-1.273-1.29-1.273zm0 1.764c-.11 0-.3 0-.473.002v-.985h.473c.276 0 .509.226.509.492a.507.507 0 01-.509.491z"/><path d="M18.047 1.77H1.953A1.955 1.955 0 000 3.725v14.53c0 1.078.876 1.954 1.953 1.954h16.094A1.955 1.955 0 0020 18.255V3.724a1.955 1.955 0 00-1.953-1.953zm1.172 16.485c0 .646-.526 1.172-1.172 1.172H1.953a1.173 1.173 0 01-1.172-1.172V3.724c0-.647.526-1.172 1.172-1.172h16.094c.646 0 1.172.525 1.172 1.172v14.53z"/><path d="M17.89 3.49h-6.132a.39.39 0 000 .78H17.5v13.438h-15V4.271h5.742a.39.39 0 000-.782H2.11a.39.39 0 00-.39.39V18.1c0 .215.175.39.39.39h15.782a.39.39 0 00.39-.39V3.879a.39.39 0 00-.39-.39z"/><path d="M11.123 7.911l-1.044-.602a.928.928 0 00-.937 0 .928.928 0 00-.47.812v1.205c0 .339.176.642.47.812a.936.936 0 00.937 0l1.044-.603a.928.928 0 00.469-.812.928.928 0 00-.47-.812zm-.39.947l-1.045.603a.151.151 0 01-.156 0 .151.151 0 01-.078-.135V8.12a.159.159 0 01.157-.157.15.15 0 01.077.021l1.044.603c.068.04.078.101.078.135s-.01.096-.078.135z"/><path d="M10 5.208a3.52 3.52 0 00-3.516 3.516A3.52 3.52 0 0010 12.239a3.52 3.52 0 003.516-3.515A3.52 3.52 0 0010 5.208zm0 6.25a2.737 2.737 0 01-2.734-2.734A2.737 2.737 0 0110 5.989a2.738 2.738 0 012.734 2.735A2.737 2.737 0 0110 11.458zm0-7.188a.394.394 0 00.39-.39.394.394 0 00-.39-.39.394.394 0 00-.39.39.394.394 0 00.39.39z"/></g><defs><clipPath id="atclip0"><path transform="translate(0 .99)" d="M0 0h20v20H0z"/></clipPath></defs></symbol><symbol viewBox="0 0 20 21" id="poker-cards" xmlns="http://www.w3.org/2000/svg"><g clip-path="url(#auclip0)"><path d="M3.644 4.993a.39.39 0 00-.703.189L2.69 7.514a.39.39 0 00.777.083l.142-1.327.787 1.078a.39.39 0 00.631-.46L3.644 4.992z"/><path d="M18.828 3.958h-6.604l-.563-2.1a1.164 1.164 0 00-.545-.711 1.164 1.164 0 00-.89-.117L.87 3.537a1.164 1.164 0 00-.712.546 1.164 1.164 0 00-.117.89l3.802 14.186c.08.302.275.555.546.712a1.165 1.165 0 00.889.117l2.692-.722v.551c0 .647.526 1.172 1.172 1.172h9.687c.646 0 1.172-.525 1.172-1.172v-5.585a.39.39 0 10-.781 0v5.585a.39.39 0 01-.39.391H9.14a.391.391 0 01-.39-.39V5.13a.39.39 0 01.39-.39h9.687a.39.39 0 01.39.39v5.586a.39.39 0 10.782 0V5.13c0-.646-.526-1.172-1.172-1.172zm-10.86 8.127a1.22 1.22 0 01-1.462.195 1.212 1.212 0 01-.443-1.654l1.272-2.203.634.366v3.296zm0-6.955v2.757l-.58-.336a.39.39 0 00-.534.143l-1.467 2.542c-.266.46-.337.997-.2 1.51a1.996 1.996 0 001.928 1.48c.295 0 .587-.066.854-.194v5.425l-2.894.776a.388.388 0 01-.479-.276L.796 4.77a.391.391 0 01.275-.478l9.357-2.508a.388.388 0 01.479.277l.508 1.897H9.141c-.646 0-1.172.526-1.172 1.172z"/><path d="M12.067 8.775a.39.39 0 00.224-.505l-.846-2.187a.39.39 0 00-.729 0L9.871 8.27a.39.39 0 00.728.282l.482-1.245.481 1.245a.39.39 0 00.505.223zm4.457 10.09a.39.39 0 00.729 0l.845-2.188a.39.39 0 10-.728-.282l-.482 1.245-.481-1.245a.39.39 0 10-.729.282l.846 2.188zm-2.816-3.42a.39.39 0 00.552 0l2.076-2.075a1.994 1.994 0 000-2.816 1.98 1.98 0 00-2.352-.347 1.98 1.98 0 00-2.351.347 1.994 1.994 0 000 2.816l2.075 2.075zm-1.523-4.339a1.213 1.213 0 011.569-.122c.137.1.323.1.46 0a1.218 1.218 0 011.57.122c.471.472.471 1.24 0 1.712l-1.8 1.799-1.799-1.8a1.212 1.212 0 010-1.71zm7.425.977a.393.393 0 00-.39.39.393.393 0 00.39.391.393.393 0 00.39-.39.393.393 0 00-.39-.391z"/></g><defs><clipPath id="auclip0"><path transform="translate(0 .99)" d="M0 0h20v20H0z"/></clipPath></defs></symbol><symbol viewBox="0 0 20 21" id="return-to-the-past" xmlns="http://www.w3.org/2000/svg"><g clip-path="url(#avclip0)"><path d="M17.071 3.918A9.935 9.935 0 0010 .99a9.954 9.954 0 00-3.39.59l-.223-.383a.39.39 0 00-.676.002L4.166 3.89a.39.39 0 00.339.585l3.105-.008a.39.39 0 00.336-.587l-.133-.23A7.644 7.644 0 0110 3.333c4.222 0 7.656 3.435 7.656 7.656 0 4.222-3.434 7.656-7.656 7.656-4.222 0-7.656-3.434-7.656-7.656a.39.39 0 00-.39-.39H.39a.39.39 0 00-.391.39 9.935 9.935 0 002.929 7.071A9.934 9.934 0 0010 20.99a9.935 9.935 0 007.071-2.93A9.935 9.935 0 0020 10.99a9.935 9.935 0 00-2.929-7.072zM10 20.208c-4.952 0-9.005-3.925-9.21-8.828h.781a8.376 8.376 0 002.463 5.575A8.382 8.382 0 0010 19.427a8.382 8.382 0 005.966-2.472 8.382 8.382 0 002.472-5.966 8.382 8.382 0 00-2.472-5.966A8.382 8.382 0 0010 2.552a8.41 8.41 0 00-2.9.512.39.39 0 00-.204.563l.035.06-1.751.005.871-1.518.05.084a.39.39 0 00.482.167A9.174 9.174 0 0110 1.77c5.083 0 9.219 4.135 9.219 9.218 0 5.084-4.136 9.219-9.219 9.219z"/><path d="M14.806 6.183a.392.392 0 10.003.003l-.003-.003z"/><path d="M13.46 5.582a.39.39 0 00-.152-.532 6.845 6.845 0 00-4.202-.799 6.734 6.734 0 00-3.912 1.932 6.752 6.752 0 00-1.99 4.806c0 1.816.706 3.523 1.99 4.806A6.752 6.752 0 0010 17.786a6.752 6.752 0 004.806-1.99 6.785 6.785 0 001.028-8.297.39.39 0 00-.67.402 6.005 6.005 0 01-.91 7.342A5.977 5.977 0 0110 17.005a5.976 5.976 0 01-4.254-1.762 5.976 5.976 0 01-1.762-4.254c0-1.607.626-3.117 1.762-4.253a6.038 6.038 0 017.182-1.004.39.39 0 00.531-.15z"/><path d="M10.396 6.321v-.293a.39.39 0 00-.782 0v.293a.39.39 0 10.781 0zm-.792 9.336v.293a.39.39 0 00.782 0v-.293a.39.39 0 10-.782 0zm4.673-4.663c0 .216.175.39.391.39h.293a.39.39 0 000-.78h-.293a.39.39 0 00-.39.39zm-9.237-.4a.39.39 0 000 .781h.292a.39.39 0 100-.781h-.293zm7.304.396a.39.39 0 00-.39-.391h-1.792L7.233 7.67a.39.39 0 10-.552.552l3.043 3.043a.39.39 0 00.276.115h1.953a.39.39 0 00.39-.39z"/></g><defs><clipPath id="avclip0"><path transform="translate(0 .99)" d="M0 0h20v20H0z"/></clipPath></defs></symbol><symbol viewBox="0 0 20 21" id="roulette" xmlns="http://www.w3.org/2000/svg"><g clip-path="url(#awclip0)"><path d="M12.734 5.911a.39.39 0 100 .782.39.39 0 000-.782z"/><path d="M10 .99c-5.407 0-10 4.619-10 10 0 5.399 4.612 10 10 10 3.582 0 6.82-2.033 8.59-4.984A9.77 9.77 0 0020 10.989c0-5.405-4.617-10-10-10zm9.21 9.609h-1.683a7.411 7.411 0 00-.854-3.06l1.438-.83a8.992 8.992 0 011.099 3.89zm-1.502-4.56l-1.435.828a7.796 7.796 0 00-2.15-2.151l.828-1.435a9.668 9.668 0 012.757 2.758zm-7.317-4.26a8.992 8.992 0 013.89 1.1l-.83 1.437a7.41 7.41 0 00-3.06-.854V1.78zm-.782 0v1.683a7.411 7.411 0 00-3.06.854l-.83-1.437a8.991 8.991 0 013.89-1.1zM5.05 3.282l.829 1.435a7.798 7.798 0 00-2.151 2.15L2.292 6.04A9.668 9.668 0 015.05 3.28zM1.89 6.708l1.438.83c-.505.955-.797 2-.854 3.06H.79a8.993 8.993 0 011.1-3.89zM.79 11.38h1.683a7.41 7.41 0 00.854 3.06l-1.438.83A8.992 8.992 0 01.79 11.38zm1.502 4.56l1.435-.828a7.797 7.797 0 002.15 2.15l-.828 1.435a9.666 9.666 0 01-2.757-2.757zm7.317 4.259a8.992 8.992 0 01-3.89-1.1l.83-1.436c.955.505 2 .796 3.06.854v1.682zm-6.367-9.21c0-3.674 3.112-6.758 6.758-6.758 3.678 0 6.758 3.12 6.758 6.758 0 3.663-3.098 6.758-6.758 6.758-3.663 0-6.758-3.098-6.758-6.758zm7.149 9.21v-1.682a7.411 7.411 0 003.06-.854l.83 1.437a8.99 8.99 0 01-3.89 1.099zm4.56-1.502l-.829-1.434a7.799 7.799 0 002.151-2.151l1.435.828a9.669 9.669 0 01-2.757 2.757zm3.16-3.427l-1.438-.83a7.428 7.428 0 00.854-3.064h1.683a9.009 9.009 0 01-1.1 3.894z"/><path d="M15.616 9.315a5.894 5.894 0 00-1.35-2.34.39.39 0 10-.57.536 5.11 5.11 0 011.171 2.028.39.39 0 10.749-.224zm-1.71.502c-.509 0-.943.327-1.104.782h-.888a1.959 1.959 0 00-1.523-1.524v-.887A1.173 1.173 0 0010 5.91a1.173 1.173 0 00-.392 2.277v.887A1.959 1.959 0 008.086 10.6h-.888a1.173 1.173 0 00-2.277.39 1.173 1.173 0 002.277.39h.888a1.959 1.959 0 001.523 1.524v.888a1.173 1.173 0 00.39 2.277 1.173 1.173 0 00.392-2.277v-.888a1.959 1.959 0 001.523-1.523h.888a1.173 1.173 0 101.104-1.563zM6.094 11.38a.391.391 0 110-.782.391.391 0 010 .782zM10 6.692a.391.391 0 110 .782.391.391 0 010-.782zm0 8.594a.391.391 0 110-.782.391.391 0 010 .782zm0-3.125a1.173 1.173 0 01-1.172-1.172c0-.646.526-1.172 1.172-1.172.646 0 1.172.526 1.172 1.172 0 .646-.526 1.172-1.172 1.172zm3.906-.781a.391.391 0 11.001-.782.391.391 0 010 .782z"/></g><defs><clipPath id="awclip0"><path transform="translate(0 .99)" d="M0 0h20v20H0z"/></clipPath></defs></symbol><symbol viewBox="0 0 20 20" id="search" xmlns="http://www.w3.org/2000/svg"><g clip-path="url(#axclip0)"><path d="M14.678 12.93a8.125 8.125 0 10-1.747 1.747c.037.05.077.098.122.144l4.812 4.812a1.25 1.25 0 001.769-1.767l-4.813-4.813a1.258 1.258 0 00-.143-.125v.002zM15 8.125a6.875 6.875 0 11-13.75 0 6.875 6.875 0 0113.75 0z"/></g><defs><clipPath id="axclip0"><path d="M0 0h20v20H0z"/></clipPath></defs></symbol><symbol viewBox="0 0 20 21" id="shake-hand" xmlns="http://www.w3.org/2000/svg"><g clip-path="url(#ayclip0)"><path d="M19.333 10.242l-1.155 1.156a.39.39 0 00-.115.276c0 .828-.322 1.606-.907 2.19l-6.172 6.173a.588.588 0 01-.871-.786l3.574-3.574a.39.39 0 000-.553h-.002v-.002a.39.39 0 00-.553 0l-4.31 4.314a.583.583 0 01-.83 0 .588.588 0 01-.041-.785l4.355-4.355a.39.39 0 10-.553-.553l-5.07 5.07a.584.584 0 01-.83 0 .584.584 0 010-.83l5.073-5.07a.39.39 0 10-.552-.552l-4.529 4.524a.588.588 0 01-.785-.871l1.482-1.482a.39.39 0 00-.553-.553l-.758.758-1.506-1.506A7.56 7.56 0 011.758 9.8a.39.39 0 00-.102-.177l-.99-.99a.39.39 0 00-.552.552l.916.916a8.343 8.343 0 002.143 3.684l1.506 1.506-.172.171a1.36 1.36 0 00-.4.968 1.36 1.36 0 00.963 1.307c-.111.2-.17.426-.17.662 0 .365.142.709.4.967.26.259.603.401.968.401.312 0 .607-.103.847-.293a1.36 1.36 0 001.292.917c.321 0 .626-.11.87-.313a1.364 1.364 0 001.291.912c.35 0 .701-.133.968-.4l.5-.5.35.35c.266.267.617.4.967.4a1.365 1.365 0 001.358-1.197 1.364 1.364 0 001.6-1.348v-.015h.015a1.364 1.364 0 001.369-1.368 1.39 1.39 0 00-.014-.196c.31-.032.598-.17.822-.393.259-.258.4-.602.4-.968 0-.365-.141-.71-.4-.968l-.413-.413a3.845 3.845 0 00.75-2.134l1.045-1.044a.39.39 0 10-.552-.553zm-5.564 9.645a.588.588 0 01-.831 0l-.346-.346.83-.831.199.198.148.148a.583.583 0 010 .83zm1.761-1.593a.588.588 0 01-1.003.415l-.206-.206-.346-.345.83-.831.553.552a.584.584 0 01.172.415zm1.211-.967a.588.588 0 01-.83 0l-.553-.553.831-.83.552.552a.583.583 0 010 .83zm1.21-1.557a.583.583 0 01-.831 0l-.378-.379.83-.83.379.378a.584.584 0 010 .83z"/><path d="M4.635 6.178a.39.39 0 00.276.114h2.016c1.458 0 2.884.506 4.015 1.425l3.174 2.578a2.558 2.558 0 01-2.669.155l-2.16-1.17a.39.39 0 00-.299-.03 7.248 7.248 0 01-4.173.011l-.039-.011a.39.39 0 10-.222.749l.038.011c1.46.434 3 .445 4.465.034l.563.305-1.146 1.145a.39.39 0 10.553.553l1.31-1.31.738.4a3.294 3.294 0 002.06.366 3.297 3.297 0 001.87-.938.39.39 0 00-.03-.58l-3.153-2.56a5.994 5.994 0 013.126-.9.39.39 0 00.273-.114l4.665-4.665a.39.39 0 10-.553-.552L14.78 5.747c-1.29.039-2.53.44-3.602 1.165a7.173 7.173 0 00-4.25-1.401H5.072L.667 1.105a.39.39 0 00-.553.552l4.521 4.52zm2.596 6.56a.393.393 0 000 .552.394.394 0 00.667-.276.394.394 0 00-.39-.391.394.394 0 00-.277.115z"/></g><defs><clipPath id="ayclip0"><path transform="translate(0 .99)" d="M0 0h20v20H0z"/></clipPath></defs></symbol><symbol viewBox="0 0 20 20" id="slot-machine" xmlns="http://www.w3.org/2000/svg"><path d="M5.078 17.656a.39.39 0 100 .782.39.39 0 000-.782zm-1.245-7.103a.39.39 0 00-.317-.162H1.953a.39.39 0 000 .78h1.02l-.61 1.83a.39.39 0 00.742.248l.781-2.344a.39.39 0 00-.054-.352zm4.687 0a.39.39 0 00-.317-.162H6.641a.39.39 0 000 .78h1.02l-.61 1.83a.39.39 0 00.741.248l.782-2.344a.39.39 0 00-.054-.352zm4.687 0a.39.39 0 00-.316-.162h-1.563a.39.39 0 000 .78h1.02l-.61 1.83a.39.39 0 10.742.248l.781-2.344a.39.39 0 00-.053-.352zm-3.441 7.103H6.64a.39.39 0 000 .782h3.125a.39.39 0 100-.782z"/><path d="M18.047 6.484a1.955 1.955 0 00-1.953 1.954c0 .616.294 1.195.781 1.561v4.415h-2.031V7.422C14.844 3.329 11.514 0 7.422 0 3.329 0 0 3.33 0 7.422v11.406C0 19.474.526 20 1.172 20h12.5c.646 0 1.172-.526 1.172-1.172v-1.172h2.422a1.955 1.955 0 001.953-1.953V10A1.96 1.96 0 0020 8.437a1.955 1.955 0 00-1.953-1.953zM.78 9.492h3.906v4.922H.781V9.492zm10.156 9.727h-7.03v-2.344h7.03v2.344zm3.126-1.953v1.562a.39.39 0 01-.391.39h-1.953v-2.734a.39.39 0 00-.39-.39H3.515a.39.39 0 00-.391.39v2.735H1.172a.391.391 0 01-.39-.39v-3.634h13.279v2.07zm-8.594-2.852V9.492h3.906v4.922H5.469zm8.593 0h-3.906V9.492h3.906v4.922zm0-5.703H.783V7.42A6.648 6.648 0 017.423.78a6.648 6.648 0 016.64 6.64v1.29zm2.813 8.164h-2.031v-1.68h2.031v1.68zm1.563-1.172c0 .51-.327.944-.782 1.105v-4.855h.782v3.75zm0-4.531h-.782v-.821a1.958 1.958 0 00.782 0v.82zm.195-1.72a1.174 1.174 0 01-1.758-1.014c0-.647.526-1.172 1.172-1.172a1.173 1.173 0 01.586 2.187z"/><path d="M7.422 1.563a5.866 5.866 0 00-5.86 5.859c0 .216.175.39.391.39h10.938a.39.39 0 00.39-.39 5.866 5.866 0 00-5.86-5.86zM5.859 7.03h-3.5a5.085 5.085 0 015.063-4.687 5.085 5.085 0 015.063 4.687H5.86z"/><path d="M7.422 3.125a.39.39 0 00-.39.39v1.563a.39.39 0 00.78 0V3.516a.39.39 0 00-.39-.391zM6.04 5.488L4.937 4.384a.39.39 0 00-.553.552l1.105 1.105a.39.39 0 00.553 0 .39.39 0 000-.553zm4.42-1.105a.39.39 0 00-.552 0L8.803 5.488a.39.39 0 00.553.553l1.104-1.105a.39.39 0 000-.553z"/></symbol><symbol viewBox="0 0 18 18" id="star" xmlns="http://www.w3.org/2000/svg"><path d="M9 0l2.1 6.9H18l-5.6 4.2 2.1 6.9L9 13.8 3.4 18l2.1-6.9L0 6.9h6.9L9 0z"/></symbol><symbol viewBox="0 0 20 21" id="sword" xmlns="http://www.w3.org/2000/svg"><g clip-path="url(#bbclip0)"><path d="M5.305 5.742a.39.39 0 10-.553.55.39.39 0 00.553-.55z"/><path d="M19.657 17.331a1.164 1.164 0 00-.829-.343c-.207 0-.406.054-.581.154a1.175 1.175 0 00-1.011-.704 1.164 1.164 0 00-.341-.764 1.163 1.163 0 00-.764-.341 1.161 1.161 0 00-.665-.992l.324-.324c.221-.22.343-.515.343-.829 0-.313-.122-.607-.343-.829a1.164 1.164 0 00-.829-.343c-.178 0-.35.04-.505.114l-1.141-1.14 5.739-5.74a.391.391 0 00.104-.189l.829-3.59v-.005a.414.414 0 00.008-.043v-.002a.39.39 0 00.002-.045l-.001-.013a.395.395 0 00-.003-.032l-.002-.013a.397.397 0 00-.008-.04l-.002-.004a.38.38 0 00-.015-.043l-.003-.007a.4.4 0 00-.043-.073l-.007-.01a.374.374 0 00-.065-.065l-.01-.007a.386.386 0 00-.073-.043c-.003 0-.005-.002-.007-.003a.376.376 0 00-.044-.015l-.002-.001a.38.38 0 00-.041-.009l-.012-.002a.388.388 0 00-.034-.003h-.012l-.045.001h-.001a.393.393 0 00-.044.008h-.005l-3.59.829a.391.391 0 00-.189.104L10 7.675 4.257 1.932a.39.39 0 00-.188-.104L.479.999H.473A.4.4 0 00.384.99H.372a.393.393 0 00-.035.003L.326.995a.385.385 0 00-.041.009H.282a.394.394 0 00-.044.016l-.006.003a.387.387 0 00-.073.043l-.01.007a.405.405 0 00-.065.065l-.007.01a.392.392 0 00-.043.073l-.003.007a.388.388 0 00-.016.043v.005a.392.392 0 00-.01.038l-.001.014A.407.407 0 000 1.36V1.418l.001.003a.393.393 0 00.007.042v.005l.83 3.59a.39.39 0 00.104.189l5.742 5.742-1.14 1.141a1.167 1.167 0 00-.506-.114 1.174 1.174 0 00-.829 2l.323.324a1.167 1.167 0 00-.664.992 1.167 1.167 0 00-1.105 1.105 1.161 1.161 0 00-1.01.705 1.164 1.164 0 00-.582-.154c-.314 0-.608.122-.829.343a1.164 1.164 0 00-.343.83c0 .312.122.606.343.828L2 20.646a1.17 1.17 0 002.001-.829c0-.207-.054-.406-.154-.581a1.177 1.177 0 00.704-1.01 1.167 1.167 0 001.105-1.106 1.161 1.161 0 00.992-.665l.324.324c.22.221.515.343.829.343a1.174 1.174 0 001.058-1.677l1.14-1.141 1.142 1.14a1.167 1.167 0 00-.114.506 1.167 1.167 0 001.172 1.172c.313 0 .607-.122.829-.343l.323-.323a1.166 1.166 0 00.992.664 1.17 1.17 0 001.105 1.105 1.162 1.162 0 00.705 1.01A1.172 1.172 0 0018 20.646l1.657-1.657a1.17 1.17 0 000-1.658zM18.422 4.776l-5.66 5.66-.829-.828 6.986-6.986-.497 2.154zm-2.21-2.21l2.155-.496-6.986 6.986-.829-.829 5.66-5.66zm-8.974 8.976l.829.828-1.095 1.095-.828-.83 1.094-1.093zm-4.132 8.551a.39.39 0 01-.553 0L.896 18.436a.388.388 0 010-.553.387.387 0 01.552 0l1.657 1.658a.388.388 0 010 .552zm.552-1.657a.39.39 0 01-.553 0l-.552-.552a.391.391 0 01.552-.553l.552.553a.39.39 0 01.001.552zm1.104-1.105a.388.388 0 01-.552 0l-.552-.552a.391.391 0 01.552-.552l.552.552a.388.388 0 010 .552zm1.105-1.104a.389.389 0 01-.552 0l-.552-.553a.391.391 0 01.547-.557l.562.561a.392.392 0 01-.005.549zm2.21 0a.389.389 0 01-.552 0L6.43 15.132l-.01-.01-.552-.553a.433.433 0 00-.01-.01l-1.096-1.095a.391.391 0 01.553-.552l1.38 1.381.005.004 1.377 1.377a.39.39 0 010 .553zm.276-1.382l-.828-.828 1.094-1.094.829.828-1.095 1.094zm-.839-4.132l-5.94-5.94-.497-2.154 2.57 2.57a.39.39 0 00.552 0 .39.39 0 000-.553l-2.57-2.57 2.155.498 5.94 5.939 2.762 2.762 1.37 1.37-.828.83-6.593-6.593a.39.39 0 00-.552.552l6.592 6.593-.829.828-4.132-4.132zm6.064 4.41l-.009.01-1.094 1.094a.388.388 0 01-.552 0 .388.388 0 010-.553l1.377-1.377.004-.004.003-.004 1.378-1.377a.388.388 0 01.552 0 .388.388 0 010 .552l-1.094 1.095-.01.01-.555.554zm1.107 1.104a.391.391 0 01-.557-.548l.561-.562a.392.392 0 01.663.28c0 .105-.04.203-.114.277l-.553.552zm1.105 1.104a.387.387 0 01-.552 0 .388.388 0 010-.552l.552-.552a.387.387 0 01.552 0 .388.388 0 010 .552l-.552.552zm.552 1.105a.389.389 0 010-.552l.553-.553a.389.389 0 01.552 0 .39.39 0 010 .553l-.553.553a.391.391 0 01-.552-.001zm2.762 0l-1.657 1.657a.388.388 0 01-.553 0 .386.386 0 01-.114-.276c0-.104.04-.202.115-.276l.552-.552.553-.553.552-.552a.388.388 0 01.552 0 .39.39 0 010 .552z"/></g><defs><clipPath id="bbclip0"><path transform="translate(0 .99)" d="M0 0h20v20H0z"/></clipPath></defs></symbol><symbol viewBox="0 0 20 20" id="telegram" xmlns="http://www.w3.org/2000/svg"><g clip-path="url(#bcclip0)"><path d="M15.05 4.762L6.823 9.828a1.23 1.23 0 00-.536 1.38l.89 3.125a.606.606 0 00.632.442.606.606 0 00.56-.528l.232-1.713c.031-.23.142-.445.313-.604l6.787-6.31a.54.54 0 00-.653-.858zm-6.678 6.585a1.811 1.811 0 00-.56 1.08l-.112.831-.645-2.268a.431.431 0 01.187-.483l6.026-3.711-4.896 4.55z"/><path d="M19.675 1.46a.919.919 0 00-.926-.156L.589 8.309A.913.913 0 000 9.172a.914.914 0 00.598.858l4.242 1.583 1.655 5.321a.919.919 0 001.46.44l2.466-2.01a.338.338 0 01.41-.012l4.45 3.23a.917.917 0 001.44-.557l3.26-15.676a.92.92 0 00-.306-.889zm-.474.727l-3.26 15.676a.12.12 0 01-.075.09.12.12 0 01-.117-.016l-4.449-3.23a1.133 1.133 0 00-1.383.039l-2.467 2.01a.12.12 0 01-.112.023.12.12 0 01-.082-.081L5.543 11.19a.399.399 0 00-.241-.255L.877 9.284a.116.116 0 01-.08-.116c0-.039.013-.09.079-.115l18.16-7.006a.118.118 0 01.123.02.122.122 0 01.042.12z"/><path d="M16.698 9.85a.398.398 0 00-.474.304l-.06.28a.398.398 0 00.779.168l.06-.279a.399.399 0 00-.305-.473zm-.398 1.834a.398.398 0 00-.474.305l-.916 4.221a.398.398 0 00.779.17l.916-4.222a.398.398 0 00-.305-.474z"/></g><defs><clipPath id="bcclip0"><path d="M0 0h20v20H0z"/></clipPath></defs></symbol><symbol viewBox="0 0 20 20" id="twitter" xmlns="http://www.w3.org/2000/svg"><g clip-path="url(#bdclip0)"><path d="M5.574 6.379l.018.008a.39.39 0 00.518-.192.39.39 0 00-.192-.518l-.016-.007a.39.39 0 10-.328.709z"/><path d="M19.908 3.79a.39.39 0 00-.457-.106c-.238.106-.48.199-.725.278.318-.403.565-.863.727-1.36a.39.39 0 00-.571-.457 7.466 7.466 0 01-2.183.867 4.346 4.346 0 00-3.002-1.208 4.337 4.337 0 00-4.306 4.804 10.845 10.845 0 01-1.813-.33.39.39 0 00-.205.755c.8.217 1.63.349 2.464.39a.39.39 0 00.4-.475 3.555 3.555 0 013.46-4.363 3.56 3.56 0 012.589 1.12.39.39 0 00.36.116 8.214 8.214 0 001.56-.468 3.567 3.567 0 01-1.061.976.39.39 0 00.246.723c.361-.042.719-.11 1.07-.2-.32.336-.67.64-1.05.914a.39.39 0 00-.163.326l.011.506c-.002 5.318-4.05 10.817-10.822 10.817a10.81 10.81 0 01-4.46-.96 8.247 8.247 0 004.49-1.742.39.39 0 00-.232-.698 3.568 3.568 0 01-3.076-1.89l.13.002c.387 0 .77-.05 1.137-.147a.39.39 0 00-.023-.76 3.569 3.569 0 01-2.8-2.908 4.18 4.18 0 001.334.255.391.391 0 00.227-.716 3.557 3.557 0 01-1.343-4.23 11.653 11.653 0 002.143 1.855.39.39 0 10.436-.649A10.88 10.88 0 012.03 2.67a.391.391 0 00-.64.049 4.312 4.312 0 00-.588 2.18c0 .953.31 1.86.864 2.598a3.77 3.77 0 01-.313-.154.39.39 0 00-.58.342v.048c0 1.445.722 2.758 1.85 3.552l-.008-.001a.391.391 0 00-.444.504 4.345 4.345 0 003.01 2.861 7.492 7.492 0 01-3.853 1.05c-.3 0-.592-.017-.895-.05a.39.39 0 00-.254.717 11.573 11.573 0 006.257 1.832c1.788 0 3.461-.356 4.974-1.056a10.999 10.999 0 003.644-2.73c1.897-2.153 2.986-5.002 2.986-7.817v-.01l-.008-.307a8.297 8.297 0 001.901-2.019.39.39 0 00-.026-.468z"/><path d="M14.715 11.29a.39.39 0 00-.536.134v.001a.39.39 0 10.67.4.39.39 0 00-.134-.535zm-.763 1.176a.39.39 0 00-.55.053A8.71 8.71 0 0111 14.553a.39.39 0 00.387.679 9.49 9.49 0 002.618-2.216.39.39 0 00-.053-.55z"/></g><defs><clipPath id="bdclip0"><path d="M0 0h20v20H0z"/></clipPath></defs></symbol><symbol viewBox="0 0 20 21" id="wheel-of-fortune" xmlns="http://www.w3.org/2000/svg"><g clip-path="url(#beclip0)"><path d="M20 15.666V2.555H0v13.111h7.828v1.918H5.773a.45.45 0 00-.45.45v1.39h9.354v-1.39a.45.45 0 00-.45-.45h-2.055v-1.918H20zM.587 3.142h18.826v11.937H.587V3.142zM14.09 18.837H5.91v-.666h8.18v.666zm-2.505-1.253h-3.17v-1.918h3.17v1.918z"/><path d="M8.434 5.372h.626v.587h-.626v-.587zm1.253 0h.626v.587h-.626v-.587zm1.253 0h.626v.587h-.627v-.587z"/><path d="M1.252 14.414h17.495v-2.798h-.587v2.211h-1.61a6.542 6.542 0 00-4.497-5.934l-.184.557a5.957 5.957 0 014.092 5.377h-.666c-.092-2.414-2.034-4.58-4.42-4.937l1.22-1.951h-4.19l1.22 1.95c-2.386.359-4.328 2.524-4.42 4.938h-.666A5.956 5.956 0 018.13 8.45l-.184-.557a6.543 6.543 0 00-4.496 5.934H1.84V4.395h16.32v6.595h.587V3.808H1.252v10.606zM10 13.162a.96.96 0 01.913.665H9.087a.96.96 0 01.913-.665zm1.518.665a1.522 1.522 0 00-.057-.21l2.758-1.593c.276.55.447 1.161.488 1.803h-3.19zm2.406-2.311l-2.757 1.592a1.57 1.57 0 00-.154-.154l1.592-2.759c.523.35.972.8 1.32 1.321zm-2.888-3.99L10 9.183 8.964 7.526h2.072zM10 10.29l.535-.856a4.649 4.649 0 011.563.465l-1.594 2.76a1.53 1.53 0 00-.21-.057V10.99h-.588v1.613a1.547 1.547 0 00-.21.057L7.901 9.9a4.65 4.65 0 011.563-.465l.535.856zm-2.605-.096l1.592 2.759c-.055.048-.106.1-.154.154l-2.757-1.592a4.783 4.783 0 011.319-1.32zm-1.615 1.83l2.758 1.592a1.53 1.53 0 00-.057.211H5.293a4.67 4.67 0 01.488-1.803z"/><path d="M3.092 6.606v-.96h.959V5.06H2.505v1.546h.587z"/></g><defs><clipPath id="beclip0"><path transform="translate(0 .99)" d="M0 0h20v20H0z"/></clipPath></defs></symbol><symbol viewBox="0 0 20 20" id="youtube" xmlns="http://www.w3.org/2000/svg"><path d="M12.885 16.308c-.918.032-1.888.047-2.885.047-2.88 0-5.43-.13-6.818-.346-1.484-.23-2.074-.922-2.254-2.641-.196-1.881-.196-4.828 0-6.709.18-1.719.77-2.41 2.254-2.641.24-.038.524-.074.841-.107a.39.39 0 10-.08-.777c-.331.035-.628.072-.882.112-.925.144-1.574.455-2.041.978C.539 4.762.263 5.51.15 6.578c-.201 1.927-.201 4.945 0 6.871.112 1.069.388 1.816.869 2.354.467.523 1.116.834 2.041.978 1.426.223 4.02.356 6.939.356 1.005 0 1.985-.016 2.911-.048a.39.39 0 00-.026-.78zm6.964-9.73c-.112-1.068-.388-1.816-.869-2.354-.467-.523-1.116-.834-2.041-.978-1.427-.222-4.02-.355-6.94-.355-1.004 0-1.984.016-2.91.047a.39.39 0 10.026.781A85.58 85.58 0 0110 3.672c2.88 0 5.43.13 6.819.346 1.483.232 2.073.923 2.253 2.642.197 1.88.197 4.827 0 6.708-.18 1.72-.77 2.41-2.253 2.642-.241.037-.525.073-.842.106a.39.39 0 10.08.777c.331-.034.628-.072.882-.111.925-.145 1.574-.455 2.041-.978.481-.538.757-1.286.869-2.355.201-1.926.201-4.944 0-6.87z"/><path d="M13.22 9.68L8.384 6.695a.39.39 0 00-.596.332V13a.39.39 0 00.596.332l4.835-2.987a.39.39 0 000-.664zM8.57 12.3V7.727l3.7 2.286-3.7 2.287zM5.54 3.79zm8.893 12.448a.39.39 0 10.052.78.39.39 0 10-.052-.78z"/></symbol></svg>